<svg width="96" height="111" fill="none" xmlns="http://www.w3.org/2000/svg"><path d="M47.722 109.29C28.331 103.549 16.64 93.79 9.798 85.5c-3.429-4.156-5.645-7.95-7.002-10.696a38.439 38.439 0 01-1.432-3.243A22.568 22.568 0 011 70.54V15.267L47.72 1.105l.003.002.003-.001 46.334 14.16v55.276l-.05.152c-.065.195-.167.489-.312.87-.289.76-.748 1.87-1.42 3.243-1.346 2.746-3.544 6.54-6.945 10.695-6.786 8.291-18.38 18.048-37.61 23.788z" fill="#F5F5F5" stroke="#F5F5F5" stroke-width="2"/><g clip-path="url(#clip0)"><path d="M48 48l2 .5 1.5 1 1 2v4l-1 1.5-3 1h-2l-3-2-.5-5c.667-.833 2.1-2.5 2.5-2.5.4 0 1.833-.333 2.5-.5z" fill="#FCB317"/><path d="M70.782 38.664l-4.689 2.765V38.11a.786.786 0 00-.777-.79.77.77 0 00-.777.79v4.24l-3.575 2.105-.026-8.556a.786.786 0 00-.777-.79.786.786 0 00-.777.79l.026 9.452-6.657 3.923-4.016-2.344-.025-7.82 8.056-4.738c.362-.21.492-.685.285-1.08a.786.786 0 00-1.062-.29l-7.254 4.292V33.11l3.601-2.106c.363-.21.492-.685.285-1.08a.78.78 0 00-1.062-.29l-2.824 1.66V25.79a.786.786 0 00-.777-.79.786.786 0 00-.777.79v5.529L44.36 29.66c-.363-.21-.83-.079-1.062.29-.208.368-.078.842.285 1.08l3.6 2.105v4.187l-7.279-4.292c-.362-.21-.829-.079-1.062.29-.207.368-.078.842.285 1.08l8.056 4.712.026 7.82-4.015 2.369-6.683-3.897-.026-9.452a.786.786 0 00-.777-.79.786.786 0 00-.777.79l.026 8.557-3.575-2.08V38.19a.786.786 0 00-.777-.79.786.786 0 00-.777.79v3.318l-4.663-2.738c-.363-.211-.83-.08-1.062.29-.207.368-.078.842.285 1.079l4.714 2.738-2.85 1.658c-.362.211-.491.685-.284 1.08a.78.78 0 001.062.29l3.6-2.133 3.575 2.08-7.279 4.291c-.362.211-.492.685-.285 1.08.208.395.674.5 1.063.29l8.03-4.74 6.683 3.897v4.713l-6.657 3.923-8.056-4.713c-.363-.21-.83-.08-1.063.29-.207.368-.077.842.285 1.079l7.305 4.265-3.575 2.106-3.6-2.106c-.363-.21-.83-.079-1.062.29-.207.368-.078.842.285 1.08l2.823 1.658-4.662 2.738c-.363.21-.493.684-.285 1.08a.78.78 0 001.062.289l4.688-2.764v3.317c0 .421.337.79.777.79.13 0 .26-.053.389-.106a.788.788 0 00.388-.684v-4.239l3.575-2.106.026 8.556c0 .422.337.79.777.79.13 0 .26-.052.389-.105a.788.788 0 00.388-.685l-.025-9.451 6.657-3.923 4.015 2.343.026 7.82-8.03 4.738c-.363.211-.493.685-.285 1.08a.78.78 0 001.062.29l7.227-4.318v4.186l-3.6 2.132c-.363.211-.493.685-.286 1.08a.78.78 0 001.062.29l2.824-1.66v5.504c0 .42.337.79.777.79.13 0 .26-.053.389-.106a.788.788 0 00.388-.684v-5.503l2.824 1.659a.75.75 0 00.777 0c.103-.08.207-.158.285-.29.207-.369.078-.843-.285-1.08l-3.6-2.106v-4.186l7.278 4.265a.749.749 0 00.777 0 1 1 0 00.285-.29c.208-.368.078-.842-.285-1.079l-8.056-4.713-.026-7.819 4.015-2.37 6.684 3.897.026 9.452c0 .421.336.79.777.79.13 0 .259-.027.388-.106a.788.788 0 00.389-.684l-.026-8.557 3.575 2.08v4.213c0 .42.336.79.777.79.13 0 .285-.053.388-.106a.788.788 0 00.389-.684v-3.318l4.714 2.738a.75.75 0 00.777 0 .986.986 0 00.285-.29c.208-.368.078-.842-.285-1.079l-4.714-2.738 2.824-1.658c.362-.211.492-.685.284-1.08a.78.78 0 00-1.062-.29l-3.6 2.133-3.575-2.08 7.279-4.291c.363-.211.492-.685.285-1.08a.78.78 0 00-1.062-.29l-8.056 4.74-6.684-3.897v-4.713l6.658-3.923 8.056 4.713a.811.811 0 00.777 0 1 1 0 00.285-.29c.207-.368.078-.842-.285-1.079L61.767 45.8l3.575-2.106 3.6 2.106c.26.132.545.132.778 0a1 1 0 00.285-.29c.207-.368.077-.842-.285-1.079l-2.824-1.658 4.663-2.765c.362-.21.492-.684.285-1.08-.233-.342-.7-.473-1.062-.263zM52.027 51.54v3.817l-.777.448-2.487 1.474-.777.448-.777-.448-2.487-1.448-.777-.447V50.67l.777-.448 2.487-1.474.777-.448.777.448 2.487 1.448.777.448v.895z" fill="#000"/></g><defs><clipPath id="clip0"><path fill="#fff" d="M24 25h48v56H24z"/></clipPath></defs></svg>