<svg width="96" height="111" fill="none" xmlns="http://www.w3.org/2000/svg"><path d="M47.722 109.29C28.331 103.549 16.64 93.79 9.798 85.5c-3.429-4.156-5.645-7.95-7.002-10.696a38.439 38.439 0 01-1.432-3.243A22.568 22.568 0 011 70.54V15.267L47.72 1.105l.003.002.003-.001 46.334 14.16v55.276l-.05.152c-.065.195-.167.489-.312.87-.289.76-.748 1.87-1.42 3.243-1.346 2.746-3.544 6.54-6.945 10.695-6.786 8.291-18.38 18.048-37.61 23.788z" fill="#F5F5F5" stroke="#F5F5F5" stroke-width="2"/><circle cx="60.5" cy="59.5" r="2.5" fill="#FCB317"/><path d="M41.5 39l2.5-2.5h1l1-.5c.5.167 1.6.5 2 .5.4 0 1.167.333 1.5.5.5.333 1.5 1.1 1.5 1.5 0 .4.667 1.167 1 1.5l.5 2.5c-.333.667-1 2.1-1 2.5 0 .4-1 1.167-1.5 1.5h-7.5l-1.5-2V41c0-.4.333-1.5.5-2z" fill="#FCB317"/><path d="M69.5 53.954h-.203v-8.786c0-2.255-1.569-4.134-3.676-4.54V32.2c0-.957-.762-1.735-1.7-1.735h-4.975a.69.69 0 00-.683.697.69.69 0 00.683.698h4.976c.183 0 .333.152.333.34v13.456h-1.093V35.91a.7.7 0 00-.364-.616 4.625 4.625 0 01-1.908-1.949.682.682 0 00-.604-.37H32.527a.681.681 0 00-.603.37 4.626 4.626 0 01-1.91 1.949.7.7 0 00-.363.616v9.745h-1.093V32.2c0-.188.15-.34.334-.34h30.41a.69.69 0 00.684-.698.69.69 0 00-.683-.697H28.892c-.938 0-1.7.778-1.7 1.735v8.347h-.006c-1.757 0-3.186 1.459-3.186 3.252v27.483c0 1.793 1.429 3.252 3.186 3.252H66.11c1.757 0 3.186-1.459 3.186-3.252v-5.249h.202c1.38 0 2.501-1.145 2.501-2.553v-6.973c0-1.408-1.122-2.553-2.5-2.553zM65.62 42.06c1.34.379 2.31 1.628 2.31 3.109v1.895a4.65 4.65 0 00-2.31-1.295V42.06zm-34.603-5.745a5.993 5.993 0 001.904-1.944h26.97a5.99 5.99 0 001.903 1.944v9.342h-9.84a6.764 6.764 0 001.038-3.622c0-3.708-2.955-6.724-6.586-6.724-3.632 0-6.587 3.016-6.587 6.724 0 1.306.363 2.551 1.038 3.622h-9.84v-9.342zM46.69 41.28v-1.908c.712.054.956.401 1.254.401.392 0 .563-.499.563-.748 0-.63-1.127-.836-1.817-.857v-.282c0-.141-.18-.271-.361-.271-.202 0-.361.13-.361.271v.303c-1.063.142-2.061.738-2.061 2.115 0 1.388 1.094 1.811 2.06 2.18v2.158c-.934-.108-1.253-.813-1.657-.813-.329 0-.595.455-.595.759 0 .381.382.801.984 1.069h-2.12a5.343 5.343 0 01-1.392-3.622c0-2.939 2.341-5.33 5.22-5.33 2.878 0 5.22 2.391 5.22 5.33a5.342 5.342 0 01-1.393 3.622H47.48c.746-.358 1.217-1.045 1.217-2.056 0-1.475-1.063-1.963-2.008-2.32zm.712 2.462c0 .51-.33.792-.797.89v-1.888c.457.206.797.467.797.998zm-1.35-4.338v1.638c-.488-.195-.85-.401-.85-.879 0-.412.32-.672.85-.759zm-18.866 2.538h.006v3.715h-.006c-1.003 0-1.82-.833-1.82-1.857s.816-1.858 1.82-1.858zm-1.82 4.526l.014.009c.057.04.115.078.175.114l.033.02c.053.032.107.062.162.09l.035.019c.063.03.126.06.19.087l.042.017c.058.023.117.045.177.065l.031.011a3.042 3.042 0 00.448.109l.02.004a3.145 3.145 0 00.493.038h37.432a3.246 3.246 0 01.266.013c1.547.125 2.792 1.352 3.012 2.884v.006c.008.05.014.1.019.151l.004.056c.003.035.006.07.007.106l.002.048H25.366v-3.847zM67.931 69.13H28.058a.69.69 0 00-.683.697.69.69 0 00.683.698H67.93v.758c0 1.024-.816 1.857-1.819 1.857H27.186c-1.003 0-1.82-.833-1.82-1.857v-.758h3.095a.69.69 0 00.683-.698.69.69 0 00-.683-.697h-3.095V51.71h42.565v2.245h-7.945c-2.956 0-5.413 2.225-5.848 5.121a6.18 6.18 0 00-.068.918c0 3.33 2.654 6.04 5.916 6.04h7.945v3.096zm2.703-5.649c0 .639-.51 1.158-1.135 1.158h-9.513c-2.51 0-4.55-2.084-4.55-4.645 0-2.56 2.041-4.644 4.55-4.644h9.513c.625 0 1.135.52 1.135 1.158v6.973z" fill="#000"/><path d="M62.814 57.765a3.046 3.046 0 00-4.365 0 3.201 3.201 0 000 4.456 3.045 3.045 0 004.365 0 3.201 3.201 0 000-4.456zm-.966 3.47a1.697 1.697 0 01-2.432 0 1.784 1.784 0 010-2.484 1.697 1.697 0 012.432 0c.67.685.67 1.799 0 2.483z" fill="#000"/></svg>