<svg width="96" height="111" fill="none" xmlns="http://www.w3.org/2000/svg"><path d="M47.722 109.29C28.331 103.549 16.64 93.79 9.798 85.5c-3.429-4.156-5.645-7.95-7.002-10.696a38.439 38.439 0 01-1.432-3.243A22.568 22.568 0 011 70.54V15.267L47.72 1.105l.003.002.003-.001 46.334 14.16v55.276l-.05.152c-.065.195-.167.489-.312.87-.289.76-.748 1.87-1.42 3.243-1.346 2.746-3.544 6.54-6.945 10.695-6.786 8.291-18.38 18.048-37.61 23.788z" fill="#F5F5F5" stroke="#F5F5F5" stroke-width="2"/><path d="M56 40.5L67.5 28l3.5 3.5-3.5 4L59 44l-2-1.5-1-2zM43.5 49l4.5-4 4.5 4.5.5 10h-9.5l-.5-6 .5-4.5z" fill="#FCB317"/><path d="M72.476 57.89a.84.84 0 00-.917.2L68 61.833V39.61h.004l3.396-3.667a.833.833 0 00-.046-1.178l-1.223-1.138 1.698-1.833a.833.833 0 00-.047-1.178l-3.666-3.395a.833.833 0 00-1.178.045l-5.925 6.398H32.168A4.171 4.171 0 0028 29.498h-.833A4.171 4.171 0 0023 33.665v35.833c0 .46.373.834.834.834h12.614l-1.75 2.101a.833.833 0 00.108 1.173l3.842 3.2a.834.834 0 001.174-.107l4.266-5.125c.294-.355.484-.785.546-1.242h15.27l-5.008 5.259a.833.833 0 00.604 1.407h16.666c.46 0 .834-.373.834-.833v-17.5a.834.834 0 00-.524-.774zM69.61 35.416L68 37.158v-1.225l1-1.085.611.567zm-3.278-.148v.011l-7.047 7.617-2.448-2.264 8.49-9.175 2.448 2.264-1.433 1.547h-.01zm-8.648 8.416l-1.917.56.41-1.956 1.507 1.396zm9.908-14.674l2.446 2.264-1.132 1.225-2.447-2.265 1.133-1.224zm-40.426 2.156H28a2.5 2.5 0 012.5 2.5v31.688a4.124 4.124 0 00-2.5-.855h-.833a4.124 4.124 0 00-2.5.855V33.665a2.5 2.5 0 012.5-2.5zm0 35H28a2.5 2.5 0 012.5 2.5h-5.833a2.5 2.5 0 012.5-2.5zm15.64 4.343l-.533.64-2.561-2.132.532-.641a.833.833 0 011.174-.107l1.28 1.064c.355.294.403.82.11 1.173h-.002v.003zm-3.732 4.484l-2.562-2.133 2.133-2.563 2.562 2.133-2.133 2.563zm5.21-6.327a2.476 2.476 0 00-.52-.612l-1.28-1.065a2.5 2.5 0 00-3.52.321l-1.132 1.356h-5.666V35.332h27.305l-4.423 4.779a.81.81 0 00-.174.314c-.008.025-.02.05-.027.077l-.995 4.756a.833.833 0 001.05.97l4.666-1.36c.022-.006.04-.019.06-.026.022-.008.044-.019.066-.03a.826.826 0 00.25-.175l6.388-6.905v25.85l-4.841 5.083H44.284zm27.048 6.666H57.444l13.89-14.583v14.584z" fill="#000"/><path d="M62.23 73.15a.834.834 0 00.77.514h5.833c.46 0 .833-.373.833-.833v-5.834a.833.833 0 00-1.422-.589l-5.834 5.833a.834.834 0 00-.18.909zM68 69.008v2.988h-2.99L68 69.01zm-8.334-10.343h-5.833v-9.167a.843.843 0 00-.245-.59l-5-5a.833.833 0 00-1.178 0l-5 5a.844.844 0 00-.243.59v9.167h-5.834a.833.833 0 100 1.666h23.334a.833.833 0 000-1.666zM48 45.676l2.988 2.989h-5.976L48 45.676zm-4.167 4.655h8.334v8.334h-8.334V50.33zm3.333-9.999h1.667v1.667h-1.667v-1.667zm0 21.668h1.667v1.667h-1.667V62z" fill="#000"/><path d="M67.5 28L56 40.5l3 3.5" stroke="#000"/></svg>