<svg width="96" height="111" fill="none" xmlns="http://www.w3.org/2000/svg"><path d="M47.722 109.29C28.331 103.549 16.64 93.79 9.798 85.5c-3.429-4.156-5.645-7.95-7.002-10.696a38.439 38.439 0 01-1.432-3.243A22.568 22.568 0 011 70.54V15.267L47.72 1.105l.003.002.003-.001 46.334 14.16v55.276l-.05.152c-.065.195-.167.489-.312.87-.289.76-.748 1.87-1.42 3.243-1.346 2.746-3.544 6.54-6.945 10.695-6.786 8.291-18.38 18.048-37.61 23.788z" fill="#F5F5F5" stroke="#F5F5F5" stroke-width="2"/><path d="M69.5 30.5H26l-2 1V39h48v-7.5c0-.4-1.667-.833-2.5-1z" fill="#FCB317"/><path d="M60.344 64.949a.78.78 0 10-1.25.937l2.5 3.333a.78.78 0 00.625.313l.04-.001a.782.782 0 00.63-.379l3.75-6.25a.781.781 0 10-1.34-.804l-3.152 5.254-1.803-2.403z" fill="#000"/><path d="M69.875 29.69H58.157v-3.909a.78.78 0 10-1.563 0v3.91H40.188v-3.91a.78.78 0 10-1.563 0v3.91h-12.5A3.125 3.125 0 0023 32.816v39.059C23 73.601 24.4 75 26.125 75h43.75C71.601 75 73 73.6 73 71.875v-39.06a3.125 3.125 0 00-3.125-3.124zm-43.75 1.563h12.5v2.34a.78.78 0 101.563 0v-2.34h16.406v2.34a.78.78 0 101.563 0v-2.34h11.718c.862 0 1.563.7 1.563 1.563v5.465H24.563v-5.465c0-.862.7-1.563 1.562-1.563zm45.313 40.622c0 .862-.701 1.563-1.563 1.563h-43.75a1.565 1.565 0 01-1.563-1.563V39.844h46.876v32.031z" fill="#000"/><path d="M37.063 43.75h-6.25V50h6.25v-6.25zM35.5 48.438h-3.125v-3.126H35.5v3.126zm15.625-4.688h-6.25V50h6.25v-6.25zm-1.563 4.688h-3.124v-3.126h3.124v3.126zm15.626-4.688h-6.25V50h6.25v-6.25zm-1.563 4.688H60.5v-3.126h3.125v3.126zm-26.562 4.687h-6.25v6.25h6.25v-6.25zM35.5 57.813h-3.125v-3.126H35.5v3.126zm15.625-4.688h-6.25v6.25h6.25v-6.25zm-1.563 4.688h-3.124v-3.126h3.124v3.126zM37.063 62.5h-6.25v6.25h6.25V62.5zM35.5 67.188h-3.125v-3.126H35.5v3.126zM51.125 62.5h-6.25v6.25h6.25V62.5zm-1.563 4.688h-3.124v-3.126h3.124v3.126zm15.626-14.063h-6.25v6.25h6.25v-6.25zm-1.563 4.688H60.5v-3.126h3.125v3.126z" fill="#000"/></svg>