<svg width="57" height="40" viewBox="0 0 57 40" fill="none" xmlns="http://www.w3.org/2000/svg"><path d="M13.301 30.398a2.85 2.85 0 100 5.7 2.85 2.85 0 000-5.7zm0 3.8a.95.95 0 110-1.9.95.95 0 010 1.9zm30.399-3.8a2.85 2.85 0 100 5.7 2.85 2.85 0 000-5.7zm0 3.8a.95.95 0 110-1.9.95.95 0 010 1.9z" fill="#000"/><path d="M56.276 16.877l-6.544-7.37a2.85 2.85 0 00-2.137-.957H38.95v-5.7A2.853 2.853 0 0036.1 0H2.85A2.853 2.853 0 000 2.85v24.7a.95.95 0 00.95.95h.95v2.85a2.853 2.853 0 002.85 2.85h1.976a6.641 6.641 0 0013.148 0h17.252a6.641 6.641 0 0013.148 0h3.876A2.853 2.853 0 0057 31.35V18.772c0-.7-.258-1.373-.724-1.895zM1.9 26.6V2.85a.95.95 0 01.95-.95H36.1a.95.95 0 01.95.95V26.6H1.9zm4.826 5.7H4.75a.95.95 0 01-.95-.95V28.5h4.855a6.632 6.632 0 00-1.93 3.8zM13.3 38a4.75 4.75 0 110-9.5 4.75 4.75 0 010 9.5zm9.5-5.7h-2.926a6.632 6.632 0 00-1.929-3.8H22.8v3.8zm8.55 0H24.7v-3.8h6.65v3.8zm5.776 0H33.25v-3.8h5.805a6.632 6.632 0 00-1.929 3.8zM43.7 38a4.75 4.75 0 110-9.5 4.75 4.75 0 010 9.5zm11.4-6.65a.95.95 0 01-.95.95h-3.876a6.655 6.655 0 00-6.574-5.7h-4.75V10.45h3.8v9.5a2.853 2.853 0 002.85 2.85h9.5v8.55zm0-10.45h-9.5a.95.95 0 01-.95-.95v-9.5h2.945a.952.952 0 01.715.317l6.546 7.373a.952.952 0 01.244.632V20.9z" fill="#000"/></svg>