<svg width="31" height="31" viewBox="0 0 31 31" fill="none" xmlns="http://www.w3.org/2000/svg"><path d="M13.414 0H2.384a.894.894 0 00-.632.262l-1.49 1.49A.894.894 0 000 2.385v11.029c0 .493.4.894.894.894h12.52c.493 0 .894-.4.894-.894V.894c0-.494-.4-.894-.894-.894zm-.895 12.52H1.79V2.754l.966-.966h9.764v10.73zM30.803 1.826L29.611.336A.894.894 0 0028.913 0H17.586c-.494 0-.895.4-.895.894v12.52c0 .493.4.894.895.894h12.519c.494 0 .894-.4.894-.894V2.384c0-.202-.069-.4-.196-.558zm-1.592 10.693H18.48V1.79h10.003l.728.91v9.82zm-15.797 4.172H.894c-.494 0-.894.4-.894.895v11.029c0 .237.094.464.262.632l1.49 1.49a.894.894 0 00.633.262h11.029c.493 0 .894-.4.894-.894v-12.52c0-.493-.4-.894-.894-.894zm-.895 12.52H2.755l-.966-.967V18.48h10.73v10.73z" fill="#fff"/><path d="M26.23 6.26h-1.49V4.77a.894.894 0 00-1.789 0v1.49h-1.49a.894.894 0 000 1.788h1.49v1.49a.894.894 0 001.789 0v-1.49h1.49a.894.894 0 000-1.788zM4.834 26.165a.903.903 0 001.265 0l1.054-1.054 1.054 1.054a.903.903 0 001.264 0 .894.894 0 000-1.265l-1.054-1.054 1.054-1.054a.894.894 0 10-1.264-1.264L7.152 22.58l-1.054-1.053a.894.894 0 10-1.265 1.264l1.054 1.054L4.834 24.9a.895.895 0 000 1.265zm25.271-9.474h-12.52c-.493 0-.894.4-.894.895v12.519c0 .494.4.894.895.894h11.029a.894.894 0 00.632-.262l1.49-1.49a.894.894 0 00.262-.632v-11.03c0-.493-.4-.894-.894-.894zm-.894 11.553l-.967.967H18.48V18.48h10.73v9.764zM4.77 8.046h4.769a.894.894 0 000-1.788h-4.77a.894.894 0 000 1.788z" fill="#fff"/><path d="M21.46 26.53h4.77a.894.894 0 100-1.788h-4.77a.894.894 0 100 1.788zm0-3.577h4.77a.894.894 0 000-1.789h-4.77a.894.894 0 100 1.789z" fill="#fff"/></svg>