<svg width="31" height="30" viewBox="0 0 31 30" fill="none" xmlns="http://www.w3.org/2000/svg"><path stroke="#FCB317" stroke-width="2" d="M1 1h29v28H1z"/><path d="M25.136 16.138c-.092 0-.185.013-.28.039l-1.06.292-1.1-2.681c-.311-.76-1.233-1.378-2.054-1.378H10.343c-.82 0-1.742.618-2.054 1.378L7.19 16.465l-1.047-.288a1.055 1.055 0 00-.279-.039c-.5 0-.864.383-.864.91v.625c0 .615.5 1.116 1.116 1.116h.12l-.178.433c-.29.705-.525 1.9-.525 2.663v5.326c0 .616.5 1.117 1.116 1.117h1.458c.615 0 1.116-.501 1.116-1.117v-1.33h12.54v1.33c0 .616.5 1.117 1.116 1.117h1.457c.615 0 1.116-.501 1.116-1.117v-5.326c0-.763-.236-1.958-.525-2.663l-.178-.433h.135c.615 0 1.116-.5 1.116-1.116v-.625c0-.527-.363-.91-.864-.91zm-13.43 7.174a.448.448 0 01-.446.447H8.097a.448.448 0 01-.446-.447v-1.517c0-.246.2-.447.446-.447h3.163c.245 0 .446.201.446.447v1.517zm11.598 0a.448.448 0 01-.446.447h-3.162a.448.448 0 01-.447-.447v-1.517c0-.246.201-.447.447-.447h3.162c.245 0 .446.201.446.447v1.517zM6.4 18.64h18.2" stroke="#FCB317"/><path d="M2 5h28M2 9h28" stroke="#FCB317" stroke-width="2"/></svg>