<svg width="888" height="103" viewBox="0 0 888 103" fill="none" xmlns="http://www.w3.org/2000/svg"><path fill="#fff" stroke="#DDD" d="M.5.5h887v102H.5z"/><path d="M138.811 44.443h-7.151V61h-4.019V41.094h11.17v3.35zm9.173 12.483h-5.482L141.436 61h-4.252l6.22-19.906h3.678L153.344 61h-4.293l-1.067-4.074zm-4.607-3.35h3.719l-1.86-7.096-1.859 7.096zm15.859.424v7h-4.019V41.094h6.781c1.969 0 3.537.61 4.703 1.832 1.176 1.221 1.764 2.807 1.764 4.758 0 1.95-.579 3.49-1.736 4.62-1.158 1.13-2.762 1.696-4.813 1.696h-2.68zm0-3.35h2.762c.766 0 1.358-.25 1.777-.752.42-.5.629-1.23.629-2.187 0-.994-.214-1.782-.642-2.365-.429-.593-1.003-.893-1.723-.903h-2.803v6.207zm18.991 6.276h-5.483L171.678 61h-4.252l6.22-19.906h3.678L183.586 61h-4.293l-1.066-4.074zm-4.608-3.35h3.719l-1.859-7.096-1.86 7.096zM199.418 61h-4.006v-8.518h-5.933V61h-4.02V41.094h4.02v8.053h5.933v-8.053h4.006V61zm15.723-16.557h-4.922V61h-4.033V44.443h-4.84v-3.35h13.795v3.35zm12.058-3.35h4.02V61h-4.02V47.82L221.334 61h-4.033V41.094h4.033v13.193l5.865-13.193zM241.855 61v-7.164h-2.105L236.811 61h-4.334l3.527-8.613c-1.641-1.14-2.461-2.853-2.461-5.14 0-1.97.551-3.487 1.654-4.554 1.112-1.066 2.685-1.6 4.717-1.6h5.975V61h-4.034zm-4.279-13.44c0 1.103.196 1.905.588 2.407.392.492 1.003.738 1.832.738h1.859v-6.262h-1.996c-1.522 0-2.283 1.04-2.283 3.117zM269.445 61h-4.006v-8.518h-5.933V61h-4.02V41.094h4.02v8.053h5.933v-8.053h4.006V61zm12.989-4.074h-5.483L275.885 61h-4.252l6.221-19.906h3.677L287.793 61H283.5l-1.066-4.074zm-4.608-3.35h3.719l-1.859-7.096-1.86 7.096zm31.787.793c-.1 2.27-.738 3.988-1.914 5.154-1.176 1.167-2.834 1.75-4.976 1.75-2.252 0-3.979-.738-5.182-2.214-1.194-1.486-1.791-3.6-1.791-6.344v-3.35c0-2.734.62-4.84 1.859-6.316 1.24-1.486 2.963-2.229 5.168-2.229 2.17 0 3.815.606 4.936 1.819 1.13 1.212 1.773 2.953 1.928 5.222h-4.034c-.036-1.403-.255-2.37-.656-2.898-.392-.538-1.116-.807-2.174-.807-1.075 0-1.836.379-2.283 1.135-.446.747-.683 1.982-.711 3.705v3.76c0 1.978.219 3.336.656 4.074.447.738 1.208 1.108 2.284 1.108 1.057 0 1.786-.256 2.187-.766.401-.52.629-1.454.684-2.803h4.019zm14.957-9.926h-4.922V61h-4.033V44.443h-4.84v-3.35h13.795v3.35zM330.9 54v7h-4.019V41.094h6.781c1.969 0 3.537.61 4.703 1.832 1.176 1.221 1.764 2.807 1.764 4.758 0 1.95-.579 3.49-1.736 4.62-1.158 1.13-2.762 1.696-4.813 1.696h-2.68zm0-3.35h2.762c.766 0 1.358-.25 1.777-.752.42-.5.629-1.23.629-2.187 0-.994-.214-1.782-.642-2.365-.429-.593-1.003-.893-1.723-.903H330.9v6.207zm25.936 2.188c0 2.67-.634 4.744-1.9 6.22-1.258 1.477-3.008 2.215-5.25 2.215-2.234 0-3.988-.729-5.264-2.187-1.276-1.468-1.923-3.518-1.942-6.152v-3.405c0-2.734.634-4.867 1.901-6.398 1.267-1.54 3.026-2.31 5.277-2.31 2.215 0 3.96.756 5.237 2.269 1.276 1.504 1.923 3.618 1.941 6.344v3.404zm-4.033-3.336c0-1.796-.255-3.13-.766-4.006-.51-.875-1.303-1.312-2.379-1.312-1.066 0-1.855.423-2.365 1.271-.51.839-.775 2.12-.793 3.842v3.54c0 1.742.26 3.027.779 3.856.52.82 1.322 1.23 2.407 1.23 1.048 0 1.827-.4 2.337-1.202.511-.811.771-2.065.78-3.76v-3.459zm16.666-8.408h4.019V61h-4.019V47.82L363.604 61h-4.034V41.094h4.034v13.193l5.865-13.193zm19.715 3.35h-4.922V61h-4.033V44.443h-4.84v-3.35h13.795v3.35zm12.591 7.943h-6.261v5.277h7.41V61h-11.43V41.094h11.402v3.35h-7.382v4.703h6.261v3.24zm17.432-11.293V61h-4.033V44.443h-3.692l-.273 7.055c-.109 2.324-.374 4.17-.793 5.537-.41 1.358-1.016 2.356-1.818 2.994-.793.638-1.864.962-3.213.971h-.985v-3.336l.465-.041c.839-.1 1.44-.647 1.805-1.64.374-1.003.606-2.771.697-5.305l.26-9.584h11.58zm7.26 7.15h2.379c2.014 0 3.618.574 4.812 1.723 1.194 1.14 1.791 2.666 1.791 4.58 0 1.905-.583 3.45-1.75 4.635-1.166 1.175-2.711 1.782-4.635 1.818h-6.63V41.094h4.033v7.15zm0 3.336v6.084h2.433c.784 0 1.399-.292 1.846-.875.456-.592.684-1.349.684-2.27 0-.865-.224-1.567-.67-2.105-.438-.547-1.048-.825-1.832-.834h-2.461zm24.869 2.79c-.1 2.269-.738 3.987-1.914 5.153-1.176 1.167-2.835 1.75-4.977 1.75-2.251 0-3.978-.738-5.181-2.214-1.194-1.486-1.791-3.6-1.791-6.344v-3.35c0-2.734.619-4.84 1.859-6.316 1.24-1.486 2.962-2.229 5.168-2.229 2.169 0 3.814.606 4.936 1.819 1.13 1.212 1.772 2.953 1.927 5.222h-4.033c-.036-1.403-.255-2.37-.656-2.898-.392-.538-1.117-.807-2.174-.807-1.076 0-1.837.379-2.283 1.135-.447.747-.684 1.982-.711 3.705v3.76c0 1.978.219 3.336.656 4.074.447.738 1.208 1.108 2.283 1.108 1.058 0 1.787-.256 2.188-.766.401-.52.629-1.454.683-2.803h4.02zm14.957-9.927h-4.922V61h-4.033V44.443h-4.84v-3.35h13.795v3.35zM468.604 61V41.094h6.152c2.078 0 3.655.465 4.73 1.394 1.085.92 1.627 2.274 1.627 4.06 0 1.012-.223 1.883-.67 2.612a3.95 3.95 0 01-1.832 1.6c.894.255 1.582.77 2.065 1.545.483.765.724 1.713.724 2.843 0 1.933-.533 3.391-1.599 4.375-1.058.985-2.593 1.477-4.608 1.477h-6.589zm4.019-8.654v5.318h2.57c.72 0 1.267-.223 1.641-.67.374-.447.561-1.08.561-1.9 0-1.787-.648-2.703-1.942-2.748h-2.83zm0-2.926h2.092c1.577 0 2.365-.816 2.365-2.447 0-.903-.182-1.55-.547-1.942-.364-.392-.957-.588-1.777-.588h-2.133v4.977zm25.717 3.418c0 2.67-.634 4.744-1.901 6.22-1.257 1.477-3.007 2.215-5.25 2.215-2.233 0-3.987-.729-5.263-2.187-1.276-1.468-1.923-3.518-1.942-6.152v-3.405c0-2.734.634-4.867 1.901-6.398 1.267-1.54 3.026-2.31 5.277-2.31 2.215 0 3.96.756 5.236 2.269 1.276 1.504 1.924 3.618 1.942 6.344v3.404zm-4.033-3.336c0-1.796-.256-3.13-.766-4.006-.51-.875-1.303-1.312-2.379-1.312-1.066 0-1.855.423-2.365 1.271-.511.839-.775 2.12-.793 3.842v3.54c0 1.742.26 3.027.779 3.856.52.82 1.322 1.23 2.406 1.23 1.049 0 1.828-.4 2.338-1.202.511-.811.771-2.065.78-3.76v-3.459z" fill="#000"/><path d="M507.773 51.21l.985-10.116h9.638v3.308h-6.466l-.356 4.266c.748-.501 1.518-.752 2.311-.752 1.64 0 2.903.583 3.787 1.75.893 1.167 1.34 2.816 1.34 4.95 0 1.995-.529 3.604-1.586 4.825-1.058 1.222-2.47 1.832-4.238 1.832a5.94 5.94 0 01-2.913-.738 5.594 5.594 0 01-2.119-2.078c-.51-.884-.77-1.887-.779-3.008h3.828c.064.83.269 1.472.615 1.928.347.456.793.683 1.34.683.638 0 1.13-.305 1.477-.916.346-.62.519-1.54.519-2.761 0-1.149-.209-2.015-.629-2.598-.41-.583-.989-.875-1.736-.875-.729 0-1.294.25-1.695.752l-.246.342-3.077-.793zm34.481-10.116V61h-4.033V44.443h-3.692l-.273 7.055c-.11 2.324-.374 4.17-.793 5.537-.41 1.358-1.016 2.356-1.818 2.994-.793.638-1.864.962-3.213.971h-.985v-3.336l.465-.041c.839-.1 1.44-.647 1.805-1.64.373-1.003.606-2.771.697-5.305l.26-9.584h11.58zm13.521 11.293h-6.261v5.277h7.41V61h-11.43V41.094h11.402v3.35h-7.382v4.703h6.261v3.24zm16.639-7.944h-4.922V61h-4.033V44.443h-4.84v-3.35h13.795v3.35z" fill="#FCB317"/><path fill-rule="evenodd" clip-rule="evenodd" d="M94.719 61.386s-5.471 18.76-31.599 26.532V88c-.045-.013-.086-.028-.13-.04-.045.012-.086.027-.13.04v-.082C36.515 80.146 31 61.386 31 61.386v-37.65l31.86-9.657V14l.13.04.13-.04v.08l31.599 9.657v37.649z" fill="#F5F5F5"/><path fill="#FCB317" d="M64.512 44.34h6.808v6.241h-6.808z"/><path d="M79.085 46.338L63.283 31.664 47.48 46.338a.552.552 0 00.75.807l1.828-1.698v18.375h26.447V45.447l1.829 1.698a.549.549 0 00.778-.029.55.55 0 00-.028-.778zM75.404 62.72H51.16V44.423l12.121-11.255 12.122 11.255V62.72z" fill="#000" stroke="#000" stroke-width=".6"/><path d="M54.465 51.151h7.713v-7.714h-7.713v7.714zm1.102-6.612h5.51v5.51h-5.51v-5.51zm16.529-1.101h-7.713v7.713h7.713v-7.714zm-1.102 6.611h-5.51v-5.51h5.51v5.51zM54.465 61.065h7.713v-7.713h-7.713v7.713zm1.102-6.611h5.51v5.51h-5.51v-5.51zm16.529-1.102h-7.713v7.713h7.713v-7.713zm-1.102 6.611h-5.51v-5.51h5.51v5.51z" fill="#000" stroke="#000" stroke-width=".6"/><path d="M661 28a2 2 0 012-2h193a2 2 0 012 2v50a2 2 0 01-2 2H663a2 2 0 01-2-2V28z" fill="#FCB317"/><path d="M725.008 58h-2.297v-9.46h-3.375V58h-2.297V46.625h7.969V58zm10.367-4.664c0 1.526-.362 2.71-1.086 3.555-.719.843-1.719 1.265-3 1.265-1.276 0-2.279-.416-3.008-1.25-.729-.838-1.099-2.01-1.109-3.515v-1.946c0-1.562.362-2.78 1.086-3.656.724-.88 1.729-1.32 3.015-1.32 1.266 0 2.263.432 2.993 1.297.729.859 1.099 2.067 1.109 3.625v1.945zm-2.305-1.906c0-1.026-.146-1.79-.437-2.29-.292-.5-.745-.75-1.36-.75-.609 0-1.059.243-1.351.727-.292.48-.443 1.211-.453 2.196v2.023c0 .995.148 1.73.445 2.203.297.469.755.703 1.375.703.599 0 1.044-.229 1.336-.687.292-.464.44-1.18.445-2.149V51.43zm13.297 9.367h-2.109V58h-5.383v2.79h-2.172l-.125-4.696h.758c.333-.308.596-.802.789-1.485.193-.682.328-1.575.406-2.68l.321-5.304h6.539v9.469h1.179l-.203 4.703zm-6.562-4.703h3.297v-7.555h-2.063l-.187 3.133c-.131 1.88-.48 3.354-1.047 4.422zM750.555 54v4h-2.297V46.625h3.875c1.125 0 2.021.349 2.687 1.047.672.698 1.008 1.604 1.008 2.719 0 1.114-.331 1.994-.992 2.64-.662.646-1.578.969-2.75.969h-1.531zm0-1.914h1.578c.437 0 .776-.143 1.015-.43.24-.286.36-.703.36-1.25 0-.567-.123-1.018-.367-1.351a1.175 1.175 0 00-.985-.516h-1.601v3.547zm15.32 1.25c0 1.526-.362 2.71-1.086 3.555-.719.843-1.719 1.265-3 1.265-1.276 0-2.279-.416-3.008-1.25-.729-.838-1.099-2.01-1.109-3.515v-1.946c0-1.562.362-2.78 1.086-3.656.724-.88 1.729-1.32 3.015-1.32 1.266 0 2.263.432 2.993 1.297.729.859 1.099 2.067 1.109 3.625v1.945zm-2.305-1.906c0-1.026-.146-1.79-.437-2.29-.292-.5-.745-.75-1.36-.75-.609 0-1.059.243-1.351.727-.292.48-.443 1.211-.453 2.196v2.023c0 .995.148 1.73.445 2.203.297.469.755.703 1.375.703.599 0 1.044-.229 1.336-.687.292-.464.44-1.18.445-2.149V51.43zm10.828-2.89h-4.078v2.17h1.36c1.151 0 2.067.33 2.75.985.682.651 1.023 1.524 1.023 2.617 0 1.089-.333 1.972-1 2.649-.667.672-1.549 1.018-2.648 1.039h-3.789V46.625h6.382v1.914zm-4.078 4.077v3.477h1.391c.448 0 .799-.167 1.055-.5.26-.339.39-.771.39-1.297 0-.495-.127-.896-.383-1.203-.25-.313-.599-.472-1.046-.477h-1.407zM785.234 58h-2.289v-4.867h-3.39V58h-2.297V46.625h2.297v4.602h3.39v-4.602h2.289V58zm8.227-4.922h-3.578v3.016h4.234V58h-6.531V46.625h6.516v1.914h-4.219v2.688h3.578v1.851zm8.359 0h-3.578v3.016h4.235V58h-6.532V46.625h6.516v1.914h-4.219v2.688h3.578v1.851z" fill="#fff"/></svg>