<svg width="10" height="10" viewBox="0 0 10 10" fill="none" xmlns="http://www.w3.org/2000/svg"><path d="M9.937 3.81l-.834-.833a.208.208 0 00-.147-.06h-.208v-.209a.21.21 0 00-.061-.147L7.02.894C6.686.56 6.126 0 4.998 0 3.87 0 3.353.517 2.975.894a.208.208 0 00.148.356c1.68 0 1.875.713 1.875 1.25 0 .446-.253.785-.414.958L5.945 4.82c.368-.25.892-.544 1.136-.522v.285a.21.21 0 00.06.148l1.042 1.041a.21.21 0 00.148.061h.007a.205.205 0 00.15-.07l1.458-1.667a.209.209 0 00-.01-.285zM.315 7.724A1.084 1.084 0 000 8.508a1.076 1.076 0 001.87.724l3.762-4.138L4.289 3.75.315 7.724z" fill="#fff"/></svg>