<svg width="17" height="15" viewBox="0 0 17 15" fill="none" xmlns="http://www.w3.org/2000/svg"><path d="M0 5.601v8.215c0 .567.46 1.027 1.027 1.027h3.08V4.574h-3.08C.46 4.574 0 5.034 0 5.601zM14.532 5.6H11.5a.505.505 0 01-.443-.254.505.505 0 01-.007-.51l1.07-1.925c.235-.422.259-.918.066-1.36a1.528 1.528 0 00-1.04-.882L10.393.48a.512.512 0 00-.506.155L5.79 5.183a2.566 2.566 0 00-.658 1.718v5.373A2.57 2.57 0 007.7 14.84h5.108a2.573 2.573 0 002.476-1.889l1.096-5.03A1.899 1.899 0 0014.532 5.6z" fill="#DDD"/></svg>