<svg width="165" height="92" viewBox="0 0 165 92" fill="none" xmlns="http://www.w3.org/2000/svg"><path fill-rule="evenodd" clip-rule="evenodd" d="M83.047 27.648h6.324v6.289h-6.324v-6.289z" fill="#FCB317"/><path fill-rule="evenodd" clip-rule="evenodd" d="M0 42.5L82.326 9.83s80.988 32.164 82.651 32.706C166.603 43.042 82.47 0 82.47 0L32.164 26.49l-.072-10.733-7.734 3.216-.036 10.914L0 42.5z" fill="#FCB317"/><path d="M12.322 89.048l1.988.144c0 .832-.29 1.518-.831 2.024-.579.506-1.337.76-2.313.76-1.265 0-2.205-.398-2.783-1.23-.47-.65-.723-1.554-.723-2.71 0-1.084.253-1.952.723-2.638.614-.868 1.518-1.265 2.819-1.265 1.048 0 1.843.253 2.385.795.506.506.759 1.156.759 1.988h-2.132c0-.362-.072-.651-.181-.868-.18-.325-.434-.506-.795-.506-.434 0-.759.253-.903.76-.145.36-.181.975-.181 1.806 0 .904.072 1.482.18 1.843.145.47.47.687.976.687.398 0 .687-.145.832-.398.108-.325.18-.686.18-1.192zm2.277-3.325v-1.446h6.36v1.446H18.9v6.071h-2.276v-6.071H14.6zm9.324-.108v1.843h.398c.397 0 .722-.073.94-.181a.737.737 0 00.469-.723.737.737 0 00-.47-.723c-.253-.144-.578-.216-.976-.216h-.361zm-2.277 6.216v-7.554h3.397c.904 0 1.627.181 2.169.506.614.362.903.904.903 1.627 0 .83-.325 1.445-.976 1.843-.578.361-1.337.542-2.349.542-.325 0-.614 0-.867-.036v3.072h-2.277zm6.758-3.795c0-1.084.253-1.988.76-2.674.613-.832 1.517-1.23 2.782-1.23 1.265 0 2.168.398 2.783 1.23.506.686.759 1.59.759 2.674 0 1.084-.253 1.987-.76 2.674-.614.831-1.517 1.229-2.782 1.229-1.265 0-2.169-.398-2.783-1.229-.506-.65-.759-1.554-.759-2.674zm2.458 0c0 .867.072 1.482.18 1.807.145.47.434.723.904.723.434 0 .723-.217.903-.687.109-.325.181-.94.181-1.807s-.072-1.482-.18-1.807c-.145-.47-.434-.723-.904-.723-.434 0-.723.217-.868.687-.18.361-.216.976-.216 1.807zm5.348-3.759h2.277v4.373l1.916-4.373h2.349v7.553h-2.277v-4.409l-1.916 4.41H36.21v-7.554zm7.264 1.446v-1.446h6.36v1.446h-2.059v6.071h-2.277v-6.071h-2.024zm7.011 6.108v-7.554h5.674v1.446h-3.397v1.518h2.277v1.445h-2.277v1.554h3.397v1.518h-5.674v.073zm7.156-7.554h5.746v7.553h-2.276v-6.07h-1.59v4.3c0 .578-.145 1.048-.47 1.41-.326.36-.723.505-1.302.505-.433 0-.867-.036-1.264-.144V90.6c.144.037.289.037.47.037.288 0 .47-.072.541-.18.073-.11.109-.326.109-.651v-5.53h.036zm9.216 6.144h.614c.397 0 .723-.072.94-.217.216-.144.325-.361.325-.686 0-.326-.109-.543-.325-.687-.217-.145-.543-.217-.94-.217h-.614v1.807zm-2.277-6.144h2.277v2.928h.94c.939 0 1.734.216 2.348.614.615.398.94.94.94 1.626 0 .76-.29 1.374-.867 1.771-.579.398-1.374.615-2.422.615H64.58v-7.554zm9.505 0v2.928h1.77v-2.928h2.277v7.553h-2.24v-3.108h-1.807v3.109h-2.277v-7.554h2.276zm4.662 7.553l2.132-7.553h3l1.915 7.553H83.48l-.362-1.517h-2.096l-.397 1.517h-1.88zm2.602-2.89h1.445l-.65-3.072-.795 3.071zm11.058 2.89h-2.276v-3.07h-.796l-1.264 3.072h-2.277l1.626-3.506a2.099 2.099 0 01-1.048-.795c-.253-.362-.398-.723-.398-1.12 0-.723.29-1.265.868-1.627.542-.325 1.228-.506 2.168-.506h3.397v7.553zm-2.313-6.143h-.506c-.433 0-.759.036-.94.144-.252.145-.397.398-.397.76 0 .614.434.939 1.265.939h.578v-1.843zm9.144-1.41v3.253l2.24-3.253h2.241l-1.988 2.494 1.952 5.06h-2.241l-1.229-3.253-.975 1.193v2.06H96.96v-7.554h2.277zm4.553 3.759c0-1.084.253-1.988.759-2.674.614-.832 1.518-1.23 2.783-1.23s2.168.398 2.783 1.23c.506.686.759 1.59.759 2.674 0 1.084-.253 1.987-.759 2.674-.615.831-1.518 1.229-2.783 1.229s-2.169-.398-2.783-1.229c-.506-.65-.759-1.554-.759-2.674zm2.458 0c0 .867.072 1.482.18 1.807.145.47.434.723.904.723.434 0 .723-.217.903-.687.109-.325.181-.94.181-1.807s-.072-1.482-.181-1.807c-.144-.47-.433-.723-.903-.723-.434 0-.723.217-.868.687-.144.361-.216.976-.216 1.807zm5.276 3.794v-7.553h3.18l.976 4.229 1.193-4.229h3.108v7.553h-2.277v-5.565l-1.59 5.566h-1.374l-1.445-5.747-.036 5.746h-1.735zm9.649 0v-7.553h6.361v7.553h-2.277v-6.07h-1.771v6.07h-2.313zm6.939 0l2.132-7.553h3l1.915 7.553h-2.313l-.361-1.517h-2.096l-.398 1.517h-1.879zm2.602-2.89h1.446l-.651-3.072-.795 3.071zm7.3-4.663v2.928h1.771v-2.928h2.277v7.553h-2.277v-3.108h-1.771v3.109h-2.277v-7.554h2.277zm5.313 0h2.277v4.373l1.915-4.373h2.349v7.553h-2.277v-4.409l-1.915 4.41h-2.349v-7.554zm13.805 7.553h-2.277v-3.07h-.795l-1.265 3.072h-2.276l1.626-3.506a2.097 2.097 0 01-1.048-.795c-.253-.362-.398-.723-.398-1.12 0-.723.289-1.265.868-1.627.542-.325 1.228-.506 2.168-.506h3.397v7.553zm-2.277-6.143h-.506c-.433 0-.759.036-.939.144-.253.145-.398.398-.398.76 0 .614.434.939 1.265.939h.578v-1.843z" fill="#FCB317"/><path fill-rule="evenodd" clip-rule="evenodd" d="M57.025 61.075a4.899 4.899 0 00-1.193-.795c-.47-.253-1.048-.398-1.662-.434V59.7c.94-.072 1.734-.47 2.421-1.192.542-.615.904-1.193 1.012-1.843.145-.615.18-1.265.18-1.952 0-.397 0-.831-.035-1.265a9.037 9.037 0 00-.217-1.373 8.267 8.267 0 00-.434-1.337 3.67 3.67 0 00-.795-1.157c-.361-.361-.723-.65-1.157-.867a5.878 5.878 0 00-1.337-.47 9.68 9.68 0 00-1.41-.217c-.469-.036-.939-.036-1.373-.036H34.294V72.17H51.46c.506 0 1.012 0 1.518-.037.506-.036.976-.072 1.41-.18a4.843 4.843 0 001.3-.506 4.173 4.173 0 001.193-.976c.361-.398.65-.795.831-1.229.181-.434.326-.867.434-1.3a5.35 5.35 0 00.145-1.302v-1.229a16.1 16.1 0 00-.181-2.24c-.036-.795-.434-1.482-1.084-2.096zM42.17 55.256v-1.301h5.747c.252 0 .542 0 .867.036.325.037.614.181.867.434.109.108.217.253.29.434.072.18.108.361.108.614 0 .145 0 .361-.036.542a1.902 1.902 0 01-.181.542 1.316 1.316 0 01-.831.578c-.362.073-.687.073-1.012.073H42.17v-1.952zm8.24 9.758c-.108.289-.18.47-.325.614-.072.109-.253.181-.542.326-.29.108-.795.18-1.554.18h-5.854v-3.65h6.072c.325 0 .686.036 1.048.072.397.073.686.253.94.615.216.289.325.614.325 1.048.036.253-.037.506-.109.795zm8.93-11.058h8.637v18.178h7.806V53.956h8.638v-5.999H59.34v6zm63.062 12.108a10.924 10.924 0 01-1.663-.217 4.205 4.205 0 01-1.373-.542c-.398-.253-.723-.614-.976-1.12-.036-.109-.108-.217-.18-.398a2.885 2.885 0 01-.181-.759c-.072-.325-.109-.686-.145-1.156a21.154 21.154 0 01-.072-1.699c0-.289 0-.65.036-1.012.036-.361.072-.759.109-1.156a5.98 5.98 0 01.216-1.157c.109-.397.253-.722.434-1.012.289-.47.614-.867.976-1.12.361-.253.795-.434 1.229-.578.469-.145.975-.18 1.517-.217h8.276v-6h-10.227c-.687 0-1.41.037-2.168.073-.759.072-1.518.18-2.277.398a9.616 9.616 0 00-2.169.94c-.686.397-1.301.975-1.879 1.698-.867 1.12-1.445 2.421-1.698 3.94-.253 1.517-.398 3.288-.398 5.312 0 1.156.036 2.168.145 3.071.108.904.216 1.699.397 2.386.181.686.398 1.337.687 1.879a8.72 8.72 0 00.976 1.482 6.96 6.96 0 001.59 1.518 6.936 6.936 0 001.879.903c.65.217 1.409.361 2.204.434.796.072 1.663.108 2.603.108h10.697v-6h-6.686a16.31 16.31 0 01-1.879 0z" fill="#fff"/><path fill-rule="evenodd" clip-rule="evenodd" d="M157.133 72.136l-.145-29.599h.073l-74.809-28.08L7.66 42.501V80.16h149.473v-8.061.037zm-7.77 2.819H15.358v-2.82h.072v-9.613h8.782v9.614h7.806V47.958h-.036v-5.674l-7.77 2.494v11.745H15.43l-.072-12.25 67.11-23.022 66.859 23.021v12.251h-8.746l-.108-11.745-7.59-2.494-.108 29.852h7.806v-9.613h8.782v9.613h.036v2.819h-.036z" fill="#fff"/><path fill-rule="evenodd" clip-rule="evenodd" d="M95.983 66.244H94.43v-3.831h13.191v-5.24H94.43V53.81h13.551v-5.854h-21.43v24.177h21.503V66.28H96.236c-.072-.036-.18-.036-.253-.036z" fill="#fff"/><path d="M81.672 27.648h-6.324v6.289h6.324v-6.289zm0 7.879h-6.324v6.325h6.324v-6.325zm7.699 0h-6.324v6.325h6.324v-6.325z" fill="#fff"/></svg>