<svg width="32" height="43" viewBox="0 0 32 43" fill="none" xmlns="http://www.w3.org/2000/svg"><mask id="a" fill="#fff"><path fill-rule="evenodd" clip-rule="evenodd" d="M0 16C0 7.178 7.177 0 16 0s16 7.178 16 16c0 11.804-14.762 25.833-15.39 26.425a.89.89 0 01-1.22 0C14.763 41.833 0 27.804 0 16z"/></mask><path fill-rule="evenodd" clip-rule="evenodd" d="M0 16C0 7.178 7.177 0 16 0s16 7.178 16 16c0 11.804-14.762 25.833-15.39 26.425a.89.89 0 01-1.22 0C14.763 41.833 0 27.804 0 16z" fill="#FCB317"/><path d="M16.61 42.425l.682.731.003-.003-.686-.728zm-1.22 0l-.685.728.003.003.683-.73zM16-1C6.625-1-1 6.626-1 16h2C1 7.73 7.73 1 16 1v-2zm17 17c0-9.374-7.625-17-17-17v2c8.27 0 15 6.73 15 15h2zM17.295 43.153c.333-.314 4.228-4.015 8.047-9.138C29.125 28.939 33 22.252 33 16h-2c0 5.552-3.506 11.781-7.261 16.82-3.72 4.99-7.52 8.6-7.815 8.877l1.371 1.456zM16 43.667c.465 0 .93-.173 1.292-.51l-1.365-1.462a.11.11 0 01.073-.028v2zm-1.292-.511c.362.338.827.51 1.292.51v-2a.11.11 0 01.073.029l-1.365 1.461zM-1 16c0 6.252 3.875 12.94 7.658 18.015 3.819 5.123 7.714 8.824 8.047 9.138l1.371-1.456c-.295-.278-4.095-3.888-7.815-8.878C4.506 27.781 1 21.552 1 16h-2z" fill="#fff" mask="url(#a)"/><mask id="b" fill="#fff"><path fill-rule="evenodd" clip-rule="evenodd" d="M16.548 6.578l9.565 9.169a1.079 1.079 0 01-.749 1.854h-1.508v8.186c0 .713-.579 1.293-1.292 1.293H9.638c-.714 0-1.293-.58-1.293-1.293v-8.186H6.837a1.079 1.079 0 01-.758-1.845l9.574-9.178c.25-.24.645-.24.895 0z"/></mask><path d="M26.113 15.747l.707-.707-.007-.008-.008-.007-.692.722zm-9.565-9.169l-.693.722.693-.722zm7.308 11.023v-1h-1v1h1zm-2.785 9.479v-1h-1v1h1zm0 0v1h1v-1h-1zm-10.185 0h-1v1h1v-1zm0 0h1v-1h-1v1zM8.345 17.6h1v-1h-1v1zm-2.266-1.844l-.692-.722-.008.008-.007.007.707.707zm9.574-9.178l.692.722-.692-.722zm11.152 8.447L17.24 5.856 15.856 7.3l9.565 9.169 1.384-1.444zm.636 1.498a2.1 2.1 0 00-.62-1.483l-1.415 1.414c.03.03.035.058.035.07h2zm-2.077 2.078a2.079 2.079 0 002.077-2.078h-2c0 .02-.007.039-.023.055a.074.074 0 01-.054.023v2zm-1.508 0h1.508v-2h-1.508v2zm1 7.186v-8.186h-2v8.186h2zm-2.292 2.293a2.293 2.293 0 002.292-2.293h-2a.293.293 0 01-.292.293v2zm-1.493 0h1.493v-2H21.07v2zm-1-1h2-2zm1-1H10.886v2h10.185v-2zm-9.185 1h-2 2zm-2.248 1h1.248v-2H9.638v2zm-2.293-2.293a2.293 2.293 0 002.293 2.293v-2a.293.293 0 01-.293-.293h-2zm0-8.186v8.186h2v-8.186h-2zm-.508 1h1.508v-2H6.837v2zM4.76 16.523c0 1.146.93 2.078 2.077 2.078v-2a.074.074 0 01-.054-.023.074.074 0 01-.023-.055h-2zm.612-1.474a2.092 2.092 0 00-.612 1.474h2a.1.1 0 01.026-.06L5.372 15.05zm9.59-9.193l-9.575 9.178 1.384 1.444L16.345 7.3l-1.384-1.444zm2.278 0a1.646 1.646 0 00-2.279 0L16.346 7.3a.354.354 0 01-.49 0l1.384-1.443z" fill="#fff" mask="url(#b)"/><path fill-rule="evenodd" clip-rule="evenodd" d="M16.447 15.36h4.048v4.024h-4.048v-4.025z" fill="#fff"/><path d="M15.567 15.36H11.52v4.024h4.047v-4.025zm0 5.042H11.52v4.048h4.047v-4.048zm4.928 0h-4.048v4.048h4.048v-4.048z" fill="#fff"/></svg>