<svg width="88" height="49" viewBox="0 0 88 49" fill="none" xmlns="http://www.w3.org/2000/svg"><path fill-rule="evenodd" clip-rule="evenodd" d="M44.223 14.723h3.367v3.348h-3.367v-3.348z" fill="#FCB317"/><path fill-rule="evenodd" clip-rule="evenodd" d="M0 22.63L43.837 5.235s43.125 17.127 44.01 17.416C88.713 22.92 43.914 0 43.914 0L17.127 14.106l-.039-5.716-4.118 1.713-.019 5.812L0 22.63z" fill="#FCB317"/><path d="M6.56 47.418l1.059.077c0 .443-.154.808-.443 1.078-.308.269-.712.404-1.231.404-.674 0-1.174-.212-1.482-.655-.25-.346-.385-.827-.385-1.443 0-.577.135-1.04.385-1.405.327-.461.808-.673 1.501-.673.558 0 .981.134 1.27.423.27.27.404.616.404 1.059H6.503a1.03 1.03 0 00-.096-.462c-.097-.173-.231-.27-.424-.27-.23 0-.404.135-.48.404-.078.193-.097.52-.097.963 0 .48.038.789.096.981.077.25.25.366.52.366.211 0 .365-.077.442-.212a1.91 1.91 0 00.097-.635zm1.213-1.77v-.77h3.387v.77h-1.097v3.232H8.85v-3.233H7.773zm4.965-.058v.981h.211c.212 0 .385-.038.5-.096a.392.392 0 00.25-.385.392.392 0 00-.25-.385 1.04 1.04 0 00-.519-.115h-.192zm-1.213 3.31v-4.022h1.81c.48 0 .865.096 1.154.27.327.192.481.48.481.865 0 .443-.173.77-.52.982-.307.192-.712.288-1.25.288-.174 0-.327 0-.462-.019V48.9h-1.213zm3.599-2.02c0-.578.135-1.06.404-1.425.327-.442.808-.654 1.482-.654.673 0 1.154.212 1.482.654.269.366.404.847.404 1.424s-.135 1.059-.404 1.424c-.328.443-.809.654-1.482.654-.674 0-1.155-.211-1.482-.654-.27-.346-.404-.827-.404-1.424zm1.309 0c0 .46.038.788.096.961.077.25.23.385.48.385.232 0 .386-.115.482-.365.058-.174.096-.5.096-.963 0-.462-.038-.789-.096-.962-.077-.25-.231-.385-.481-.385-.231 0-.385.116-.462.366-.096.192-.115.52-.115.962zm2.848-2.002h1.212v2.328l1.02-2.328h1.25V48.9h-1.212v-2.348l-1.02 2.348h-1.25v-4.022zm3.868.77v-.77h3.386v.77H25.44v3.232h-1.213v-3.233H23.15zm3.733 3.252v-4.022h3.021v.77h-1.809v.808h1.212v.77h-1.212v.827h1.81v.808h-3.022v.039zm3.81-4.022h3.06V48.9h-1.213v-3.233h-.846v2.29c0 .308-.077.558-.25.75-.174.193-.385.27-.693.27a2.62 2.62 0 01-.674-.077v-.655c.077.02.154.02.25.02.154 0 .25-.039.29-.097.038-.057.057-.173.057-.346v-2.944h.02zm4.907 3.271h.327c.212 0 .385-.038.5-.115.116-.077.174-.193.174-.366s-.058-.289-.173-.365c-.116-.078-.289-.116-.5-.116h-.328v.962zm-1.212-3.271h1.212v1.559h.5c.5 0 .924.115 1.251.327.328.211.5.5.5.866 0 .404-.153.73-.461.942-.308.212-.731.328-1.29.328h-1.712v-4.022zm5.06 0v1.559h.944v-1.56h1.212V48.9H40.41v-1.655h-.962V48.9h-1.212v-4.022h1.212zM41.93 48.9l1.136-4.022h1.597l1.02 4.022H44.45l-.192-.809h-1.116l-.212.809h-1zm1.386-1.54h.77l-.347-1.636-.423 1.636zm5.888 1.54h-1.212v-1.636h-.423l-.674 1.636h-1.212l.866-1.867a1.117 1.117 0 01-.558-.423c-.135-.193-.212-.385-.212-.597 0-.385.154-.673.462-.866.289-.173.654-.27 1.154-.27h1.81V48.9zm-1.231-3.272h-.27c-.23 0-.404.02-.5.077-.135.077-.212.212-.212.404 0 .328.231.5.674.5h.308v-.98zm4.869-.75v1.732l1.193-1.732h1.193l-1.059 1.328 1.04 2.694h-1.194l-.654-1.732-.52.635V48.9H51.63v-4.022h1.213zm2.424 2.001c0-.577.135-1.058.404-1.424.327-.442.808-.654 1.482-.654.674 0 1.155.212 1.482.654.27.366.404.847.404 1.424s-.135 1.059-.404 1.424c-.327.443-.808.654-1.482.654-.674 0-1.155-.211-1.482-.654-.27-.346-.404-.827-.404-1.424zm1.309 0c0 .462.038.79.096.962.077.25.23.385.481.385.231 0 .385-.115.481-.365.058-.174.096-.5.096-.963 0-.462-.038-.789-.096-.962-.077-.25-.23-.385-.481-.385-.23 0-.385.116-.462.366-.077.192-.115.52-.115.962zm2.81 2.02v-4.021h1.693l.52 2.251.634-2.251h1.655V48.9h-1.212v-2.964l-.847 2.964h-.731l-.77-3.06-.019 3.06h-.924zm5.137 0v-4.021h3.387V48.9h-1.212v-3.233h-.943V48.9h-1.232zm3.695 0l1.136-4.021h1.597l1.02 4.022h-1.232l-.192-.809h-1.117l-.211.809h-1zm1.386-1.539h.77l-.347-1.636-.423 1.636zm3.887-2.482v1.559h.943v-1.56h1.212V48.9h-1.212v-1.655h-.943V48.9h-1.212v-4.022h1.212zm2.829 0h1.212v2.328l1.02-2.328h1.25V48.9H78.59v-2.348L77.57 48.9h-1.25v-4.022zm7.35 4.022h-1.212v-1.636h-.423L81.36 48.9h-1.212l.866-1.867a1.117 1.117 0 01-.558-.423c-.135-.193-.212-.385-.212-.597 0-.385.154-.673.462-.866.289-.173.654-.27 1.155-.27h1.809V48.9zm-1.212-3.272h-.269c-.23 0-.404.02-.5.077-.135.077-.212.212-.212.404 0 .328.23.5.674.5h.307v-.98z" fill="#FCB317"/><path fill-rule="evenodd" clip-rule="evenodd" d="M30.362 32.517a2.608 2.608 0 00-.635-.423 2.148 2.148 0 00-.885-.231v-.077c.5-.039.924-.25 1.29-.635.288-.328.48-.635.538-.982.077-.327.096-.673.096-1.039 0-.212 0-.442-.02-.673a4.811 4.811 0 00-.345-1.444 1.954 1.954 0 00-.424-.616 2.349 2.349 0 00-.616-.461 3.129 3.129 0 00-.712-.25c-.25-.058-.5-.097-.75-.116-.25-.02-.5-.02-.731-.02h-8.91v12.875h9.141c.269 0 .538 0 .808-.02.27-.019.52-.038.75-.096.231-.057.462-.134.693-.27.212-.115.443-.288.635-.519.192-.211.346-.423.443-.654.096-.23.173-.462.23-.693.058-.23.078-.462.078-.693v-.654c0-.385-.039-.789-.097-1.193-.019-.423-.23-.789-.577-1.116zm-7.91-3.098v-.693h3.061c.134 0 .288 0 .461.02a.76.76 0 01.462.23.694.694 0 01.154.231.829.829 0 01.058.327c0 .077 0 .193-.02.289a.982.982 0 01-.095.288.701.701 0 01-.443.308 2.632 2.632 0 01-.539.039h-3.098v-1.04zm4.388 5.195c-.057.155-.096.25-.173.328-.038.057-.134.096-.288.173-.154.058-.424.096-.828.096h-3.118v-1.944h3.234c.173 0 .365.02.558.039a.728.728 0 01.5.327.878.878 0 01.173.558c.02.135-.019.27-.058.423zm4.758-5.884h4.599v9.68h4.156v-9.68h4.6v-3.195H31.598v3.195zm33.579 6.446a5.816 5.816 0 01-.885-.116 2.238 2.238 0 01-.732-.288 1.448 1.448 0 01-.52-.597c-.018-.057-.057-.115-.095-.211a1.554 1.554 0 01-.096-.404 4.46 4.46 0 01-.077-.616c-.02-.25-.039-.54-.039-.905 0-.154 0-.346.02-.539.019-.192.038-.404.057-.615a3.16 3.16 0 01.115-.616 1.99 1.99 0 01.231-.539c.154-.25.328-.462.52-.597.192-.134.423-.23.654-.307.25-.077.52-.097.808-.116h4.407v-3.194H64.1c-.365 0-.75.019-1.154.038a6.67 6.67 0 00-1.213.212 5.116 5.116 0 00-1.154.5c-.366.212-.693.52-1 .905a4.596 4.596 0 00-.905 2.097 17.318 17.318 0 00-.212 2.829c0 .616.02 1.155.077 1.636.058.48.115.904.212 1.27.096.365.211.712.365 1 .154.29.327.559.52.79.25.327.539.596.846.808a3.7 3.7 0 001.001.48c.347.116.75.193 1.174.232.423.038.885.057 1.386.057h5.696v-3.194h-3.56c-.347.02-.674.02-1.001 0z" fill="#414C5A"/><path fill-rule="evenodd" clip-rule="evenodd" d="M83.67 38.408l-.077-15.76h.038L43.797 7.695 4.078 22.628V42.68H83.67v-4.29.02zm-4.138 1.501H8.177v-1.5h.039v-5.12h4.676v5.12h4.156V25.533h-.019v-3.021l-4.137 1.328v6.254H8.216l-.039-6.524 35.735-12.258L79.513 23.57v6.524h-4.657l-.058-6.254-4.04-1.328-.058 15.895h4.156V33.29h4.676v5.12h.02v1.5h-.02z" fill="#414C5A"/><path fill-rule="evenodd" clip-rule="evenodd" d="M51.108 35.272h-.827v-2.04h7.024v-2.79h-7.024v-1.789h7.217v-3.118H46.085V38.41h11.45v-3.117h-6.293c-.038-.02-.096-.02-.135-.02z" fill="#414C5A"/><path d="M43.489 14.719H40.12v3.348h3.368V14.72zm0 4.195H40.12v3.368h3.368v-3.368zm4.097 0H44.22v3.368h3.367v-3.368z" fill="#414C5A"/></svg>