<svg width="14" height="13" viewBox="0 0 14 13" fill="none" xmlns="http://www.w3.org/2000/svg"><mask id="a" fill="#fff"><path fill-rule="evenodd" clip-rule="evenodd" d="M13 3H1v9h12V3zM0 2v11h14V2H0z"/></mask><path fill-rule="evenodd" clip-rule="evenodd" d="M13 3H1v9h12V3zM0 2v11h14V2H0z" fill="#969696"/><path d="M1 3V2H0v1h1zm12 0h1V2h-1v1zM1 12H0v1h1v-1zm12 0v1h1v-1h-1zM0 2V1h-1v1h1zm0 11h-1v1h1v-1zm14 0v1h1v-1h-1zm0-11h1V1h-1v1zM1 4h12V2H1v2zm1 8V3H0v9h2zm11-1H1v2h12v-2zm-1-8v9h2V3h-2zM0 3h14V1H0v2zm1 10V2h-2v11h2zm13-1H0v2h14v-2zM13 2v11h2V2h-2z" fill="#DDD" mask="url(#a)"/><path fill="#C4C4C4" stroke="#DDD" d="M3.5 5.5h1v1h-1zm0 3h1v1h-1zm3-3h1v1h-1zm0 3h1v1h-1zm3-3h1v1h-1zm0 3h1v1h-1z"/><path fill="#C4C4C4" stroke="#DDD" stroke-width=".5" d="M3.25.25h.5v3.5h-.5zm7 0h.5v3.5h-.5z"/></svg>