<svg width="57" height="55" viewBox="0 0 57 55" fill="none" xmlns="http://www.w3.org/2000/svg"><circle cx="35" cy="31.855" r="16" fill="#FCB317"/><path d="M56.89 29.99a22.531 22.531 0 00-6.476-13.665 22.355 22.355 0 00-10.997-6.038V7.458a3.791 3.791 0 002.871-3.673A3.79 3.79 0 0038.504 0h-8.015a3.79 3.79 0 00-3.786 3.785 3.792 3.792 0 002.872 3.673v2.837a22.353 22.353 0 00-10.964 6.03c-.683.684-1.313 1.4-1.89 2.146-.028-.002-.056-.005-.084-.005H8.702a1.113 1.113 0 000 2.227h6.503a22.316 22.316 0 00-1.975 4.28H1.113a1.113 1.113 0 000 2.226h11.488a22.637 22.637 0 00-.553 4.279H7.125a1.113 1.113 0 000 2.227h4.959c.094 1.44.325 2.874.695 4.279H5.566a1.113 1.113 0 000 2.226h7.923a22.357 22.357 0 005.121 7.92 22.53 22.53 0 0013.68 6.477 22.544 22.544 0 0014.48-3.519 1.113 1.113 0 00-1.217-1.866c-7.966 5.188-18.635 4.066-25.368-2.667-7.9-7.9-7.9-20.755 0-28.655 7.9-7.9 20.754-7.9 28.655 0 6.724 6.724 7.852 17.384 2.681 25.347a1.113 1.113 0 001.868 1.212A22.56 22.56 0 0056.89 29.99zM28.93 3.786c0-.86.7-1.558 1.559-1.558h8.015c.86 0 1.559.699 1.559 1.558 0 .86-.7 1.559-1.559 1.559h-8.016a1.56 1.56 0 01-1.558-1.559zm2.872 6.127V7.571h5.39v2.337a22.706 22.706 0 00-5.39.004z" fill="#000"/><path d="M49.627 46.227a1.117 1.117 0 00-1.113 1.113 1.117 1.117 0 001.113 1.114c.293 0 .579-.118.787-.326.207-.207.326-.495.326-.787 0-.293-.119-.58-.326-.788a1.124 1.124 0 00-.787-.326zm-15.114-31.27c-9.523 0-17.27 7.747-17.27 17.27 0 9.524 7.747 17.271 17.27 17.271s17.27-7.747 17.27-17.27c0-9.524-7.747-17.271-17.27-17.271zm0 32.314c-8.296 0-15.044-6.748-15.044-15.044 0-8.295 6.748-15.043 15.044-15.043 8.295 0 15.044 6.748 15.044 15.043 0 8.296-6.749 15.044-15.044 15.044z" fill="#000"/><path d="M41.554 23.611l-5.514 5.514a3.438 3.438 0 00-1.528-.357c-.549 0-1.067.129-1.528.357l-2.468-2.468a1.113 1.113 0 00-1.575 1.575L31.41 30.7c-.228.46-.357.98-.357 1.528a3.463 3.463 0 003.46 3.459 3.463 3.463 0 003.46-3.46c0-.548-.13-1.066-.358-1.527l5.353-5.353.162-.162a1.113 1.113 0 00-1.575-1.574zm-7.042 9.85a1.234 1.234 0 010-2.466 1.234 1.234 0 010 2.466zm11.903-2.333h-1.031a1.113 1.113 0 000 2.227h1.031a1.113 1.113 0 100-2.227zm-22.775-.026h-1.03a1.113 1.113 0 100 2.226h1.03a1.113 1.113 0 000-2.226zm10.886-8.632c.615 0 1.114-.499 1.114-1.113v-1.032a1.113 1.113 0 10-2.227 0v1.032c0 .614.499 1.113 1.113 1.113zM34.5 41.984c-.615 0-1.113.499-1.113 1.114v1.031a1.113 1.113 0 002.226 0v-1.031c0-.615-.498-1.114-1.113-1.114zM1.113 37.983c-.293 0-.58.12-.787.327a1.122 1.122 0 00-.326.787c0 .294.119.58.326.787.207.207.494.326.787.326.293 0 .58-.12.787-.326.207-.207.327-.495.327-.787 0-.293-.12-.58-.327-.787a1.121 1.121 0 00-.787-.327z" fill="#000"/></svg>