<svg width="57" height="57" viewBox="0 0 57 57" fill="none" xmlns="http://www.w3.org/2000/svg"><g clip-path="url(#clip0)"><path d="M33 36c3.2-1.6 6.333 0 7.5 1 .167.333.6 1.5 1 3.5s-.5 3.167-1 3.5l-2 3.5-.5 1-4.5-.5-.5-2-2-3c-.667-1.667-1.2-5.4 2-7z" fill="#FCB317"/><path d="M36.114 38h-.002a.95.95 0 100 1.9h.002a.95.95 0 01.95.95.95.95 0 00.95.949h.002a.95.95 0 00.949-.951A2.853 2.853 0 0036.114 38zM24.7 41.803l1.9-.001a.95.95 0 000-1.9h-.001l-1.9.002a.95.95 0 000 1.9h.002zm.374-3.949l1.786.648a.95.95 0 10.649-1.786l-1.786-.648a.95.95 0 00-.649 1.786zm2.726 5.524a.95.95 0 00-.936-.164l-1.785.651a.95.95 0 00.652 1.785l1.785-.651a.95.95 0 00.284-1.621zm19.701-3.48l-1.9.002a.95.95 0 000 1.9l1.9-.002a.95.95 0 000-1.9zm-2.461-1.354a.97.97 0 00.325-.057l1.785-.652a.95.95 0 00-.651-1.785l-1.785.652a.95.95 0 00.326 1.843zm2.114 5.306l-1.786-.648a.95.95 0 00-.648 1.785l1.786.649a.95.95 0 00.648-1.786zM19.632 3.809a6.65 6.65 0 00-6.333 6.643.95.95 0 101.9 0 4.735 4.735 0 011.755-3.688 4.802 4.802 0 014.027-.954 4.717 4.717 0 013.61 3.61 4.759 4.759 0 01-3.96 5.733 1.905 1.905 0 00-1.632 1.874v1.025a.95.95 0 101.9 0v-1.018a6.65 6.65 0 00-1.267-13.225zm.991 17.367a1.098 1.098 0 00-.313-.2.977.977 0 00-1.035.2 1.095 1.095 0 00-.2.314.95.95 0 00-.057.55c.01.06.03.118.057.172.02.06.05.118.085.171l.115.142a1 1 0 00.674.276.796.796 0 00.36-.076c.116-.048.222-.116.314-.2l.114-.142a.72.72 0 00.086-.171.618.618 0 00.057-.171 1.53 1.53 0 00.02-.19.95.95 0 00-.077-.361 1.11 1.11 0 00-.2-.314z" fill="#000"/><path d="M41.8 22.8v-19A3.804 3.804 0 0038 0H3.8A3.804 3.804 0 000 3.8v19a3.804 3.804 0 003.8 3.8h.95v5.698a1.9 1.9 0 003.243 1.343.755.755 0 00.064-.07L13.75 26.6H38a3.804 3.804 0 003.8-3.8zm-28.5 1.9c-.016 0-.03.008-.045.01a1.98 1.98 0 00-.359.088.93.93 0 00-.14.094.93.93 0 00-.156.128c-.01.012-.025.017-.036.03L6.65 32.29v-6.64a.95.95 0 00-.95-.95H3.8a1.902 1.902 0 01-1.9-1.9v-19a1.902 1.902 0 011.9-1.9H38a1.902 1.902 0 011.9 1.9v19a1.902 1.902 0 01-1.9 1.9H13.3z" fill="#000"/><path d="M53.201 30.398h-.95V24.7a1.9 1.9 0 00-3.307-1.272l-5.693 6.97H19a3.804 3.804 0 00-3.8 3.8v19a3.804 3.804 0 003.8 3.8h34.2a3.804 3.804 0 003.8-3.8v-19a3.804 3.804 0 00-3.8-3.8zm1.9 22.8a1.902 1.902 0 01-1.9 1.9h-34.2a1.902 1.902 0 01-1.9-1.9v-19a1.902 1.902 0 011.9-1.9h24.7c.133 0 .264-.03.385-.085a.963.963 0 00.082-.055.937.937 0 00.235-.183c.01-.01.024-.014.034-.026l5.914-7.24v6.64c0 .524.425.95.95.95h1.9a1.902 1.902 0 011.9 1.9v19z" fill="#000"/><path d="M36.9 34.248a6.648 6.648 0 00-4.957 11.789.935.935 0 01.357.732v.732c.002.675.363 1.298.949 1.635v1.216a2.86 2.86 0 002.849 2.847c.318 0 .633-.051.935-.152a2.89 2.89 0 001.918-2.794v-1.117c.585-.337.947-.96.949-1.635v-.73a.977.977 0 01.38-.754 6.606 6.606 0 002.386-6.234 6.719 6.719 0 00-5.767-5.535zm-.464 16.995a.965.965 0 01-.888-.123.953.953 0 01-.398-.77l-.001-.95h1.902v.855c.02.425-.225.818-.615.988zm2.651-6.704A2.867 2.867 0 0038 46.772v.726h-.001l-3.8.003v-.732a2.823 2.823 0 00-1.07-2.216 4.749 4.749 0 013.549-8.418 4.789 4.789 0 014.11 3.943 4.727 4.727 0 01-1.701 4.461z" fill="#000"/></g><defs><clipPath id="clip0"><path fill="#fff" d="M0 0h57v57H0z"/></clipPath></defs></svg>