<svg width="582" height="417" viewBox="0 0 582 417" fill="none" xmlns="http://www.w3.org/2000/svg"><path fill="#F5F5F5" stroke="#414C5A" stroke-width="5.295" d="M2.648 2.648h576.705v411.705H2.648z"/><path fill="#FCB317" d="M199 5h92v33h-92z"/><path d="M146.942 412.029v-25.153h97.961v25.153M579 359.076H262.113v-65.528H579m0-92.005H344.851M33.756 361.724v-38.391h54.938v38.391" stroke="#414C5A" stroke-width="5.295"/><path d="M29.485 26.238V15.886h3.384c1.123 0 1.967.232 2.531.697.57.464.854 1.151.854 2.062 0 .483-.138.912-.413 1.286-.275.37-.65.657-1.123.86.56.157 1 .456 1.322.897.327.436.49.957.49 1.564 0 .929-.3 1.659-.902 2.19-.602.53-1.453.796-2.553.796h-3.59zm1.365-4.842v3.726h2.254c.635 0 1.135-.164 1.5-.49.37-.333.555-.788.555-1.366 0-1.246-.678-1.87-2.034-1.87H30.85zm0-1.095h2.062c.597 0 1.073-.15 1.429-.448.36-.298.54-.704.54-1.216 0-.569-.166-.98-.497-1.237-.332-.26-.837-.39-1.515-.39h-2.02v3.29zm8.937.896h1.998c.873.01 1.562.237 2.07.683.507.445.76 1.05.76 1.813 0 .768-.26 1.384-.782 1.848-.521.465-1.223.697-2.104.697h-3.257v-7.693h1.315v2.652zm7.573 5.041h-1.323v-7.693h1.323v7.693zm-7.573-3.967v2.894h1.956c.493 0 .874-.126 1.145-.377.27-.256.405-.605.405-1.045 0-.427-.133-.775-.398-1.046-.261-.275-.628-.417-1.102-.426h-2.006zm12.45-.918l1.707-2.808h1.536l-2.517 3.804 2.595 3.89h-1.522l-1.777-2.88-1.778 2.88h-1.528l2.595-3.89-2.517-3.804h1.522l1.685 2.808zm4.153.967c0-.753.147-1.431.44-2.033.3-.602.712-1.067 1.238-1.394.53-.327 1.135-.49 1.813-.49 1.048 0 1.894.362 2.539 1.088.649.725.974 1.69.974 2.893v.093c0 .749-.145 1.422-.434 2.02a3.24 3.24 0 01-1.23 1.386c-.531.332-1.142.498-1.835.498-1.043 0-1.889-.363-2.538-1.088-.645-.726-.967-1.685-.967-2.88v-.093zm1.322.157c0 .853.197 1.538.59 2.055.399.517.93.775 1.593.775.669 0 1.2-.26 1.593-.782.394-.526.59-1.261.59-2.204 0-.844-.201-1.527-.604-2.048-.398-.526-.93-.79-1.593-.79-.65 0-1.173.259-1.571.776-.398.516-.598 1.256-.598 2.218zm6.755 2.688l.455-.562c.512-.664.804-1.66.875-2.986l.12-3.072h4.957v6.62h.988v3.334h-1.315v-2.26h-5.369v2.26h-1.315l.007-3.334h.597zm1.558 0h3.533V19.76h-2.367l-.079 1.834c-.08 1.531-.443 2.721-1.087 3.57zm59.694-3.769c0 1.015-.17 1.901-.512 2.66-.341.753-.824 1.329-1.45 1.727-.626.398-1.356.598-2.19.598-.815 0-1.538-.2-2.169-.598-.63-.403-1.121-.974-1.471-1.713-.346-.745-.524-1.605-.534-2.581v-.747c0-.995.173-1.875.519-2.638.346-.763.835-1.346 1.465-1.749.635-.408 1.36-.612 2.176-.612.829 0 1.559.202 2.19.605.635.398 1.123.979 1.464 1.742.342.758.512 1.642.512 2.652v.654zm-1.358-.668c0-1.228-.246-2.169-.739-2.823-.493-.659-1.183-.988-2.069-.988-.863 0-1.543.33-2.041.988-.493.654-.746 1.564-.761 2.73v.761c0 1.19.249 2.126.747 2.809.502.678 1.192 1.017 2.069 1.017.882 0 1.564-.32 2.048-.96.483-.645.732-1.567.746-2.766v-.768zm2.916 1.806c0-1.285.248-2.294.746-3.03.498-.734 1.18-1.101 2.048-1.101.403 0 .756.069 1.059.206v-3.292h1.316v3.335c.332-.166.72-.25 1.166-.25.872 0 1.557.368 2.055 1.103.497.735.746 1.794.746 3.178 0 1.133-.249 2.034-.746 2.702-.493.668-1.173 1.003-2.041 1.003-.46 0-.853-.076-1.18-.228v3.036h-1.316v-3.015a2.63 2.63 0 01-1.073.207c-.863 0-1.543-.335-2.041-1.003-.493-.668-.739-1.583-.739-2.745v-.106zm7.821 0c0-.967-.166-1.716-.498-2.247-.332-.536-.789-.803-1.372-.803-.299 0-.559.047-.782.142v5.567c.213.08.479.12.796.12.588 0 1.043-.227 1.365-.682.327-.455.491-1.154.491-2.097zm-6.506.15c0 .862.154 1.516.462 1.962.308.445.751.668 1.33.668.275 0 .524-.043.746-.128v-5.582a1.954 1.954 0 00-.732-.12c-.578 0-1.024.258-1.337.774-.313.517-.469 1.325-.469 2.425zm14.512-4.14h1.316v7.694h-1.316v-5.61l-3.548 5.61h-1.315v-7.693h1.315v5.617l3.548-5.617zm6.513 6.763c.469 0 .879-.142 1.23-.427a1.5 1.5 0 00.583-1.066h1.245c-.024.44-.176.86-.455 1.258-.28.398-.655.716-1.124.953a3.207 3.207 0 01-1.479.356c-1.047 0-1.882-.349-2.503-1.046-.616-.701-.924-1.659-.924-2.872v-.22c0-.75.137-1.416.412-1.999a3.15 3.15 0 011.181-1.358c.516-.322 1.126-.483 1.827-.483.863 0 1.579.258 2.147.775.574.516.88 1.187.918 2.012h-1.245c-.038-.498-.227-.905-.569-1.223-.336-.322-.753-.483-1.251-.483-.668 0-1.187.241-1.557.725-.365.479-.548 1.173-.548 2.083v.249c0 .886.183 1.569.548 2.048.365.479.886.718 1.564.718zm9.926-4.885h.988c.621-.01 1.11-.173 1.465-.49.356-.318.533-.747.533-1.287 0-1.214-.604-1.82-1.813-1.82-.568 0-1.024.163-1.365.49-.336.322-.505.751-.505 1.287h-1.315c0-.82.299-1.5.896-2.04.602-.546 1.365-.819 2.289-.819.977 0 1.742.259 2.297.775.555.517.832 1.235.832 2.155 0 .45-.147.886-.441 1.308a2.619 2.619 0 01-1.187.946c.568.18 1.007.479 1.315.896.313.417.469.927.469 1.529 0 .929-.303 1.666-.91 2.21-.607.546-1.396.819-2.368.819-.971 0-1.763-.264-2.374-.79-.607-.526-.91-1.22-.91-2.083h1.322c0 .545.178.981.533 1.308.356.327.832.49 1.429.49.636 0 1.122-.165 1.458-.497.337-.332.505-.808.505-1.43 0-.601-.185-1.063-.555-1.386-.369-.322-.903-.488-1.6-.497h-.988v-1.074zm12.756 1.4c0 1.541-.263 2.686-.789 3.435-.526.749-1.349 1.123-2.467 1.123-1.105 0-1.923-.364-2.454-1.095-.53-.734-.805-1.83-.824-3.285v-1.756c0-1.521.263-2.652.789-3.391.526-.74 1.351-1.11 2.474-1.11 1.114 0 1.934.358 2.46 1.074.527.711.797 1.81.811 3.3v1.706zm-1.315-1.798c0-1.114-.157-1.925-.47-2.432-.312-.512-.808-.768-1.486-.768-.673 0-1.163.254-1.472.761-.308.507-.466 1.287-.476 2.34v2.104c0 1.119.161 1.946.484 2.482.327.53.82.796 1.479.796.649 0 1.13-.251 1.443-.754.318-.502.483-1.294.498-2.375v-2.154zm7.323 6.214h-1.322v-8.767l-2.652.974v-1.194l3.768-1.415h.206v10.402z" fill="#363636"/><path d="M42.247 310.402h.827c.394 0 .686-.098.875-.295.19-.197.285-.458.285-.784 0-.315-.095-.561-.285-.736-.186-.176-.444-.263-.773-.263-.297 0-.546.082-.747.247-.2.161-.3.372-.3.634h-1.553c0-.409.11-.774.328-1.096.222-.326.53-.58.924-.763a3.11 3.11 0 011.31-.274c.828 0 1.476.199 1.945.596.469.394.703.939.703 1.633 0 .358-.109.688-.327.989-.219.3-.505.531-.86.692.44.158.768.394.983.709.219.316.328.688.328 1.118 0 .694-.254 1.251-.763 1.67-.505.419-1.174.628-2.009.628-.78 0-1.42-.205-1.917-.617-.494-.412-.741-.956-.741-1.633h1.552c0 .294.11.533.328.72.222.186.494.279.816.279.369 0 .657-.097.865-.29.211-.197.317-.457.317-.779 0-.78-.43-1.171-1.29-1.171h-.821v-1.214zm8.894 1.998c.047.505.196.869.446 1.091.25.218.614.327 1.09.327.527 0 .917-.173 1.171-.521.255-.351.401-.868.44-1.552h-2.47v-1.305h2.465c-.043-.698-.2-1.216-.472-1.552-.269-.34-.654-.511-1.155-.511-.487 0-.852.117-1.096.35-.243.229-.385.599-.424 1.111h-1.611c.078-.855.39-1.53.934-2.025.548-.494 1.28-.741 2.197-.741.652 0 1.223.154 1.713.462.495.305.874.743 1.139 1.316.265.569.398 1.234.398 1.993v.51c0 1.153-.289 2.068-.865 2.745-.573.673-1.36 1.009-2.363 1.009-.924 0-1.666-.243-2.224-.73-.555-.491-.863-1.149-.924-1.977h1.611zm11.629-3.915h-2.396V315h-1.611v-6.515H56.4v-1.305h6.37v1.305zm4.694 4.904H64.64L64.102 315h-1.714l2.911-7.82h1.494L69.72 315h-1.713l-.543-1.611zm-2.39-1.306h1.955l-.983-2.927-.972 2.927zm11.972-.268h-.93V315h-1.61v-3.185h-.951L71.852 315h-2.008l2.438-4.195-2.32-3.625h2.003l1.74 3.153h.8v-3.153h1.612v3.153h.784l1.697-3.153h1.998l-2.277 3.62 2.401 4.2h-2.014l-1.66-3.185z" fill="#FCB317"/><path d="M222.358 21.396c0 1.015-.171 1.901-.512 2.66-.341.753-.825 1.329-1.45 1.727-.626.398-1.356.598-2.19.598-.816 0-1.539-.2-2.169-.598-.63-.403-1.121-.974-1.472-1.713-.346-.745-.524-1.605-.533-2.581v-.747c0-.995.173-1.875.519-2.638.346-.763.834-1.346 1.465-1.749.635-.408 1.36-.612 2.175-.612.83 0 1.56.202 2.19.605.636.398 1.124.979 1.465 1.742.341.758.512 1.642.512 2.652v.654zM221 20.728c0-1.228-.246-2.169-.739-2.823-.493-.659-1.183-.988-2.07-.988-.862 0-1.542.33-2.04.988-.493.654-.747 1.564-.761 2.73v.761c0 1.19.249 2.126.747 2.809.502.678 1.192 1.017 2.069 1.017.881 0 1.564-.32 2.047-.96.484-.645.733-1.567.747-2.766v-.768zm2.915 1.806c0-1.285.249-2.294.747-3.03.498-.734 1.18-1.101 2.048-1.101.403 0 .756.069 1.059.206v-3.292h1.315v3.335c.332-.166.721-.25 1.167-.25.872 0 1.557.368 2.054 1.103.498.735.747 1.794.747 3.178 0 1.133-.249 2.034-.747 2.702-.493.668-1.173 1.003-2.04 1.003-.46 0-.853-.076-1.181-.228v3.036h-1.315v-3.015a2.647 2.647 0 01-1.074.207c-.862 0-1.543-.335-2.04-1.003-.493-.668-.74-1.583-.74-2.745v-.106zm7.822 0c0-.967-.166-1.716-.498-2.247-.332-.536-.789-.803-1.372-.803-.299 0-.56.047-.783.142v5.567c.214.08.479.12.797.12.588 0 1.043-.227 1.365-.682.327-.455.491-1.154.491-2.097zm-6.506.15c0 .862.154 1.516.462 1.962.308.445.751.668 1.329.668.275 0 .524-.043.747-.128v-5.582a1.954 1.954 0 00-.732-.12c-.579 0-1.024.258-1.337.774-.313.517-.469 1.325-.469 2.425zm14.512-4.14h1.315v7.694h-1.315v-5.61l-3.548 5.61h-1.316v-7.693h1.316v5.617l3.548-5.617zm6.513 6.763c.469 0 .879-.142 1.23-.427a1.5 1.5 0 00.583-1.066h1.244c-.023.44-.175.86-.455 1.258a2.986 2.986 0 01-1.123.953 3.213 3.213 0 01-1.479.356c-1.048 0-1.882-.349-2.503-1.046-.616-.701-.924-1.659-.924-2.872v-.22c0-.75.137-1.416.412-1.999a3.148 3.148 0 011.18-1.358c.517-.322 1.126-.483 1.828-.483.862 0 1.578.258 2.147.775.574.516.879 1.187.917 2.012h-1.244c-.038-.498-.228-.905-.569-1.223-.336-.322-.754-.483-1.251-.483-.669 0-1.188.241-1.557.725-.365.479-.548 1.173-.548 2.083v.249c0 .886.183 1.569.548 2.048.365.479.886.718 1.564.718zm9.926-4.885h.988c.621-.01 1.109-.173 1.465-.49.355-.318.533-.747.533-1.287 0-1.214-.604-1.82-1.813-1.82-.569 0-1.024.163-1.365.49-.337.322-.505.751-.505 1.287h-1.315c0-.82.298-1.5.896-2.04.602-.546 1.365-.819 2.289-.819.977 0 1.742.259 2.297.775.554.517.832 1.235.832 2.155 0 .45-.147.886-.441 1.308a2.616 2.616 0 01-1.188.946c.569.18 1.008.479 1.316.896.313.417.469.927.469 1.529 0 .929-.303 1.666-.91 2.21-.607.546-1.396.819-2.368.819s-1.763-.264-2.375-.79c-.606-.526-.91-1.22-.91-2.083h1.323c0 .545.177.981.533 1.308.355.327.832.49 1.429.49.635 0 1.121-.165 1.458-.497.336-.332.505-.808.505-1.43 0-.601-.185-1.063-.555-1.386-.37-.322-.903-.488-1.6-.497h-.988v-1.074zm12.756 1.4c0 1.541-.263 2.686-.79 3.435-.526.749-1.348 1.123-2.467 1.123-1.104 0-1.922-.364-2.453-1.095-.531-.734-.806-1.83-.825-3.285v-1.756c0-1.521.263-2.652.79-3.391.526-.74 1.351-1.11 2.474-1.11 1.114 0 1.934.358 2.46 1.074.526.711.796 1.81.811 3.3v1.706zm-1.316-1.798c0-1.114-.156-1.925-.469-2.432-.313-.512-.808-.768-1.486-.768-.673 0-1.164.254-1.472.761-.308.507-.467 1.287-.476 2.34v2.104c0 1.119.161 1.946.483 2.482.327.53.82.796 1.479.796.65 0 1.131-.251 1.444-.754.317-.502.483-1.294.497-2.375v-2.154zm9.784 6.214h-6.783v-.945l3.583-3.982c.531-.602.896-1.09 1.095-1.465.204-.38.306-.77.306-1.173 0-.54-.163-.984-.49-1.33-.327-.346-.764-.519-1.309-.519-.654 0-1.163.188-1.528.562-.361.37-.541.886-.541 1.55h-1.315c0-.953.306-1.723.917-2.31.616-.589 1.439-.883 2.467-.883.963 0 1.723.254 2.283.761.559.503.839 1.173.839 2.012 0 1.02-.65 2.233-1.949 3.641l-2.773 3.008h5.198v1.073z" fill="#000"/><path d="M285.901 59.787c0 1.014-.171 1.9-.512 2.659-.341.754-.825 1.33-1.45 1.728-.626.398-1.356.597-2.19.597-.816 0-1.539-.199-2.169-.597-.63-.403-1.121-.974-1.472-1.714-.346-.744-.524-1.604-.533-2.58v-.747c0-.996.173-1.875.519-2.638.346-.764.834-1.346 1.465-1.75.635-.407 1.36-.61 2.175-.61.83 0 1.56.2 2.19.604.636.398 1.124.978 1.465 1.742.341.758.512 1.642.512 2.652v.654zm-1.358-.669c0-1.227-.246-2.168-.739-2.822-.493-.66-1.183-.989-2.07-.989-.862 0-1.542.33-2.04.989-.493.654-.747 1.564-.761 2.73v.76c0 1.19.249 2.127.747 2.81.502.677 1.192 1.016 2.069 1.016.881 0 1.564-.32 2.047-.96.484-.644.733-1.566.747-2.766v-.768zm2.915 1.806c0-1.284.249-2.294.747-3.029.498-.734 1.18-1.102 2.048-1.102.403 0 .756.07 1.059.206v-3.291h1.315v3.334c.332-.166.721-.249 1.167-.249.872 0 1.557.368 2.054 1.102.498.735.747 1.795.747 3.179 0 1.133-.249 2.033-.747 2.702-.493.668-1.173 1.002-2.04 1.002-.46 0-.853-.076-1.181-.227v3.036h-1.315v-3.015a2.647 2.647 0 01-1.074.206c-.862 0-1.543-.334-2.04-1.002-.493-.669-.74-1.584-.74-2.745v-.107zm7.822 0c0-.967-.166-1.715-.498-2.246-.332-.536-.789-.804-1.372-.804-.299 0-.56.047-.783.142v5.568c.214.08.479.12.797.12.588 0 1.043-.227 1.365-.682.327-.455.491-1.154.491-2.098zm-6.506.15c0 .863.154 1.517.462 1.962.308.446.751.669 1.329.669.275 0 .524-.043.747-.128v-5.582a1.954 1.954 0 00-.732-.12c-.579 0-1.024.258-1.337.774-.313.517-.469 1.325-.469 2.425zm14.512-4.138h1.315v7.693h-1.315v-5.61l-3.548 5.61h-1.316v-7.693h1.316v5.617l3.548-5.617zm6.513 6.761c.469 0 .879-.142 1.23-.426a1.5 1.5 0 00.583-1.067h1.244a2.38 2.38 0 01-.455 1.259 2.986 2.986 0 01-1.123.953 3.213 3.213 0 01-1.479.355c-1.048 0-1.882-.348-2.503-1.045-.616-.702-.924-1.66-.924-2.873v-.22c0-.749.137-1.415.412-1.998a3.148 3.148 0 011.18-1.358c.517-.322 1.126-.484 1.828-.484.862 0 1.578.259 2.147.775.574.517.879 1.188.917 2.013h-1.244c-.038-.498-.228-.906-.569-1.223-.336-.323-.754-.484-1.251-.484-.669 0-1.188.242-1.557.725-.365.48-.548 1.174-.548 2.084v.248c0 .887.183 1.57.548 2.048.365.48.886.718 1.564.718zm9.926-4.884h.988c.621-.01 1.109-.173 1.465-.49.355-.319.533-.748.533-1.288 0-1.213-.604-1.82-1.813-1.82-.569 0-1.024.163-1.365.49-.337.323-.505.752-.505 1.287h-1.315c0-.82.298-1.5.895-2.04.602-.545 1.366-.818 2.29-.818.976 0 1.742.258 2.297.775.554.517.832 1.235.832 2.154 0 .45-.147.887-.441 1.309a2.616 2.616 0 01-1.188.946c.569.18 1.008.478 1.316.895.313.417.469.927.469 1.53 0 .928-.303 1.665-.91 2.21-.607.546-1.396.818-2.368.818s-1.763-.263-2.375-.79c-.606-.525-.91-1.22-.91-2.083h1.323c0 .546.177.982.533 1.309.355.327.832.49 1.429.49.635 0 1.121-.166 1.458-.497.336-.332.505-.809.505-1.43 0-.601-.185-1.064-.555-1.386-.37-.322-.903-.488-1.6-.498h-.988v-1.073zm12.756 1.4c0 1.541-.263 2.686-.79 3.435-.526.749-1.348 1.123-2.467 1.123-1.104 0-1.922-.365-2.453-1.095-.531-.735-.806-1.83-.825-3.285v-1.756c0-1.522.263-2.652.79-3.392.526-.74 1.351-1.109 2.474-1.109 1.114 0 1.934.358 2.46 1.074.526.71.796 1.81.811 3.299v1.706zm-1.316-1.799c0-1.113-.156-1.924-.469-2.431-.313-.512-.808-.768-1.486-.768-.673 0-1.164.253-1.472.76-.308.508-.467 1.288-.476 2.34v2.105c0 1.118.161 1.945.483 2.481.327.531.82.796 1.479.796.65 0 1.131-.25 1.444-.753.317-.503.483-1.294.497-2.375v-2.155zm4.914.399h.988c.621-.01 1.109-.173 1.465-.49.355-.319.533-.748.533-1.288 0-1.213-.605-1.82-1.813-1.82-.569 0-1.024.163-1.365.49-.337.323-.505.752-.505 1.287h-1.316c0-.82.299-1.5.896-2.04.602-.545 1.365-.818 2.29-.818.976 0 1.742.258 2.296.775.555.517.832 1.235.832 2.154 0 .45-.147.887-.441 1.309a2.619 2.619 0 01-1.187.946c.569.18 1.007.478 1.315.895.313.417.47.927.47 1.53 0 .928-.304 1.665-.91 2.21-.607.546-1.396.818-2.368.818s-1.764-.263-2.375-.79c-.607-.525-.91-1.22-.91-2.083h1.322c0 .546.178.982.534 1.309.355.327.832.49 1.429.49.635 0 1.121-.166 1.457-.497.337-.332.505-.809.505-1.43 0-.601-.185-1.064-.554-1.386-.37-.322-.903-.488-1.6-.498h-.988v-1.073zm-50.178 84.372c0 1.015-.171 1.901-.512 2.659-.341.754-.825 1.33-1.45 1.728-.626.398-1.356.598-2.19.598-.816 0-1.539-.2-2.169-.598-.63-.403-1.121-.974-1.472-1.713-.346-.745-.524-1.605-.533-2.581v-.747c0-.995.173-1.875.519-2.638.346-.763.834-1.346 1.465-1.749.635-.408 1.36-.611 2.175-.611.83 0 1.56.201 2.19.604.636.398 1.124.979 1.465 1.742.341.758.512 1.642.512 2.652v.654zm-1.358-.668c0-1.228-.246-2.169-.739-2.823-.493-.659-1.183-.988-2.07-.988-.862 0-1.542.329-2.04.988-.493.654-.747 1.564-.761 2.73v.761c0 1.19.249 2.126.747 2.809.502.678 1.192 1.017 2.069 1.017.881 0 1.564-.32 2.047-.96.484-.645.733-1.567.747-2.766v-.768zm2.915 1.806c0-1.285.249-2.294.747-3.029.498-.735 1.18-1.102 2.048-1.102.403 0 .756.069 1.059.206v-3.292h1.315v3.335c.332-.166.721-.249 1.167-.249.872 0 1.557.367 2.054 1.102.498.735.747 1.794.747 3.178 0 1.133-.249 2.034-.747 2.702-.493.668-1.173 1.003-2.04 1.003-.46 0-.853-.076-1.181-.228v3.036h-1.315v-3.015a2.638 2.638 0 01-1.074.207c-.862 0-1.543-.335-2.04-1.003-.493-.668-.74-1.583-.74-2.744v-.107zm7.822 0c0-.967-.166-1.716-.498-2.247-.332-.536-.789-.803-1.372-.803-.299 0-.56.047-.783.142v5.567c.214.081.479.121.797.121.588 0 1.043-.228 1.365-.683.327-.455.491-1.154.491-2.097zm-6.506.149c0 .863.154 1.517.462 1.963.308.445.751.668 1.329.668.275 0 .524-.043.747-.128v-5.582a1.968 1.968 0 00-.732-.12c-.579 0-1.024.258-1.337.775-.313.516-.469 1.324-.469 2.424zm14.512-4.138h1.315v7.693h-1.315v-5.61l-3.548 5.61h-1.316v-7.693h1.316v5.617l3.548-5.617zm6.513 6.762c.469 0 .879-.142 1.23-.427a1.5 1.5 0 00.583-1.066h1.244c-.023.441-.175.86-.455 1.258a2.988 2.988 0 01-1.123.953 3.213 3.213 0 01-1.479.356c-1.048 0-1.882-.349-2.503-1.046-.616-.701-.924-1.659-.924-2.872v-.221c0-.749.137-1.415.412-1.998a3.152 3.152 0 011.18-1.358c.517-.322 1.126-.483 1.828-.483.862 0 1.578.258 2.147.775.574.516.879 1.187.917 2.012h-1.244c-.038-.498-.228-.905-.569-1.223-.336-.322-.754-.483-1.251-.483-.669 0-1.188.241-1.557.725-.365.479-.548 1.173-.548 2.083v.249c0 .886.183 1.569.548 2.048.365.479.886.718 1.564.718zm9.926-4.885h.988c.621-.009 1.109-.173 1.465-.49.355-.318.533-.747.533-1.287 0-1.214-.604-1.821-1.813-1.821-.569 0-1.024.164-1.365.491-.337.322-.505.751-.505 1.287h-1.315c0-.82.298-1.5.895-2.041.602-.545 1.366-.817 2.29-.817.976 0 1.742.258 2.297.775.554.516.832 1.234.832 2.154 0 .45-.147.886-.441 1.308a2.619 2.619 0 01-1.188.946c.569.18 1.008.479 1.316.896.313.417.469.927.469 1.529 0 .929-.303 1.666-.91 2.211-.607.545-1.396.818-2.368.818s-1.763-.264-2.375-.79c-.606-.526-.91-1.22-.91-2.083h1.323c0 .545.177.981.533 1.308.355.327.832.491 1.429.491.635 0 1.121-.166 1.458-.498.336-.332.505-.808.505-1.429 0-.602-.185-1.064-.555-1.387-.37-.322-.903-.488-1.6-.497h-.988v-1.074zm12.756 1.401c0 1.54-.263 2.685-.79 3.434-.526.749-1.348 1.124-2.467 1.124-1.104 0-1.922-.365-2.453-1.095-.531-.735-.806-1.83-.825-3.285v-1.757c0-1.521.263-2.652.79-3.391.526-.74 1.351-1.109 2.474-1.109 1.114 0 1.934.357 2.46 1.073.526.711.796 1.811.811 3.299v1.707zm-1.316-1.799c0-1.114-.156-1.925-.469-2.432-.313-.512-.808-.768-1.486-.768-.673 0-1.164.254-1.472.761-.308.507-.467 1.287-.476 2.339v2.105c0 1.119.161 1.946.483 2.482.327.53.82.796 1.479.796.65 0 1.131-.251 1.444-.754.317-.502.483-1.294.497-2.375v-2.154zm8.554 2.737h1.436v1.074h-1.436v2.403h-1.323v-2.403h-4.714v-.775l4.636-7.174h1.401v6.875zm-4.544 0h3.221v-5.076l-.156.284-3.065 4.792zM80.262 222.869l.2 1.365.29-1.23 2.048-7.224h1.152l1.998 7.224.285 1.252.22-1.394 1.607-7.082h1.372l-2.51 10.353H85.68l-2.133-7.544-.163-.789-.164.789-2.211 7.544h-1.245l-2.502-10.353h1.365l1.635 7.089zm18.31-.021c-.129 1.095-.534 1.941-1.217 2.538-.678.593-1.58.889-2.709.889-1.223 0-2.204-.438-2.944-1.315-.734-.877-1.102-2.051-1.102-3.52v-.995c0-.963.171-1.809.512-2.539.346-.73.835-1.289 1.465-1.678.63-.393 1.36-.59 2.19-.59 1.1 0 1.982.308 2.645.924.664.612 1.05 1.46 1.16 2.546h-1.373c-.119-.825-.377-1.422-.775-1.792-.394-.37-.946-.555-1.657-.555-.872 0-1.557.323-2.055.967-.493.645-.74 1.562-.74 2.752v1.003c0 1.123.235 2.017.705 2.68.469.664 1.125.996 1.97.996.758 0 1.338-.171 1.741-.512.408-.346.678-.946.81-1.799h1.373zm-18.31 41.06l.2 1.365.29-1.23 2.048-7.224h1.152l1.998 7.224.285 1.252.22-1.394 1.607-7.082h1.372l-2.51 10.353H85.68l-2.133-7.544-.163-.789-.164.789-2.211 7.544h-1.245l-2.502-10.353h1.365l1.635 7.089zm18.31-.021c-.129 1.095-.534 1.941-1.217 2.538-.678.593-1.58.889-2.709.889-1.223 0-2.204-.438-2.944-1.315-.734-.877-1.102-2.05-1.102-3.52v-.995c0-.963.171-1.809.512-2.539.346-.73.835-1.289 1.465-1.678.63-.393 1.36-.59 2.19-.59 1.1 0 1.982.308 2.645.924.664.612 1.05 1.46 1.16 2.546h-1.373c-.119-.825-.377-1.422-.775-1.792-.394-.37-.946-.555-1.657-.555-.872 0-1.557.323-2.055.967-.493.645-.74 1.562-.74 2.752v1.003c0 1.123.235 2.017.705 2.68.469.664 1.125.996 1.97.996.758 0 1.338-.171 1.741-.512.408-.346.678-.946.81-1.799h1.373z" fill="#363636"/><path d="M51.603 337.569v10.353h-1.365v-9.229h-3.711l-.185 4.102c-.071 1.375-.213 2.408-.427 3.1-.208.693-.517 1.202-.924 1.529-.408.322-.953.488-1.636.498h-.447v-1.116l.284-.015c.44-.033.78-.175 1.017-.426.237-.256.417-.662.54-1.216.123-.555.211-1.408.263-2.56l.213-5.02h6.378zm9.01 0h1.364v10.353h-1.365v-7.978l-5.098 7.978h-1.372v-10.353h1.372v7.978l5.098-7.978zm8.965 1.038h.22a4.374 4.374 0 012.14.548c.646.36 1.146.858 1.501 1.493.36.63.54 1.337.54 2.119 0 .787-.18 1.5-.54 2.14a3.88 3.88 0 01-1.493 1.5 4.377 4.377 0 01-2.119.548h-.249v1.393h-1.322v-1.393h-.2a4.37 4.37 0 01-2.16-.541 3.86 3.86 0 01-1.508-1.493c-.356-.635-.534-1.348-.534-2.14 0-.791.178-1.505.534-2.14a3.867 3.867 0 011.507-1.493c.65-.36 1.37-.541 2.162-.541h.199v-1.464h1.322v1.464zm-1.521 1.074c-.892 0-1.598.275-2.12.825-.516.545-.774 1.303-.774 2.275 0 .977.258 1.737.775 2.283.516.54 1.227.81 2.133.81h.185v-6.193h-.2zm1.521 0v6.193h.2c.905 0 1.611-.277 2.118-.832.512-.559.768-1.318.768-2.275 0-.948-.256-1.699-.768-2.254-.507-.555-1.223-.832-2.147-.832h-.17zm13.275-.988h-3.327v9.229h-1.358v-9.229h-3.321v-1.124h8.006v1.124z" fill="#FCB317"/><path d="M285.901 182.9c0 1.014-.171 1.901-.512 2.659-.341.754-.825 1.33-1.45 1.728-.626.398-1.356.597-2.19.597-.816 0-1.539-.199-2.169-.597-.63-.403-1.121-.974-1.472-1.713-.346-.745-.524-1.605-.533-2.581v-.747c0-.996.173-1.875.519-2.638.346-.763.834-1.346 1.465-1.749.635-.408 1.36-.612 2.175-.612.83 0 1.56.202 2.19.605.636.398 1.124.979 1.465 1.742.341.758.512 1.642.512 2.652v.654zm-1.358-.668c0-1.228-.246-2.169-.739-2.823-.493-.659-1.183-.988-2.07-.988-.862 0-1.542.329-2.04.988-.493.654-.747 1.564-.761 2.73v.761c0 1.19.249 2.126.747 2.809.502.677 1.192 1.016 2.069 1.016.881 0 1.564-.32 2.047-.959.484-.645.733-1.567.747-2.766v-.768zm2.915 1.806c0-1.285.249-2.295.747-3.029.498-.735 1.18-1.102 2.048-1.102.403 0 .756.068 1.059.206v-3.292h1.315v3.334c.332-.165.721-.248 1.167-.248.872 0 1.557.367 2.054 1.102.498.734.747 1.794.747 3.178 0 1.133-.249 2.034-.747 2.702-.493.668-1.173 1.003-2.04 1.003-.46 0-.853-.076-1.181-.228v3.036h-1.315v-3.015a2.638 2.638 0 01-1.074.207c-.862 0-1.543-.335-2.04-1.003-.493-.668-.74-1.583-.74-2.745v-.106zm7.822 0c0-.967-.166-1.716-.498-2.247-.332-.536-.789-.804-1.372-.804-.299 0-.56.048-.783.143v5.567c.214.081.479.121.797.121.588 0 1.043-.228 1.365-.683.327-.455.491-1.154.491-2.097zm-6.506.149c0 .863.154 1.517.462 1.962.308.446.751.669 1.329.669.275 0 .524-.043.747-.128v-5.582a1.966 1.966 0 00-.732-.121c-.579 0-1.024.259-1.337.775-.313.517-.469 1.325-.469 2.425zm14.512-4.138h1.315v7.693h-1.315v-5.61l-3.548 5.61h-1.316v-7.693h1.316v5.617l3.548-5.617zm6.513 6.762c.469 0 .879-.142 1.23-.427a1.5 1.5 0 00.583-1.066h1.244c-.023.44-.175.86-.455 1.258a2.988 2.988 0 01-1.123.953 3.212 3.212 0 01-1.479.355c-1.048 0-1.882-.348-2.503-1.045-.616-.701-.924-1.659-.924-2.872v-.221c0-.749.137-1.415.412-1.998a3.146 3.146 0 011.18-1.358c.517-.322 1.126-.483 1.828-.483.862 0 1.578.258 2.147.775.574.516.879 1.187.917 2.012h-1.244c-.038-.498-.228-.906-.569-1.223-.336-.322-.754-.484-1.251-.484-.669 0-1.188.242-1.557.726-.365.478-.548 1.173-.548 2.083v.249c0 .886.183 1.569.548 2.048.365.478.886.718 1.564.718zm9.926-4.885h.988c.621-.01 1.109-.173 1.465-.491.355-.317.533-.746.533-1.287 0-1.213-.604-1.82-1.813-1.82-.569 0-1.024.164-1.365.491-.337.322-.505.751-.505 1.287h-1.315c0-.82.298-1.501.895-2.041.602-.545 1.366-.818 2.29-.818.976 0 1.742.259 2.297.775.554.517.832 1.235.832 2.155 0 .45-.147.886-.441 1.308a2.619 2.619 0 01-1.188.946c.569.18 1.008.479 1.316.896.313.417.469.926.469 1.528 0 .929-.303 1.667-.91 2.212-.607.545-1.396.817-2.368.817s-1.763-.263-2.375-.789c-.606-.526-.91-1.22-.91-2.083h1.323c0 .545.177.981.533 1.308.355.327.832.491 1.429.491.635 0 1.121-.166 1.458-.498.336-.332.505-.808.505-1.429 0-.602-.185-1.064-.555-1.387-.37-.322-.903-.488-1.6-.497h-.988v-1.074zm12.756 1.401c0 1.54-.263 2.685-.79 3.434-.526.749-1.348 1.123-2.467 1.123-1.104 0-1.922-.365-2.453-1.095-.531-.734-.806-1.829-.825-3.285v-1.756c0-1.521.263-2.652.79-3.391.526-.74 1.351-1.11 2.474-1.11 1.114 0 1.934.358 2.46 1.074.526.711.796 1.811.811 3.299v1.707zm-1.316-1.799c0-1.114-.156-1.925-.469-2.432-.313-.512-.808-.768-1.486-.768-.673 0-1.164.254-1.472.761-.308.507-.467 1.287-.476 2.339v2.105c0 1.119.161 1.946.483 2.481.327.531.82.797 1.479.797.65 0 1.131-.251 1.444-.754.317-.502.483-1.294.497-2.375v-2.154zm3.605 1.024l.526-5.162h5.305v1.215h-4.188l-.313 2.823c.507-.298 1.083-.448 1.728-.448.943 0 1.692.313 2.246.939.555.621.832 1.462.832 2.524 0 1.067-.289 1.908-.867 2.524-.574.612-1.377.917-2.41.917-.915 0-1.662-.253-2.24-.76-.579-.508-.908-1.209-.989-2.105h1.245c.08.592.291 1.04.633 1.344.341.298.791.448 1.351.448.611 0 1.09-.209 1.436-.626.351-.417.526-.993.526-1.728 0-.692-.19-1.246-.569-1.664-.374-.421-.874-.632-1.5-.632-.574 0-1.024.125-1.351.376l-.348.285-1.053-.27zm-5.65 63.672l2.481-3.967h1.607l-3.27 5.133 3.348 5.219h-1.621l-2.545-4.038-2.56 4.038h-1.614l3.356-5.219-3.278-5.133h1.6l2.496 3.967zm5.041 2.468c0-.754.147-1.432.441-2.034.299-.602.711-1.066 1.237-1.394.531-.327 1.135-.49 1.813-.49 1.048 0 1.894.362 2.539 1.088.649.725.974 1.69.974 2.894v.092c0 .749-.145 1.422-.434 2.019a3.234 3.234 0 01-1.23 1.387c-.531.332-1.142.498-1.835.498-1.042 0-1.889-.363-2.538-1.088-.645-.726-.967-1.685-.967-2.88v-.092zm1.323.156c0 .853.196 1.538.59 2.055.398.517.929.775 1.592.775.669 0 1.2-.261 1.593-.782.394-.526.59-1.261.59-2.204 0-.844-.201-1.527-.604-2.048-.398-.526-.929-.789-1.593-.789-.649 0-1.173.258-1.571.775-.398.516-.597 1.256-.597 2.218zm13.523-3.932v7.693h-1.322v-6.605h-2.617l-.156 2.88c-.085 1.322-.308 2.268-.669 2.837-.355.568-.921.865-1.699.888h-.526v-1.159l.377-.028c.426-.047.732-.294.917-.74.185-.445.303-1.27.356-2.474l.142-3.292h5.197zm8.419 0v7.693h-1.323v-6.605h-2.616l-.157 2.88c-.085 1.322-.308 2.268-.668 2.837-.355.568-.922.865-1.699.888h-.526v-1.159l.376-.028c.427-.047.733-.294.918-.74.184-.445.303-1.27.355-2.474l.142-3.292h5.198zM104.073 79.424l2.481-3.968h1.607l-3.27 5.134 3.349 5.219h-1.622l-2.545-4.04-2.56 4.04h-1.614l3.356-5.22-3.278-5.133h1.6l2.496 3.968zm5.041 2.467c0-.754.147-1.432.441-2.034.299-.602.711-1.066 1.237-1.393.531-.327 1.135-.491 1.813-.491 1.048 0 1.894.363 2.539 1.088.649.725.974 1.69.974 2.894v.092c0 .75-.145 1.422-.434 2.02a3.235 3.235 0 01-1.23 1.386c-.531.332-1.142.498-1.834.498-1.043 0-1.889-.363-2.539-1.088-.644-.725-.967-1.685-.967-2.88v-.092zm1.323.156c0 .853.196 1.538.59 2.055.398.517.929.775 1.593.775.668 0 1.199-.26 1.592-.782.394-.526.59-1.26.59-2.204 0-.844-.201-1.526-.604-2.048-.398-.526-.929-.79-1.593-.79-.649 0-1.173.26-1.571.776-.398.517-.597 1.256-.597 2.218zm13.524-3.932v7.694h-1.323v-6.606h-2.617l-.156 2.88c-.085 1.322-.308 2.268-.668 2.837-.356.569-.922.865-1.7.889h-.526v-1.16l.377-.028c.427-.047.732-.294.917-.74.185-.445.304-1.27.356-2.474l.142-3.292h5.198zm8.418 0v7.694h-1.322v-6.606h-2.617l-.156 2.88c-.086 1.322-.309 2.268-.669 2.837-.355.569-.922.865-1.699.889h-.526v-1.16l.377-.028c.426-.047.732-.294.917-.74.185-.445.303-1.27.355-2.474l.142-3.292h5.198z" fill="#363636"/><path d="M390.916 44.557h-2.924V50h-1.09v-6.34h4.014v.897zm.967 4.875c0-.188.055-.344.164-.47.113-.124.281-.187.504-.187.222 0 .39.063.504.188a.659.659 0 01.175.469c0 .18-.058.33-.175.45-.114.122-.282.183-.504.183-.223 0-.391-.061-.504-.182a.65.65 0 01-.164-.451zm7.74-7.963l2.789 6.96 2.789-6.96h1.459V50h-1.125v-3.322l.106-3.586L402.84 50h-.861l-2.795-6.89.111 3.568V50h-1.125v-8.531h1.453zm10.037 4.377h1.647c.718.008 1.287.195 1.705.562.418.367.627.865.627 1.494 0 .633-.215 1.141-.645 1.524-.43.383-1.008.574-1.734.574h-2.684v-6.34h1.084v2.186zM415.9 50h-1.089v-6.34h1.089V50zm-6.24-3.27v2.385h1.611c.407 0 .721-.103.944-.31.223-.211.334-.498.334-.862 0-.351-.11-.638-.328-.861-.215-.227-.518-.344-.909-.352h-1.652zm12.844-2.19h-2.127V50h-1.084v-5.46h-2.086v-.88h5.297v.88zm5.156-.88h1.084V50h-1.084v-4.623L424.736 50h-1.084v-6.34h1.084v4.63l2.924-4.63zm3.944 0v5.455h2.32V43.66h1.084v5.455h2.314V43.66h1.09v5.455h.891l-.106 2.766h-.972V50h-7.711v-6.34h1.09zm12.908 0h1.084V50h-1.084v-4.623L441.588 50h-1.084v-6.34h1.084v4.63l2.924-4.63zm2.789 8.04l-.615-.423c.367-.511.558-1.039.574-1.582v-.978h1.06v.85c0 .394-.097.788-.293 1.183a2.75 2.75 0 01-.726.95zM391.455 64v-3.322h-1.969L387.723 64h-1.202l1.981-3.633c-1.102-.433-1.652-1.209-1.652-2.326 0-.813.265-1.443.796-1.893.536-.453 1.278-.68 2.227-.68h2.713V64h-1.131zm-3.48-5.959c0 .516.16.93.48 1.242.324.313.774.47 1.348.475h1.652v-3.364h-1.6c-.609 0-1.076.145-1.4.434-.32.29-.48.694-.48 1.213zm11.841 2.86c0 .964-.22 1.742-.662 2.331-.441.59-1.039.885-1.793.885-.769 0-1.375-.244-1.816-.732v3.053h-1.084V57.66h.99l.053.703c.441-.547 1.055-.82 1.84-.82.761 0 1.363.287 1.804.861.446.574.668 1.373.668 2.397v.1zm-1.084-.124c0-.715-.152-1.279-.457-1.693-.304-.414-.722-.621-1.254-.621-.656 0-1.148.29-1.476.873v3.03c.324.577.82.866 1.488.866.52 0 .932-.205 1.237-.615.308-.414.462-1.027.462-1.84zm2.18-.005c0-.622.121-1.18.363-1.676a2.755 2.755 0 011.02-1.149c.437-.27.935-.404 1.494-.404.863 0 1.561.299 2.092.897.535.597.803 1.392.803 2.384v.076c0 .618-.12 1.172-.358 1.665a2.662 2.662 0 01-1.014 1.142c-.437.273-.941.41-1.511.41-.86 0-1.557-.299-2.092-.896-.531-.598-.797-1.389-.797-2.373v-.076zm1.09.128c0 .703.162 1.268.486 1.694.328.425.766.638 1.313.638.551 0 .988-.214 1.312-.644.325-.434.487-1.04.487-1.816 0-.696-.166-1.258-.498-1.688a1.566 1.566 0 00-1.313-.65c-.535 0-.967.213-1.295.638-.328.426-.492 1.035-.492 1.828zm8.584 2.332c.387 0 .725-.117 1.014-.351.289-.234.449-.528.48-.879h1.025a1.957 1.957 0 01-.375 1.037c-.23.328-.539.59-.925.785a2.646 2.646 0 01-1.219.293c-.863 0-1.551-.287-2.063-.861-.507-.578-.761-1.367-.761-2.367v-.182c0-.617.113-1.166.34-1.647.226-.48.55-.853.972-1.119.426-.265.928-.398 1.506-.398.711 0 1.301.213 1.77.639.472.425.724.978.755 1.658h-1.025a1.474 1.474 0 00-.469-1.008 1.432 1.432 0 00-1.031-.398c-.551 0-.978.199-1.283.597-.301.395-.451.967-.451 1.717v.205c0 .73.15 1.293.451 1.688.301.394.73.591 1.289.591zm8.935-5.572V64h-1.089v-5.443h-2.157l-.129 2.373c-.07 1.09-.253 1.869-.55 2.338-.293.468-.76.712-1.401.732h-.433v-.955l.31-.023c.352-.04.604-.243.756-.61.152-.367.25-1.047.293-2.039l.117-2.713h4.283zm5.655 6.34c-.063-.125-.114-.348-.153-.668-.503.523-1.105.785-1.804.785-.625 0-1.139-.176-1.541-.527a1.726 1.726 0 01-.598-1.348c0-.66.25-1.172.75-1.535.504-.367 1.211-.55 2.121-.55h1.055v-.499c0-.379-.113-.68-.34-.902-.227-.227-.561-.34-1.002-.34-.387 0-.711.098-.973.293-.261.195-.392.432-.392.709h-1.09c0-.316.111-.621.334-.914.227-.297.531-.531.914-.703a3.098 3.098 0 011.272-.258c.73 0 1.302.184 1.716.55.414.364.629.866.645 1.507v2.918c0 .582.074 1.044.222 1.388V64h-1.136zm-1.799-.826c.34 0 .662-.088.967-.264a1.6 1.6 0 00.662-.685v-1.301h-.85c-1.328 0-1.992.389-1.992 1.166 0 .34.113.605.34.797.226.191.517.287.873.287zm4.512.826v-6.34h2.472c.844 0 1.491.149 1.94.446.453.292.679.724.679 1.294 0 .293-.087.559-.263.797-.176.235-.436.414-.779.54.382.09.689.265.919.527.235.261.352.574.352.937 0 .582-.215 1.027-.645 1.336-.425.309-1.029.463-1.81.463h-2.865zm1.084-2.783v1.91h1.793c.453 0 .791-.084 1.013-.252.227-.168.34-.404.34-.709 0-.633-.465-.95-1.394-.95h-1.752zm0-.867h1.4c1.016 0 1.523-.297 1.523-.891 0-.594-.48-.9-1.441-.92h-1.482v1.81zm8.215 2.882c.386 0 .724-.117 1.013-.351a1.24 1.24 0 00.481-.879h1.025a1.966 1.966 0 01-.375 1.037 2.46 2.46 0 01-.926.785 2.645 2.645 0 01-1.218.293c-.864 0-1.551-.287-2.063-.861-.508-.578-.762-1.367-.762-2.367v-.182c0-.617.114-1.166.34-1.647.227-.48.551-.853.973-1.119.426-.265.928-.398 1.506-.398.711 0 1.3.213 1.769.639.473.425.725.978.756 1.658h-1.025a1.482 1.482 0 00-.469-1.008 1.432 1.432 0 00-1.031-.398c-.551 0-.979.199-1.284.597-.3.395-.451.967-.451 1.717v.205c0 .73.151 1.293.451 1.688.301.394.731.591 1.29.591zM442.9 61.3h-.791V64h-1.089v-6.34h1.089v2.684h.709l2.133-2.684h1.313l-2.508 3.047L446.475 64h-1.377l-2.198-2.701zm4.09-.527c0-.622.121-1.18.364-1.676a2.753 2.753 0 011.019-1.149c.438-.27.936-.404 1.494-.404.863 0 1.561.299 2.092.897.535.597.803 1.392.803 2.384v.076c0 .618-.119 1.172-.358 1.665a2.666 2.666 0 01-1.013 1.142c-.438.273-.942.41-1.512.41-.859 0-1.557-.299-2.092-.896-.531-.598-.797-1.389-.797-2.373v-.076zm1.09.128c0 .703.162 1.268.486 1.694.329.425.766.638 1.313.638.551 0 .988-.214 1.312-.644.325-.434.487-1.04.487-1.816 0-.696-.166-1.258-.498-1.688a1.564 1.564 0 00-1.313-.65c-.535 0-.967.213-1.295.638-.328.426-.492 1.035-.492 1.828zm8.672 3.217c-.859 0-1.559-.281-2.098-.844-.539-.566-.808-1.322-.808-2.267v-.2c0-.628.119-1.189.357-1.681a2.812 2.812 0 011.008-1.16 2.536 2.536 0 011.406-.422c.824 0 1.465.272 1.922.814.457.543.686 1.32.686 2.333v.45h-4.295c.015.626.197 1.132.545 1.518.351.383.796.574 1.336.574.382 0 .707-.078.972-.234.266-.156.498-.363.697-.621l.663.516c-.532.816-1.329 1.224-2.391 1.224zm-.135-5.683c-.437 0-.805.16-1.101.48-.297.316-.481.762-.551 1.336h3.176v-.082c-.032-.55-.18-.977-.446-1.277-.265-.305-.625-.457-1.078-.457zm8.028-.774v5.455h2.32V57.66h1.084v5.455h2.314V57.66h1.09V64h-7.898v-6.34h1.09zm8.232 3.112c0-.622.121-1.18.363-1.676a2.755 2.755 0 011.02-1.149c.437-.27.935-.404 1.494-.404.863 0 1.56.299 2.092.897.535.597.802 1.392.802 2.384v.076c0 .618-.119 1.172-.357 1.665a2.662 2.662 0 01-1.014 1.142c-.437.273-.941.41-1.511.41-.86 0-1.557-.299-2.092-.896-.531-.598-.797-1.389-.797-2.373v-.076zm1.09.128c0 .703.162 1.268.486 1.694.328.425.766.638 1.313.638.55 0 .988-.214 1.312-.644.324-.434.486-1.04.486-1.816 0-.696-.166-1.258-.498-1.688a1.563 1.563 0 00-1.312-.65c-.535 0-.967.213-1.295.638-.328.426-.492 1.035-.492 1.828zm8.584 2.332a1.56 1.56 0 001.013-.351c.29-.234.45-.528.481-.879h1.025a1.957 1.957 0 01-.375 1.037c-.23.328-.539.59-.925.785-.383.195-.79.293-1.219.293-.863 0-1.551-.287-2.063-.861-.508-.578-.761-1.367-.761-2.367v-.182c0-.617.113-1.166.339-1.647.227-.48.551-.853.973-1.119.426-.265.928-.398 1.506-.398.711 0 1.301.213 1.769.639.473.425.725.978.756 1.658h-1.025a1.478 1.478 0 00-.469-1.008 1.432 1.432 0 00-1.031-.398c-.551 0-.979.199-1.283.597-.301.395-.451.967-.451 1.717v.205c0 .73.15 1.293.451 1.688.3.394.73.591 1.289.591zm6.281 0c.387 0 .725-.117 1.014-.351.289-.234.449-.528.48-.879h1.026c-.02.363-.145.709-.375 1.037-.231.328-.539.59-.926.785a2.646 2.646 0 01-1.219.293c-.863 0-1.551-.287-2.062-.861-.508-.578-.762-1.367-.762-2.367v-.182c0-.617.113-1.166.34-1.647.226-.48.55-.853.972-1.119.426-.265.928-.398 1.506-.398.711 0 1.301.213 1.77.639.472.425.724.978.756 1.658h-1.026a1.474 1.474 0 00-.469-1.008 1.432 1.432 0 00-1.031-.398c-.551 0-.978.199-1.283.597-.301.395-.451.967-.451 1.717v.205c0 .73.15 1.293.451 1.688.301.394.73.591 1.289.591zm6.369.885c-.859 0-1.558-.281-2.097-.844-.54-.566-.809-1.322-.809-2.267v-.2c0-.628.119-1.189.357-1.681a2.819 2.819 0 011.008-1.16 2.536 2.536 0 011.406-.422c.825 0 1.465.272 1.922.814.457.543.686 1.32.686 2.333v.45h-4.295c.016.626.197 1.132.545 1.518.351.383.797.574 1.336.574.383 0 .707-.078.972-.234.266-.156.498-.363.698-.621l.662.516c-.531.816-1.328 1.224-2.391 1.224zm-.135-5.683c-.437 0-.804.16-1.101.48-.297.316-.481.762-.551 1.336h3.176v-.082c-.031-.55-.18-.977-.445-1.277-.266-.305-.625-.457-1.079-.457zm3.832 7.265l-.615-.422c.367-.511.559-1.039.574-1.582v-.978h1.061v.85c0 .394-.098.789-.293 1.183-.191.394-.434.71-.727.95zm5.467-1.7v-6.34h2.473c.844 0 1.49.149 1.939.446.453.292.68.724.68 1.294 0 .293-.088.559-.264.797-.175.235-.435.414-.779.54.383.09.69.265.92.527.234.261.352.574.352.937 0 .582-.215 1.027-.645 1.336-.426.309-1.029.463-1.811.463h-2.865zm1.084-2.783v1.91h1.793c.453 0 .791-.084 1.014-.252.226-.168.34-.404.34-.709 0-.633-.465-.95-1.395-.95h-1.752zm0-.867h1.401c1.015 0 1.523-.297 1.523-.891 0-.594-.48-.9-1.441-.92h-1.483v1.81zm10.869-2.69V64h-1.089v-5.443h-2.157l-.129 2.373c-.07 1.09-.254 1.869-.55 2.338-.293.468-.76.712-1.401.732h-.433v-.955l.31-.023c.352-.04.604-.243.756-.61.152-.367.25-1.047.293-2.039l.117-2.713h4.283zm1.764 5.772c0-.188.055-.344.164-.47.113-.124.281-.187.504-.187.223 0 .391.063.504.188a.66.66 0 01.176.469.62.62 0 01-.176.45c-.113.122-.281.182-.504.182-.223 0-.391-.06-.504-.181a.65.65 0 01-.164-.451zm9.568.568h-1.089v-7.225l-2.186.803v-.984l3.105-1.166h.17V64zm3.252 1.7l-.615-.423c.367-.511.559-1.039.574-1.582v-.978h1.061v.85c0 .394-.098.789-.293 1.183-.191.394-.434.71-.727.95zm7.91-2.468c.387 0 .725-.117 1.014-.351a1.24 1.24 0 00.481-.879h1.025c-.02.363-.144.709-.375 1.037a2.46 2.46 0 01-.926.785 2.646 2.646 0 01-1.219.293c-.863 0-1.55-.287-2.062-.861-.508-.578-.762-1.367-.762-2.367v-.182c0-.617.114-1.166.34-1.647.227-.48.551-.853.973-1.119.426-.265.928-.398 1.506-.398.711 0 1.3.213 1.769.639.473.425.725.978.756 1.658h-1.025a1.482 1.482 0 00-.469-1.008 1.432 1.432 0 00-1.031-.398c-.551 0-.979.199-1.284.597-.3.395-.451.967-.451 1.717v.205c0 .73.151 1.293.451 1.688.301.394.731.591 1.289.591zm3.762.2c0-.188.055-.344.164-.47.114-.124.282-.187.504-.187.223 0 .391.063.504.188a.66.66 0 01.176.469.62.62 0 01-.176.45c-.113.122-.281.182-.504.182-.222 0-.39-.06-.504-.181a.65.65 0 01-.164-.451zm6.592.568h-1.09v-7.225l-2.185.803v-.984l3.105-1.166h.17V64zm3.311-.568c0-.188.054-.344.164-.47.113-.124.281-.187.504-.187.222 0 .39.063.503.188a.655.655 0 01.176.469.62.62 0 01-.176.45c-.113.122-.281.182-.503.182-.223 0-.391-.06-.504-.181a.645.645 0 01-.164-.451zM386.99 88v-8.531h2.789c.926 0 1.621.191 2.086.574.469.383.703.95.703 1.7 0 .398-.113.751-.339 1.06a2.22 2.22 0 01-.926.709 1.96 1.96 0 011.09.738c.269.36.404.79.404 1.29 0 .765-.248 1.366-.744 1.804-.496.437-1.198.656-2.104.656h-2.959zm1.125-3.99v3.07h1.858c.523 0 .935-.135 1.236-.404.305-.274.457-.649.457-1.125 0-1.028-.559-1.541-1.676-1.541h-1.875zm0-.903h1.699c.493 0 .885-.123 1.178-.369.297-.246.446-.58.446-1.002 0-.468-.137-.808-.411-1.02-.273-.214-.689-.322-1.248-.322h-1.664v2.713zm8.309.868l1.406-2.315h1.266l-2.075 3.135L399.16 88h-1.254l-1.465-2.373L394.977 88h-1.26l2.138-3.205-2.074-3.135h1.254l1.389 2.315zm3.422.797c0-.622.121-1.18.363-1.676a2.755 2.755 0 011.02-1.149c.437-.27.935-.404 1.494-.404.863 0 1.56.299 2.091.896.536.598.803 1.393.803 2.385v.076c0 .618-.119 1.172-.357 1.664a2.67 2.67 0 01-1.014 1.143c-.437.274-.941.41-1.512.41-.859 0-1.556-.299-2.091-.896-.532-.598-.797-1.389-.797-2.373v-.076zm1.09.128c0 .703.162 1.268.486 1.694.328.425.766.638 1.312.638.551 0 .989-.214 1.313-.644.324-.434.486-1.04.486-1.816 0-.696-.166-1.258-.498-1.688a1.563 1.563 0 00-1.312-.65c-.535 0-.967.213-1.295.638-.328.426-.492 1.035-.492 1.828zm5.566 2.215l.375-.463c.422-.546.662-1.367.721-2.46l.099-2.532h4.084v5.455h.815v2.748h-1.084V88h-4.424v1.863h-1.084l.006-2.748h.492zm1.283 0h2.912v-4.453h-1.951l-.064 1.512c-.067 1.261-.366 2.242-.897 2.941zm11.531.117c.387 0 .725-.117 1.014-.351a1.24 1.24 0 00.481-.879h1.025c-.02.363-.145.709-.375 1.037-.231.328-.539.59-.926.785a2.646 2.646 0 01-1.219.293c-.863 0-1.55-.287-2.062-.861-.508-.578-.762-1.367-.762-2.367v-.182c0-.617.113-1.166.34-1.646.227-.48.551-.854.973-1.12.425-.265.927-.398 1.506-.398.71 0 1.3.213 1.769.639.473.425.725.978.756 1.658h-1.025a1.482 1.482 0 00-.469-1.008 1.434 1.434 0 00-1.031-.398c-.551 0-.979.199-1.284.597-.3.395-.451.967-.451 1.717v.205c0 .73.151 1.293.451 1.688.301.394.731.591 1.289.591zm11.901.768h-1.084v-5.443h-2.918V88h-1.09v-6.34h5.092V88zm7.095-3.1c0 .965-.22 1.743-.662 2.332-.441.59-1.039.885-1.793.885-.769 0-1.375-.244-1.816-.732v3.052h-1.084V81.66h.99l.053.703c.441-.547 1.055-.82 1.84-.82.762 0 1.363.287 1.805.861.445.575.667 1.373.667 2.397v.1zm-1.083-.123c0-.715-.153-1.279-.458-1.693-.304-.414-.722-.621-1.253-.621-.657 0-1.149.29-1.477.873v3.03c.324.577.82.866 1.488.866.52 0 .932-.205 1.237-.615.308-.414.463-1.027.463-1.84zm6.38 3.223c-.062-.125-.113-.348-.152-.668-.504.524-1.105.785-1.805.785-.625 0-1.138-.176-1.541-.527a1.729 1.729 0 01-.597-1.348c0-.66.25-1.172.75-1.535.504-.367 1.211-.55 2.121-.55h1.054v-.499c0-.379-.113-.68-.339-.902-.227-.227-.561-.34-1.002-.34-.387 0-.711.098-.973.293-.262.195-.393.432-.393.709h-1.089c0-.316.111-.621.334-.914a2.31 2.31 0 01.914-.703 3.09 3.09 0 011.271-.258c.731 0 1.303.184 1.717.55.414.364.629.866.644 1.507v2.918c0 .582.075 1.044.223 1.388V88h-1.137zm-1.798-.826a1.9 1.9 0 00.966-.264 1.59 1.59 0 00.662-.685v-1.301h-.849c-1.328 0-1.992.388-1.992 1.166 0 .34.113.605.34.797.226.191.517.287.873.287zm4.511.826v-6.34h2.473c.844 0 1.49.149 1.939.446.454.292.68.724.68 1.294 0 .293-.088.559-.264.797-.175.235-.435.414-.779.54.383.09.69.265.92.527.234.261.352.574.352.937 0 .582-.215 1.028-.645 1.336-.426.309-1.029.463-1.81.463h-2.866zm1.084-2.783v1.91h1.793c.453 0 .791-.084 1.014-.252.226-.168.34-.404.34-.709 0-.633-.465-.95-1.395-.95h-1.752zm0-.867h1.401c1.015 0 1.523-.297 1.523-.891 0-.594-.48-.9-1.441-.92h-1.483v1.81zm5.385.422c0-.622.121-1.18.363-1.676a2.755 2.755 0 011.02-1.149c.437-.27.935-.404 1.494-.404.863 0 1.561.299 2.092.896.535.598.802 1.393.802 2.385v.076c0 .618-.119 1.172-.357 1.664-.234.489-.572.87-1.014 1.143-.437.274-.941.41-1.511.41-.86 0-1.557-.299-2.092-.896-.531-.598-.797-1.389-.797-2.373v-.076zm1.09.128c0 .703.162 1.268.486 1.694.328.425.766.638 1.313.638.55 0 .988-.214 1.312-.644.324-.434.487-1.04.487-1.816 0-.696-.167-1.258-.499-1.688a1.563 1.563 0 00-1.312-.65c-.535 0-.967.213-1.295.638-.328.426-.492 1.035-.492 1.828zm10.142-3.24h1.084V88h-1.084v-4.623L461.1 88h-1.084v-6.34h1.084v4.63l2.923-4.63zm.293-2.308c0 .472-.162.853-.486 1.142-.32.285-.742.428-1.266.428-.523 0-.947-.145-1.271-.434-.324-.289-.486-.668-.486-1.136h.884c0 .273.075.488.223.644.148.152.365.229.65.229.274 0 .487-.077.639-.229.156-.152.235-.367.235-.644h.878zm8.051 7.88c.387 0 .725-.117 1.014-.351.289-.234.449-.528.48-.879h1.026c-.02.363-.145.709-.375 1.037-.231.328-.539.59-.926.785a2.646 2.646 0 01-1.219.293c-.863 0-1.551-.287-2.062-.861-.508-.578-.762-1.367-.762-2.367v-.182c0-.617.113-1.166.34-1.646.226-.48.551-.854.972-1.12.426-.265.928-.398 1.506-.398.711 0 1.301.213 1.77.639.473.425.724.978.756 1.658h-1.026a1.477 1.477 0 00-.468-1.008 1.436 1.436 0 00-1.032-.398c-.55 0-.978.199-1.283.597-.301.395-.451.967-.451 1.717v.205c0 .73.15 1.293.451 1.688.301.394.731.591 1.289.591zm8.449-4.693h-2.127V88h-1.084v-5.46h-2.085v-.88h5.296v.88zm.522 2.233c0-.622.121-1.18.363-1.676a2.755 2.755 0 011.02-1.149c.437-.27.935-.404 1.494-.404.863 0 1.56.299 2.092.896.535.598.802 1.393.802 2.385v.076c0 .618-.119 1.172-.357 1.664-.234.489-.572.87-1.014 1.143-.437.274-.941.41-1.511.41-.86 0-1.557-.299-2.092-.896-.531-.598-.797-1.389-.797-2.373v-.076zm1.09.128c0 .703.162 1.268.486 1.694.328.425.766.638 1.313.638.55 0 .988-.214 1.312-.644.324-.434.486-1.04.486-1.816 0-.696-.166-1.258-.498-1.688a1.563 1.563 0 00-1.312-.65c-.535 0-.967.213-1.295.638-.328.426-.492 1.035-.492 1.828zm11.396 0c0 .965-.22 1.743-.662 2.332-.441.59-1.039.885-1.793.885-.769 0-1.375-.244-1.816-.732v3.052h-1.084V81.66h.99l.053.703c.441-.547 1.054-.82 1.84-.82.761 0 1.363.287 1.804.861.446.575.668 1.373.668 2.397v.1zm-1.084-.123c0-.715-.152-1.279-.457-1.693-.304-.414-.722-.621-1.254-.621-.656 0-1.148.29-1.476.873v3.03c.324.577.82.866 1.488.866.52 0 .932-.205 1.236-.615.309-.414.463-1.027.463-1.84zm2.18-.005c0-.622.121-1.18.363-1.676a2.755 2.755 0 011.02-1.149c.437-.27.935-.404 1.494-.404.863 0 1.56.299 2.092.896.535.598.802 1.393.802 2.385v.076c0 .618-.119 1.172-.357 1.664-.234.489-.572.87-1.014 1.143-.437.274-.941.41-1.511.41-.86 0-1.557-.299-2.092-.896-.531-.598-.797-1.389-.797-2.373v-.076zm1.09.128c0 .703.162 1.268.486 1.694.328.425.766.638 1.313.638.55 0 .988-.214 1.312-.644.324-.434.486-1.04.486-1.816 0-.696-.166-1.258-.498-1.688a1.563 1.563 0 00-1.312-.65c-.535 0-.967.213-1.295.638-.328.426-.492 1.035-.492 1.828zm11.22 3.1h-1.084v-2.707h-2.912V88h-1.089v-6.34h1.089v2.748h2.912V81.66h1.084V88zm2.93-4.154h1.647c.718.007 1.287.195 1.705.562.418.367.627.865.627 1.494 0 .633-.215 1.141-.645 1.524-.43.383-1.008.574-1.734.574h-2.684v-6.34h1.084v2.186zM516.4 88h-1.089v-6.34h1.089V88zm-6.24-3.27v2.385h1.611c.407 0 .721-.103.944-.31.223-.211.334-.498.334-.862 0-.351-.11-.638-.328-.861-.215-.226-.518-.344-.909-.351h-1.652zm14.596-1.336a.834.834 0 00-.34-.703c-.227-.175-.537-.263-.932-.263-.382 0-.703.1-.961.299-.253.199-.38.433-.38.703h-1.079c0-.551.231-1.002.692-1.354.461-.351 1.037-.527 1.728-.527.743 0 1.321.16 1.735.48.414.317.621.77.621 1.36 0 .285-.086.547-.258.785a1.758 1.758 0 01-.732.568c.738.25 1.107.742 1.107 1.477 0 .582-.225 1.043-.674 1.383-.449.34-1.049.51-1.799.51-.73 0-1.334-.178-1.81-.534-.473-.36-.709-.844-.709-1.453h1.078c0 .309.137.574.41.797.277.219.621.328 1.031.328.414 0 .748-.096 1.002-.287a.89.89 0 00.381-.744c0-.356-.107-.61-.322-.762-.211-.156-.541-.234-.99-.234h-1.084v-.914h1.177c.739-.02 1.108-.325 1.108-.915zm2.555 3.721l.375-.463c.421-.546.662-1.367.72-2.46l.1-2.532h4.084v5.455h.814v2.748h-1.084V88h-4.424v1.863h-1.084l.006-2.748h.493zm1.283 0h2.912v-4.453h-1.951l-.065 1.512c-.066 1.261-.365 2.242-.896 2.941zm9.926.885c-.063-.125-.114-.348-.153-.668-.504.524-1.105.785-1.805.785-.624 0-1.138-.176-1.541-.527a1.729 1.729 0 01-.597-1.348c0-.66.25-1.172.75-1.535.504-.367 1.211-.55 2.121-.55h1.055v-.499c0-.379-.114-.68-.34-.902-.227-.227-.561-.34-1.002-.34-.387 0-.711.098-.973.293-.262.195-.392.432-.392.709h-1.09c0-.316.111-.621.334-.914a2.31 2.31 0 01.914-.703c.387-.172.81-.258 1.271-.258.731 0 1.303.184 1.717.55.414.364.629.866.645 1.507v2.918c0 .582.074 1.044.222 1.388V88h-1.136zm-1.799-.826c.34 0 .662-.088.967-.264a1.6 1.6 0 00.662-.685v-1.301h-.85c-1.328 0-1.992.388-1.992 1.166 0 .34.113.605.34.797.226.191.517.287.873.287zm9.591.826h-1.083v-2.707h-2.913V88h-1.089v-6.34h1.089v2.748h2.913V81.66h1.083V88zm5.848-6.34h1.084V88h-1.084v-4.623L549.236 88h-1.084v-6.34h1.084v4.63l2.924-4.63zm7.67 0V88h-1.09v-2.467h-1.635L555.611 88h-1.172l1.594-2.63c-.406-.15-.719-.378-.937-.686a1.876 1.876 0 01-.323-1.09c0-.578.217-1.043.651-1.395.433-.355 1.014-.535 1.74-.539h2.666zm-3.967 1.946c0 .308.106.558.317.75.211.187.49.283.838.287h1.722v-2.104h-1.558c-.403 0-.723.1-.961.299a.943.943 0 00-.358.768zm5.672 6.093l-.615-.422c.367-.511.559-1.039.574-1.582v-.978h1.061v.85c0 .394-.098.789-.293 1.183a2.75 2.75 0 01-.727.95zM386.92 102v-6.34h2.473c.843 0 1.49.149 1.939.446.453.292.68.724.68 1.294 0 .293-.088.559-.264.797-.176.235-.436.414-.779.54.383.09.689.265.92.527.234.261.351.574.351.937 0 .582-.215 1.028-.644 1.336-.426.309-1.03.463-1.811.463h-2.865zm1.084-2.783v1.91h1.793c.453 0 .791-.084 1.014-.252.226-.168.339-.404.339-.709 0-.633-.464-.95-1.394-.95h-1.752zm0-.867h1.4c1.016 0 1.524-.297 1.524-.891 0-.594-.481-.9-1.442-.92h-1.482v1.81zm10.312-1.81h-2.127V102h-1.084v-5.46h-2.085v-.88h5.296v.88zm.522 2.231c0-.62.121-1.18.363-1.675a2.755 2.755 0 011.02-1.149c.437-.27.935-.404 1.494-.404.863 0 1.56.299 2.092.896.535.598.802 1.393.802 2.385v.076c0 .618-.119 1.172-.357 1.664-.234.489-.572.87-1.014 1.143-.437.273-.941.41-1.511.41-.86 0-1.557-.299-2.092-.896-.531-.598-.797-1.389-.797-2.373v-.076zm1.09.13c0 .703.162 1.267.486 1.693.328.426.766.638 1.313.638.55 0 .988-.214 1.312-.644.324-.434.486-1.04.486-1.816 0-.696-.166-1.258-.498-1.688a1.563 1.563 0 00-1.312-.65c-.535 0-.967.213-1.295.638-.328.426-.492 1.035-.492 1.828zm11.396 0c0 .964-.22 1.742-.662 2.331-.441.59-1.039.885-1.793.885-.769 0-1.375-.244-1.816-.732v3.053h-1.084V95.66h.99l.053.703c.441-.547 1.054-.82 1.84-.82.761 0 1.363.287 1.804.861.446.575.668 1.373.668 2.397v.1zm-1.084-.124c0-.715-.152-1.279-.457-1.693-.304-.414-.722-.621-1.254-.621-.656 0-1.148.29-1.476.873v3.029c.324.578.82.867 1.488.867.52 0 .932-.205 1.236-.615.309-.414.463-1.027.463-1.84zm6.381 3.223c-.062-.125-.113-.348-.152-.668-.504.523-1.106.785-1.805.785-.625 0-1.139-.176-1.541-.527a1.731 1.731 0 01-.598-1.348c0-.66.25-1.172.75-1.535.504-.367 1.211-.55 2.121-.55h1.055v-.499c0-.379-.113-.68-.34-.902-.226-.227-.56-.34-1.002-.34-.386 0-.711.098-.972.293-.262.195-.393.432-.393.709h-1.09c0-.316.112-.621.334-.914.227-.297.532-.531.914-.703a3.098 3.098 0 011.272-.258c.73 0 1.303.184 1.717.55.414.364.629.866.644 1.507v2.918c0 .582.074 1.044.223 1.388V102h-1.137zm-1.799-.826c.34 0 .662-.088.967-.264.305-.176.525-.404.662-.685v-1.301h-.849c-1.329 0-1.993.388-1.993 1.166 0 .34.114.605.34.797.227.191.518.287.873.287zm9.258-5.514V102h-1.09v-2.467h-1.635L419.861 102h-1.172l1.594-2.63c-.406-.15-.719-.378-.937-.686a1.876 1.876 0 01-.323-1.09c0-.578.217-1.043.651-1.395.433-.355 1.014-.535 1.74-.539h2.666zm-3.967 1.946c0 .308.106.558.317.75.211.187.49.283.838.287h1.722v-2.104h-1.558c-.403 0-.723.1-.961.299a.943.943 0 00-.358.768zm8.631 3.509l.375-.463c.422-.547.662-1.367.721-2.46l.099-2.532h4.084v5.455h.815v2.748h-1.084V102h-4.424v1.863h-1.084l.006-2.748h.492zm1.283 0h2.912v-4.453h-1.951l-.064 1.512c-.067 1.261-.365 2.242-.897 2.941zm6.112.885v-6.34h2.472c.844 0 1.491.149 1.94.446.453.292.679.724.679 1.294 0 .293-.087.559-.263.797-.176.235-.436.414-.779.54.382.09.689.265.919.527.235.261.352.574.352.937 0 .582-.215 1.028-.645 1.336-.425.309-1.029.463-1.81.463h-2.865zm1.084-2.783v1.91h1.793c.453 0 .791-.084 1.013-.252.227-.168.34-.404.34-.709 0-.633-.465-.95-1.394-.95h-1.752zm0-.867h1.4c1.016 0 1.523-.297 1.523-.891 0-.594-.48-.9-1.441-.92h-1.482v1.81zm8.302 3.767c-.859 0-1.558-.281-2.097-.844-.539-.566-.809-1.322-.809-2.267v-.2c0-.628.119-1.189.358-1.681a2.817 2.817 0 011.007-1.16 2.539 2.539 0 011.407-.422c.824 0 1.464.271 1.921.814.458.543.686 1.32.686 2.332v.452h-4.295c.016.625.197 1.13.545 1.517.352.383.797.574 1.336.574.383 0 .707-.078.973-.234.265-.156.498-.363.697-.621l.662.516c-.531.816-1.328 1.224-2.391 1.224zm-.134-5.683c-.438 0-.805.16-1.102.48-.297.317-.48.762-.551 1.336h3.176v-.082c-.031-.55-.18-.977-.445-1.277-.266-.305-.625-.457-1.078-.457zm9.222 2.466c0 .965-.22 1.743-.662 2.332-.441.59-1.039.885-1.793.885-.769 0-1.375-.244-1.816-.732v3.053h-1.084V95.66h.99l.053.703c.441-.547 1.054-.82 1.84-.82.761 0 1.363.287 1.804.861.446.575.668 1.373.668 2.397v.1zm-1.084-.123c0-.715-.152-1.279-.457-1.693-.304-.414-.722-.621-1.254-.621-.656 0-1.148.29-1.476.873v3.029c.324.578.82.867 1.488.867.52 0 .932-.205 1.236-.615.309-.414.463-1.027.463-1.84zm3.651-.931h1.646c.719.007 1.287.195 1.705.562.418.367.627.865.627 1.494 0 .633-.215 1.141-.644 1.524-.43.383-1.008.574-1.735.574h-2.683v-6.34h1.084v2.186zm0 .885v2.384h1.611c.406 0 .721-.103.943-.31.223-.211.334-.498.334-.862 0-.351-.109-.638-.328-.861-.215-.226-.517-.344-.908-.351h-1.652zm5.355 2.701c0-.188.055-.344.164-.469.113-.125.281-.188.504-.188.223 0 .391.063.504.188a.66.66 0 01.176.469c0 .179-.059.33-.176.451-.113.121-.281.181-.504.181-.223 0-.391-.06-.504-.181a.65.65 0 01-.164-.451zM393.547 126h-1.131v-3.943h-4.301V126h-1.125v-8.531h1.125v3.668h4.301v-3.668h1.131V126zm5.742 0c-.062-.125-.113-.348-.152-.668-.504.523-1.106.785-1.805.785-.625 0-1.139-.176-1.541-.527a1.731 1.731 0 01-.598-1.348c0-.66.25-1.172.75-1.535.504-.367 1.211-.551 2.121-.551h1.055v-.498c0-.379-.113-.679-.34-.902-.226-.227-.56-.34-1.002-.34-.386 0-.711.098-.972.293-.262.195-.393.432-.393.709h-1.09c0-.316.112-.621.334-.914.227-.297.532-.531.914-.703a3.097 3.097 0 011.272-.258c.73 0 1.303.184 1.717.551.414.363.629.865.644 1.506v2.918c0 .582.074 1.044.223 1.388V126h-1.137zm-1.799-.826c.34 0 .662-.088.967-.264.305-.176.525-.404.662-.685v-1.301h-.849c-1.329 0-1.993.388-1.993 1.166 0 .34.114.605.34.797.227.191.518.287.873.287zm12.586-5.514V126h-1.09v-5.443h-2.156l-.129 2.373c-.07 1.09-.254 1.869-.551 2.338-.293.468-.759.712-1.4.732h-.434v-.955l.311-.024c.352-.039.603-.242.756-.609.152-.367.25-1.047.293-2.039l.117-2.713h4.283zm5.842 0h1.084V126h-1.084v-4.623L412.994 126h-1.084v-6.34h1.084v4.629l2.924-4.629zm2.59 3.287c0-1.058.205-1.89.615-2.496.41-.605.973-.908 1.688-.908.332 0 .623.057.873.17V117h1.084v2.748c.273-.137.593-.205.961-.205.718 0 1.283.303 1.693.908.41.606.615 1.479.615 2.619 0 .934-.205 1.676-.615 2.227-.406.551-.967.826-1.682.826-.379 0-.703-.062-.972-.187v2.502h-1.084v-2.485c-.258.113-.553.17-.885.17-.711 0-1.272-.275-1.682-.826-.406-.551-.609-1.305-.609-2.262v-.088zm6.445 0c0-.797-.137-1.414-.41-1.851-.273-.442-.65-.662-1.131-.662-.246 0-.461.039-.644.117v4.588c.175.066.394.099.656.099.484 0 .859-.187 1.125-.562.269-.375.404-.951.404-1.729zm-5.361.123c0 .711.127 1.25.381 1.618.254.367.619.55 1.095.55.227 0 .432-.035.616-.105v-4.6a1.625 1.625 0 00-.604-.099c-.476 0-.844.212-1.101.638-.258.426-.387 1.092-.387 1.998zm12.099-2.531h-2.127V126h-1.084v-5.461h-2.085v-.879h5.296v.879zm3.217 5.578c-.859 0-1.558-.281-2.097-.844-.54-.566-.809-1.322-.809-2.267v-.199c0-.629.119-1.19.357-1.682a2.824 2.824 0 011.008-1.16 2.54 2.54 0 011.406-.422c.825 0 1.465.271 1.922.814.457.543.686 1.321.686 2.332v.452h-4.295c.016.625.197 1.13.545 1.517.351.383.797.574 1.336.574.383 0 .707-.078.972-.234.266-.156.499-.363.698-.621l.662.516c-.531.816-1.328 1.224-2.391 1.224zm-.135-5.683c-.437 0-.804.16-1.101.48-.297.316-.481.762-.551 1.336h3.176v-.082c-.031-.551-.18-.977-.445-1.277-.266-.305-.625-.457-1.079-.457zm12.03 5.566h-1.084v-5.443h-2.918V126h-1.09v-6.34h5.092V126zm1.453-3.229c0-.621.121-1.179.363-1.675a2.76 2.76 0 011.02-1.149 2.792 2.792 0 011.494-.404c.863 0 1.56.299 2.092.896.535.598.802 1.393.802 2.385v.076c0 .618-.119 1.172-.357 1.664-.234.489-.572.87-1.014 1.143-.437.273-.941.41-1.511.41-.86 0-1.557-.299-2.092-.896-.532-.598-.797-1.389-.797-2.373v-.077zm1.09.129c0 .704.162 1.268.486 1.694.328.426.766.638 1.313.638.55 0 .988-.214 1.312-.644.324-.434.486-1.039.486-1.817 0-.695-.166-1.257-.498-1.687a1.561 1.561 0 00-1.312-.65c-.535 0-.967.212-1.295.638-.328.426-.492 1.035-.492 1.828zm5.566 2.215l.375-.463c.422-.547.662-1.367.721-2.461l.099-2.531h4.084v5.455h.815v2.748h-1.084V126h-4.424v1.863h-1.084l.006-2.748h.492zm1.283 0h2.912v-4.453h-1.951l-.064 1.512c-.067 1.262-.365 2.242-.897 2.941zm11.192.885h-1.084v-2.707h-2.912V126h-1.09v-6.34h1.09v2.748h2.912v-2.748h1.084V126zm6.592-6.34V126h-1.09v-2.467h-1.635L469.76 126h-1.172l1.594-2.631c-.407-.148-.719-.377-.938-.685a1.877 1.877 0 01-.322-1.09c0-.578.217-1.043.65-1.395.434-.355 1.014-.535 1.74-.539h2.667zm-3.967 1.945c0 .309.105.559.316.75.211.188.49.284.838.288h1.723v-2.104h-1.559c-.402 0-.723.1-.961.299a.944.944 0 00-.357.767zm10.418-1.066h-2.127V126h-1.084v-5.461h-2.086v-.879h5.297v.879zm2.238 1.307h1.646c.719.008 1.288.195 1.706.562.418.367.626.865.626 1.494 0 .633-.214 1.141-.644 1.524-.43.383-1.008.574-1.734.574h-2.684v-6.34h1.084v2.186zm0 .884v2.385h1.611c.407 0 .721-.103.944-.31.222-.211.334-.498.334-.862 0-.351-.11-.638-.328-.861-.215-.227-.518-.344-.909-.352h-1.652zm7.875 2.502c.387 0 .725-.117 1.014-.351.289-.235.449-.527.48-.879h1.025a1.964 1.964 0 01-.374 1.037c-.231.328-.54.59-.926.785a2.637 2.637 0 01-1.219.293c-.863 0-1.551-.287-2.063-.861-.507-.578-.761-1.367-.761-2.367v-.182c0-.617.113-1.166.34-1.646a2.59 2.59 0 01.972-1.12c.426-.265.928-.398 1.506-.398.711 0 1.301.213 1.77.639.472.425.724.978.755 1.658h-1.025a1.475 1.475 0 00-.469-1.008 1.43 1.43 0 00-1.031-.398c-.551 0-.978.199-1.283.597-.301.395-.451.967-.451 1.717v.205c0 .731.15 1.293.451 1.688.301.394.73.591 1.289.591zm8.584-5.572V126h-1.09v-2.467h-1.635L494.908 126h-1.172l1.594-2.631c-.406-.148-.719-.377-.937-.685a1.878 1.878 0 01-.323-1.09c0-.578.217-1.043.651-1.395.433-.355 1.013-.535 1.74-.539h2.666zm-3.967 1.945c0 .309.106.559.317.75.211.188.49.284.837.288h1.723v-2.104h-1.558c-.403 0-.723.1-.961.299a.942.942 0 00-.358.767zM509.023 126h-1.084v-2.707h-2.912V126h-1.089v-6.34h1.089v2.748h2.912v-2.748h1.084V126zm5.661 0c-.063-.125-.114-.348-.153-.668-.504.523-1.105.785-1.804.785-.625 0-1.139-.176-1.541-.527a1.728 1.728 0 01-.598-1.348c0-.66.25-1.172.75-1.535.504-.367 1.211-.551 2.121-.551h1.055v-.498c0-.379-.114-.679-.34-.902-.227-.227-.561-.34-1.002-.34-.387 0-.711.098-.973.293-.261.195-.392.432-.392.709h-1.09c0-.316.111-.621.334-.914a2.31 2.31 0 01.914-.703c.387-.172.81-.258 1.271-.258.731 0 1.303.184 1.717.551.414.363.629.865.645 1.506v2.918c0 .582.074 1.044.222 1.388V126h-1.136zm-1.799-.826c.34 0 .662-.088.967-.264.304-.176.525-.404.662-.685v-1.301h-.85c-1.328 0-1.992.388-1.992 1.166 0 .34.113.605.34.797.226.191.517.287.873.287zm8.853-3.967h.815c.511-.008.914-.143 1.207-.404.293-.262.439-.615.439-1.061 0-1-.498-1.5-1.494-1.5-.469 0-.844.135-1.125.404-.277.266-.416.62-.416 1.061h-1.084c0-.676.246-1.236.738-1.682.496-.449 1.125-.673 1.887-.673.805 0 1.436.212 1.893.638.457.426.685 1.018.685 1.776 0 .371-.121.73-.363 1.078a2.162 2.162 0 01-.979.779c.469.148.83.395 1.084.738.258.344.387.764.387 1.26 0 .766-.25 1.373-.75 1.822-.5.45-1.15.674-1.951.674-.801 0-1.453-.217-1.957-.65-.5-.434-.75-1.006-.75-1.717h1.09c0 .449.146.809.439 1.078.293.27.686.404 1.178.404.523 0 .924-.136 1.201-.41.277-.273.416-.666.416-1.177 0-.497-.152-.877-.457-1.143-.305-.266-.744-.402-1.318-.41h-.815v-.885zm7.53 1.611h-2.86v-.884h2.86v.884zm5.162-3.158h1.084V126h-1.084v-4.623L531.506 126h-1.084v-6.34h1.084v4.629l2.924-4.629zm.293-2.308c0 .472-.162.853-.487 1.142-.32.285-.742.428-1.265.428-.524 0-.948-.145-1.272-.434-.324-.289-.486-.668-.486-1.136h.885c0 .273.074.488.222.644.149.152.366.229.651.229.273 0 .486-.077.638-.229.157-.152.235-.367.235-.644h.879zm-145.676 17.082c-.387 0-.723.123-1.008.369-.281.246-.422.537-.422.873h-1.031c0-.364.115-.711.346-1.043.23-.332.537-.596.92-.791a2.556 2.556 0 011.195-.299c.824 0 1.49.299 1.998.896.512.594.767 1.372.767 2.332v.182c0 .594-.117 1.137-.351 1.629a2.668 2.668 0 01-.979 1.137 2.622 2.622 0 01-1.435.398c-.703 0-1.289-.219-1.758-.656a2.144 2.144 0 01-.703-1.635h1.031c0 .399.139.735.416 1.008.278.27.615.404 1.014.404.465 0 .848-.179 1.148-.539.301-.359.475-.853.522-1.482h-2.379v-.891h2.367c-.055-.57-.228-1.027-.521-1.371a1.416 1.416 0 00-1.137-.521zm8.473.105h-2.127V140h-1.084v-5.461h-2.086v-.879h5.297v.879zm4.875 5.461c-.063-.125-.114-.348-.153-.668-.504.523-1.105.785-1.804.785-.626 0-1.139-.176-1.542-.527a1.73 1.73 0 01-.597-1.348c0-.66.25-1.172.75-1.535.504-.367 1.211-.551 2.121-.551h1.055v-.498c0-.379-.114-.679-.34-.902-.227-.227-.561-.34-1.002-.34-.387 0-.711.098-.973.293-.262.195-.392.432-.392.709h-1.09c0-.316.111-.621.334-.914a2.31 2.31 0 01.914-.703c.386-.172.81-.258 1.271-.258.731 0 1.303.184 1.717.551.414.363.629.865.645 1.506v2.918c0 .582.074 1.044.222 1.388V140h-1.136zm-1.799-.826c.34 0 .662-.088.966-.264.305-.176.526-.404.663-.685v-1.301h-.85c-1.328 0-1.992.388-1.992 1.166 0 .34.113.605.34.797.226.191.517.287.873.287zm9.468-1.928h-.761V140h-1.084v-2.754h-.762L405.682 140h-1.371l2.267-3.281-2.051-3.059h1.313l1.635 2.625h.744v-2.625h1.084v2.625h.738l1.647-2.625H413l-2.057 3.065 2.268 3.275h-1.371l-1.776-2.754zm4.096 4.453l-.615-.422c.367-.511.559-1.039.574-1.582v-.978h1.061v.849c0 .395-.098.789-.293 1.184a2.74 2.74 0 01-.727.949zm9.281-1.699c-.062-.125-.113-.348-.152-.668-.504.523-1.105.785-1.805.785-.625 0-1.138-.176-1.541-.527a1.73 1.73 0 01-.597-1.348c0-.66.25-1.172.75-1.535.504-.367 1.211-.551 2.121-.551h1.054v-.498c0-.379-.113-.679-.339-.902-.227-.227-.561-.34-1.002-.34-.387 0-.711.098-.973.293-.262.195-.393.432-.393.709h-1.089c0-.316.111-.621.334-.914a2.31 2.31 0 01.914-.703c.386-.172.81-.258 1.271-.258.731 0 1.303.184 1.717.551.414.363.629.865.644 1.506v2.918c0 .582.075 1.044.223 1.388V140h-1.137zm-1.798-.826a1.9 1.9 0 00.966-.264 1.59 1.59 0 00.662-.685v-1.301h-.849c-1.328 0-1.992.388-1.992 1.166 0 .34.113.605.34.797.226.191.517.287.873.287zm7.336-.059l.375-.463c.421-.547.662-1.367.72-2.461l.1-2.531h4.084v5.455h.814v2.748h-1.084V140h-4.424v1.863h-1.084l.006-2.748h.493zm1.283 0h2.912v-4.453h-1.951l-.065 1.512c-.066 1.262-.365 2.242-.896 2.941zm9.926.885c-.063-.125-.114-.348-.153-.668-.504.523-1.105.785-1.805.785-.625 0-1.138-.176-1.541-.527a1.73 1.73 0 01-.597-1.348c0-.66.25-1.172.75-1.535.504-.367 1.211-.551 2.121-.551h1.055v-.498c0-.379-.114-.679-.34-.902-.227-.227-.561-.34-1.002-.34-.387 0-.711.098-.973.293-.262.195-.392.432-.392.709h-1.09c0-.316.111-.621.334-.914a2.31 2.31 0 01.914-.703c.386-.172.81-.258 1.271-.258.731 0 1.303.184 1.717.551.414.363.629.865.645 1.506v2.918c0 .582.074 1.044.222 1.388V140h-1.136zm-1.799-.826c.34 0 .662-.088.966-.264.305-.176.526-.404.663-.685v-1.301h-.85c-1.328 0-1.992.388-1.992 1.166 0 .34.113.605.34.797.226.191.517.287.873.287zm9.609-5.514V140h-1.09v-5.443h-2.156l-.129 2.373c-.07 1.09-.254 1.869-.551 2.338-.293.468-.76.712-1.4.732h-.434v-.955l.311-.024c.351-.039.603-.242.756-.609.152-.367.25-1.047.293-2.039l.117-2.713h4.283zm4.371 6.457c-.859 0-1.558-.281-2.098-.844-.539-.566-.808-1.322-.808-2.267v-.199c0-.629.119-1.19.357-1.682a2.81 2.81 0 011.008-1.16 2.537 2.537 0 011.406-.422c.825 0 1.465.271 1.922.814.457.543.686 1.321.686 2.332v.452h-4.295c.015.625.197 1.13.545 1.517.351.383.797.574 1.336.574.383 0 .707-.078.972-.234.266-.156.498-.363.698-.621l.662.516c-.531.816-1.328 1.224-2.391 1.224zm-.135-5.683c-.437 0-.804.16-1.101.48-.297.316-.481.762-.551 1.336h3.176v-.082c-.031-.551-.18-.977-.446-1.277-.265-.305-.624-.457-1.078-.457zm6.498 5.683c-.859 0-1.558-.281-2.097-.844-.539-.566-.809-1.322-.809-2.267v-.199c0-.629.119-1.19.358-1.682a2.814 2.814 0 011.007-1.16 2.54 2.54 0 011.407-.422c.824 0 1.464.271 1.922.814.457.543.685 1.321.685 2.332v.452h-4.295c.016.625.197 1.13.545 1.517.352.383.797.574 1.336.574.383 0 .707-.078.973-.234.265-.156.498-.363.697-.621l.662.516c-.531.816-1.328 1.224-2.391 1.224zm-.134-5.683c-.438 0-.805.16-1.102.48-.297.316-.48.762-.551 1.336h3.176v-.082c-.031-.551-.18-.977-.445-1.277-.266-.305-.625-.457-1.078-.457zm9.386 4.798c.387 0 .725-.117 1.014-.351a1.24 1.24 0 00.481-.879h1.025c-.02.363-.145.709-.375 1.037-.231.328-.539.59-.926.785a2.637 2.637 0 01-1.219.293c-.863 0-1.55-.287-2.062-.861-.508-.578-.762-1.367-.762-2.367v-.182c0-.617.113-1.166.34-1.646.227-.481.551-.854.973-1.12.425-.265.927-.398 1.506-.398.71 0 1.3.213 1.769.639.473.425.725.978.756 1.658h-1.025a1.483 1.483 0 00-.469-1.008 1.432 1.432 0 00-1.031-.398c-.551 0-.979.199-1.284.597-.3.395-.451.967-.451 1.717v.205c0 .731.151 1.293.451 1.688.301.394.731.591 1.289.591zm8.936-5.572V140h-1.09v-5.443h-2.156l-.129 2.373c-.07 1.09-.254 1.869-.551 2.338-.293.468-.76.712-1.4.732h-.434v-.955l.311-.024c.351-.039.603-.242.756-.609.152-.367.25-1.047.293-2.039l.117-2.713h4.283zm4.371 6.457c-.859 0-1.559-.281-2.098-.844-.539-.566-.808-1.322-.808-2.267v-.199c0-.629.119-1.19.357-1.682a2.81 2.81 0 011.008-1.16 2.537 2.537 0 011.406-.422c.824 0 1.465.271 1.922.814.457.543.686 1.321.686 2.332v.452h-4.295c.015.625.197 1.13.545 1.517.351.383.797.574 1.336.574.382 0 .707-.078.972-.234.266-.156.498-.363.698-.621l.662.516c-.532.816-1.328 1.224-2.391 1.224zm-.135-5.683c-.437 0-.804.16-1.101.48-.297.316-.481.762-.551 1.336h3.176v-.082c-.032-.551-.18-.977-.446-1.277-.265-.305-.625-.457-1.078-.457zm3.815 4.681l.375-.463c.422-.547.662-1.367.72-2.461l.1-2.531h4.084v5.455h.814v2.748h-1.084V140h-4.423v1.863h-1.084l.006-2.748h.492zm1.283 0h2.912v-4.453h-1.951l-.065 1.512c-.066 1.262-.365 2.242-.896 2.941zm5.725-2.344c0-.621.121-1.179.363-1.675a2.765 2.765 0 011.019-1.149 2.797 2.797 0 011.494-.404c.864 0 1.561.299 2.092.896.535.598.803 1.393.803 2.385v.076c0 .618-.119 1.172-.357 1.664-.235.489-.573.87-1.014 1.143-.438.273-.941.41-1.512.41-.859 0-1.556-.299-2.092-.896-.531-.598-.796-1.389-.796-2.373v-.077zm1.089.129c0 .704.162 1.268.487 1.694.328.426.765.638 1.312.638.551 0 .988-.214 1.313-.644.324-.434.486-1.039.486-1.817 0-.695-.166-1.257-.498-1.687a1.563 1.563 0 00-1.313-.65c-.535 0-.966.212-1.294.638-.329.426-.493 1.035-.493 1.828zm6.141 3.1v-6.34h2.473c.843 0 1.49.149 1.939.445.453.293.68.725.68 1.295 0 .293-.088.559-.264.797-.176.235-.435.414-.779.539.383.09.689.266.92.528.234.261.351.574.351.937 0 .582-.215 1.028-.644 1.336-.426.309-1.03.463-1.811.463h-2.865zm1.084-2.783v1.91h1.793c.453 0 .791-.084 1.014-.252.226-.168.339-.404.339-.709 0-.633-.464-.949-1.394-.949h-1.752zm0-.867h1.4c1.016 0 1.524-.297 1.524-.891 0-.594-.481-.9-1.442-.92h-1.482v1.811zm9.586 3.65c-.063-.125-.113-.348-.152-.668-.504.523-1.106.785-1.805.785-.625 0-1.139-.176-1.541-.527a1.728 1.728 0 01-.598-1.348c0-.66.25-1.172.75-1.535.504-.367 1.211-.551 2.121-.551h1.055v-.498c0-.379-.113-.679-.34-.902-.226-.227-.56-.34-1.002-.34-.387 0-.711.098-.972.293-.262.195-.393.432-.393.709h-1.09c0-.316.111-.621.334-.914.227-.297.531-.531.914-.703a3.097 3.097 0 011.272-.258c.73 0 1.302.184 1.716.551.414.363.629.865.645 1.506v2.918c0 .582.074 1.044.223 1.388V140h-1.137zm-1.799-.826c.34 0 .662-.088.967-.264.305-.176.525-.404.662-.685v-1.301h-.85c-1.328 0-1.992.388-1.992 1.166 0 .34.113.605.34.797.227.191.518.287.873.287zm9.029-4.635h-2.127V140h-1.084v-5.461h-2.086v-.879h5.297v.879zm2.239 1.307h1.646c.719.008 1.287.195 1.705.562.418.367.627.865.627 1.494 0 .633-.215 1.141-.644 1.524-.43.383-1.008.574-1.735.574h-2.683v-6.34h1.084v2.186zm0 .884v2.385h1.611c.406 0 .721-.103.943-.31.223-.211.334-.498.334-.862 0-.351-.109-.638-.328-.861-.215-.227-.517-.344-.908-.352h-1.652zm13.494 3.27h-1.084v-5.443h-2.918V140h-1.09v-6.34h5.092V140zm1.453-3.229c0-.621.121-1.179.363-1.675a2.76 2.76 0 011.02-1.149 2.792 2.792 0 011.494-.404c.863 0 1.56.299 2.092.896.535.598.802 1.393.802 2.385v.076c0 .618-.119 1.172-.357 1.664-.234.489-.572.87-1.014 1.143-.437.273-.941.41-1.511.41-.86 0-1.557-.299-2.092-.896-.531-.598-.797-1.389-.797-2.373v-.077zm1.09.129c0 .704.162 1.268.486 1.694.328.426.766.638 1.313.638.55 0 .988-.214 1.312-.644.324-.434.486-1.039.486-1.817 0-.695-.166-1.257-.498-1.687a1.561 1.561 0 00-1.312-.65c-.535 0-.967.212-1.295.638-.328.426-.492 1.035-.492 1.828zm-143.508 14.346h-.762V154h-1.084v-2.754h-.761L387.494 154h-1.371l2.268-3.281-2.051-3.059h1.312l1.635 2.625h.744v-2.625h1.084v2.625h.739l1.646-2.625h1.312l-2.056 3.065 2.267 3.275h-1.371l-1.775-2.754zm6.644 2.871c-.859 0-1.558-.281-2.097-.844-.539-.566-.809-1.322-.809-2.267v-.199c0-.629.119-1.19.358-1.682a2.814 2.814 0 011.007-1.16 2.54 2.54 0 011.407-.422c.824 0 1.465.271 1.922.814.457.543.685 1.321.685 2.332v.452h-4.295c.016.625.197 1.13.545 1.517.352.383.797.574 1.336.574.383 0 .707-.078.973-.234.265-.156.498-.363.697-.621l.662.516c-.531.816-1.328 1.224-2.391 1.224zm-.134-5.683c-.438 0-.805.16-1.102.48-.297.316-.48.762-.551 1.336h3.176v-.082c-.031-.551-.18-.977-.445-1.277-.266-.305-.625-.457-1.078-.457zm9.064-.774V154h-1.09v-5.443h-2.156l-.129 2.373c-.07 1.09-.254 1.869-.551 2.338-.293.468-.759.712-1.4.732h-.434v-.955l.311-.024c.352-.039.603-.242.756-.609.152-.367.25-1.047.293-2.039l.117-2.713h4.283zm6.451.879h-2.127V154h-1.084v-5.461h-2.086v-.879h5.297v.879zm2.239 1.307h1.646c.719.008 1.287.195 1.705.562.418.367.627.865.627 1.494 0 .633-.215 1.141-.644 1.524-.43.383-1.008.574-1.735.574h-2.683v-6.34h1.084v2.186zm6.24 4.154h-1.09v-6.34h1.09V154zm-6.24-3.27v2.385h1.611c.406 0 .721-.103.943-.31.223-.211.334-.498.334-.862 0-.351-.109-.638-.328-.861-.215-.227-.517-.344-.908-.352h-1.652zm11.783 1.834l2.156-4.904h1.354V154h-1.084v-4.611L428.299 154h-.75l-2.092-4.711V154h-1.084v-6.34h1.406l2.145 4.904zm13.43-4.904V154h-1.09v-5.443h-2.157l-.128 2.373c-.071 1.09-.254 1.869-.551 2.338-.293.468-.76.712-1.401.732h-.433v-.955l.31-.024c.352-.039.604-.242.756-.609.152-.367.25-1.047.293-2.039l.117-2.713h4.284zm5.841 0h1.084V154h-1.084v-4.623L444.271 154h-1.083v-6.34h1.083v4.629l2.924-4.629zm8.004 6.34h-1.084v-2.707h-2.912V154h-1.09v-6.34h1.09v2.748h2.912v-2.748h1.084V154zm5.848-6.34h1.084V154h-1.084v-4.623L458.123 154h-1.084v-6.34h1.084v4.629l2.924-4.629zm7.67 0V154h-1.09v-2.467h-1.635L464.498 154h-1.172l1.594-2.631c-.406-.148-.719-.377-.938-.685a1.884 1.884 0 01-.322-1.09c0-.578.217-1.043.651-1.395.433-.355 1.013-.535 1.74-.539h2.666zm-3.967 1.945c0 .309.105.559.316.75.211.188.491.284.838.288h1.723v-2.104h-1.559c-.402 0-.722.1-.961.299a.944.944 0 00-.357.767zm9.357 2.959l2.157-4.904h1.353V154h-1.084v-4.611L474.482 154h-.75l-2.091-4.711V154h-1.084v-6.34h1.406l2.144 4.904z" fill="#000"/><path d="M329.12 389.197l2.481-3.968h1.607l-3.27 5.134 3.348 5.219h-1.621l-2.545-4.039-2.56 4.039h-1.614l3.356-5.219-3.278-5.134h1.6l2.496 3.968zm5.041 2.467c0-.753.147-1.431.441-2.033.299-.602.711-1.067 1.237-1.394.531-.327 1.135-.491 1.813-.491 1.048 0 1.894.363 2.539 1.088.649.726.974 1.69.974 2.894v.093c0 .749-.145 1.422-.434 2.019a3.234 3.234 0 01-1.23 1.387c-.531.331-1.142.497-1.835.497-1.042 0-1.889-.362-2.538-1.088-.645-.725-.967-1.685-.967-2.879v-.093zm1.323.157c0 .853.196 1.538.59 2.055.398.516.929.775 1.592.775.669 0 1.2-.261 1.593-.783.394-.526.59-1.26.59-2.204 0-.844-.201-1.526-.604-2.048-.398-.526-.929-.789-1.593-.789-.649 0-1.173.259-1.571.775-.398.517-.597 1.256-.597 2.219zm13.523-3.932v7.693h-1.322v-6.605h-2.617l-.156 2.879c-.085 1.323-.308 2.268-.669 2.837-.355.569-.921.865-1.699.889h-.526v-1.159l.377-.028c.426-.048.732-.294.917-.74.185-.445.303-1.27.356-2.474l.142-3.292h5.197zm8.419 0v7.693h-1.323v-6.605h-2.616l-.157 2.879c-.085 1.323-.308 2.268-.668 2.837-.355.569-.922.865-1.699.889h-.526v-1.159l.376-.028c.427-.048.733-.294.918-.74.184-.445.303-1.27.355-2.474l.142-3.292h5.198zM281.04 97.055h-3.155l-.708 1.964h-1.024l2.875-7.529h.869l2.88 7.53h-1.018l-.719-1.965zm-2.855-.818h2.56l-1.282-3.521-1.278 3.522zm7.028 1.381l1.303-4.194h1.024l-2.25 6.46c-.348.93-.901 1.395-1.659 1.395l-.181-.015-.357-.067v-.776l.258.021c.324 0 .576-.066.755-.197.183-.131.333-.37.45-.719l.212-.569-1.996-5.533h1.045l1.396 4.194zm2.849.62l.331-.408c.372-.483.584-1.206.636-2.172l.088-2.234h3.604v4.815h.719v2.425h-.956v-1.645h-3.905v1.645h-.956l.005-2.425h.434zm1.133 0h2.57v-3.93h-1.722l-.057 1.335c-.059 1.113-.322 1.979-.791 2.596zm8.925-4.814h.957v5.595h-.957v-4.08l-2.58 4.08h-.957v-5.595h.957v4.086l2.58-4.086zm6.65.776h-1.877v4.82h-.957V94.2h-1.841v-.776h4.675v.776zm.46 1.97c0-.548.107-1.04.321-1.479a2.43 2.43 0 01.9-1.013 2.46 2.46 0 011.318-.357c.762 0 1.378.264 1.846.791.473.528.709 1.23.709 2.105v.067a3.32 3.32 0 01-.316 1.469c-.206.43-.505.767-.894 1.008a2.464 2.464 0 01-1.334.362c-.759 0-1.374-.264-1.846-.791-.469-.528-.704-1.226-.704-2.094v-.068zm.962.114c0 .62.143 1.119.429 1.494.29.376.676.564 1.159.564.486 0 .872-.19 1.158-.569.286-.382.429-.917.429-1.603 0-.613-.146-1.11-.439-1.489a1.381 1.381 0 00-1.159-.574c-.472 0-.853.188-1.142.564-.29.375-.435.913-.435 1.613zm10.058 0c0 .851-.195 1.538-.584 2.058-.39.52-.917.781-1.583.781-.679 0-1.213-.216-1.603-.646v2.694h-.956v-7.747h.874l.046.62c.39-.482.931-.723 1.624-.723.672 0 1.203.253 1.593.76.393.507.589 1.212.589 2.115v.088zm-.957-.109c0-.63-.134-1.129-.403-1.494s-.638-.548-1.107-.548c-.579 0-1.013.257-1.303.77v2.674c.286.51.724.765 1.314.765.458 0 .822-.18 1.091-.543.272-.365.408-.907.408-1.624zm4.422 2.167c.341 0 .639-.103.894-.31a1.09 1.09 0 00.424-.776h.905c-.017.32-.127.626-.331.915a2.16 2.16 0 01-.817.693 2.333 2.333 0 01-1.075.259c-.762 0-1.369-.253-1.821-.76-.448-.51-.672-1.207-.672-2.09v-.16c0-.544.1-1.029.3-1.453.2-.424.486-.753.859-.987.375-.235.818-.352 1.329-.352.627 0 1.148.188 1.561.564.417.375.64.863.667 1.463h-.905a1.301 1.301 0 00-.413-.89 1.265 1.265 0 00-.91-.351c-.487 0-.864.176-1.133.527-.265.349-.398.854-.398 1.516v.18c0 .645.133 1.142.398 1.49.266.348.645.522 1.138.522zm5.042-1.706h-.699v2.383h-.961v-5.595h.961v2.369h.626l1.882-2.369h1.159l-2.213 2.69 2.399 2.905h-1.215l-1.939-2.383zm7.43 2.383c-.055-.11-.1-.306-.134-.589-.445.462-.976.693-1.593.693-.551 0-1.005-.155-1.36-.465a1.527 1.527 0 01-.527-1.19c0-.582.22-1.034.662-1.355.444-.324 1.068-.486 1.872-.486h.931v-.44c0-.334-.1-.6-.3-.796-.2-.2-.495-.3-.885-.3-.341 0-.627.087-.858.259-.231.172-.347.38-.347.626h-.961c0-.28.098-.548.294-.807.2-.262.469-.469.807-.62a2.73 2.73 0 011.122-.228c.645 0 1.15.162 1.515.486.366.32.555.764.569 1.329v2.575c0 .514.066.922.197 1.226v.082h-1.004zm-1.587-.729c.3 0 .584-.077.853-.232a1.41 1.41 0 00.585-.605v-1.148h-.75c-1.172 0-1.758.343-1.758 1.029 0 .3.099.534.299.703.2.169.457.253.771.253zm8.17-4.866v5.595h-.962v-2.177h-1.442l-1.319 2.177h-1.034l1.406-2.321a1.694 1.694 0 01-.827-.605 1.653 1.653 0 01-.284-.962c0-.51.191-.92.574-1.23.382-.315.894-.473 1.535-.477h2.353zm-3.501 1.717c0 .272.094.493.28.662.186.166.432.25.739.254h1.52V94.2h-1.375c-.355 0-.638.088-.848.264a.835.835 0 00-.316.677zm-42.325 13.184c0-.934.181-1.668.543-2.203.362-.534.858-.801 1.489-.801.293 0 .55.05.771.15v-2.394h.956v2.425c.241-.121.524-.181.848-.181.635 0 1.133.267 1.495.801.362.535.543 1.305.543 2.312 0 .824-.181 1.479-.543 1.965-.359.486-.854.729-1.484.729-.335 0-.621-.055-.859-.165v2.208h-.956v-2.193c-.228.1-.488.15-.781.15-.628 0-1.122-.243-1.484-.729-.359-.486-.538-1.151-.538-1.996v-.078zm5.688 0c0-.703-.121-1.248-.362-1.634-.241-.389-.574-.584-.998-.584-.217 0-.407.034-.569.103v4.049c.155.059.348.088.579.088.428 0 .759-.165.993-.496.238-.331.357-.84.357-1.526zm-4.732.109c0 .627.112 1.103.337 1.427.224.324.546.486.967.486.199 0 .38-.031.543-.093v-4.059a1.419 1.419 0 00-.533-.088c-.421 0-.745.188-.972.564-.228.375-.342.963-.342 1.763zm10.555-3.01h.956v5.596h-.956v-4.08l-2.581 4.08h-.956v-5.596h.956v4.086l2.581-4.086zm7.219 2.86c0 .852-.195 1.538-.585 2.058-.389.521-.917.781-1.582.781-.679 0-1.214-.216-1.603-.646v2.694h-.957v-7.747h.874l.047.621c.389-.483.93-.724 1.623-.724.673 0 1.204.253 1.593.76.393.507.59 1.212.59 2.115v.088zm-.957-.109c0-.63-.135-1.129-.403-1.494-.269-.365-.638-.548-1.107-.548-.579 0-1.014.257-1.303.77v2.674c.286.51.724.765 1.313.765.459 0 .823-.181 1.091-.543.273-.365.409-.907.409-1.624zm5.399 1.578l1.903-4.329h1.194v5.596h-.957v-4.07l-1.809 4.07h-.662l-1.846-4.158v4.158h-.957v-5.596h1.241l1.893 4.329zm8.092 1.267c-.055-.111-.1-.307-.134-.59-.445.462-.976.693-1.593.693-.551 0-1.005-.155-1.36-.465a1.529 1.529 0 01-.527-1.19c0-.582.22-1.034.662-1.355.444-.324 1.068-.486 1.872-.486h.93v-.439c0-.335-.1-.6-.299-.797-.2-.2-.495-.3-.885-.3-.341 0-.627.087-.858.259-.231.172-.347.381-.347.626h-.961c0-.28.098-.548.294-.807.2-.262.469-.469.807-.621a2.74 2.74 0 011.122-.227c.645 0 1.15.162 1.515.486.366.321.555.764.569 1.329v2.575c0 .514.066.922.197 1.226v.083h-1.004zm-1.587-.73c.3 0 .584-.077.853-.232.269-.155.464-.357.584-.605v-1.148h-.749c-1.172 0-1.759.343-1.759 1.029 0 .3.1.534.3.703.2.169.457.253.771.253zM185.856 401.299c0 .738-.124 1.382-.372 1.934-.248.548-.6.967-1.055 1.256-.455.29-.986.435-1.593.435-.593 0-1.118-.145-1.577-.435-.458-.293-.815-.708-1.07-1.246-.252-.541-.381-1.167-.388-1.877v-.543c0-.724.126-1.363.377-1.918.252-.555.607-.98 1.066-1.273a2.865 2.865 0 011.582-.444c.603 0 1.134.146 1.593.439.462.29.817.712 1.065 1.267.248.552.372 1.195.372 1.929v.476zm-.988-.486c0-.893-.179-1.578-.537-2.053-.359-.479-.86-.719-1.505-.719-.628 0-1.122.24-1.484.719-.359.475-.543 1.137-.554 1.985v.554c0 .865.181 1.546.543 2.042.366.493.867.74 1.505.74.641 0 1.138-.233 1.49-.698.351-.469.532-1.14.542-2.012v-.558zm4.205.455l1.241-2.043h1.117l-1.831 2.767 1.888 2.828h-1.107l-1.293-2.094-1.293 2.094h-1.111l1.887-2.828-1.831-2.767h1.107l1.226 2.043zm8.103.817c0 .851-.195 1.537-.585 2.058-.389.52-.917.781-1.582.781-.679 0-1.213-.216-1.603-.647v2.695h-.957v-7.747h.874l.047.621c.389-.483.931-.724 1.624-.724.672 0 1.203.253 1.592.76.393.507.59 1.212.59 2.115v.088zm-.957-.109c0-.631-.134-1.129-.403-1.494-.269-.366-.638-.548-1.107-.548-.579 0-1.013.256-1.303.77v2.674c.286.51.724.765 1.313.765a1.29 1.29 0 001.092-.543c.272-.366.408-.907.408-1.624zm5.631 2.844c-.055-.11-.099-.307-.134-.589-.445.462-.976.693-1.593.693-.551 0-1.005-.155-1.36-.466a1.525 1.525 0 01-.527-1.189c0-.583.221-1.034.662-1.355.444-.324 1.068-.486 1.872-.486h.931v-.439c0-.335-.1-.6-.3-.797-.2-.2-.495-.3-.885-.3-.341 0-.627.086-.858.259-.231.172-.347.381-.347.625h-.961c0-.279.098-.548.294-.806.2-.262.469-.469.807-.621a2.74 2.74 0 011.122-.227c.645 0 1.15.162 1.515.486.366.32.555.763.569 1.329v2.575c0 .514.066.922.197 1.226v.082h-1.004zm-1.587-.729c.3 0 .584-.077.853-.233.269-.155.464-.356.585-.605v-1.148h-.75c-1.172 0-1.758.343-1.758 1.03 0 .299.1.534.299.703.2.169.457.253.771.253zm8.465.729h-.957v-2.389h-2.57v2.389h-.961v-5.595h.961v2.425h2.57v-2.425h.957v5.595zm4.995 0c-.055-.11-.1-.307-.134-.589-.445.462-.976.693-1.593.693-.551 0-1.005-.155-1.36-.466a1.525 1.525 0 01-.527-1.189c0-.583.22-1.034.662-1.355.444-.324 1.068-.486 1.872-.486h.93v-.439c0-.335-.1-.6-.299-.797-.2-.2-.495-.3-.885-.3-.341 0-.627.086-.858.259-.231.172-.347.381-.347.625h-.961c0-.279.098-.548.294-.806.2-.262.469-.469.807-.621a2.74 2.74 0 011.122-.227c.645 0 1.15.162 1.515.486.366.32.555.763.569 1.329v2.575c0 .514.066.922.197 1.226v.082h-1.004zm-1.587-.729c.3 0 .584-.077.853-.233.269-.155.464-.356.584-.605v-1.148h-.749c-1.172 0-1.759.343-1.759 1.03 0 .299.1.534.3.703.2.169.457.253.771.253zm-80.615-230.348h-.915v3.382h-.993v-7.529h.993v3.32h.776l2.632-3.32h1.236l-2.876 3.651 3.088 3.878h-1.216l-2.725-3.382zm4.303.533c0-.548.106-1.041.32-1.479.217-.438.517-.776.9-1.014a2.462 2.462 0 011.319-.357c.762 0 1.377.264 1.846.792.472.527.708 1.229.708 2.104v.067a3.33 3.33 0 01-.315 1.469 2.352 2.352 0 01-.895 1.008 2.458 2.458 0 01-1.334.362c-.758 0-1.374-.263-1.846-.791-.469-.527-.703-1.225-.703-2.094v-.067zm.961.113c0 .621.144 1.119.43 1.495.289.376.675.564 1.158.564.486 0 .872-.19 1.158-.569.286-.383.43-.917.43-1.603 0-.614-.147-1.11-.44-1.49a1.383 1.383 0 00-1.158-.574c-.473 0-.854.188-1.143.564-.29.376-.435.914-.435 1.613zm8.553 1.469l1.903-4.328h1.195v5.595h-.957v-4.07l-1.81 4.07h-.661l-1.847-4.158v4.158h-.956v-5.595h1.241l1.892 4.328zm9.21 1.267h-.956v-2.389h-2.57v2.389h-.962v-5.595h.962v2.425h2.57v-2.425h.956v5.595zm4.996 0c-.056-.11-.1-.307-.135-.59-.445.462-.975.693-1.593.693-.551 0-1.004-.155-1.36-.465a1.527 1.527 0 01-.527-1.189c0-.583.221-1.035.662-1.355.445-.324 1.069-.486 1.872-.486h.931v-.44c0-.334-.1-.6-.3-.796-.2-.2-.495-.3-.885-.3-.341 0-.627.086-.858.258-.231.173-.346.381-.346.626h-.962c0-.279.098-.548.294-.807.2-.262.469-.468.807-.62a2.728 2.728 0 011.122-.228c.645 0 1.15.162 1.515.486.366.321.555.764.569 1.329v2.576c0 .513.066.922.197 1.225v.083h-1.003zm-1.588-.729c.3 0 .584-.078.853-.233.269-.155.464-.357.585-.605v-1.148h-.75c-1.172 0-1.758.343-1.758 1.029 0 .3.1.535.3.703.199.169.456.254.77.254zm7.969-4.09h-1.877v4.819h-.957v-4.819h-1.841v-.776h4.675v.776zm4.302 4.819c-.055-.11-.1-.307-.134-.59-.445.462-.976.693-1.593.693-.552 0-1.005-.155-1.36-.465a1.523 1.523 0 01-.527-1.189c0-.583.22-1.035.661-1.355.445-.324 1.069-.486 1.872-.486h.931v-.44c0-.334-.1-.6-.3-.796-.2-.2-.494-.3-.884-.3-.341 0-.627.086-.858.258-.231.173-.347.381-.347.626h-.962c0-.279.099-.548.295-.807.2-.262.469-.468.807-.62a2.725 2.725 0 011.122-.228c.645 0 1.15.162 1.515.486.365.321.555.764.569 1.329v2.576c0 .513.065.922.196 1.225v.083h-1.003zm-1.587-.729c.3 0 .584-.078.853-.233.269-.155.464-.357.584-.605v-1.148h-.75c-1.172 0-1.758.343-1.758 1.029 0 .3.1.535.3.703.2.169.457.254.771.254zm-36.09 10.345h-.698v2.384h-.962v-5.595h.962v2.368h.626l1.882-2.368h1.159l-2.214 2.689 2.4 2.906h-1.216l-1.939-2.384zm5.807.983l1.304-4.194h1.023l-2.249 6.459c-.348.93-.901 1.396-1.66 1.396l-.181-.016-.357-.067v-.776l.259.021c.324 0 .576-.065.755-.196.183-.131.333-.371.45-.719l.212-.569-1.996-5.533h1.044l1.396 4.194zm7.912-1.335c0 .852-.194 1.538-.584 2.059-.39.52-.917.78-1.582.78-.68 0-1.214-.215-1.603-.646v2.694h-.957v-7.746h.874l.046.62c.39-.482.931-.724 1.624-.724.672 0 1.203.254 1.593.761.393.506.589 1.211.589 2.115v.087zm-.956-.108c0-.631-.135-1.129-.404-1.495-.269-.365-.637-.548-1.106-.548-.58 0-1.014.257-1.303.771v2.673c.286.51.723.766 1.313.766.459 0 .822-.181 1.091-.543.272-.366.409-.907.409-1.624zm4.499 2.947c-.759 0-1.376-.248-1.852-.744-.475-.5-.713-1.167-.713-2.001v-.176c0-.555.105-1.05.315-1.484.214-.438.51-.779.89-1.024a2.237 2.237 0 011.241-.373c.727 0 1.292.24 1.696.719.403.479.605 1.165.605 2.058v.398h-3.791c.014.552.174.999.481 1.34.31.338.703.507 1.179.507.338 0 .624-.069.859-.207.234-.138.439-.321.615-.548l.584.455c-.469.72-1.172 1.08-2.109 1.08zm-.119-5.016c-.387 0-.711.142-.973.424-.262.28-.424.673-.486 1.179h2.803v-.072c-.028-.486-.159-.862-.393-1.127-.234-.269-.552-.404-.951-.404zm7.984 4.913h-.957v-2.389h-2.57v2.389h-.962v-5.595h.962v2.425h2.57v-2.425h.957v5.595zm5.161-5.595h.956v5.595h-.956v-4.08l-2.581 4.08h-.956v-5.595h.956v4.085l2.581-4.085zm6.769 0v5.595h-.962v-2.177h-1.443l-1.319 2.177h-1.034l1.407-2.322a1.693 1.693 0 01-.828-.605 1.66 1.66 0 01-.284-.962c0-.51.191-.92.574-1.23.383-.314.895-.473 1.536-.476h2.353zm-3.501 1.717c0 .272.093.493.279.662.186.165.433.249.739.253h1.521v-1.856h-1.376c-.355 0-.638.087-.848.263a.835.835 0 00-.315.678z" fill="#363636"/><path d="M.66 40.038h100.61M293.222.325V40.04h-95.976m-95.976 0V.323m0 39.715h95.976m0 0V.323" stroke="#414C5A" stroke-width="5.295"/><path d="M349.484 40.04h-82.076v161.504h82.076V40.039zm-82.076 38.39h82.076m-82.076 42.359h82.076m-82.076 42.363h82.076M2.648 120.789h182.686v39.383m-72.809 39.384h72.809v-39.384m-72.809 39.384v-39.384h72.809m-72.809 39.384H62.882v41.038m49.643-41.038v41.038M2.648 363.046h109.877v-81.414m0 0H62.882v-41.038m49.643 41.038v-41.038m0 0H62.882" stroke="#414C5A" stroke-width="5.295"/><path fill="#F5F5F5" d="M43 35h21v9H43zm96 0h20v9h-20zm0 158h20v10h-20zM51 358h20v10H51zM234 37h20v6h-20zm65 159h20v10h-20zM264 69V50h7v19zM109 229v-19h7v19zm0 41v-19h7v19zm155-161V90h7v19zm0 42v-19h7v19z"/><path d="M61.5 355.5V376H171V227h74V41.5" stroke="#FCB317" stroke-width="3" stroke-dasharray="10 5"/><path fill-rule="evenodd" clip-rule="evenodd" d="M79.429 381L78 379.571 81.572 376 78 372.429 79.428 371 83 374.572 84.428 376l-5 5zm109-149L187 230.571l3.572-3.571-3.572-3.571 1.429-1.429 3.571 3.572 1.428 1.428h.001l-5 5zM176 359.001l-1.429 1.428-3.571-3.571-3.571 3.572-1.429-1.429 3.572-3.571 1.428-1.429 5 5zm0-74l-1.429 1.428-3.571-3.571-3.571 3.572-1.429-1.429 3.572-3.571 1.428-1.429 5 5zm74-75l-1.429 1.428-3.571-3.571-3.571 3.572-1.429-1.429 3.572-3.571 1.428-1.429 5 5zm0-166l-1.429 1.428L245 41.86l-3.571 3.57L240 44.002l3.572-3.571L245 39l5 5zm0 87l-1.429 1.428-3.571-3.571-3.571 3.572-1.429-1.429 3.572-3.571 1.428-1.429 5 5z" fill="#FCB317"/></svg>