<svg width="96" height="111" viewBox="0 0 96 111" fill="none" xmlns="http://www.w3.org/2000/svg"><path fill-rule="evenodd" clip-rule="evenodd" d="M95.06 70.693s-8.162 27.987-47.141 39.582v.123c-.067-.02-.129-.042-.195-.061-.066.019-.128.041-.194.061v-.122C8.229 98.681 0 70.693 0 70.693V14.526L47.53.118V0l.194.06.195-.06v.119L95.06 14.526v56.167z" fill="#F5F5F5"/><path fill="#FCB317" d="M49.994 45.262h10.157v9.31H49.994z"/><path d="M71.738 48.242l-23.575-21.89-23.574 21.89a.823.823 0 001.118 1.206l2.728-2.534v27.412H67.89V46.913l2.728 2.534a.818.818 0 001.162-.043.821.821 0 00-.042-1.162zm-5.492 24.44H30.08V45.387l18.084-16.792 18.083 16.792v27.295z" fill="#000" stroke="#000" stroke-width=".6"/><path d="M35.012 55.422h11.507V43.914H35.012v11.508zm1.644-9.864h8.22v8.22h-8.22v-8.22zm24.658-1.644H49.807v11.508h11.507V43.914zm-1.644 9.864h-8.22v-8.22h8.22v8.22zM35.012 70.215h11.507V58.707H35.012v11.508zm1.644-9.864h8.22v8.22h-8.22v-8.22zm24.658-1.644H49.807v11.508h11.507V58.707zm-1.644 9.864h-8.22v-8.22h8.22v8.22z" fill="#000" stroke="#000" stroke-width=".6"/></svg>