<svg width="31" height="30" viewBox="0 0 31 30" fill="none" xmlns="http://www.w3.org/2000/svg"><path stroke="#FCB317" stroke-width="2" d="M1 1h29v28H1z"/><path d="M23.275 12.5l-.542-1.272s1.26-2.81 1.149-2.918L22.214 6.7c-.116-.11-2.96 1.172-2.96 1.172l-1.31-.523S16.785 4.5 16.625 4.5h-2.354c-.164 0-1.236 2.854-1.236 2.854l-1.309.526S8.824 6.66 8.713 6.769L7.048 8.381c-.116.11 1.21 2.864 1.21 2.864l-.542 1.27s-2.943 1.12-2.943 1.272v2.281c0 .16 2.95 1.197 2.95 1.197l.542 1.268s-1.26 2.809-1.15 2.917l1.667 1.614c.114.109 2.958-1.174 2.958-1.174l1.312.525s1.159 2.847 1.319 2.847h2.353c.163 0 1.236-2.855 1.236-2.855l1.314-.525s2.897 1.22 3.01 1.113l1.666-1.612c.117-.113-1.212-2.864-1.212-2.864l.54-1.27s2.945-1.123 2.945-1.276v-2.28c0-.157-2.948-1.192-2.948-1.192zm-4.338 2.38c0 1.834-1.543 3.327-3.439 3.327-1.893 0-3.438-1.493-3.438-3.327 0-1.833 1.545-3.325 3.438-3.325 1.897.002 3.439 1.492 3.439 3.325z" stroke="#FCB317"/></svg>