<svg width="377" height="275" viewBox="0 0 377 275" fill="none" xmlns="http://www.w3.org/2000/svg"><path opacity=".75" fill="#000" d="M0 0h377v275H0z"/><path d="M42.348 46h-3.446V31.809H33.84V46h-3.446V28.937h11.954V46zm2.238-6.75c0-1.922.453-3.43 1.36-4.523.906-1.094 2.16-1.641 3.761-1.641 1.617 0 2.879.547 3.785 1.64.906 1.094 1.36 2.61 1.36 4.547v.809c0 1.93-.45 3.438-1.348 4.523-.898 1.086-2.156 1.63-3.773 1.63-1.626 0-2.891-.544-3.797-1.63-.899-1.093-1.348-2.609-1.348-4.546v-.809zm3.328.832c0 2.266.605 3.398 1.816 3.398 1.118 0 1.72-.945 1.805-2.835l.012-1.395c0-1.156-.16-2.012-.48-2.566-.32-.563-.774-.844-1.36-.844-.563 0-1.004.281-1.324.844-.313.554-.469 1.41-.469 2.566v.832zm18.41-6.762V46h-3.316v-9.914h-1.969L60.852 40c-.118 2.031-.48 3.535-1.09 4.512-.61.968-1.516 1.465-2.719 1.488h-1.078l-.035-2.766.375-.047c.445-.062.773-.386.984-.972.211-.586.348-1.547.41-2.883l.223-6.012h8.402zm6.48 7.16l1.688-7.16h3.54l-4.173 14.578c-.625 2.149-1.8 3.223-3.527 3.223-.398 0-.851-.074-1.36-.223v-2.59l.387.012c.516 0 .903-.101 1.16-.304.266-.196.465-.54.598-1.032l.258-.855-3.656-12.809h3.562l1.524 7.16zM88.813 46h-3.328v-3.914c-.39.078-.77.117-1.136.117-1.672 0-2.938-.414-3.797-1.242-.852-.836-1.278-2.043-1.278-3.621v-4.02h3.329v4.032c0 .773.125 1.316.375 1.629.257.312.714.468 1.37.468.344 0 .723-.043 1.137-.129v-6h3.329V46zm8.672-12.68h3.305V46h-3.305v-7.793L94.531 46h-3.328V33.32h3.328v7.782l2.953-7.782zm14.86 2.73h-3.258V46h-3.316v-9.95h-3.235v-2.73h9.809v2.73zm6.14 10.184c-1.703 0-3.031-.507-3.984-1.523-.953-1.016-1.43-2.469-1.43-4.36v-1.007c0-2 .438-3.543 1.313-4.63.875-1.085 2.129-1.628 3.762-1.628 1.593 0 2.793.512 3.597 1.535.805 1.016 1.215 2.523 1.231 4.523v1.63h-6.598c.047.937.254 1.624.621 2.062.367.43.934.645 1.699.645 1.11 0 2.035-.38 2.778-1.137l1.3 2.004c-.406.562-.996 1.02-1.769 1.37a6.135 6.135 0 01-2.52.516zm-2.086-7.78h3.317v-.306c-.016-.757-.141-1.332-.375-1.722-.235-.39-.641-.586-1.219-.586-.578 0-1 .207-1.266.62-.257.415-.41 1.08-.457 1.993zm19.372-1.384c0-.93-.352-1.394-1.055-1.394-.383 0-.684.113-.903.34-.218.218-.328.539-.328.96h-3.316c0-1.148.406-2.081 1.219-2.8.812-.719 1.863-1.078 3.152-1.078 1.414 0 2.523.324 3.328.972.805.64 1.207 1.547 1.207 2.72a2.95 2.95 0 01-.433 1.558 3.17 3.17 0 01-1.207 1.125c1.218.515 1.828 1.496 1.828 2.941 0 1.156-.43 2.082-1.289 2.777-.86.696-2.008 1.043-3.446 1.043-1.336 0-2.425-.359-3.269-1.078-.836-.726-1.254-1.695-1.254-2.906h3.316c0 .445.125.793.375 1.043.25.25.59.375 1.02.375.406 0 .715-.133.926-.398.211-.274.316-.645.316-1.114 0-.992-.387-1.504-1.16-1.535h-1.652v-2.203h1.57c.703-.008 1.055-.457 1.055-1.348zM147.277 46c-.093-.195-.187-.523-.281-.984-.594.812-1.398 1.218-2.414 1.218-1.062 0-1.945-.351-2.648-1.054-.696-.703-1.043-1.614-1.043-2.73 0-1.329.421-2.356 1.265-3.083.852-.726 2.074-1.097 3.668-1.113h1.008v-1.02c0-.57-.098-.972-.293-1.207-.195-.234-.48-.351-.855-.351-.829 0-1.243.484-1.243 1.453h-3.316c0-1.172.437-2.137 1.313-2.895.882-.765 1.996-1.148 3.339-1.148 1.391 0 2.465.363 3.223 1.09.766.718 1.148 1.75 1.148 3.093v5.965c.016 1.094.172 1.95.469 2.567V46h-3.34zm-1.957-2.367c.368 0 .68-.074.938-.223a1.57 1.57 0 00.574-.527v-2.637h-.797c-.562 0-1.008.18-1.336.54-.32.358-.48.839-.48 1.44 0 .938.367 1.407 1.101 1.407zm15.621-7.676h1.606c.609 0 1.055-.21 1.336-.633.289-.43.433-1 .433-1.71 0-.68-.148-1.208-.445-1.583-.289-.383-.68-.574-1.172-.574-.461 0-.84.18-1.137.54-.289.358-.433.812-.433 1.358h-3.317c0-.89.204-1.687.61-2.39a4.355 4.355 0 011.723-1.664 5.116 5.116 0 012.46-.598c1.571 0 2.801.434 3.692 1.3.891.868 1.336 2.056 1.336 3.563 0 .774-.203 1.493-.61 2.157a4.073 4.073 0 01-1.582 1.511c.805.344 1.403.86 1.793 1.547.399.688.598 1.5.598 2.438 0 1.515-.484 2.73-1.453 3.644-.961.914-2.227 1.371-3.797 1.371-1.461 0-2.648-.449-3.562-1.347-.907-.907-1.36-2.094-1.36-3.563h3.317c0 .61.16 1.121.48 1.535.32.414.727.621 1.219.621.57 0 1.019-.21 1.347-.632.336-.422.504-.985.504-1.688 0-1.68-.652-2.523-1.957-2.531h-1.629v-2.672zm21.457 6.012l2.379-8.649h4.161V46h-3.317v-6.785L183.512 46h-2.215l-2.027-6.563V46h-3.305V33.32h4.09l2.343 8.649zm15.563-8.649h3.305V46h-3.305v-7.793L195.008 46h-3.328V33.32h3.328v7.782l2.953-7.782zM213.242 46h-3.316v-4.863h-2.918V46h-3.328V33.32h3.328v5.075h2.918V33.32h3.316V46zm6.492-5.52l1.688-7.16h3.539l-4.172 14.578c-.625 2.149-1.801 3.223-3.527 3.223-.399 0-.852-.074-1.36-.223v-2.59l.387.012c.516 0 .902-.101 1.16-.304.266-.196.465-.54.598-1.032l.258-.855-3.657-12.809h3.563l1.523 7.16zm15.774-4.43h-3.258V46h-3.316v-9.95h-3.235v-2.73h9.809v2.73zm5.297.962h1.699c1.492 0 2.664.41 3.516 1.23.859.82 1.289 1.918 1.289 3.293 0 1.344-.434 2.426-1.301 3.246-.86.813-2.031 1.219-3.516 1.219h-5.004V33.32h3.317v3.692zM252.066 46h-3.316V33.32h3.316V46zm-11.261-6.234v3.504h1.734c.461 0 .82-.153 1.078-.458.258-.304.387-.726.387-1.265 0-1.188-.52-1.781-1.559-1.781h-1.64zM30.863 66.406h5.168v21.305h7.576V66.406h5.186v21.322h3.147l-.352 10.442h-4.816V92H30.863V66.406zm37.46 14.52h-8.051v6.785h9.527V92H55.103V66.406h14.66v4.307h-9.492v6.047h8.051v4.166zM90.733 92h-5.15V81.049h-7.629V92h-5.168V66.406h5.168V76.76h7.629V66.406h5.15V92zm22.114 0h-5.151V81.049h-7.629V92H94.9V66.406h5.168V76.76h7.629V66.406h5.151V92zm9.404-16.4h3.059c2.589 0 4.652.738 6.187 2.215 1.535 1.464 2.303 3.427 2.303 5.888 0 2.45-.75 4.436-2.25 5.96-1.5 1.51-3.487 2.29-5.959 2.337h-8.526V66.406h5.186V75.6zM140.305 92h-5.168V66.406h5.168V92zm-18.053-12.111v7.822h3.129c1.008 0 1.799-.375 2.373-1.125.586-.762.879-1.734.879-2.918 0-1.113-.287-2.016-.862-2.707-.562-.703-1.347-1.06-2.355-1.072h-3.164zm35.437 1.037h-8.05v6.785h9.527V92h-14.695V66.406h14.66v4.307h-9.492v6.047h8.05v4.166zM188.416 92h-5.168V70.713h-7.594V92h-5.168V66.406h17.93V92zm22.201-10.494c0 3.433-.814 6.1-2.443 7.998-1.617 1.898-3.867 2.848-6.75 2.848-2.871 0-5.127-.938-6.768-2.813-1.64-1.887-2.472-4.523-2.496-7.91v-4.377c0-3.516.815-6.258 2.444-8.227 1.628-1.98 3.89-2.97 6.785-2.97 2.847 0 5.091.972 6.732 2.918 1.641 1.933 2.473 4.652 2.496 8.156v4.377zm-5.185-4.29c0-2.308-.328-4.025-.985-5.15-.656-1.125-1.676-1.687-3.058-1.687-1.371 0-2.385.545-3.041 1.635-.657 1.078-.996 2.724-1.02 4.94v4.552c0 2.238.334 3.89 1.002 4.957.668 1.055 1.699 1.582 3.094 1.582 1.347 0 2.349-.516 3.006-1.547.656-1.043.99-2.654 1.002-4.834v-4.447zm28.793 21.077h-4.746V92h-12.112v6.275h-4.887l-.281-10.564h1.705c.75-.692 1.342-1.805 1.776-3.34.433-1.535.738-3.545.914-6.03l.72-11.935h14.713v21.305h2.655l-.457 10.582zm-14.766-10.582h7.418V70.713h-4.641l-.422 7.049c-.293 4.23-1.078 7.547-2.355 9.949zm30.393-.95h-7.049L241.432 92h-5.467l7.998-25.594h4.728L256.742 92h-5.519l-1.371-5.238zm-5.924-4.306h4.781l-2.391-9.123-2.39 9.123zm20.39.545v9h-5.168V66.406h8.719c2.531 0 4.547.785 6.047 2.356 1.512 1.57 2.268 3.61 2.268 6.117 0 2.508-.745 4.488-2.233 5.941-1.488 1.453-3.551 2.18-6.187 2.18h-3.446zm0-4.307h3.551c.985 0 1.746-.322 2.285-.966.539-.645.809-1.583.809-2.813 0-1.277-.275-2.291-.826-3.041-.551-.762-1.289-1.148-2.215-1.16h-3.604v7.98zM287.1 81.56h-2.25V92h-5.168V66.406h5.168v10.23h1.74l4.447-10.23h6.293l-6.258 11.918L298.033 92h-6.152L287.1 81.559zm25.4-15.153h5.168V92H312.5V75.055L304.959 92h-5.186V66.406h5.186V83.37l7.541-16.963zm-268.91 40h5.168V132H43.59v-16.945L36.049 132h-5.186v-25.594h5.186v16.963l7.54-16.963z" fill="#fff"/><path d="M61.309 119.414l1.265-13.008h12.393v4.254h-8.315l-.457 5.485c.961-.645 1.952-.967 2.971-.967 2.11 0 3.732.75 4.87 2.25 1.148 1.5 1.722 3.621 1.722 6.363 0 2.566-.68 4.635-2.04 6.205-1.359 1.57-3.175 2.356-5.449 2.356a7.63 7.63 0 01-3.744-.95 7.181 7.181 0 01-2.724-2.672c-.657-1.136-.99-2.425-1.002-3.867h4.922c.082 1.067.345 1.893.79 2.479.446.586 1.02.879 1.723.879.82 0 1.454-.393 1.899-1.178.445-.797.668-1.981.668-3.551 0-1.476-.27-2.59-.809-3.34-.527-.75-1.271-1.125-2.232-1.125-.938 0-1.664.323-2.18.967l-.316.44-3.955-1.02zm32.572 2.004c0 3.539-.645 6.246-1.934 8.121-1.277 1.875-3.105 2.813-5.484 2.813-2.356 0-4.178-.909-5.467-2.725-1.277-1.828-1.94-4.441-1.986-7.84v-4.834c0-3.527.638-6.223 1.916-8.086 1.277-1.875 3.111-2.812 5.502-2.812 2.39 0 4.224.925 5.502 2.777 1.277 1.852 1.927 4.494 1.95 7.928v4.658zm-4.992-5.186c0-2.015-.2-3.527-.598-4.535-.398-1.008-1.02-1.511-1.863-1.511-1.582 0-2.403 1.845-2.461 5.537v6.381c0 2.062.199 3.597.597 4.605.41 1.008 1.043 1.512 1.899 1.512.809 0 1.406-.469 1.793-1.407.398-.949.61-2.396.633-4.341v-6.241zm31.5 5.186c0 3.539-.645 6.246-1.934 8.121-1.277 1.875-3.105 2.813-5.484 2.813-2.356 0-4.178-.909-5.467-2.725-1.277-1.828-1.94-4.441-1.986-7.84v-4.834c0-3.527.638-6.223 1.916-8.086 1.277-1.875 3.111-2.812 5.502-2.812 2.39 0 4.224.925 5.502 2.777 1.277 1.852 1.927 4.494 1.951 7.928v4.658zm-4.993-5.186c0-2.015-.199-3.527-.597-4.535-.399-1.008-1.02-1.511-1.863-1.511-1.582 0-2.403 1.845-2.461 5.537v6.381c0 2.062.199 3.597.597 4.605.41 1.008 1.043 1.512 1.899 1.512.808 0 1.406-.469 1.793-1.407.398-.949.609-2.396.632-4.341v-6.241zm23.204 5.186c0 3.539-.645 6.246-1.934 8.121-1.277 1.875-3.105 2.813-5.484 2.813-2.356 0-4.178-.909-5.467-2.725-1.277-1.828-1.94-4.441-1.986-7.84v-4.834c0-3.527.638-6.223 1.916-8.086 1.277-1.875 3.111-2.812 5.501-2.812 2.391 0 4.225.925 5.502 2.777 1.278 1.852 1.928 4.494 1.952 7.928v4.658zm-4.993-5.186c0-2.015-.199-3.527-.597-4.535-.399-1.008-1.02-1.511-1.864-1.511-1.582 0-2.402 1.845-2.46 5.537v6.381c0 2.062.199 3.597.597 4.605.41 1.008 1.043 1.512 1.899 1.512.808 0 1.406-.469 1.793-1.407.398-.949.609-2.396.632-4.341v-6.241zm23.204 5.186c0 3.539-.645 6.246-1.934 8.121-1.277 1.875-3.106 2.813-5.484 2.813-2.356 0-4.178-.909-5.467-2.725-1.278-1.828-1.94-4.441-1.987-7.84v-4.834c0-3.527.639-6.223 1.916-8.086 1.278-1.875 3.112-2.812 5.502-2.812 2.391 0 4.225.925 5.502 2.777 1.278 1.852 1.928 4.494 1.952 7.928v4.658zm-4.993-5.186c0-2.015-.199-3.527-.597-4.535-.399-1.008-1.02-1.511-1.864-1.511-1.582 0-2.402 1.845-2.461 5.537v6.381c0 2.062.2 3.597.598 4.605.41 1.008 1.043 1.512 1.899 1.512.808 0 1.406-.469 1.793-1.407.398-.949.609-2.396.632-4.341v-6.241zm28.723 12.375h-4.447V132h-5.168v-3.393h-2.988v-4.289h2.988V123h-2.988v-4.307h2.988v-12.287h8.683c2.532 0 4.553.78 6.065 2.338 1.523 1.559 2.285 3.58 2.285 6.065 0 2.507-.744 4.5-2.232 5.976-1.489 1.477-3.563 2.215-6.223 2.215h-3.41v1.318h4.447v4.289zm-4.447-9.914h3.392c2.157 0 3.235-1.283 3.235-3.849 0-1.207-.276-2.192-.826-2.953-.551-.774-1.307-1.161-2.268-1.161h-3.533v7.963zM29 196a2 2 0 012-2h139a2 2 0 012 2v50a2 2 0 01-2 2H31a2 2 0 01-2-2v-50z" fill="#FCB317"/><path d="M54.04 228.797h-2.11V226h-5.383v2.789h-2.172l-.125-4.695h.758c.333-.308.596-.802.789-1.485.193-.682.328-1.575.406-2.679l.32-5.305h6.54v9.469h1.18l-.204 4.703zm-6.563-4.703h3.296v-7.555h-2.062l-.188 3.133c-.13 1.88-.479 3.354-1.046 4.422zm14.007-.422h-3.132l-.61 2.328h-2.43l3.555-11.375h2.102L64.547 226h-2.453l-.61-2.328zm-2.632-1.914h2.125l-1.063-4.055-1.062 4.055zm9.414.742H66.43l-.258-7.875h2.351l-.257 7.875zm-2.133 2.43c0-.354.112-.644.336-.868.224-.229.515-.343.875-.343.354 0 .643.114.867.343.224.224.336.514.336.868 0 .349-.112.635-.336.859-.219.224-.508.336-.867.336-.365 0-.66-.112-.883-.336-.219-.224-.328-.51-.328-.859zM82.96 226h-2.297v-9.461H77.29V226h-2.297v-11.375h7.969V226zm10.367-4.664c0 1.526-.362 2.711-1.086 3.555-.719.843-1.719 1.265-3 1.265-1.276 0-2.279-.416-3.008-1.25-.729-.838-1.099-2.01-1.109-3.515v-1.946c0-1.562.362-2.781 1.086-3.656.724-.88 1.73-1.32 3.016-1.32 1.265 0 2.263.432 2.992 1.297.729.859 1.099 2.067 1.11 3.625v1.945zm-2.305-1.906c0-1.026-.145-1.789-.437-2.289-.292-.5-.745-.75-1.36-.75-.609 0-1.06.242-1.351.726-.292.479-.443 1.211-.453 2.195v2.024c0 .995.148 1.729.445 2.203.297.469.755.703 1.375.703.6 0 1.044-.229 1.336-.687.292-.464.44-1.18.445-2.149v-1.976zm12.18-4.805V226h-2.305v-9.461h-2.109l-.156 4.031c-.063 1.328-.214 2.383-.453 3.164-.235.776-.581 1.347-1.04 1.711-.453.365-1.064.55-1.835.555h-.563v-1.906l.266-.024c.479-.057.823-.369 1.031-.937.214-.573.346-1.584.398-3.031l.149-5.477h6.617zm5.945 5.055l1.532-5.055h2.468l-3.117 9.141c-.354.906-.737 1.528-1.148 1.867-.406.338-.896.515-1.469.531h-.25l-.547-.031-.039-1.906c.052.02.221.031.508.031.292 0 .51-.065.656-.196.151-.13.281-.421.391-.874l.109-.415-3.25-8.148h2.461l1.695 5.055zm13.657-5.055V226h-2.297v-4.289a7.97 7.97 0 01-1.719.203c-1.24 0-2.185-.312-2.836-.937-.651-.625-.989-1.526-1.015-2.704v-3.648h2.304v3.523c0 .667.112 1.144.336 1.43.229.287.633.43 1.211.43.557 0 1.13-.068 1.719-.203v-5.18h2.297zm7.914 0h2.297V226h-2.297v-7.531L127.367 226h-2.305v-11.375h2.305v7.539l3.352-7.539zm11.765 1.914h-2.812V226h-2.305v-9.461h-2.765v-1.914h7.882v1.914zm4.243 2.172h1.359c1.151 0 2.068.328 2.75.984.682.651 1.023 1.524 1.023 2.617 0 1.089-.333 1.972-1 2.649-.666.672-1.549 1.018-2.648 1.039h-3.789v-11.375h2.305v4.086zm0 1.906v3.477h1.39c.448 0 .8-.167 1.055-.5.26-.339.39-.771.39-1.297 0-.495-.127-.896-.382-1.203-.25-.313-.599-.472-1.047-.477h-1.406zm9.148 1.883h-1.836l-.258-7.875h2.352l-.258 7.875zm-2.133 2.43c0-.354.112-.644.336-.868.224-.229.516-.343.875-.343.354 0 .643.114.867.343.224.224.336.514.336.868 0 .349-.112.635-.336.859-.218.224-.508.336-.867.336-.364 0-.659-.112-.883-.336-.218-.224-.328-.51-.328-.859zM39.758 164H36.44v-4.863h-2.918V164h-3.328v-12.68h3.328v5.075h2.918v-5.075h3.317V164zm8.449 0c-.094-.195-.188-.523-.281-.984-.594.812-1.399 1.218-2.414 1.218-1.063 0-1.946-.351-2.649-1.054-.695-.703-1.043-1.614-1.043-2.731 0-1.328.422-2.355 1.266-3.082.852-.726 2.074-1.097 3.668-1.113h1.008v-1.02c0-.57-.098-.972-.293-1.207-.196-.234-.48-.351-.856-.351-.828 0-1.242.484-1.242 1.453h-3.316c0-1.172.437-2.137 1.312-2.895.883-.765 1.996-1.148 3.34-1.148 1.39 0 2.465.363 3.223 1.09.765.719 1.148 1.75 1.148 3.094v5.964c.016 1.094.172 1.95.469 2.567V164h-3.34zm-1.957-2.367c.367 0 .68-.074.938-.223.257-.148.449-.324.574-.527v-2.637h-.797c-.563 0-1.008.18-1.336.539-.32.36-.48.84-.48 1.442 0 .937.367 1.406 1.101 1.406zm17.344-.153c.96 0 1.449-.625 1.465-1.875h3.117c-.016 1.383-.442 2.5-1.278 3.352-.835.852-1.914 1.277-3.234 1.277-1.633 0-2.879-.507-3.738-1.523-.86-1.016-1.297-2.512-1.313-4.488v-1.008c0-1.992.422-3.512 1.266-4.559.852-1.047 2.105-1.57 3.762-1.57 1.398 0 2.5.434 3.304 1.301.805.859 1.215 2.082 1.23 3.668H65.06c-.008-.711-.125-1.258-.352-1.641-.226-.383-.601-.574-1.125-.574-.578 0-.992.207-1.242.621-.25.406-.383 1.199-.399 2.379v1.289c0 1.031.051 1.754.153 2.168.101.406.27.707.504.902.234.188.566.281.996.281zm15.586-7.429h-3.258V164h-3.316v-9.949H69.37v-2.731h9.809v2.731zm11.648 4.008c0 1.992-.344 3.519-1.031 4.582-.68 1.062-1.695 1.593-3.047 1.593-1.031 0-1.86-.418-2.484-1.254v5.895h-3.317V151.32h3.07l.118 1.16c.632-.929 1.496-1.394 2.59-1.394 1.351 0 2.367.492 3.046 1.476.688.985 1.04 2.493 1.055 4.524v.973zm-3.305-.832c0-1.227-.136-2.094-.41-2.602-.265-.508-.719-.762-1.36-.762-.679 0-1.175.285-1.487.856v5.941c.296.547.8.82 1.511.82.657 0 1.11-.277 1.36-.832.257-.554.386-1.418.386-2.589v-.832zm4.922.023c0-1.922.453-3.43 1.36-4.523.906-1.094 2.16-1.641 3.761-1.641 1.618 0 2.879.547 3.786 1.641.906 1.093 1.359 2.609 1.359 4.546v.809c0 1.93-.449 3.438-1.348 4.523-.898 1.086-2.156 1.629-3.773 1.629-1.625 0-2.89-.543-3.797-1.629-.899-1.093-1.348-2.609-1.348-4.546v-.809zm3.328.832c0 2.266.606 3.398 1.817 3.398 1.117 0 1.719-.945 1.804-2.835l.012-1.395c0-1.156-.16-2.012-.48-2.566-.32-.563-.774-.844-1.36-.844-.562 0-1.004.281-1.324.844-.312.554-.469 1.41-.469 2.566v.832zm15.282-6.762h3.304V164h-3.304v-7.793L108.102 164h-3.329v-12.68h3.329v7.782l2.953-7.782zm14.859 2.731h-3.258V164h-3.316v-9.949h-3.235v-2.731h9.809v2.731zm6.141 10.183c-1.703 0-3.032-.507-3.985-1.523-.953-1.016-1.429-2.469-1.429-4.359v-1.008c0-2 .437-3.543 1.312-4.629.875-1.086 2.129-1.629 3.762-1.629 1.594 0 2.793.512 3.597 1.535.805 1.016 1.215 2.524 1.231 4.524v1.628h-6.598c.047.938.254 1.625.621 2.063.368.43.934.644 1.7.644 1.109 0 2.035-.378 2.777-1.136l1.301 2.004c-.406.562-.996 1.019-1.77 1.371a6.142 6.142 0 01-2.519.515zm-2.086-7.781h3.316v-.305c-.015-.757-.14-1.332-.375-1.722-.234-.391-.64-.586-1.219-.586-.578 0-1 .207-1.265.621-.258.414-.41 1.078-.457 1.992zm18.035-5.133V164h-3.316v-9.914h-1.969l-.188 3.914c-.117 2.031-.48 3.535-1.09 4.512-.609.968-1.515 1.465-2.718 1.488h-1.078l-.036-2.766.375-.046c.446-.063.774-.387.985-.973.211-.586.347-1.547.41-2.883l.223-6.012h8.402zm5.941 3.692h1.7c1.492 0 2.664.41 3.515 1.23.86.82 1.289 1.918 1.289 3.293 0 1.344-.433 2.426-1.301 3.246-.859.813-2.031 1.219-3.515 1.219h-5.004v-12.68h3.316v3.692zm0 2.754v3.504h1.735c.461 0 .82-.153 1.078-.458.258-.304.387-.726.387-1.265 0-1.188-.52-1.781-1.559-1.781h-1.641zm12.891 3.714c.961 0 1.449-.625 1.465-1.875h3.117c-.016 1.383-.441 2.5-1.277 3.352-.836.852-1.914 1.277-3.235 1.277-1.633 0-2.879-.507-3.738-1.523s-1.297-2.512-1.313-4.488v-1.008c0-1.992.422-3.512 1.266-4.559.852-1.047 2.106-1.57 3.762-1.57 1.398 0 2.5.434 3.305 1.301.804.859 1.214 2.082 1.23 3.668h-3.117c-.008-.711-.125-1.258-.352-1.641-.226-.383-.601-.574-1.125-.574-.578 0-.992.207-1.242.621-.25.406-.383 1.199-.398 2.379v1.289c0 1.031.05 1.754.152 2.168.102.406.269.707.504.902.234.188.566.281.996.281zm15.586-7.429h-3.258V164h-3.316v-9.949h-3.235v-2.731h9.809v2.731zm1.98 9.949v-12.68h4.606c1.476 0 2.609.305 3.398.914.797.61 1.196 1.485 1.196 2.625 0 .586-.172 1.114-.516 1.582-.336.461-.828.817-1.477 1.067.789.164 1.411.496 1.864.996.461.492.691 1.117.691 1.875 0 2.414-1.519 3.621-4.559 3.621h-5.203zm3.305-5.25v2.52h1.981c.429 0 .73-.106.902-.317.172-.211.258-.519.258-.926 0-.468-.094-.797-.282-.984-.187-.188-.457-.285-.808-.293h-2.051zm0-2.285h1.348c.445 0 .757-.094.937-.281.188-.196.281-.481.281-.856 0-.82-.382-1.246-1.148-1.277h-1.418v2.414zm8.051.785c0-1.922.453-3.43 1.359-4.523.906-1.094 2.16-1.641 3.762-1.641 1.617 0 2.879.547 3.785 1.641.906 1.093 1.359 2.609 1.359 4.546v.809c0 1.93-.449 3.438-1.347 4.523-.899 1.086-2.156 1.629-3.774 1.629-1.625 0-2.89-.543-3.797-1.629-.898-1.093-1.347-2.609-1.347-4.546v-.809zm3.328.832c0 2.266.605 3.398 1.816 3.398 1.118 0 1.719-.945 1.805-2.835l.012-1.395c0-1.156-.16-2.012-.481-2.566-.32-.563-.773-.844-1.359-.844-.563 0-1.004.281-1.324.844-.313.554-.469 1.41-.469 2.566v.832zM213.84 164v-12.68h4.605c1.477 0 2.61.305 3.399.914.797.61 1.195 1.485 1.195 2.625 0 .586-.172 1.114-.516 1.582-.335.461-.828.817-1.476 1.067.789.164 1.41.496 1.863.996.461.492.692 1.117.692 1.875 0 2.414-1.52 3.621-4.559 3.621h-5.203zm3.305-5.25v2.52h1.98c.43 0 .73-.106.902-.317.172-.211.258-.519.258-.926 0-.468-.094-.797-.281-.984-.188-.188-.457-.285-.809-.293h-2.05zm0-2.285h1.347c.446 0 .758-.094.938-.281.187-.196.281-.481.281-.856 0-.82-.383-1.246-1.149-1.277h-1.417v2.414zm14.46 7.535c-.093-.195-.187-.523-.281-.984-.594.812-1.398 1.218-2.414 1.218-1.062 0-1.945-.351-2.648-1.054-.696-.703-1.043-1.614-1.043-2.731 0-1.328.422-2.355 1.265-3.082.852-.726 2.075-1.097 3.668-1.113h1.008v-1.02c0-.57-.098-.972-.293-1.207-.195-.234-.48-.351-.855-.351-.828 0-1.242.484-1.242 1.453h-3.317c0-1.172.438-2.137 1.313-2.895.882-.765 1.996-1.148 3.339-1.148 1.391 0 2.465.363 3.223 1.09.766.719 1.149 1.75 1.149 3.094v5.964c.015 1.094.171 1.95.468 2.567V164h-3.34zm-1.957-2.367c.368 0 .68-.074.938-.223a1.57 1.57 0 00.574-.527v-2.637h-.797c-.562 0-1.008.18-1.336.539-.32.36-.48.84-.48 1.442 0 .937.367 1.406 1.101 1.406zm10.547-10.313v9.926h2.379v-9.926h3.328v9.926h2.403v-9.926h3.316V164h-14.754v-12.68h3.328zm19.149 12.914c-1.703 0-3.032-.507-3.985-1.523-.953-1.016-1.429-2.469-1.429-4.359v-1.008c0-2 .437-3.543 1.312-4.629.875-1.086 2.129-1.629 3.762-1.629 1.594 0 2.793.512 3.598 1.535.804 1.016 1.214 2.524 1.23 4.524v1.628h-6.598c.047.938.254 1.625.621 2.063.368.43.934.644 1.7.644 1.109 0 2.035-.378 2.777-1.136l1.301 2.004c-.406.562-.996 1.019-1.77 1.371a6.142 6.142 0 01-2.519.515zm-2.086-7.781h3.316v-.305c-.015-.757-.14-1.332-.375-1.722-.234-.391-.64-.586-1.219-.586-.578 0-1 .207-1.265.621-.258.414-.41 1.078-.457 1.992zm15.867-2.367h-4.113V164h-3.317v-12.68h7.43v2.766zm.867 3.164c0-1.922.453-3.43 1.36-4.523.906-1.094 2.16-1.641 3.761-1.641 1.617 0 2.879.547 3.785 1.641.907 1.093 1.36 2.609 1.36 4.546v.809c0 1.93-.449 3.438-1.348 4.523-.898 1.086-2.156 1.629-3.773 1.629-1.625 0-2.891-.543-3.797-1.629-.899-1.093-1.348-2.609-1.348-4.546v-.809zm3.328.832c0 2.266.606 3.398 1.817 3.398 1.117 0 1.718-.945 1.804-2.835l.012-1.395c0-1.156-.16-2.012-.48-2.566-.321-.563-.774-.844-1.36-.844-.562 0-1.004.281-1.324.844-.312.554-.469 1.41-.469 2.566v.832zm14.801 3.164c.547-.625.938-1.254 1.172-1.887.234-.632.371-1.519.41-2.66l.094-5.379h8.262v9.926h1.675v6.563h-3.316V164h-5.848v3.809h-3.398v-6.563h.949zm3.68 0h2.953v-7.101h-1.688l-.011 1.253c-.024 2.422-.442 4.372-1.254 5.848zm9.246-3.996c0-1.922.453-3.43 1.359-4.523.906-1.094 2.16-1.641 3.762-1.641 1.617 0 2.879.547 3.785 1.641.906 1.093 1.359 2.609 1.359 4.546v.809c0 1.93-.449 3.438-1.347 4.523-.899 1.086-2.156 1.629-3.774 1.629-1.625 0-2.89-.543-3.796-1.629-.899-1.093-1.348-2.609-1.348-4.546v-.809zm3.328.832c0 2.266.605 3.398 1.816 3.398 1.118 0 1.719-.945 1.805-2.835l.012-1.395c0-1.156-.16-2.012-.481-2.566-.32-.563-.773-.844-1.359-.844-.563 0-1.004.281-1.324.844-.313.554-.469 1.41-.469 2.566v.832zm15.656 1.887l2.379-8.649h4.16V164h-3.316v-6.785L325.145 164h-2.215l-2.028-6.562V164h-3.304v-12.68h4.09l2.343 8.649zM339.348 164c-.094-.195-.188-.523-.282-.984-.593.812-1.398 1.218-2.414 1.218-1.062 0-1.945-.351-2.648-1.054-.695-.703-1.043-1.614-1.043-2.731 0-1.328.422-2.355 1.266-3.082.851-.726 2.074-1.097 3.668-1.113h1.007v-1.02c0-.57-.097-.972-.293-1.207-.195-.234-.48-.351-.855-.351-.828 0-1.242.484-1.242 1.453h-3.317c0-1.172.438-2.137 1.313-2.895.883-.765 1.996-1.148 3.34-1.148 1.39 0 2.464.363 3.222 1.09.766.719 1.149 1.75 1.149 3.094v5.964c.015 1.094.172 1.95.469 2.567V164h-3.34zm-1.957-2.367c.367 0 .679-.074.937-.223a1.57 1.57 0 00.574-.527v-2.637h-.797c-.562 0-1.007.18-1.335.539-.321.36-.481.84-.481 1.442 0 .937.367 1.406 1.102 1.406zm10.617-2.883h-2.754l-.387-11.812h3.528l-.387 11.812zm-3.199 3.645c0-.532.168-.965.503-1.301.336-.344.774-.516 1.313-.516.531 0 .965.172 1.301.516.336.336.504.769.504 1.301 0 .523-.168.953-.504 1.289-.328.336-.762.504-1.301.504-.547 0-.988-.168-1.324-.504-.328-.336-.492-.766-.492-1.289z" fill="#fff"/></svg>