<svg width="390" height="293" viewBox="0 0 390 293" fill="none" xmlns="http://www.w3.org/2000/svg"><path opacity=".75" fill="#000" d="M0 0h390v293H0z"/><path d="M61.07 74.39h-6.328V66H38.594v8.367h-6.516l-.375-14.086h2.274c1-.922 1.789-2.406 2.367-4.453.578-2.047.984-4.726 1.218-8.039l.961-15.914h19.618v28.406h3.539l-.61 14.11zM41.383 60.282h9.89V37.617h-6.187l-.563 9.399c-.39 5.64-1.437 10.062-3.14 13.265zm47.32-8.273c0 4.578-1.086 8.133-3.258 10.664-2.156 2.531-5.156 3.797-9 3.797-3.828 0-6.836-1.25-9.023-3.75-2.188-2.516-3.297-6.032-3.328-10.547v-5.836c0-4.688 1.086-8.344 3.258-10.969 2.171-2.64 5.187-3.96 9.046-3.96 3.797 0 6.79 1.296 8.977 3.89 2.188 2.578 3.297 6.203 3.328 10.875v5.836zm-6.914-5.719c0-3.078-.437-5.367-1.312-6.867s-2.235-2.25-4.079-2.25c-1.828 0-3.18.726-4.054 2.18-.875 1.437-1.328 3.632-1.36 6.586v6.07c0 2.984.446 5.187 1.336 6.61.89 1.405 2.266 2.109 4.125 2.109 1.797 0 3.133-.688 4.008-2.063.875-1.39 1.32-3.539 1.336-6.445v-5.93zm20.859-14.414l6.446 24.68 6.422-24.68h9V66h-6.914v-9.234l.632-14.227L111.414 66h-4.687l-6.82-23.46.632 14.226V66h-6.89V31.875h8.999zm52.149 9.398c0-1.25-.352-2.25-1.055-3-.687-.75-1.625-1.125-2.812-1.125-1.047 0-1.907.368-2.578 1.102-.657.719-.985 1.68-.985 2.883h-6.89c0-1.89.453-3.57 1.359-5.04.922-1.484 2.187-2.632 3.797-3.445 1.609-.812 3.375-1.218 5.297-1.218 3.39 0 6.031.851 7.922 2.554 1.906 1.688 2.859 4.07 2.859 7.149 0 1.562-.399 2.992-1.195 4.289-.782 1.281-1.86 2.297-3.235 3.047 1.563.656 2.766 1.656 3.61 3 .843 1.328 1.265 2.984 1.265 4.968 0 3.079-1.023 5.516-3.07 7.313-2.047 1.797-4.766 2.695-8.156 2.695-2.063 0-3.93-.398-5.602-1.195-1.656-.797-2.953-1.938-3.89-3.422-.922-1.484-1.383-3.25-1.383-5.297h6.914c0 1.172.367 2.172 1.101 3 .735.828 1.688 1.242 2.86 1.242 1.312 0 2.359-.414 3.14-1.242.782-.828 1.172-1.898 1.172-3.21 0-1.766-.336-3.032-1.008-3.798-.672-.765-1.648-1.148-2.929-1.148h-3.493V45.82h3.516c2.313-.015 3.469-1.53 3.469-4.547zm28.641 17.743h-9.399L172.211 66h-7.289l10.664-34.125h6.305L192.625 66h-7.359l-1.828-6.984zm-7.899-5.743h6.375l-3.187-12.164-3.188 12.164zM47.365 113H33.057v-2.338l7.295-9.668c1.101-1.488 1.863-2.707 2.285-3.656a7.31 7.31 0 00.65-3.041c0-1.36-.316-2.461-.95-3.305-.632-.844-1.464-1.265-2.495-1.265-1.301 0-2.309.45-3.024 1.353-.703.89-1.054 2.18-1.054 3.867h-3.112c0-2.355.645-4.26 1.934-5.713 1.289-1.453 3.041-2.18 5.256-2.18 2.039 0 3.644.628 4.816 1.882 1.172 1.242 1.758 2.9 1.758 4.974 0 2.531-1.318 5.526-3.955 8.983l-5.695 7.453h10.6V113zm22.57-25.611v2.76h-.51c-2.073.046-3.697.75-4.868 2.109-1.172 1.348-1.846 3.38-2.022 6.1 1.137-1.43 2.59-2.145 4.36-2.145 1.886 0 3.38.78 4.482 2.338 1.113 1.547 1.67 3.58 1.67 6.099 0 2.684-.615 4.805-1.846 6.364-1.219 1.558-2.86 2.338-4.922 2.338-2.074 0-3.744-.92-5.01-2.76-1.265-1.84-1.898-4.283-1.898-7.33v-1.248c0-3.516.381-6.317 1.143-8.403.761-2.086 1.88-3.633 3.357-4.64 1.488-1.02 3.334-1.547 5.537-1.582h.528zm-3.568 11.53c-.844 0-1.623.323-2.338.968-.714.644-1.23 1.465-1.547 2.461v1.283c0 2.074.364 3.767 1.09 5.08.739 1.301 1.64 1.951 2.707 1.951 1.16 0 2.069-.533 2.725-1.6.656-1.078.984-2.496.984-4.253 0-1.735-.328-3.147-.984-4.237-.656-1.101-1.535-1.652-2.637-1.652zm20.76 3.147c-1.242 1.582-2.695 2.373-4.36 2.373-1.863 0-3.345-.785-4.447-2.355-1.101-1.57-1.652-3.627-1.652-6.17 0-2.672.598-4.816 1.793-6.433 1.207-1.618 2.848-2.426 4.922-2.426 2.156 0 3.838.937 5.045 2.812 1.219 1.864 1.828 4.447 1.828 7.752v.967c0 2.836-.217 5.133-.65 6.891-.422 1.757-1.05 3.175-1.881 4.253a7.961 7.961 0 01-3.182 2.461c-1.29.551-2.9.827-4.834.827v-2.743h.545c2.203-.046 3.873-.714 5.01-2.004 1.148-1.3 1.77-3.369 1.863-6.205zm-3.832-.316c.75 0 1.482-.311 2.197-.932.715-.632 1.272-1.459 1.67-2.478v-1.371c0-2.121-.369-3.85-1.107-5.186-.739-1.347-1.63-2.021-2.672-2.021-1.125 0-2.022.556-2.69 1.67-.656 1.101-.984 2.537-.984 4.306 0 1.77.322 3.217.967 4.342.644 1.113 1.517 1.67 2.619 1.67zm24.557-7.664c0 1.277-.288 2.414-.862 3.41a6.164 6.164 0 01-2.285 2.338 6.473 6.473 0 012.672 2.531c.644 1.09.967 2.332.967 3.727 0 2.203-.627 3.967-1.881 5.291-1.242 1.312-2.895 1.969-4.957 1.969-2.063 0-3.72-.657-4.975-1.969-1.242-1.324-1.863-3.088-1.863-5.291 0-1.406.316-2.66.95-3.762.644-1.113 1.517-1.951 2.618-2.514a6.074 6.074 0 01-2.267-2.32c-.551-.996-.826-2.133-.826-3.41 0-2.156.58-3.867 1.74-5.133 1.172-1.266 2.713-1.898 4.623-1.898 1.898 0 3.428.627 4.588 1.88 1.172 1.254 1.758 2.971 1.758 5.15zm-2.62 11.935c0-1.464-.345-2.636-1.037-3.515-.691-.891-1.599-1.336-2.724-1.336-1.149 0-2.057.445-2.725 1.336-.656.89-.984 2.062-.984 3.515 0 1.477.322 2.625.966 3.446.657.82 1.583 1.23 2.778 1.23s2.115-.41 2.76-1.23c.644-.821.966-1.969.966-3.446zm-.474-11.882c0-1.301-.305-2.362-.914-3.182-.61-.82-1.389-1.23-2.338-1.23-.996 0-1.787.404-2.373 1.212-.586.809-.88 1.876-.88 3.2 0 1.336.3 2.396.897 3.181.598.786 1.383 1.178 2.356 1.178.996 0 1.787-.398 2.373-1.195.586-.797.879-1.852.879-3.164zm29.654 7.945c0 3.773-.551 6.598-1.652 8.473-1.102 1.863-2.83 2.795-5.186 2.795-2.285 0-3.99-.897-5.115-2.69s-1.711-4.488-1.758-8.086v-4.394c0-3.739.551-6.528 1.653-8.368 1.113-1.84 2.841-2.76 5.185-2.76 2.309 0 4.014.874 5.115 2.62 1.114 1.746 1.7 4.388 1.758 7.928v4.482zm-3.111-4.447c0-2.707-.299-4.7-.897-5.977-.597-1.289-1.552-1.933-2.865-1.933-1.277 0-2.215.632-2.812 1.898-.598 1.254-.909 3.152-.932 5.695v5.274c0 2.695.31 4.722.932 6.082.621 1.347 1.57 2.021 2.847 2.021 1.266 0 2.197-.638 2.795-1.916.598-1.277.908-3.228.932-5.853v-5.291zm20.9 4.447c0 3.773-.551 6.598-1.652 8.473-1.102 1.863-2.83 2.795-5.186 2.795-2.285 0-3.99-.897-5.115-2.69s-1.711-4.488-1.758-8.086v-4.394c0-3.739.551-6.528 1.653-8.368 1.113-1.84 2.841-2.76 5.185-2.76 2.309 0 4.014.874 5.115 2.62 1.114 1.746 1.7 4.388 1.758 7.928v4.482zm-3.111-4.447c0-2.707-.299-4.7-.897-5.977-.597-1.289-1.552-1.933-2.865-1.933-1.277 0-2.215.632-2.812 1.898-.598 1.254-.909 3.152-.932 5.695v5.274c0 2.695.311 4.722.932 6.082.621 1.347 1.57 2.021 2.847 2.021 1.266 0 2.198-.638 2.795-1.916.598-1.277.908-3.228.932-5.853v-5.291zm20.9 4.447c0 3.773-.551 6.598-1.652 8.473-1.102 1.863-2.83 2.795-5.186 2.795-2.285 0-3.99-.897-5.115-2.69s-1.711-4.488-1.758-8.086v-4.394c0-3.739.551-6.528 1.653-8.368 1.113-1.84 2.841-2.76 5.185-2.76 2.309 0 4.014.874 5.115 2.62 1.114 1.746 1.7 4.388 1.758 7.928v4.482zm-3.111-4.447c0-2.707-.299-4.7-.897-5.977-.597-1.289-1.552-1.933-2.865-1.933-1.277 0-2.215.632-2.812 1.898-.598 1.254-.909 3.152-.932 5.695v5.274c0 2.695.311 4.722.932 6.082.621 1.347 1.57 2.021 2.847 2.021 1.266 0 2.198-.638 2.795-1.916.598-1.277.908-3.228.932-5.853v-5.291zm29.496 6.767c0 3.012-.545 5.256-1.635 6.733-1.078 1.476-2.607 2.215-4.588 2.215-1.91 0-3.381-.721-4.412-2.163v9.123h-3.094V93.981h2.813l.158 2.109c1.043-1.64 2.537-2.461 4.483-2.461 2.086 0 3.644.727 4.675 2.18 1.032 1.453 1.565 3.627 1.6 6.521v2.074zm-3.094-1.775c0-2.133-.328-3.703-.984-4.711-.656-1.02-1.711-1.53-3.164-1.53-1.488 0-2.619.745-3.393 2.233v9.897c.762 1.453 1.905 2.179 3.428 2.179 1.406 0 2.437-.504 3.094-1.511.668-1.02 1.008-2.573 1.019-4.659v-1.898zm12.094 5.203l3.463-13.851h3.305l-6.223 21.708c-.469 1.629-1.131 2.866-1.986 3.709-.856.856-1.829 1.284-2.918 1.284-.422 0-.961-.094-1.618-.282v-2.636l.686.07c.902 0 1.605-.217 2.109-.65.516-.422.932-1.161 1.248-2.215l.616-2.127-5.59-18.861h3.392l3.516 13.851zm17.051-12.762c2.004 0 3.597.797 4.781 2.39 1.184 1.583 1.775 3.704 1.775 6.364v.264c0 2.812-.656 5.062-1.968 6.75-1.313 1.676-3.047 2.514-5.203 2.514-2.157 0-3.891-.85-5.204-2.549-1.312-1.699-1.968-3.985-1.968-6.856v-1.599c0-3.926.615-7.067 1.845-9.422 1.231-2.367 3.036-3.826 5.414-4.377 1.372-.317 2.297-.692 2.778-1.125.492-.434.738-1.008.738-1.723h2.514l-.018.686c-.14 2.32-1.254 3.79-3.34 4.412l-2.144.597c-1.547.422-2.737 1.166-3.569 2.233-.82 1.066-1.353 2.46-1.599 4.183 1.43-1.828 3.152-2.742 5.168-2.742zm-.633 2.672c-1.242 0-2.227.527-2.953 1.582-.715 1.055-1.072 2.643-1.072 4.764 0 2.062.357 3.685 1.072 4.869.715 1.172 1.705 1.758 2.971 1.758 1.265 0 2.261-.592 2.988-1.776.726-1.183 1.09-2.935 1.09-5.255 0-1.829-.369-3.276-1.108-4.342-.726-1.067-1.722-1.6-2.988-1.6zm11.039 13.553c0-.563.164-1.031.492-1.406.34-.375.844-.563 1.512-.563s1.172.188 1.512.563c.351.375.527.843.527 1.406 0 .539-.176.99-.527 1.353-.34.364-.844.545-1.512.545s-1.172-.181-1.512-.545c-.328-.363-.492-.814-.492-1.353z" fill="#fff"/><path d="M31 104h208.775v1.793H31V104z" fill="#fff"/><path d="M53.336 172h-20.11v-4.688l9.235-11.742c1.172-1.625 2.031-3.047 2.578-4.265.563-1.235.844-2.414.844-3.539 0-1.516-.266-2.704-.797-3.563-.516-.859-1.266-1.289-2.25-1.289-1.078 0-1.938.5-2.578 1.5-.625 1-.938 2.406-.938 4.219h-6.656c0-2.094.43-4.008 1.29-5.742.874-1.735 2.093-3.079 3.655-4.032 1.578-.968 3.36-1.453 5.344-1.453 3.047 0 5.406.844 7.078 2.532 1.688 1.671 2.532 4.054 2.532 7.148 0 1.922-.47 3.875-1.407 5.859-.922 1.969-2.601 4.399-5.039 7.289l-4.383 6.258h11.602V172zm21.14-20.086h3.212c1.218 0 2.109-.422 2.671-1.266.579-.859.868-2 .868-3.421 0-1.36-.297-2.415-.891-3.165-.578-.765-1.36-1.148-2.344-1.148-.922 0-1.68.359-2.273 1.078-.578.719-.867 1.625-.867 2.719h-6.633c0-1.781.406-3.375 1.219-4.781a8.71 8.71 0 013.445-3.328c1.484-.797 3.125-1.196 4.922-1.196 3.14 0 5.601.867 7.382 2.602 1.782 1.734 2.672 4.109 2.672 7.125a8.112 8.112 0 01-1.218 4.312c-.797 1.313-1.852 2.321-3.164 3.024 1.609.687 2.804 1.719 3.585 3.093.797 1.376 1.196 3 1.196 4.876 0 3.031-.969 5.46-2.906 7.289-1.922 1.828-4.454 2.742-7.594 2.742-2.922 0-5.297-.899-7.125-2.696-1.813-1.812-2.719-4.187-2.719-7.125h6.633c0 1.219.32 2.243.96 3.071.641.828 1.454 1.242 2.438 1.242 1.14 0 2.04-.422 2.696-1.266.671-.843 1.007-1.968 1.007-3.375 0-3.359-1.304-5.047-3.914-5.062h-3.257v-5.344zm19.055 3.305l1.688-17.344h16.523v5.672h-11.086l-.609 7.312c1.281-.859 2.601-1.289 3.961-1.289 2.812 0 4.976 1 6.492 3 1.531 2 2.297 4.828 2.297 8.485 0 3.422-.906 6.179-2.719 8.273-1.812 2.094-4.234 3.141-7.266 3.141-1.796 0-3.46-.422-4.992-1.266a9.582 9.582 0 01-3.632-3.562c-.876-1.516-1.32-3.235-1.336-5.157h6.562c.11 1.422.461 2.524 1.055 3.305.593.781 1.359 1.172 2.297 1.172 1.093 0 1.937-.523 2.531-1.57.594-1.063.891-2.641.891-4.735 0-1.968-.36-3.453-1.079-4.453-.703-1-1.695-1.5-2.976-1.5-1.25 0-2.219.43-2.906 1.289l-.422.586-5.274-1.359zm43.43 2.672c0 4.718-.859 8.328-2.578 10.828-1.703 2.5-4.141 3.75-7.313 3.75-3.14 0-5.57-1.211-7.289-3.633-1.703-2.438-2.586-5.922-2.648-10.453v-6.445c0-4.704.851-8.297 2.555-10.782 1.703-2.5 4.148-3.75 7.335-3.75 3.188 0 5.633 1.235 7.336 3.703 1.703 2.469 2.571 5.993 2.602 10.571v6.211zm-6.656-6.914c0-2.688-.266-4.704-.797-6.047-.531-1.344-1.36-2.016-2.485-2.016-2.109 0-3.203 2.461-3.281 7.383v8.508c0 2.75.266 4.797.797 6.14.547 1.344 1.391 2.016 2.531 2.016 1.078 0 1.875-.625 2.391-1.875.531-1.266.812-3.195.844-5.789v-8.32zm42 6.914c0 4.718-.86 8.328-2.578 10.828-1.704 2.5-4.141 3.75-7.313 3.75-3.141 0-5.57-1.211-7.289-3.633-1.703-2.438-2.586-5.922-2.648-10.453v-6.445c0-4.704.851-8.297 2.554-10.782 1.703-2.5 4.149-3.75 7.336-3.75 3.188 0 5.633 1.235 7.336 3.703 1.703 2.469 2.57 5.993 2.602 10.571v6.211zm-6.657-6.914c0-2.688-.265-4.704-.796-6.047-.532-1.344-1.36-2.016-2.485-2.016-2.109 0-3.203 2.461-3.281 7.383v8.508c0 2.75.266 4.797.797 6.14.547 1.344 1.39 2.016 2.531 2.016 1.078 0 1.875-.625 2.391-1.875.531-1.266.812-3.195.843-5.789v-8.32zm30.938 6.914c0 4.718-.859 8.328-2.578 10.828-1.703 2.5-4.141 3.75-7.313 3.75-3.14 0-5.57-1.211-7.289-3.633-1.703-2.438-2.586-5.922-2.648-10.453v-6.445c0-4.704.851-8.297 2.554-10.782 1.704-2.5 4.149-3.75 7.336-3.75 3.188 0 5.633 1.235 7.336 3.703 1.704 2.469 2.571 5.993 2.602 10.571v6.211zm-6.656-6.914c0-2.688-.266-4.704-.797-6.047-.531-1.344-1.36-2.016-2.485-2.016-2.109 0-3.203 2.461-3.281 7.383v8.508c0 2.75.266 4.797.797 6.14.547 1.344 1.391 2.016 2.531 2.016 1.078 0 1.875-.625 2.391-1.875.531-1.266.812-3.195.844-5.789v-8.32zm30.937 6.914c0 4.718-.859 8.328-2.578 10.828-1.703 2.5-4.141 3.75-7.312 3.75-3.141 0-5.571-1.211-7.289-3.633-1.704-2.438-2.586-5.922-2.649-10.453v-6.445c0-4.704.852-8.297 2.555-10.782 1.703-2.5 4.148-3.75 7.336-3.75 3.187 0 5.632 1.235 7.336 3.703 1.703 2.469 2.57 5.993 2.601 10.571v6.211zm-6.656-6.914c0-2.688-.266-4.704-.797-6.047-.531-1.344-1.359-2.016-2.484-2.016-2.11 0-3.203 2.461-3.282 7.383v8.508c0 2.75.266 4.797.797 6.14.547 1.344 1.391 2.016 2.532 2.016 1.078 0 1.875-.625 2.39-1.875.531-1.266.813-3.195.844-5.789v-8.32zm42.117 9.14c0 3.985-.687 7.039-2.062 9.164-1.36 2.125-3.391 3.188-6.094 3.188-2.063 0-3.719-.836-4.969-2.508v11.789h-6.633v-35.109h6.141l.234 2.32c1.266-1.859 2.993-2.789 5.18-2.789 2.703 0 4.734.984 6.094 2.953 1.375 1.969 2.078 4.984 2.109 9.047v1.945zm-6.609-1.664c0-2.453-.274-4.187-.821-5.203-.531-1.016-1.437-1.523-2.718-1.523-1.36 0-2.352.57-2.977 1.711v11.882c.594 1.094 1.602 1.641 3.024 1.641 1.312 0 2.218-.555 2.718-1.664.516-1.109.774-2.836.774-5.18v-1.664zm18.469 2.508l3.374-14.32h7.079l-8.344 29.156c-1.25 4.297-3.602 6.445-7.055 6.445-.797 0-1.703-.148-2.719-.445v-5.18l.774.024c1.031 0 1.805-.203 2.32-.61.531-.39.93-1.078 1.195-2.062l.516-1.711-7.312-25.617h7.125l3.047 14.32zm24.421-12.914c2.735 0 4.899 1.078 6.493 3.234 1.609 2.141 2.414 5.063 2.414 8.766v.351c0 3.688-.914 6.625-2.743 8.813-1.828 2.187-4.312 3.281-7.453 3.281-3.156 0-5.648-1.187-7.476-3.562-1.813-2.375-2.719-5.633-2.719-9.774v-1.054c.031-5.657.844-10.118 2.437-13.383 1.594-3.281 3.993-5.336 7.196-6.164 1.531-.469 2.515-.914 2.953-1.336.437-.438.656-1.016.656-1.735h5.297c0 2.5-.562 4.368-1.687 5.602-1.125 1.219-3.133 2.148-6.024 2.789-1.609.406-2.851 1.18-3.726 2.32-.875 1.125-1.461 2.688-1.758 4.688 1.765-1.891 3.812-2.836 6.14-2.836zm-1.312 5.508c-2.266 0-3.438 1.992-3.516 5.976v.867c0 2.329.297 4.008.891 5.04.609 1.031 1.492 1.546 2.648 1.546 2.297 0 3.485-2.039 3.563-6.117v-.961c0-4.234-1.195-6.351-3.586-6.351zm14.812 15.07c0-1.063.352-1.937 1.055-2.625.719-.688 1.648-1.031 2.789-1.031 1.109 0 2.031.343 2.766 1.031.734.672 1.101 1.547 1.101 2.625 0 1.094-.375 1.977-1.125 2.648-.734.657-1.648.985-2.742.985-1.109 0-2.031-.336-2.765-1.008-.719-.672-1.079-1.547-1.079-2.625zM34 207a2 2 0 012-2h238a2 2 0 012 2v50a2 2 0 01-2 2H36a2 2 0 01-2-2v-50z" fill="#FCB317"/><path d="M73.195 233.211c-.057 1.297-.422 2.279-1.093 2.945-.672.667-1.62 1-2.844 1-1.287 0-2.274-.422-2.961-1.265-.682-.849-1.024-2.058-1.024-3.625v-1.914c0-1.563.355-2.766 1.063-3.61.708-.849 1.693-1.273 2.953-1.273 1.24 0 2.18.346 2.82 1.039.646.693 1.013 1.687 1.102 2.984h-2.305c-.02-.802-.146-1.354-.375-1.656-.224-.307-.638-.461-1.242-.461-.615 0-1.05.216-1.305.648-.255.428-.39 1.133-.406 2.118v2.148c0 1.13.125 1.906.375 2.328.255.422.69.633 1.305.633.604 0 1.02-.146 1.25-.438.229-.296.36-.83.39-1.601h2.297zm4.914-7.586l2.149 8.227 2.14-8.227h3V237h-2.304v-3.078l.21-4.742-2.273 7.82H79.47l-2.274-7.82.211 4.742V237H75.11v-11.375h3zm17.649 6.711c0 1.526-.362 2.711-1.086 3.555-.719.843-1.719 1.265-3 1.265-1.276 0-2.279-.416-3.008-1.25-.73-.838-1.099-2.01-1.11-3.515v-1.946c0-1.562.363-2.781 1.087-3.656.724-.88 1.729-1.32 3.015-1.32 1.266 0 2.263.432 2.992 1.297.73.859 1.1 2.067 1.11 3.625v1.945zm-2.305-1.906c0-1.026-.146-1.789-.437-2.289-.292-.5-.745-.75-1.36-.75-.61 0-1.06.242-1.351.726-.292.479-.443 1.211-.453 2.195v2.024c0 .995.148 1.729.445 2.203.297.469.755.703 1.375.703.599 0 1.044-.229 1.336-.687.291-.464.44-1.18.445-2.149v-1.976zm11.149-2.891h-2.813V237h-2.305v-9.461H96.72v-1.914h7.883v1.914zm4.117 5.461v4h-2.297v-11.375h3.875c1.125 0 2.021.349 2.687 1.047.672.698 1.008 1.604 1.008 2.719 0 1.114-.331 1.994-.992 2.64-.661.646-1.578.969-2.75.969h-1.531zm0-1.914h1.578c.437 0 .776-.143 1.015-.43.24-.286.36-.703.36-1.25 0-.567-.123-1.018-.367-1.351a1.174 1.174 0 00-.985-.516h-1.601v3.547zm13.187.992h-3.578v3.016h4.234V237h-6.531v-11.375h6.516v1.914h-4.219v2.688h3.578v1.851zm10.008-4.539h-2.812V237h-2.305v-9.461h-2.766v-1.914h7.883v1.914zm4.242 2.172h1.36c1.151 0 2.067.328 2.75.984.682.651 1.023 1.524 1.023 2.617 0 1.089-.333 1.972-1 2.649-.667.672-1.549 1.018-2.648 1.039h-3.789v-11.375h2.304v4.086zm0 1.906v3.477h1.391c.448 0 .799-.167 1.055-.5.26-.339.39-.771.39-1.297 0-.495-.127-.896-.383-1.203-.25-.313-.599-.472-1.047-.477h-1.406zM155.328 237h-2.297v-9.461h-3.375V237h-2.297v-11.375h7.969V237zm10.336-11.375V237h-2.305v-9.461h-2.109l-.156 4.031c-.063 1.328-.214 2.383-.453 3.164-.235.776-.581 1.347-1.039 1.711-.454.365-1.066.55-1.836.555h-.563v-1.906l.266-.024c.479-.057.823-.369 1.031-.937.214-.573.346-1.584.398-3.031l.149-5.477h6.617zm7.922 9.047h-3.133l-.609 2.328h-2.43l3.555-11.375h2.101L176.648 237h-2.453l-.609-2.328zm-2.633-1.914h2.125l-1.062-4.055-1.063 4.055zM186.195 237h-2.289v-4.867h-3.39V237h-2.297v-11.375h2.297v4.602h3.39v-4.602h2.289V237zm7.922-11.375h2.297V237h-2.297v-7.531L190.766 237h-2.305v-11.375h2.305v7.539l3.351-7.539zm6.93 7.375v4h-2.297v-11.375h3.875c1.125 0 2.021.349 2.687 1.047.672.698 1.008 1.604 1.008 2.719 0 1.114-.33 1.994-.992 2.64-.661.646-1.578.969-2.75.969h-1.531zm0-1.914h1.578c.437 0 .776-.143 1.016-.43.239-.286.359-.703.359-1.25 0-.567-.122-1.018-.367-1.351a1.174 1.174 0 00-.985-.516h-1.601v3.547zm15.32 1.25c0 1.526-.362 2.711-1.086 3.555-.719.843-1.719 1.265-3 1.265-1.276 0-2.278-.416-3.008-1.25-.729-.838-1.099-2.01-1.109-3.515v-1.946c0-1.562.362-2.781 1.086-3.656.724-.88 1.729-1.32 3.016-1.32 1.265 0 2.263.432 2.992 1.297.729.859 1.099 2.067 1.109 3.625v1.945zm-2.305-1.906c0-1.026-.145-1.789-.437-2.289-.292-.5-.745-.75-1.359-.75-.61 0-1.06.242-1.352.726-.292.479-.443 1.211-.453 2.195v2.024c0 .995.148 1.729.445 2.203.297.469.755.703 1.375.703.599 0 1.045-.229 1.336-.687.292-.464.44-1.18.445-2.149v-1.976zm4.454 6.57v-11.375h3.515c1.188 0 2.089.266 2.703.797.62.526.93 1.299.93 2.32 0 .578-.128 1.076-.383 1.492a2.251 2.251 0 01-1.047.914c.511.146.904.441 1.18.883.276.438.414.979.414 1.625 0 1.104-.305 1.938-.914 2.5-.604.563-1.482.844-2.633.844h-3.765zm2.296-4.945v3.039h1.469c.412 0 .724-.128.938-.383.213-.255.32-.617.32-1.086 0-1.021-.37-1.544-1.109-1.57h-1.618zm0-1.672h1.196c.901 0 1.351-.466 1.351-1.399 0-.515-.104-.885-.312-1.109-.208-.224-.547-.336-1.016-.336h-1.219v2.844zm10.5 1.976h-1V237h-2.296v-11.375h2.296v4.547h.774l1.976-4.547h2.797l-2.781 5.297 3.094 6.078h-2.734l-2.126-4.641zm9.813-1.679l1.531-5.055h2.469l-3.117 9.141c-.354.906-.737 1.528-1.149 1.867-.406.338-.895.515-1.468.531h-.25l-.547-.031-.039-1.906c.052.02.221.031.507.031.292 0 .511-.065.657-.196.151-.13.281-.421.39-.874l.11-.415-3.25-8.148h2.461l1.695 5.055z" fill="#fff"/></svg>