<svg width="863" height="261" viewBox="0 0 863 261" fill="none" xmlns="http://www.w3.org/2000/svg"><path opacity=".75" fill="#000" d="M0 0h863v261H0z"/><path d="M45.035 51.195h-3.164V47h-8.074v4.184h-3.258l-.187-7.043h1.136c.5-.461.895-1.203 1.184-2.227.289-1.023.492-2.363.61-4.02l.48-7.956h9.808V44.14h1.77l-.305 7.054zm-9.844-7.054h4.946V32.809h-3.094l-.281 4.699c-.196 2.82-.719 5.031-1.57 6.633zm11.38-3.891c0-1.922.452-3.43 1.359-4.523.906-1.094 2.16-1.641 3.761-1.641 1.618 0 2.88.547 3.786 1.64.906 1.094 1.359 2.61 1.359 4.547v.809c0 1.93-.45 3.438-1.348 4.523-.898 1.086-2.156 1.63-3.773 1.63-1.625 0-2.89-.544-3.797-1.63-.898-1.093-1.348-2.609-1.348-4.546v-.809zm3.327.832c0 2.266.606 3.398 1.817 3.398 1.117 0 1.719-.945 1.804-2.835l.012-1.395c0-1.156-.16-2.012-.48-2.566-.32-.563-.774-.844-1.36-.844-.562 0-1.004.281-1.324.844-.312.554-.469 1.41-.469 2.566v.832zm17.403-4.125h1.605c.61 0 1.055-.21 1.336-.633.29-.43.434-1 .434-1.71 0-.68-.149-1.208-.445-1.583-.29-.383-.68-.574-1.172-.574-.461 0-.84.18-1.137.54-.29.358-.434.812-.434 1.358h-3.316c0-.89.203-1.687.61-2.39a4.359 4.359 0 011.722-1.664 5.119 5.119 0 012.46-.598c1.571 0 2.802.434 3.692 1.3.89.868 1.336 2.056 1.336 3.563 0 .774-.203 1.493-.61 2.157a4.081 4.081 0 01-1.581 1.511c.805.344 1.402.86 1.793 1.547.398.688.597 1.5.597 2.438 0 1.515-.484 2.73-1.453 3.644-.96.914-2.226 1.371-3.797 1.371-1.46 0-2.648-.449-3.562-1.347-.906-.907-1.36-2.094-1.36-3.563h3.317c0 .61.16 1.121.48 1.535.32.414.727.621 1.22.621.57 0 1.019-.21 1.347-.632.336-.422.504-.985.504-1.688 0-1.68-.653-2.523-1.957-2.531H67.3v-2.672zM83.789 47h-3.328V33.969l-3.246 1.254v-2.766l6.222-2.543h.352V47zm17.109-4.031l2.379-8.649h4.161V47h-3.317v-6.785L102.012 47h-2.215l-2.028-6.563V47h-3.304V34.32h4.09l2.343 8.649zM116.215 47c-.094-.195-.188-.523-.281-.984-.594.812-1.399 1.218-2.414 1.218-1.063 0-1.946-.351-2.649-1.054-.695-.703-1.043-1.614-1.043-2.73 0-1.329.422-2.356 1.266-3.083.851-.726 2.074-1.097 3.668-1.113h1.008v-1.02c0-.57-.098-.972-.293-1.207-.196-.234-.481-.351-.856-.351-.828 0-1.242.484-1.242 1.453h-3.317c0-1.172.438-2.137 1.313-2.895.883-.765 1.996-1.148 3.34-1.148 1.39 0 2.465.363 3.223 1.09.765.718 1.148 1.75 1.148 3.093v5.965c.016 1.094.172 1.95.469 2.567V47h-3.34zm-1.957-2.367c.367 0 .68-.074.937-.223.258-.148.45-.324.575-.527v-2.637h-.797c-.563 0-1.008.18-1.336.54-.321.358-.481.839-.481 1.44 0 .938.367 1.407 1.102 1.407zm16.406-10.313V47h-3.293v-4.371h-1.23L124.078 47h-3.34l2.356-5.004a3.859 3.859 0 01-1.489-1.406c-.343-.594-.515-1.266-.515-2.016 0-1.258.43-2.281 1.289-3.07.867-.79 2.035-1.184 3.504-1.184h4.781zm-6.258 4.36c0 .445.133.82.399 1.125.273.297.621.445 1.043.445h1.523v-3.2h-1.535c-.414 0-.758.16-1.031.481-.266.313-.399.696-.399 1.149zm24.41 8.32h-10.054v-2.344l4.617-5.87c.586-.813 1.016-1.524 1.289-2.134.281-.617.422-1.207.422-1.77 0-.757-.133-1.35-.399-1.78-.257-.43-.632-.645-1.125-.645-.539 0-.968.25-1.289.75-.312.5-.468 1.203-.468 2.11h-3.329c0-1.047.215-2.005.645-2.872.437-.867 1.047-1.539 1.828-2.015.789-.485 1.68-.727 2.672-.727 1.523 0 2.703.422 3.539 1.266.844.836 1.266 2.027 1.266 3.574 0 .96-.235 1.938-.703 2.93-.461.984-1.301 2.199-2.52 3.644l-2.191 3.13h5.8V47zm12-7.055c0 2.36-.429 4.164-1.289 5.414-.851 1.25-2.07 1.875-3.656 1.875-1.57 0-2.785-.605-3.644-1.816-.852-1.219-1.293-2.961-1.325-5.227V36.97c0-2.352.426-4.149 1.278-5.39.851-1.25 2.074-1.876 3.668-1.876 1.593 0 2.816.617 3.668 1.852.851 1.234 1.285 2.996 1.3 5.285v3.105zm-3.328-3.457c0-1.343-.133-2.351-.398-3.023-.266-.672-.68-1.008-1.242-1.008-1.055 0-1.602 1.23-1.641 3.691v4.254c0 1.375.133 2.399.398 3.07.274.672.696 1.008 1.266 1.008.539 0 .938-.312 1.195-.937.266-.633.407-1.598.422-2.895v-4.16zM173.098 47h-10.055v-2.344l4.617-5.87c.586-.813 1.016-1.524 1.289-2.134.281-.617.422-1.207.422-1.77 0-.757-.133-1.35-.398-1.78-.258-.43-.633-.645-1.125-.645-.539 0-.969.25-1.289.75-.313.5-.469 1.203-.469 2.11h-3.328c0-1.047.215-2.005.644-2.872.438-.867 1.047-1.539 1.828-2.015.789-.485 1.68-.727 2.672-.727 1.524 0 2.703.422 3.539 1.266.844.836 1.266 2.027 1.266 3.574 0 .96-.234 1.938-.703 2.93-.461.984-1.301 2.199-2.52 3.644l-2.191 3.13h5.801V47zm12-7.055c0 2.36-.43 4.164-1.289 5.414-.852 1.25-2.071 1.875-3.657 1.875-1.57 0-2.785-.605-3.644-1.816-.852-1.219-1.293-2.961-1.324-5.227V36.97c0-2.352.425-4.149 1.277-5.39.851-1.25 2.074-1.876 3.668-1.876 1.594 0 2.816.617 3.668 1.852.851 1.234 1.285 2.996 1.301 5.285v3.105zm-3.328-3.457c0-1.343-.133-2.351-.399-3.023-.266-.672-.68-1.008-1.242-1.008-1.055 0-1.602 1.23-1.641 3.691v4.254c0 1.375.133 2.399.399 3.07.273.672.695 1.008 1.265 1.008.539 0 .938-.312 1.196-.937.265-.633.406-1.598.422-2.895v-4.16z" fill="#FCB317"/><path d="M197.016 41.48l1.687-7.16h3.539l-4.172 14.578c-.625 2.149-1.8 3.223-3.527 3.223-.398 0-.852-.074-1.359-.223v-2.59l.386.012c.516 0 .903-.101 1.16-.304.266-.196.465-.54.598-1.032l.258-.855-3.656-12.809h3.562l1.524 7.16zm11.062 3c.961 0 1.449-.624 1.465-1.874h3.117c-.015 1.382-.441 2.5-1.277 3.351-.836.852-1.914 1.277-3.235 1.277-1.632 0-2.878-.507-3.738-1.523-.859-1.016-1.297-2.512-1.312-4.488v-1.008c0-1.992.422-3.512 1.265-4.559.852-1.047 2.106-1.57 3.762-1.57 1.398 0 2.5.434 3.305 1.3.804.86 1.215 2.083 1.23 3.669h-3.117c-.008-.711-.125-1.258-.352-1.64-.226-.384-.601-.575-1.125-.575-.578 0-.992.207-1.242.62-.25.407-.383 1.2-.398 2.38v1.289c0 1.031.051 1.754.152 2.168.102.406.27.707.504.902.234.188.566.282.996.282zM224.109 47h-3.316v-9.914h-2.941V47h-3.329V34.32h9.586V47zm7.547.234c-1.703 0-3.031-.507-3.984-1.523-.953-1.016-1.43-2.469-1.43-4.36v-1.007c0-2 .438-3.543 1.313-4.63.875-1.085 2.129-1.628 3.761-1.628 1.594 0 2.793.512 3.598 1.535.805 1.016 1.215 2.523 1.231 4.523v1.63h-6.598c.047.937.254 1.624.621 2.062.367.43.934.645 1.699.645 1.11 0 2.035-.38 2.778-1.137l1.3 2.004c-.406.562-.996 1.02-1.769 1.37a6.139 6.139 0 01-2.52.516zm-2.086-7.78h3.317v-.306c-.016-.757-.141-1.332-.375-1.722-.235-.39-.641-.586-1.219-.586-.578 0-1 .207-1.266.62-.257.415-.41 1.08-.457 1.993zm14.719-5.134h3.305V47h-3.305v-7.793L241.336 47h-3.328V34.32h3.328v7.782l2.953-7.782zm2.66-5.156c0 1.04-.375 1.879-1.125 2.52-.742.64-1.722.96-2.941.96-1.227 0-2.215-.32-2.965-.96-.742-.641-1.113-1.48-1.113-2.52h2.425c0 .484.145.863.434 1.137.297.265.703.398 1.219.398.508 0 .906-.133 1.195-.398.289-.274.434-.653.434-1.137h2.437zm12.199 7.887h-3.257V47h-3.317v-9.95h-3.234v-2.73h9.808v2.73zm6.141 10.183c-1.703 0-3.031-.507-3.984-1.523-.953-1.016-1.43-2.469-1.43-4.36v-1.007c0-2 .437-3.543 1.313-4.63.874-1.085 2.128-1.628 3.761-1.628 1.594 0 2.793.512 3.598 1.535.805 1.016 1.215 2.523 1.23 4.523v1.63h-6.597c.047.937.254 1.624.621 2.062.367.43.933.645 1.699.645 1.109 0 2.035-.38 2.777-1.137l1.301 2.004c-.406.562-.996 1.02-1.769 1.37a6.139 6.139 0 01-2.52.516zm-2.086-7.78h3.317v-.306c-.016-.757-.141-1.332-.375-1.722-.235-.39-.641-.586-1.219-.586-.578 0-1 .207-1.266.62-.258.415-.41 1.08-.457 1.993zm18.563 5.026c.961 0 1.449-.624 1.464-1.874h3.118c-.016 1.382-.442 2.5-1.278 3.351-.836.852-1.914 1.277-3.234 1.277-1.633 0-2.879-.507-3.738-1.523-.86-1.016-1.297-2.512-1.313-4.488v-1.008c0-1.992.422-3.512 1.266-4.559.851-1.047 2.105-1.57 3.761-1.57 1.399 0 2.5.434 3.305 1.3.805.86 1.215 2.083 1.231 3.669h-3.118c-.007-.711-.125-1.258-.351-1.64-.227-.384-.602-.575-1.125-.575-.578 0-.992.207-1.242.62-.25.407-.383 1.2-.399 2.38v1.289c0 1.031.051 1.754.153 2.168.101.406.269.707.504.902.234.188.566.282.996.282zM293.965 47V34.32h4.605c1.477 0 2.61.305 3.399.914.797.61 1.195 1.485 1.195 2.625 0 .586-.172 1.114-.516 1.582-.336.461-.828.817-1.476 1.067.789.164 1.41.496 1.863.996.461.492.692 1.117.692 1.875 0 2.414-1.52 3.621-4.559 3.621h-5.203zm3.305-5.25v2.52h1.98c.43 0 .73-.106.902-.317.172-.21.258-.52.258-.926 0-.468-.094-.797-.281-.984-.188-.188-.457-.285-.809-.293h-2.05zm0-2.285h1.347c.445 0 .758-.094.938-.281.187-.196.281-.48.281-.856 0-.82-.383-1.246-1.148-1.277h-1.418v2.414zm11.964-1.453h1.7c1.492 0 2.664.41 3.515 1.23.86.82 1.289 1.918 1.289 3.293 0 1.344-.433 2.426-1.3 3.246-.86.813-2.032 1.219-3.516 1.219h-5.004V34.32h3.316v3.692zM320.496 47h-3.316V34.32h3.316V47zm-11.262-6.234v3.504h1.735c.461 0 .82-.153 1.078-.458.258-.304.387-.726.387-1.265 0-1.188-.52-1.781-1.559-1.781h-1.641zm21.469-3.68h-4.113V47h-3.317V34.32h7.43v2.766zm.867 3.164c0-1.922.453-3.43 1.36-4.523.906-1.094 2.16-1.641 3.761-1.641 1.618 0 2.879.547 3.786 1.64.906 1.094 1.359 2.61 1.359 4.547v.809c0 1.93-.449 3.438-1.348 4.523-.898 1.086-2.156 1.63-3.773 1.63-1.625 0-2.891-.544-3.797-1.63-.898-1.093-1.348-2.609-1.348-4.546v-.809zm3.328.832c0 2.266.606 3.398 1.817 3.398 1.117 0 1.719-.945 1.805-2.835l.011-1.395c0-1.156-.16-2.012-.48-2.566-.321-.563-.774-.844-1.36-.844-.562 0-1.003.281-1.324.844-.312.554-.469 1.41-.469 2.566v.832zm8.426 3.164c.547-.625.938-1.254 1.172-1.887.234-.632.371-1.52.41-2.66L345 34.32h8.262v9.926h1.676v6.563h-3.317V47h-5.848v3.809h-3.398v-6.563h.949zm3.68 0h2.953v-7.102h-1.687l-.012 1.254c-.024 2.422-.442 4.371-1.254 5.848zm9.246-3.996c0-1.922.453-3.43 1.359-4.523.907-1.094 2.161-1.641 3.762-1.641 1.617 0 2.879.547 3.785 1.64.906 1.094 1.36 2.61 1.36 4.547v.809c0 1.93-.45 3.438-1.348 4.523-.898 1.086-2.156 1.63-3.773 1.63-1.625 0-2.891-.544-3.797-1.63-.899-1.093-1.348-2.609-1.348-4.546v-.809zm3.328.832c0 2.266.606 3.398 1.817 3.398 1.117 0 1.718-.945 1.804-2.835l.012-1.395c0-1.156-.16-2.012-.481-2.566-.32-.563-.773-.844-1.359-.844-.562 0-1.004.281-1.324.844-.313.554-.469 1.41-.469 2.566v.832zm15.281-6.762h3.305V47h-3.305v-7.793L371.906 47h-3.328V34.32h3.328v7.782l2.953-7.782zm2.661-5.156c0 1.04-.375 1.879-1.125 2.52-.743.64-1.723.96-2.942.96-1.226 0-2.215-.32-2.965-.96-.742-.641-1.113-1.48-1.113-2.52h2.426c0 .484.144.863.433 1.137.297.265.704.398 1.219.398.508 0 .906-.133 1.195-.398.29-.274.434-.653.434-1.137h2.438zM35.79 75.481c.96 0 1.448-.625 1.464-1.875h3.117c-.016 1.382-.441 2.5-1.277 3.351-.836.852-1.914 1.277-3.235 1.277-1.632 0-2.879-.507-3.738-1.523-.86-1.016-1.297-2.512-1.312-4.488v-1.008c0-1.992.421-3.512 1.265-4.559.852-1.047 2.106-1.57 3.762-1.57 1.398 0 2.5.433 3.305 1.3.804.86 1.215 2.083 1.23 3.669h-3.117c-.008-.711-.125-1.258-.352-1.64-.226-.384-.601-.575-1.125-.575-.578 0-.992.207-1.242.62-.25.407-.383 1.2-.398 2.38v1.289c0 1.031.05 1.754.152 2.168.102.406.27.707.504.902.234.188.566.282.996.282zM51.82 78h-3.316v-9.914h-2.941V78h-3.329V65.32h9.586V78zm12.305-5.941c0 1.992-.344 3.52-1.031 4.582-.68 1.062-1.696 1.593-3.047 1.593-1.031 0-1.86-.418-2.484-1.253v5.894h-3.317V65.32h3.07l.118 1.16c.632-.93 1.496-1.394 2.59-1.394 1.351 0 2.367.492 3.046 1.477.688.984 1.04 2.492 1.055 4.523v.973zm-3.305-.832c0-1.227-.136-2.094-.41-2.602-.265-.508-.719-.762-1.36-.762-.679 0-1.175.285-1.487.856v5.941c.296.547.8.82 1.511.82.657 0 1.11-.277 1.36-.832.257-.554.386-1.417.386-2.59v-.831zm4.922.023c0-1.922.453-3.43 1.36-4.523.906-1.094 2.16-1.641 3.761-1.641 1.618 0 2.88.547 3.785 1.64.907 1.094 1.36 2.61 1.36 4.547v.809c0 1.93-.45 3.438-1.348 4.524-.898 1.085-2.156 1.628-3.773 1.628-1.625 0-2.89-.543-3.797-1.628-.899-1.094-1.348-2.61-1.348-4.547v-.809zm3.328.832c0 2.266.606 3.399 1.817 3.399 1.117 0 1.719-.946 1.804-2.837l.012-1.394c0-1.156-.16-2.012-.48-2.566-.32-.563-.774-.844-1.36-.844-.562 0-1.004.281-1.324.844-.312.554-.469 1.41-.469 2.566v.832zm14.133 6.152c-1.703 0-3.031-.507-3.984-1.523-.953-1.016-1.43-2.469-1.43-4.36v-1.007c0-2 .438-3.543 1.313-4.63.875-1.085 2.129-1.628 3.761-1.628 1.594 0 2.793.512 3.598 1.535.805 1.016 1.215 2.523 1.23 4.523v1.63h-6.597c.047.937.254 1.624.62 2.062.368.43.934.645 1.7.645 1.11 0 2.035-.38 2.777-1.137l1.301 2.004c-.406.562-.996 1.02-1.77 1.37a6.134 6.134 0 01-2.519.516zm-2.086-7.78h3.317v-.306c-.016-.757-.141-1.332-.375-1.722-.235-.39-.641-.586-1.22-.586-.577 0-1 .207-1.265.62-.258.415-.41 1.08-.457 1.993zm12.856 2.894h-.867V78H89.8V65.32h3.305v4.758h.82l1.922-4.758h4.16l-3.34 5.848L100.266 78h-4.395l-1.898-4.652zm16.816-5.297h-3.258V78h-3.316v-9.95h-3.235v-2.73h9.809v2.73zm8.039-2.73h3.305V78h-3.305v-7.793L115.875 78h-3.328V65.32h3.328v7.782l2.953-7.782zm15.61 6.738c0 1.992-.344 3.52-1.032 4.582-.679 1.062-1.695 1.593-3.047 1.593-1.031 0-1.859-.418-2.484-1.253v5.894h-3.316V65.32h3.07l.117 1.16c.633-.93 1.496-1.394 2.59-1.394 1.352 0 2.367.492 3.047 1.477.687.984 1.039 2.492 1.055 4.523v.973zm-3.305-.832c0-1.227-.137-2.094-.41-2.602-.266-.508-.719-.762-1.36-.762-.679 0-1.175.285-1.488.856v5.941c.297.547.801.82 1.512.82.656 0 1.109-.277 1.359-.832.258-.554.387-1.417.387-2.59v-.831zm4.922.023c0-1.922.453-3.43 1.359-4.523.906-1.094 2.16-1.641 3.762-1.641 1.617 0 2.879.547 3.785 1.64.906 1.094 1.359 2.61 1.359 4.547v.809c0 1.93-.449 3.438-1.347 4.524-.899 1.085-2.157 1.628-3.774 1.628-1.625 0-2.89-.543-3.797-1.628-.898-1.094-1.347-2.61-1.347-4.547v-.809zm3.328.832c0 2.266.605 3.399 1.816 3.399 1.117 0 1.719-.946 1.805-2.837l.012-1.394c0-1.156-.161-2.012-.481-2.566-.32-.563-.773-.844-1.359-.844-.563 0-1.004.281-1.324.844-.313.554-.469 1.41-.469 2.566v.832zM148.605 78V65.32h4.606c1.477 0 2.609.305 3.398.914.797.61 1.196 1.485 1.196 2.625 0 .586-.172 1.114-.516 1.582-.336.461-.828.817-1.477 1.067.79.164 1.411.496 1.864.996.461.492.691 1.117.691 1.875 0 2.414-1.519 3.621-4.558 3.621h-5.204zm3.305-5.25v2.52h1.981c.429 0 .73-.106.902-.317.172-.21.258-.52.258-.926 0-.468-.094-.796-.281-.984-.188-.188-.458-.285-.809-.293h-2.051zm0-2.285h1.348c.445 0 .758-.094.937-.281.188-.196.282-.48.282-.856 0-.82-.383-1.246-1.149-1.277h-1.418v2.414zM166.371 78c-.094-.195-.187-.523-.281-.984-.594.812-1.399 1.218-2.414 1.218-1.063 0-1.946-.351-2.649-1.054-.695-.703-1.043-1.614-1.043-2.73 0-1.329.422-2.356 1.266-3.083.852-.726 2.074-1.098 3.668-1.113h1.008v-1.02c0-.57-.098-.972-.293-1.207-.195-.234-.481-.351-.856-.351-.828 0-1.242.484-1.242 1.453h-3.316c0-1.172.437-2.137 1.312-2.895.883-.765 1.996-1.148 3.34-1.148 1.391 0 2.465.363 3.223 1.09.765.718 1.148 1.75 1.148 3.093v5.965c.016 1.094.172 1.95.469 2.567V78h-3.34zm-1.957-2.367c.367 0 .68-.074.938-.223.257-.148.449-.324.574-.527v-2.637h-.797c-.563 0-1.008.18-1.336.54-.32.358-.481.839-.481 1.44 0 .938.368 1.407 1.102 1.407zm16.172-7.582h-3.258V78h-3.316v-9.95h-3.235v-2.73h9.809v2.73zm5.297.96h1.699c1.492 0 2.664.41 3.516 1.231.859.82 1.289 1.918 1.289 3.293 0 1.344-.434 2.426-1.301 3.246-.859.813-2.031 1.219-3.516 1.219h-5.004V65.32h3.317v3.692zm0 2.755v3.503h1.734c.461 0 .821-.152 1.078-.457.258-.304.387-.726.387-1.265 0-1.188-.52-1.781-1.559-1.781h-1.64zm14.097 3.48c.547-.625.938-1.254 1.172-1.887.235-.632.371-1.52.41-2.66l.094-5.379h8.262v9.926h1.676v6.563h-3.317V78h-5.847v3.809h-3.399v-6.563h.949zm3.68 0h2.953v-7.102h-1.687l-.012 1.254c-.023 2.422-.441 4.371-1.254 5.848zm9.246-3.996c0-1.922.453-3.43 1.36-4.523.906-1.094 2.16-1.641 3.761-1.641 1.618 0 2.879.547 3.785 1.64.907 1.094 1.36 2.61 1.36 4.547v.809c0 1.93-.449 3.438-1.348 4.524-.898 1.085-2.156 1.628-3.773 1.628-1.625 0-2.891-.543-3.797-1.628-.899-1.094-1.348-2.61-1.348-4.547v-.809zm3.328.832c0 2.266.606 3.399 1.817 3.399 1.117 0 1.719-.946 1.804-2.837l.012-1.394c0-1.156-.16-2.012-.48-2.566-.321-.563-.774-.844-1.36-.844-.562 0-1.004.281-1.324.844-.312.554-.469 1.41-.469 2.566v.832zm15.657 1.887l2.379-8.649h4.16V78h-3.317v-6.785L233.004 78h-2.215l-2.027-6.563V78h-3.305V65.32h4.09l2.344 8.649zM246.926 78V65.32h4.605c1.477 0 2.61.305 3.399.914.797.61 1.195 1.485 1.195 2.625 0 .586-.172 1.114-.516 1.582-.336.461-.828.817-1.476 1.067.789.164 1.41.496 1.863.996.461.492.692 1.117.692 1.875 0 2.414-1.52 3.621-4.559 3.621h-5.203zm3.304-5.25v2.52h1.981c.43 0 .73-.106.902-.317.172-.21.258-.52.258-.926 0-.468-.094-.796-.281-.984-.188-.188-.457-.285-.809-.293h-2.051zm0-2.285h1.348c.445 0 .758-.094.938-.281.187-.196.281-.48.281-.856 0-.82-.383-1.246-1.149-1.277h-1.418v2.414zM264.691 78c-.093-.195-.187-.523-.281-.984-.594.812-1.398 1.218-2.414 1.218-1.062 0-1.945-.351-2.648-1.054-.696-.703-1.043-1.614-1.043-2.73 0-1.329.422-2.356 1.265-3.083.852-.726 2.075-1.098 3.668-1.113h1.008v-1.02c0-.57-.098-.972-.293-1.207-.195-.234-.48-.351-.855-.351-.828 0-1.243.484-1.243 1.453h-3.316c0-1.172.438-2.137 1.313-2.895.882-.765 1.996-1.148 3.339-1.148 1.391 0 2.465.363 3.223 1.09.766.718 1.148 1.75 1.148 3.093v5.965c.016 1.094.172 1.95.469 2.567V78h-3.34zm-1.957-2.367c.368 0 .68-.074.938-.223a1.57 1.57 0 00.574-.527v-2.637h-.797c-.562 0-1.008.18-1.336.54-.32.358-.48.839-.48 1.44 0 .938.367 1.407 1.101 1.407zm10.547-10.313v9.926h2.379V65.32h3.328v9.926h2.403V65.32h3.316V78h-14.754V65.32h3.328zm19.149 12.914c-1.703 0-3.032-.507-3.985-1.523-.953-1.016-1.429-2.469-1.429-4.36v-1.007c0-2 .437-3.543 1.312-4.63.875-1.085 2.129-1.628 3.762-1.628 1.594 0 2.793.512 3.598 1.535.804 1.016 1.214 2.523 1.23 4.523v1.63h-6.598c.047.937.254 1.624.621 2.062.368.43.934.645 1.7.645 1.109 0 2.035-.38 2.777-1.137l1.301 2.004c-.407.562-.996 1.02-1.77 1.37a6.13 6.13 0 01-2.519.516zm-2.086-7.78h3.316v-.306c-.015-.757-.14-1.332-.375-1.722-.234-.39-.64-.586-1.219-.586-.578 0-1 .207-1.265.62-.258.415-.41 1.08-.457 1.993zm14.718-5.134h3.305V78h-3.305v-7.793L302.109 78h-3.328V65.32h3.328v7.782l2.953-7.782zm2.661-5.156c0 1.04-.375 1.879-1.125 2.52-.743.64-1.723.96-2.942.96-1.226 0-2.215-.32-2.965-.96-.742-.641-1.113-1.48-1.113-2.52h2.426c0 .484.144.863.434 1.137.296.265.703.398 1.218.398.508 0 .906-.133 1.196-.398.289-.274.433-.653.433-1.137h2.438zm15.246 13.805l2.379-8.649h4.16V78h-3.317v-6.785L324.082 78h-2.215l-2.027-6.563V78h-3.305V65.32h4.09l2.344 8.649zm14.414 4.265c-1.703 0-3.031-.507-3.985-1.523-.953-1.016-1.429-2.469-1.429-4.36v-1.007c0-2 .437-3.543 1.312-4.63.875-1.085 2.129-1.628 3.762-1.628 1.594 0 2.793.512 3.598 1.535.804 1.016 1.214 2.523 1.23 4.523v1.63h-6.598c.047.937.254 1.624.622 2.062.367.43.933.645 1.699.645 1.109 0 2.035-.38 2.777-1.137l1.301 2.004c-.406.562-.996 1.02-1.77 1.37a6.13 6.13 0 01-2.519.516zm-2.086-7.78h3.316v-.306c-.015-.757-.14-1.332-.375-1.722-.234-.39-.64-.586-1.218-.586-.579 0-1 .207-1.266.62-.258.415-.41 1.08-.457 1.993zM353.109 78h-3.328v-3.914a5.79 5.79 0 01-1.136.117c-1.672 0-2.938-.414-3.797-1.242-.852-.836-1.278-2.043-1.278-3.621v-4.02h3.328v4.032c0 .773.125 1.316.375 1.629.258.312.715.468 1.372.468.343 0 .722-.043 1.136-.129v-6h3.328V78zm11.532-9.95h-3.258V78h-3.317v-9.95h-3.234v-2.73h9.809v2.73zm5.297.962h1.699c1.492 0 2.664.41 3.515 1.23.86.82 1.289 1.918 1.289 3.293 0 1.344-.433 2.426-1.3 3.246-.86.813-2.032 1.219-3.516 1.219h-5.004V65.32h3.317v3.692zM381.199 78h-3.316V65.32h3.316V78zm-11.261-6.234v3.503h1.734c.461 0 .82-.152 1.078-.457.258-.304.387-.726.387-1.265 0-1.188-.52-1.781-1.559-1.781h-1.64zm192.404-8.656c.72 0 1.087-.468 1.098-1.406h2.338c-.011 1.037-.331 1.875-.958 2.514-.627.638-1.435.958-2.425.958-1.225 0-2.16-.381-2.804-1.143-.645-.761-.973-1.884-.985-3.366v-.756c0-1.494.317-2.634.95-3.419.638-.785 1.579-1.177 2.821-1.177 1.049 0 1.875.325 2.478.975.604.645.912 1.562.923 2.751h-2.338c-.005-.533-.093-.943-.263-1.23-.17-.288-.451-.431-.844-.431-.434 0-.744.155-.932.466-.187.304-.287.9-.298 1.784v.967c0 .773.038 1.315.114 1.626.076.304.202.53.378.676.176.141.425.211.747.211zM574.365 65h-2.487v-7.435h-2.206V65h-2.496v-9.51h7.189V65zm9.229-4.456c0 1.494-.258 2.64-.774 3.437-.509.796-1.271 1.195-2.285 1.195-.773 0-1.394-.314-1.863-.94v4.42h-2.487V55.49h2.302l.088.87c.475-.697 1.122-1.045 1.943-1.045 1.013 0 1.775.369 2.285 1.107.515.738.779 1.869.791 3.393v.729zm-2.479-.624c0-.92-.102-1.57-.307-1.951-.2-.381-.539-.572-1.02-.572-.51 0-.882.214-1.116.642v4.456c.223.41.6.615 1.134.615.492 0 .832-.208 1.019-.624.194-.416.29-1.063.29-1.942v-.624zm3.692.017c0-1.44.339-2.572 1.019-3.392.68-.82 1.62-1.23 2.821-1.23 1.213 0 2.16.41 2.839 1.23.68.82 1.02 1.957 1.02 3.41v.607c0 1.447-.337 2.578-1.011 3.392-.674.815-1.617 1.222-2.83 1.222-1.219 0-2.168-.407-2.848-1.222-.673-.82-1.01-1.957-1.01-3.41v-.606zm2.496.625c0 1.699.454 2.548 1.362 2.548.838 0 1.289-.709 1.354-2.127l.008-1.045c0-.868-.12-1.51-.36-1.925-.24-.422-.58-.633-1.02-.633-.421 0-.752.21-.993.633-.234.416-.351 1.057-.351 1.925v.623zm10.599 4.614c-1.277 0-2.273-.381-2.988-1.143-.715-.761-1.072-1.851-1.072-3.27v-.755c0-1.5.328-2.657.984-3.472.656-.814 1.597-1.221 2.821-1.221 1.196 0 2.095.383 2.699 1.15.603.762.911 1.893.923 3.393v1.222h-4.949c.035.703.191 1.219.466 1.547.276.322.7.483 1.275.483.832 0 1.526-.284 2.083-.852l.975 1.503c-.305.422-.747.764-1.327 1.028a4.6 4.6 0 01-1.89.387zm-1.564-5.836h2.487v-.229c-.012-.568-.105-.999-.281-1.292-.176-.293-.481-.44-.914-.44-.434 0-.75.156-.949.467-.194.31-.308.808-.343 1.494zm9.641 2.17h-.65V65h-2.478v-9.51h2.478v3.569h.615l1.442-3.569h3.12l-2.505 4.386L610.699 65h-3.296l-1.424-3.49zm12.613-3.972h-2.444V65h-2.487v-7.462h-2.426V55.49h7.357v2.048zm6.029-2.048h2.479V65h-2.479v-5.845L622.406 65h-2.496v-9.51h2.496v5.836l2.215-5.836zm11.707 5.054c0 1.494-.258 2.64-.773 3.437-.51.796-1.272 1.195-2.285 1.195-.774 0-1.395-.314-1.864-.94v4.42h-2.487V55.49h2.303l.088.87c.474-.697 1.122-1.045 1.942-1.045 1.014 0 1.775.369 2.285 1.107.516.738.779 1.869.791 3.393v.729zm-2.478-.624c0-.92-.103-1.57-.308-1.951-.199-.381-.539-.572-1.02-.572-.509 0-.881.214-1.116.642v4.456c.223.41.601.615 1.134.615.492 0 .832-.208 1.02-.624.193-.416.29-1.063.29-1.942v-.624zm6.925.94l1.266-5.37h2.654l-3.129 10.934c-.468 1.611-1.35 2.417-2.645 2.417-.299 0-.639-.056-1.02-.167V66.73l.29.01c.387 0 .677-.077.871-.23.199-.146.348-.404.448-.773l.193-.641-2.742-9.607h2.672l1.142 5.37zm8.702 4.316c-1.278 0-2.274-.381-2.989-1.143-.715-.761-1.072-1.851-1.072-3.27v-.755c0-1.5.328-2.657.984-3.472.657-.814 1.597-1.221 2.822-1.221 1.195 0 2.094.383 2.698 1.15.603.762.911 1.893.923 3.393v1.222h-4.948c.035.703.19 1.219.465 1.547.276.322.701.483 1.275.483.832 0 1.526-.284 2.083-.852l.975 1.503c-.304.422-.747.764-1.327 1.028-.58.258-1.21.387-1.889.387zm-1.565-5.836h2.487v-.229c-.011-.568-.105-.999-.281-1.292-.176-.293-.48-.44-.914-.44-.433 0-.75.156-.949.467-.193.31-.308.808-.343 1.494zm11.32 2.637l1.785-6.487h3.12V65h-2.488v-5.089L660.067 65h-1.661l-1.52-4.922V65h-2.479v-9.51h3.068l1.757 6.487zm11.312.958c.41-.47.703-.94.879-1.416.176-.474.278-1.14.307-1.995l.071-4.034h6.196v7.445h1.257v4.921h-2.487V65h-4.386v2.856h-2.549v-4.921h.712zm2.76 0h2.215v-5.327h-1.266l-.009.94c-.017 1.817-.331 3.28-.94 4.387zm6.934-2.998c0-1.44.34-2.572 1.02-3.392.68-.82 1.62-1.23 2.821-1.23 1.213 0 2.159.41 2.839 1.23.68.82 1.02 1.957 1.02 3.41v.607c0 1.447-.337 2.578-1.011 3.392-.674.815-1.617 1.222-2.83 1.222-1.219 0-2.168-.407-2.848-1.222-.674-.82-1.011-1.957-1.011-3.41v-.606zm2.496.625c0 1.699.454 2.548 1.363 2.548.838 0 1.289-.709 1.353-2.127l.009-1.045c0-.868-.12-1.51-.36-1.925-.241-.422-.58-.633-1.02-.633-.422 0-.753.21-.993.633-.234.416-.352 1.057-.352 1.925v.623zm11.743 1.415l1.784-6.487h3.12V65h-2.487v-5.089L695.312 65h-1.662l-1.52-4.922V65h-2.479v-9.51h3.068l1.758 6.487zM705.753 65v-9.51h3.454c1.107 0 1.957.229 2.549.686.598.457.896 1.113.896 1.968 0 .44-.129.836-.386 1.187-.252.346-.621.612-1.108.8.592.123 1.058.372 1.398.747.345.37.518.838.518 1.406 0 1.81-1.139 2.716-3.419 2.716h-3.902zm2.478-3.938v1.89h1.486c.322 0 .548-.079.677-.237.128-.158.193-.39.193-.695 0-.351-.07-.597-.211-.738-.141-.14-.343-.214-.606-.22h-1.539zm0-1.713h1.011c.334 0 .569-.07.703-.211.141-.147.211-.36.211-.642 0-.615-.287-.934-.861-.958h-1.064v1.81zM719.077 65c-.07-.147-.14-.393-.211-.738-.445.61-1.049.914-1.81.914-.797 0-1.459-.264-1.987-.791-.521-.528-.782-1.21-.782-2.048 0-.996.317-1.767.949-2.312.639-.544 1.556-.823 2.751-.835h.756v-.764c0-.428-.073-.73-.22-.906-.146-.175-.36-.263-.641-.263-.621 0-.932.363-.932 1.09h-2.487c0-.88.328-1.603.984-2.171.662-.574 1.497-.861 2.505-.861 1.043 0 1.849.272 2.417.817.574.539.861 1.312.861 2.32v4.474c.012.82.129 1.462.352 1.925V65h-2.505zm-1.468-1.775c.276 0 .51-.056.703-.167a1.18 1.18 0 00.431-.396v-1.977h-.597c-.422 0-.756.134-1.002.404-.241.27-.361.63-.361 1.08 0 .704.276 1.056.826 1.056zm7.911-7.735v7.445h1.784V55.49h2.496v7.445h1.802V55.49h2.487V65h-11.066v-9.51h2.497zm14.361 9.686c-1.277 0-2.274-.381-2.988-1.143-.715-.761-1.073-1.851-1.073-3.27v-.755c0-1.5.328-2.657.985-3.472.656-.814 1.596-1.221 2.821-1.221 1.195 0 2.095.383 2.698 1.15.604.762.911 1.893.923 3.393v1.222h-4.948c.035.703.19 1.219.466 1.547.275.322.7.483 1.274.483.832 0 1.526-.284 2.083-.852l.976 1.503c-.305.422-.747.764-1.327 1.028a4.604 4.604 0 01-1.89.387zm-1.565-5.836h2.488v-.229c-.012-.568-.106-.999-.282-1.292-.175-.293-.48-.44-.914-.44-.433 0-.75.156-.949.467-.193.31-.307.808-.343 1.494zm11.039-3.85h2.479V65h-2.479v-5.845L747.141 65h-2.496v-9.51h2.496v5.836l2.214-5.836zm1.996-3.867c0 .78-.282 1.41-.844 1.89-.557.48-1.292.72-2.206.72-.92 0-1.661-.24-2.224-.72-.556-.48-.835-1.11-.835-1.89h1.82c0 .363.108.648.325.853.222.199.527.298.914.298.381 0 .679-.1.896-.298.217-.206.325-.49.325-.853h1.829zm11.434 10.354l1.784-6.487h3.12V65h-2.487v-5.089L763.62 65h-1.661l-1.521-4.922V65h-2.478v-9.51h3.067l1.758 6.487zm10.811 3.199c-1.278 0-2.274-.381-2.989-1.143-.714-.761-1.072-1.851-1.072-3.27v-.755c0-1.5.328-2.657.985-3.472.656-.814 1.596-1.221 2.821-1.221 1.195 0 2.095.383 2.698 1.15.604.762.911 1.893.923 3.393v1.222h-4.948c.035.703.19 1.219.465 1.547.276.322.701.483 1.275.483.832 0 1.526-.284 2.083-.852l.975 1.503c-.304.422-.747.764-1.327 1.028-.58.258-1.21.387-1.889.387zm-1.565-5.836h2.488v-.229c-.012-.568-.106-.999-.282-1.292-.175-.293-.48-.44-.914-.44-.433 0-.75.156-.949.467-.193.31-.308.808-.343 1.494zm13.36 5.66h-2.496v-2.935a4.358 4.358 0 01-.853.087c-1.254 0-2.203-.31-2.848-.931-.638-.627-.958-1.532-.958-2.716V55.49h2.496v3.024c0 .58.094.987.282 1.221.193.235.536.352 1.028.352.258 0 .542-.032.853-.097v-4.5h2.496V65zm8.648-7.462h-2.443V65h-2.488v-7.462h-2.425V55.49h7.356v2.048zm3.973.72h1.274c1.119 0 1.998.308 2.637.924.644.615.967 1.438.967 2.47 0 1.007-.326 1.819-.976 2.434-.644.61-1.523.914-2.637.914h-3.753v-9.51h2.488v2.769zM806.458 65h-2.487v-9.51h2.487V65zm-8.446-4.676v2.628h1.3c.346 0 .616-.114.809-.343.193-.228.29-.544.29-.949 0-.89-.39-1.336-1.169-1.336h-1.23zM562.342 99.11c.72 0 1.087-.468 1.098-1.406h2.338c-.011 1.037-.331 1.875-.958 2.514-.627.638-1.435.958-2.425.958-1.225 0-2.16-.381-2.804-1.143-.645-.761-.973-1.884-.985-3.366v-.756c0-1.494.317-2.634.95-3.419.638-.785 1.579-1.178 2.821-1.178 1.049 0 1.875.326 2.478.976.604.645.912 1.562.923 2.751h-2.338c-.005-.533-.093-.943-.263-1.23-.17-.288-.451-.431-.844-.431-.434 0-.744.155-.932.466-.187.304-.287.9-.298 1.784v.967c0 .773.038 1.315.114 1.626.076.304.202.53.378.676.176.141.425.211.747.211zm4.553-3.172c0-1.442.339-2.573 1.019-3.393.68-.82 1.62-1.23 2.821-1.23 1.213 0 2.16.41 2.839 1.23.68.82 1.02 1.957 1.02 3.41v.606c0 1.448-.337 2.579-1.011 3.393-.674.815-1.617 1.222-2.83 1.222-1.219 0-2.168-.407-2.848-1.222-.674-.82-1.01-1.957-1.01-3.41v-.606zm2.496.623c0 1.7.454 2.55 1.362 2.55.838 0 1.289-.71 1.353-2.128l.009-1.046c0-.867-.12-1.508-.36-1.924-.24-.422-.58-.633-1.02-.633-.422 0-.753.21-.993.633-.234.416-.351 1.057-.351 1.924v.624zm10.195 2.55c.721 0 1.087-.47 1.099-1.407h2.337c-.011 1.037-.331 1.875-.958 2.514-.626.638-1.435.958-2.425.958-1.225 0-2.16-.381-2.804-1.143-.645-.761-.973-1.884-.984-3.366v-.756c0-1.494.316-2.634.949-3.419.638-.785 1.579-1.178 2.821-1.178 1.049 0 1.875.326 2.479.976.603.645.911 1.562.922 2.751h-2.337c-.006-.533-.094-.943-.264-1.23-.17-.288-.451-.431-.844-.431-.433 0-.744.155-.931.466-.188.304-.288.9-.299 1.784v.967c0 .773.038 1.315.114 1.626.076.304.202.53.378.676.176.141.425.211.747.211zm11.689-5.573h-2.443V101h-2.487v-7.462h-2.426V91.49h7.356v2.048zm5.704 7.462c-.07-.146-.14-.393-.21-.738-.446.609-1.049.914-1.811.914-.797 0-1.459-.264-1.986-.791-.522-.528-.783-1.21-.783-2.048 0-.996.317-1.767.95-2.312.638-.544 1.555-.823 2.751-.835h.756v-.764c0-.428-.074-.73-.22-.906-.147-.175-.361-.263-.642-.263-.621 0-.931.363-.931 1.09h-2.488c0-.88.328-1.603.985-2.171.662-.574 1.497-.862 2.504-.862 1.043 0 1.849.273 2.417.818.575.539.862 1.312.862 2.32v4.474c.012.82.129 1.462.351 1.925V101h-2.505zm-1.467-1.775c.275 0 .509-.056.703-.167.193-.112.337-.244.431-.396v-1.977h-.598c-.422 0-.756.134-1.002.404-.24.27-.36.63-.36 1.08 0 .704.275 1.056.826 1.056zm5.581 1.775v-9.51h3.454c1.107 0 1.957.229 2.549.686.597.457.896 1.113.896 1.968 0 .44-.129.835-.387 1.187-.251.346-.621.612-1.107.8.592.123 1.058.372 1.398.747.345.37.518.838.518 1.406 0 1.811-1.14 2.716-3.419 2.716h-3.902zm2.478-3.938v1.89h1.486c.322 0 .547-.079.676-.237.129-.158.194-.39.194-.695 0-.351-.071-.597-.211-.738-.141-.14-.343-.214-.607-.22h-1.538zm0-1.713h1.011c.334 0 .568-.07.703-.211.141-.147.211-.36.211-.642 0-.615-.287-.934-.861-.958h-1.064v1.81zm11.031-3.859h2.478V101h-2.478v-5.845L612.387 101h-2.496v-9.51h2.496v5.836l2.215-5.836zm9.281 6.487l1.784-6.487h3.12V101H626.3v-5.089L624.718 101h-1.661l-1.521-4.922V101h-2.478v-9.51h3.067l1.758 6.487zm17.965-4.439h-2.444V101h-2.487v-7.462h-2.426V91.49h7.357v2.048zm4.605 7.638c-1.277 0-2.273-.381-2.988-1.143-.715-.761-1.072-1.851-1.072-3.27v-.755c0-1.5.328-2.657.984-3.472.656-.814 1.597-1.222 2.821-1.222 1.196 0 2.095.384 2.698 1.152.604.762.912 1.892.923 3.392v1.222h-4.948c.035.703.191 1.219.466 1.547.275.322.7.483 1.274.483.832 0 1.527-.284 2.083-.852l.976 1.503c-.305.422-.747.764-1.327 1.028-.58.258-1.21.387-1.89.387zm-1.564-5.836h2.487v-.229c-.012-.568-.105-.999-.281-1.292-.176-.293-.481-.44-.914-.44-.434 0-.75.156-.95.467-.193.31-.307.808-.342 1.494zm9.518-1.029l1.108-2.82h2.636l-2.171 4.649 2.25 4.86h-2.645l-1.169-2.98-1.16 2.98h-2.654l2.25-4.86-2.154-4.65h2.646l1.063 2.822zM666.545 101h-2.487v-3.647h-2.189V101h-2.496v-9.51h2.496v3.806h2.189V91.49h2.487V101zm6.521-9.51h2.479V101h-2.479v-5.845L670.852 101h-2.497v-9.51h2.497v5.836l2.214-5.836zm11.321 9.51h-2.496v-2.936a4.358 4.358 0 01-.853.088c-1.254 0-2.203-.31-2.848-.931-.638-.627-.958-1.532-.958-2.716V91.49h2.497v3.024c0 .58.093.987.281 1.221.193.235.536.352 1.028.352.258 0 .542-.032.853-.097v-4.5h2.496V101zm5.642.176c-1.277 0-2.273-.381-2.988-1.143-.715-.761-1.072-1.851-1.072-3.27v-.755c0-1.5.328-2.657.984-3.472.656-.814 1.597-1.222 2.821-1.222 1.196 0 2.095.384 2.699 1.152.603.762.911 1.892.923 3.392v1.222h-4.949c.035.703.191 1.219.466 1.547.275.322.7.483 1.275.483.832 0 1.526-.284 2.083-.852l.975 1.503c-.305.422-.747.764-1.327 1.028-.58.258-1.21.387-1.89.387zm-1.564-5.836h2.487v-.229c-.012-.568-.105-.999-.281-1.292-.176-.293-.481-.44-.914-.44-.434 0-.75.156-.949.467-.194.31-.308.808-.343 1.494zm9.773 3.77c.721 0 1.087-.468 1.099-1.406h2.338c-.012 1.037-.331 1.875-.958 2.514-.627.638-1.436.958-2.426.958-1.225 0-2.159-.381-2.804-1.143-.644-.761-.972-1.884-.984-3.366v-.756c0-1.494.316-2.634.949-3.419.639-.785 1.579-1.178 2.821-1.178 1.049 0 1.875.326 2.479.976.603.645.911 1.562.923 2.751h-2.338c-.006-.533-.094-.943-.264-1.23-.17-.288-.451-.431-.844-.431-.433 0-.744.155-.931.466-.188.304-.287.9-.299 1.784v.967c0 .773.038 1.315.114 1.626.076.304.202.53.378.676.176.141.425.211.747.211zm8.148-1.6h-.651V101h-2.478v-9.51h2.478v3.569h.616l1.441-3.569h3.12l-2.505 4.386 2.698 5.124h-3.295l-1.424-3.49zm4.966-1.573c0-1.44.339-2.572 1.019-3.392.68-.82 1.62-1.23 2.821-1.23 1.213 0 2.16.41 2.839 1.23.68.82 1.02 1.957 1.02 3.41v.606c0 1.448-.337 2.579-1.011 3.393-.674.815-1.617 1.222-2.83 1.222-1.219 0-2.168-.407-2.848-1.222-.674-.82-1.01-1.957-1.01-3.41v-.606zm2.496.624c0 1.7.454 2.55 1.362 2.55.838 0 1.289-.71 1.353-2.128l.009-1.046c0-.867-.12-1.508-.36-1.924-.24-.422-.58-.633-1.02-.633-.421 0-.753.21-.993.633-.234.416-.351 1.057-.351 1.924v.624zm10.599 4.615c-1.277 0-2.273-.381-2.988-1.143-.715-.761-1.072-1.851-1.072-3.27v-.755c0-1.5.328-2.657.984-3.472.656-.814 1.597-1.222 2.821-1.222 1.196 0 2.095.384 2.699 1.152.603.762.911 1.892.922 3.392v1.222h-4.948c.035.703.191 1.219.466 1.547.275.322.7.483 1.274.483.833 0 1.527-.284 2.083-.852l.976 1.503c-.305.422-.747.764-1.327 1.028-.58.258-1.21.387-1.89.387zm-1.564-5.836h2.487v-.229c-.012-.568-.105-.999-.281-1.292-.176-.293-.481-.44-.914-.44-.434 0-.75.156-.949.467-.194.31-.308.808-.343 1.494zm14.528-1.037c0-.697-.264-1.046-.791-1.046-.287 0-.513.085-.677.255-.164.164-.246.404-.246.72h-2.487c0-.86.305-1.561.914-2.1.609-.54 1.397-.809 2.364-.809 1.061 0 1.893.243 2.496.73.604.48.906 1.16.906 2.039 0 .422-.109.811-.326 1.169a2.365 2.365 0 01-.905.844c.914.386 1.371 1.122 1.371 2.206 0 .867-.322 1.561-.967 2.083-.644.521-1.505.782-2.584.782-1.001 0-1.819-.27-2.452-.809-.627-.545-.94-1.271-.94-2.18h2.487c0 .335.094.595.281.783.188.187.443.281.765.281.305 0 .536-.1.694-.299.159-.205.238-.483.238-.835 0-.744-.29-1.128-.87-1.151h-1.24v-1.652h1.178c.527-.006.791-.343.791-1.011zm8.631 6.697c-.07-.146-.141-.393-.211-.738-.445.609-1.049.914-1.81.914-.797 0-1.459-.264-1.987-.791-.521-.528-.782-1.21-.782-2.048 0-.996.316-1.767.949-2.312.639-.544 1.556-.823 2.751-.835h.756v-.764c0-.428-.073-.73-.22-.906-.146-.175-.36-.263-.641-.263-.621 0-.932.363-.932 1.09h-2.487c0-.88.328-1.603.984-2.171.662-.574 1.497-.862 2.505-.862 1.043 0 1.849.273 2.417.818.574.539.861 1.312.861 2.32v4.474c.012.82.129 1.462.352 1.925V101h-2.505zm-1.468-1.775c.276 0 .51-.056.703-.167a1.18 1.18 0 00.431-.396v-1.977h-.598c-.422 0-.756.134-1.002.404-.24.27-.36.63-.36 1.08 0 .704.275 1.056.826 1.056zm5.616-.29c.411-.47.704-.94.879-1.416.176-.474.279-1.14.308-1.995l.07-4.034h6.197v7.445h1.256v4.921h-2.487V101h-4.386v2.856h-2.548v-4.921h.711zm2.76 0h2.215v-5.327h-1.266l-.008.94c-.018 1.817-.331 3.28-.941 4.387zM764.692 101c-.07-.146-.14-.393-.211-.738-.445.609-1.048.914-1.81.914-.797 0-1.459-.264-1.986-.791-.522-.528-.783-1.21-.783-2.048 0-.996.317-1.767.95-2.312.638-.544 1.555-.823 2.751-.835h.755v-.764c0-.428-.073-.73-.219-.906-.147-.175-.361-.263-.642-.263-.621 0-.932.363-.932 1.09h-2.487c0-.88.328-1.603.984-2.171.663-.574 1.498-.862 2.505-.862 1.043 0 1.849.273 2.417.818.575.539.862 1.312.862 2.32v4.474c.011.82.129 1.462.351 1.925V101h-2.505zm-1.467-1.775c.275 0 .509-.056.703-.167.193-.112.337-.244.43-.396v-1.977h-.597c-.422 0-.756.134-1.002.404-.24.27-.361.63-.361 1.08 0 .704.276 1.056.827 1.056zM775.811 101h-2.488v-3.647h-2.188V101h-2.496v-9.51h2.496v3.806h2.188V91.49h2.488V101zm6.521-9.51h2.479V101h-2.479v-5.845L780.117 101h-2.496v-9.51h2.496v5.836l2.215-5.836zm8.139 9.686c-1.278 0-2.274-.381-2.989-1.143-.714-.761-1.072-1.851-1.072-3.27v-.755c0-1.5.328-2.657.985-3.472.656-.814 1.596-1.222 2.821-1.222 1.195 0 2.095.384 2.698 1.152.604.762.911 1.892.923 3.392v1.222h-4.948c.035.703.19 1.219.465 1.547.276.322.701.483 1.275.483.832 0 1.526-.284 2.083-.852l.976 1.503c-.305.422-.748.764-1.328 1.028-.58.258-1.21.387-1.889.387zm-1.565-5.836h2.488v-.229c-.012-.568-.106-.999-.282-1.292-.175-.293-.48-.44-.914-.44-.433 0-.75.156-.949.467-.193.31-.308.808-.343 1.494zm-226.564 39.77c.72 0 1.087-.468 1.098-1.406h2.338c-.011 1.037-.331 1.875-.958 2.514-.627.638-1.435.958-2.425.958-1.225 0-2.16-.381-2.804-1.143-.645-.762-.973-1.884-.985-3.366v-.756c0-1.494.317-2.634.95-3.419.638-.785 1.579-1.178 2.821-1.178 1.049 0 1.875.326 2.478.976.604.645.912 1.562.923 2.751h-2.338c-.005-.533-.093-.943-.263-1.23-.17-.288-.451-.431-.844-.431-.434 0-.744.155-.932.466-.187.304-.287.899-.298 1.784v.967c0 .773.038 1.315.114 1.626.076.304.202.53.378.676.176.141.425.211.747.211zm4.553-3.172c0-1.442.339-2.573 1.019-3.393.68-.82 1.62-1.231 2.821-1.231 1.213 0 2.16.411 2.839 1.231.68.82 1.02 1.957 1.02 3.41v.607c0 1.447-.337 2.578-1.011 3.392-.674.815-1.617 1.222-2.83 1.222-1.219 0-2.168-.407-2.848-1.222-.674-.82-1.01-1.957-1.01-3.41v-.606zm2.496.624c0 1.699.454 2.548 1.362 2.548.838 0 1.289-.709 1.353-2.127l.009-1.045c0-.868-.12-1.509-.36-1.925-.24-.422-.58-.633-1.02-.633-.422 0-.753.211-.993.633-.234.416-.351 1.057-.351 1.925v.624zm10.195 2.548c.721 0 1.087-.468 1.099-1.406h2.337c-.011 1.037-.331 1.875-.958 2.514-.626.638-1.435.958-2.425.958-1.225 0-2.16-.381-2.804-1.143-.645-.762-.973-1.884-.984-3.366v-.756c0-1.494.316-2.634.949-3.419.638-.785 1.579-1.178 2.821-1.178 1.049 0 1.875.326 2.479.976.603.645.911 1.562.922 2.751h-2.337c-.006-.533-.094-.943-.264-1.23-.17-.288-.451-.431-.844-.431-.433 0-.744.155-.931.466-.188.304-.288.899-.299 1.784v.967c0 .773.038 1.315.114 1.626.076.304.202.53.378.676.176.141.425.211.747.211zm11.689-5.572h-2.443V137h-2.487v-7.462h-2.426v-2.048h7.356v2.048zm5.704 7.462c-.07-.146-.14-.393-.21-.738-.446.609-1.049.914-1.811.914-.797 0-1.459-.264-1.986-.791-.522-.528-.783-1.21-.783-2.048 0-.996.317-1.767.95-2.312.638-.545 1.555-.823 2.751-.835h.756v-.764c0-.428-.074-.73-.22-.905-.147-.176-.361-.264-.642-.264-.621 0-.931.363-.931 1.09h-2.488c0-.879.328-1.603.985-2.171.662-.574 1.497-.862 2.504-.862 1.043 0 1.849.273 2.417.818.575.539.862 1.312.862 2.32v4.474c.012.82.129 1.462.351 1.925V137h-2.505zm-1.467-1.775c.275 0 .509-.056.703-.167.193-.112.337-.244.431-.396v-1.977h-.598c-.422 0-.756.134-1.002.404-.24.269-.36.63-.36 1.081 0 .703.275 1.055.826 1.055zm5.581 1.775v-9.51h3.454c1.107 0 1.957.229 2.549.686.597.457.896 1.113.896 1.969 0 .439-.129.834-.387 1.186-.251.346-.621.612-1.107.8.592.123 1.058.372 1.398.747.345.369.518.838.518 1.406 0 1.811-1.14 2.716-3.419 2.716h-3.902zm2.478-3.938v1.89h1.486c.322 0 .547-.079.676-.237.129-.158.194-.39.194-.694 0-.352-.071-.598-.211-.739-.141-.14-.343-.214-.607-.22h-1.538zm0-1.713h1.011c.334 0 .568-.071.703-.211.141-.147.211-.361.211-.642 0-.615-.287-.934-.861-.958h-1.064v1.811zm11.031-3.859h2.478V137h-2.478v-5.845L612.387 137h-2.496v-9.51h2.496v5.836l2.215-5.836zm9.281 6.487l1.784-6.487h3.12V137H626.3v-5.089L624.718 137h-1.661l-1.521-4.922V137h-2.478v-9.51h3.067l1.758 6.487zM642.182 137h-2.488v-7.436h-2.206V137h-2.496v-9.51h7.19V137zm9.228-4.456c0 1.494-.258 2.64-.773 3.436-.51.797-1.272 1.196-2.285 1.196-.774 0-1.395-.314-1.864-.941v4.421h-2.487V127.49h2.303l.088.87c.474-.697 1.122-1.046 1.942-1.046 1.014 0 1.775.37 2.285 1.108.516.738.779 1.869.791 3.392v.73zm-2.478-.624c0-.92-.103-1.57-.308-1.951-.199-.381-.539-.572-1.02-.572-.509 0-.881.214-1.116.642v4.456c.223.41.601.615 1.134.615.492 0 .832-.208 1.02-.624.193-.416.29-1.063.29-1.942v-.624zm3.691.018c0-1.442.34-2.573 1.02-3.393.679-.82 1.62-1.231 2.821-1.231 1.213 0 2.159.411 2.839 1.231.679.82 1.019 1.957 1.019 3.41v.607c0 1.447-.337 2.578-1.01 3.392-.674.815-1.618 1.222-2.831 1.222-1.218 0-2.168-.407-2.847-1.222-.674-.82-1.011-1.957-1.011-3.41v-.606zm2.496.624c0 1.699.454 2.548 1.362 2.548.838 0 1.29-.709 1.354-2.127l.009-1.045c0-.868-.12-1.509-.361-1.925-.24-.422-.58-.633-1.019-.633-.422 0-.753.211-.993.633-.235.416-.352 1.057-.352 1.925v.624zm10.6 4.614c-1.278 0-2.274-.381-2.989-1.143-.714-.762-1.072-1.851-1.072-3.269v-.756c0-1.5.328-2.657.985-3.472.656-.814 1.596-1.222 2.821-1.222 1.195 0 2.095.384 2.698 1.152.604.762.911 1.892.923 3.392v1.222h-4.948c.035.703.19 1.219.466 1.547.275.322.7.483 1.274.483.832 0 1.526-.284 2.083-.852l.976 1.503c-.305.422-.748.764-1.328 1.028-.58.258-1.21.387-1.889.387zm-1.565-5.836h2.488v-.229c-.012-.568-.106-.999-.282-1.292-.175-.293-.48-.439-.914-.439-.433 0-.75.155-.949.466-.193.31-.308.808-.343 1.494zm9.642 2.171h-.65V137h-2.479v-9.51h2.479v3.569h.615l1.441-3.569h3.12l-2.505 4.386 2.699 5.124h-3.296l-1.424-3.489zm12.612-3.973h-2.443V137h-2.487v-7.462h-2.426v-2.048h7.356v2.048zm8.49 7.462h-2.487v-3.647h-2.188V137h-2.496v-9.51h2.496v3.806h2.188v-3.806h2.487V137zm4.87-4.14l1.265-5.37h2.655l-3.129 10.934c-.469 1.611-1.351 2.417-2.646 2.417-.299 0-.639-.056-1.019-.167v-1.943l.29.009c.386 0 .676-.076.87-.228.199-.147.348-.405.448-.774l.193-.641-2.742-9.607h2.672l1.143 5.37zm7.664-1.731h.826c.158-1.172.568-2.101 1.23-2.786.668-.686 1.515-1.029 2.54-1.029 1.178 0 2.116.44 2.813 1.319.697.873 1.046 2.109 1.046 3.709 0 1.47-.346 2.645-1.037 3.524-.692.873-1.626 1.31-2.804 1.31-1.061 0-1.928-.358-2.602-1.072-.668-.715-1.069-1.685-1.204-2.91h-.808V137h-2.488v-9.51h2.488v3.639zm3.252 1.213c0 1.846.454 2.768 1.362 2.768.82 0 1.268-.773 1.345-2.32l.008-.633c0-.926-.117-1.62-.351-2.083-.235-.463-.574-.694-1.02-.694-.814 0-1.259.785-1.336 2.355l-.008.607zm11.047 2.593c.411-.469.704-.941.879-1.415.176-.475.279-1.14.308-1.996l.07-4.034h6.197v7.445h1.256v4.921h-2.487V137h-4.386v2.856h-2.548v-4.921h.711zm2.76 0h2.215v-5.327h-1.266l-.008.941c-.018 1.816-.331 3.278-.941 4.386zm6.935-2.997c0-1.442.34-2.573 1.019-3.393.68-.82 1.62-1.231 2.822-1.231 1.212 0 2.159.411 2.838 1.231.68.82 1.02 1.957 1.02 3.41v.607c0 1.447-.337 2.578-1.011 3.392-.674.815-1.617 1.222-2.83 1.222-1.219 0-2.168-.407-2.847-1.222-.674-.82-1.011-1.957-1.011-3.41v-.606zm2.496.624c0 1.699.454 2.548 1.362 2.548.838 0 1.289-.709 1.354-2.127l.008-1.045c0-.868-.12-1.509-.36-1.925-.24-.422-.58-.633-1.019-.633-.422 0-.753.211-.994.633-.234.416-.351 1.057-.351 1.925v.624zm10.063.949h-.65V137h-2.479v-9.51h2.479v3.569h.615l1.442-3.569h3.12l-2.505 4.386 2.698 5.124h-3.296l-1.424-3.489zm8.816-.651l1.265-5.37h2.655l-3.129 10.934c-.469 1.611-1.351 2.417-2.646 2.417a3.69 3.69 0 01-1.019-.167v-1.943l.29.009c.387 0 .677-.076.87-.228.199-.147.349-.405.448-.774l.194-.641-2.743-9.607h2.672l1.143 5.37zm9.967 1.117l1.784-6.487h3.12V137h-2.487v-5.089L763.603 137h-1.662l-1.52-4.922V137h-2.479v-9.51h3.068l1.758 6.487zm10.81 3.199c-1.277 0-2.273-.381-2.988-1.143-.715-.762-1.072-1.851-1.072-3.269v-.756c0-1.5.328-2.657.984-3.472.656-.814 1.597-1.222 2.821-1.222 1.196 0 2.095.384 2.698 1.152.604.762.912 1.892.923 3.392v1.222h-4.948c.035.703.191 1.219.466 1.547.275.322.7.483 1.274.483.832 0 1.527-.284 2.083-.852l.976 1.503c-.305.422-.747.764-1.327 1.028-.58.258-1.21.387-1.89.387zm-1.564-5.836h2.487v-.229c-.012-.568-.105-.999-.281-1.292-.176-.293-.481-.439-.914-.439-.434 0-.75.155-.95.466-.193.31-.307.808-.342 1.494zm13.5 5.66h-2.488v-3.647h-2.188V137h-2.496v-9.51h2.496v3.806h2.188v-3.806h2.488V137zm8.666-7.462h-2.444V137h-2.487v-7.462h-2.426v-2.048h7.357v2.048zm5.704 7.462c-.071-.146-.141-.393-.211-.738-.445.609-1.049.914-1.811.914-.797 0-1.459-.264-1.986-.791-.522-.528-.782-1.21-.782-2.048 0-.996.316-1.767.949-2.312.639-.545 1.556-.823 2.751-.835h.756v-.764c0-.428-.073-.73-.22-.905-.146-.176-.36-.264-.642-.264-.621 0-.931.363-.931 1.09h-2.487c0-.879.328-1.603.984-2.171.662-.574 1.497-.862 2.505-.862 1.043 0 1.848.273 2.417.818.574.539.861 1.312.861 2.32v4.474c.012.82.129 1.462.352 1.925V137h-2.505zm-1.468-1.775c.275 0 .51-.056.703-.167.193-.112.337-.244.431-.396v-1.977h-.598c-.422 0-.756.134-1.002.404-.24.269-.36.63-.36 1.081 0 .703.275 1.055.826 1.055zm5.414-7.735h2.496v7.445h2.206v-7.445h2.488v7.462h1.3l-.175 4.869h-2.303V137h-6.012v-9.51zm14.467 0h2.478V137h-2.478v-5.845L816.082 137h-2.496v-9.51h2.496v5.836l2.215-5.836zm6.978 3.639h.827c.158-1.172.568-2.101 1.23-2.786.668-.686 1.515-1.029 2.54-1.029 1.178 0 2.115.44 2.813 1.319.697.873 1.045 2.109 1.045 3.709 0 1.47-.345 2.645-1.037 3.524-.691.873-1.626 1.31-2.803 1.31-1.061 0-1.928-.358-2.602-1.072-.668-.715-1.069-1.685-1.204-2.91h-.809V137h-2.487v-9.51h2.487v3.639zm3.252 1.213c0 1.846.454 2.768 1.363 2.768.82 0 1.268-.773 1.344-2.32l.009-.633c0-.926-.117-1.62-.351-2.083-.235-.463-.575-.694-1.02-.694-.814 0-1.26.785-1.336 2.355l-.009.607z" fill="#fff"/><path d="M28.605 140.061l3.255-33.449h31.867v10.939h-21.38l-1.176 14.103c2.471-1.658 5.018-2.487 7.64-2.487 5.424 0 9.597 1.929 12.52 5.786 2.953 3.858 4.43 9.312 4.43 16.363 0 6.6-1.748 11.919-5.243 15.957-3.496 4.038-8.167 6.057-14.013 6.057-3.465 0-6.675-.814-9.628-2.441a18.478 18.478 0 01-7.006-6.871c-1.688-2.923-2.547-6.238-2.577-9.944h12.657c.21 2.742.889 4.867 2.034 6.373 1.145 1.507 2.622 2.26 4.43 2.26 2.11 0 3.736-1.009 4.882-3.028 1.145-2.049 1.717-5.093 1.717-9.131 0-3.797-.693-6.66-2.08-8.588-1.355-1.929-3.269-2.893-5.74-2.893-2.41 0-4.279.828-5.605 2.486l-.813 1.13-10.17-2.622zm83.759 5.153c0 9.101-1.657 16.062-4.972 20.883-3.284 4.822-7.986 7.233-14.103 7.233-6.057 0-10.743-2.336-14.058-7.006-3.284-4.702-4.987-11.422-5.107-20.161v-12.43c0-9.071 1.642-16.002 4.927-20.793 3.284-4.822 8-7.232 14.148-7.232 6.147 0 10.863 2.38 14.148 7.141 3.285 4.762 4.957 11.557 5.017 20.387v11.978zM99.527 131.88c0-5.184-.512-9.071-1.537-11.663-1.024-2.591-2.621-3.887-4.791-3.887-4.068 0-6.178 4.746-6.328 14.239v16.408c0 5.304.512 9.251 1.536 11.843 1.055 2.592 2.682 3.887 4.882 3.887 2.08 0 3.616-1.205 4.61-3.616 1.025-2.441 1.568-6.162 1.628-11.165V131.88zm21.516-12.612c0-4.008 1.1-7.277 3.3-9.809 2.23-2.531 5.228-3.797 8.995-3.797 3.767 0 6.765 1.251 8.995 3.752 2.26 2.471 3.391 5.816 3.391 10.035v3.3c0 4.068-1.115 7.338-3.345 9.809-2.23 2.471-5.214 3.706-8.95 3.706-3.707 0-6.705-1.235-8.996-3.706-2.26-2.471-3.39-5.831-3.39-10.08v-3.21zm8.317 3.481c0 1.808.377 3.254 1.13 4.339.784 1.055 1.763 1.582 2.939 1.582 1.205 0 2.154-.557 2.847-1.672.724-1.115 1.085-2.577 1.085-4.385v-3.345c0-1.748-.361-3.179-1.085-4.294-.723-1.145-1.702-1.718-2.938-1.718-1.205 0-2.17.573-2.893 1.718-.723 1.115-1.085 2.592-1.085 4.43v3.345zm17.629 33.54c0-4.069 1.13-7.338 3.39-9.809 2.26-2.501 5.244-3.752 8.95-3.752 3.737 0 6.735 1.236 8.996 3.707 2.26 2.441 3.39 5.801 3.39 10.08v3.299c0 4.038-1.1 7.308-3.3 9.809-2.2 2.471-5.198 3.707-8.995 3.707-3.827 0-6.856-1.251-9.086-3.752-2.23-2.501-3.345-5.816-3.345-9.944v-3.345zm8.363 3.525c0 1.688.391 3.104 1.175 4.249.813 1.146 1.778 1.718 2.893 1.718 2.501 0 3.812-1.793 3.932-5.379v-4.113c0-1.778-.376-3.21-1.13-4.295-.723-1.115-1.687-1.672-2.893-1.672-2.652 0-3.977 2.305-3.977 6.916v2.576zm-19.618 7.685l-6.057-3.436 26.985-51.44 6.103 3.436-27.031 51.44zm74.539-42.737h-7.048L201.854 130h-5.467l7.998-25.594h4.728L217.164 130h-5.519l-1.372-5.238zm-5.923-4.307h4.781l-2.391-9.123-2.39 9.123zm22.675-.896h-2.25V130h-5.168v-25.594h5.168v10.231h1.741l4.447-10.231h6.293l-6.258 11.918L237.959 130h-6.152l-4.782-10.441zm12.674-15.153h5.168v21.305h7.576v-21.305h5.186v21.323h3.146l-.351 10.441h-4.817V130h-15.908v-25.594zm36.774 0h5.168V130h-5.168v-16.945L268.932 130h-5.186v-25.594h5.186v16.963l7.541-16.963zM295.316 130v-9.211h-2.707L288.83 130h-5.572l4.535-11.074c-2.109-1.465-3.164-3.668-3.164-6.61 0-2.531.709-4.482 2.127-5.853 1.43-1.371 3.451-2.057 6.064-2.057h7.682V130h-5.186zm-5.502-17.279c0 1.418.252 2.449.756 3.093.504.633 1.289.95 2.356.95h2.39v-8.051h-2.566c-1.957 0-2.936 1.336-2.936 4.008zM330.789 130h-5.15v-10.951h-7.629V130h-5.168v-25.594h5.168v10.354h7.629v-10.354h5.15V130zm16.699-5.238h-7.049L339.068 130h-5.466l7.998-25.594h4.728L354.379 130h-5.52l-1.371-5.238zm-5.924-4.307h4.782l-2.391-9.123-2.391 9.123zM216.021 170h-5.167v-21.287h-7.594V170h-5.168v-25.594h17.929V170zm9.352-9v9h-5.168v-25.594h8.719c2.531 0 4.547.785 6.047 2.356 1.511 1.57 2.267 3.609 2.267 6.117s-.744 4.488-2.232 5.941c-1.488 1.453-3.551 2.18-6.188 2.18h-3.445zm0-4.307h3.551c.984 0 1.746-.322 2.285-.966.539-.645.809-1.582.809-2.813 0-1.277-.276-2.291-.827-3.041-.55-.762-1.289-1.148-2.214-1.16h-3.604v7.98zm33.346 2.813c0 3.433-.815 6.099-2.444 7.998-1.617 1.898-3.867 2.848-6.75 2.848-2.871 0-5.127-.938-6.767-2.813-1.641-1.887-2.473-4.523-2.496-7.91v-4.377c0-3.516.814-6.258 2.443-8.227 1.629-1.98 3.891-2.97 6.785-2.97 2.848 0 5.092.972 6.733 2.918 1.64 1.933 2.472 4.652 2.496 8.156v4.377zm-5.186-4.289c0-2.309-.328-4.026-.984-5.151-.656-1.125-1.676-1.687-3.059-1.687-1.371 0-2.385.545-3.041 1.635-.656 1.078-.996 2.724-1.019 4.939v4.553c0 2.238.334 3.89 1.002 4.957.668 1.055 1.699 1.582 3.093 1.582 1.348 0 2.35-.516 3.006-1.547.657-1.043.99-2.654 1.002-4.834v-4.447zm22.113 3.709h-8.05v6.785h9.527V170h-14.695v-25.594h14.66v4.307h-9.492v6.047h8.05v4.166zm11.918.633h-2.25V170h-5.168v-25.594h5.168v10.231h1.741l4.447-10.231h6.293l-6.258 11.918L298.498 170h-6.152l-4.782-10.441zm29.444-10.846h-6.328V170h-5.186v-21.287h-6.223v-4.307h17.737v4.307zm15.504-4.307h5.168V170h-5.168v-16.945L324.971 170h-5.186v-25.594h5.186v16.963l7.541-16.963zM346.979 161v9h-5.168v-25.594h8.718c2.532 0 4.547.785 6.047 2.356 1.512 1.57 2.268 3.609 2.268 6.117s-.744 4.488-2.233 5.941c-1.488 1.453-3.55 2.18-6.187 2.18h-3.445zm0-4.307h3.55c.985 0 1.746-.322 2.285-.966.54-.645.809-1.582.809-2.813 0-1.277-.275-2.291-.826-3.041-.551-.762-1.289-1.148-2.215-1.16h-3.603v7.98zm33.345 2.813c0 3.433-.814 6.099-2.443 7.998-1.617 1.898-3.867 2.848-6.75 2.848-2.871 0-5.127-.938-6.768-2.813-1.64-1.887-2.472-4.523-2.496-7.91v-4.377c0-3.516.815-6.258 2.444-8.227 1.628-1.98 3.89-2.97 6.785-2.97 2.847 0 5.092.972 6.732 2.918 1.641 1.933 2.473 4.652 2.496 8.156v4.377zm-5.185-4.289c0-2.309-.328-4.026-.985-5.151-.656-1.125-1.675-1.687-3.058-1.687-1.371 0-2.385.545-3.041 1.635-.657 1.078-.996 2.724-1.02 4.939v4.553c0 2.238.334 3.89 1.002 4.957.668 1.055 1.699 1.582 3.094 1.582 1.348 0 2.349-.516 3.006-1.547.656-1.043.99-2.654 1.002-4.834v-4.447zM384.033 170v-25.594h7.91c2.672 0 4.7.598 6.082 1.793 1.395 1.184 2.092 2.924 2.092 5.221 0 1.301-.287 2.42-.861 3.357a5.085 5.085 0 01-2.356 2.057c1.149.328 2.034.99 2.655 1.986.621.985.931 2.203.931 3.657 0 2.484-.685 4.359-2.056 5.625-1.36 1.265-3.334 1.898-5.924 1.898h-8.473zm5.168-11.127v6.838h3.305c.926 0 1.629-.287 2.109-.861.481-.575.721-1.389.721-2.444 0-2.297-.832-3.474-2.496-3.533h-3.639zm0-3.762h2.69c2.027 0 3.041-1.049 3.041-3.146 0-1.16-.235-1.992-.703-2.496-.469-.504-1.231-.756-2.286-.756h-2.742v6.398zm27.264 9.651h-7.049L408.045 170h-5.467l7.998-25.594h4.729l8.05 25.594h-5.519l-1.371-5.238zm-5.924-4.307h4.781l-2.39-9.123-2.391 9.123zm33.17 9.545h-5.15v-10.951h-7.629V170h-5.168v-25.594h5.168v10.354h7.629v-10.354h5.15V170zm16.699-25.594h5.168V170h-5.168v-16.945L452.869 170h-5.185v-25.594h5.185v16.963l7.541-16.963zm22.518 14.52h-8.051v6.785h9.527V170h-14.695v-25.594h14.66v4.307h-9.492v6.047h8.051v4.166zM527 177a2 2 0 012-2h139a2 2 0 012 2v50a2 2 0 01-2 2H529a2 2 0 01-2-2v-50z" fill="#FCB317"/><path d="M566.352 198.758c0-.417-.118-.75-.352-1-.229-.25-.542-.375-.938-.375-.348 0-.635.122-.859.367-.219.24-.328.56-.328.961h-2.297c0-.63.151-1.19.453-1.68a3.104 3.104 0 011.266-1.148 3.857 3.857 0 011.765-.406c1.131 0 2.011.283 2.641.851.636.563.953 1.357.953 2.383 0 .521-.133.997-.398 1.43-.261.427-.62.765-1.078 1.015.521.219.922.552 1.203 1 .281.443.422.995.422 1.656 0 1.027-.341 1.839-1.024 2.438-.682.599-1.588.898-2.719.898-.687 0-1.309-.132-1.867-.398a3.077 3.077 0 01-1.297-1.141c-.307-.494-.46-1.083-.46-1.765h2.304c0 .39.123.724.367 1 .245.276.563.414.953.414.438 0 .787-.138 1.047-.414.261-.276.391-.633.391-1.071 0-.588-.112-1.01-.336-1.265-.224-.255-.549-.383-.976-.383h-1.165v-1.852h1.172c.771-.005 1.157-.51 1.157-1.515zm10.046 5.914h-3.132l-.61 2.328h-2.429l3.554-11.375h2.102L579.461 207h-2.453l-.61-2.328zm-2.632-1.914h2.125l-1.063-4.055-1.062 4.055zm10.578-.399h-1V207h-2.297v-11.375h2.297v4.547h.773l1.977-4.547h2.797l-2.782 5.297 3.094 6.078h-2.734l-2.125-4.641zm11.648 2.313h-3.133L592.25 207h-2.43l3.555-11.375h2.102L599.055 207h-2.453l-.61-2.328zm-2.633-1.914h2.125l-1.062-4.055-1.063 4.055zm11.821-4c0-.417-.118-.75-.352-1-.229-.25-.542-.375-.937-.375-.349 0-.636.122-.86.367-.219.24-.328.56-.328.961h-2.297c0-.63.151-1.19.453-1.68a3.11 3.11 0 011.266-1.148 3.858 3.858 0 011.766-.406c1.13 0 2.01.283 2.64.851.636.563.953 1.357.953 2.383 0 .521-.132.997-.398 1.43-.26.427-.62.765-1.078 1.015.521.219.922.552 1.203 1 .281.443.422.995.422 1.656 0 1.027-.341 1.839-1.024 2.438-.682.599-1.588.898-2.718.898-.688 0-1.31-.132-1.868-.398a3.069 3.069 0 01-1.296-1.141c-.308-.494-.461-1.083-.461-1.765h2.304c0 .39.123.724.368 1 .244.276.562.414.953.414.437 0 .786-.138 1.047-.414.26-.276.39-.633.39-1.071 0-.588-.112-1.01-.336-1.265-.224-.255-.549-.383-.976-.383h-1.164v-1.852h1.171c.771-.005 1.157-.51 1.157-1.515zm10.047 5.914h-3.133l-.61 2.328h-2.429l3.554-11.375h2.102L618.289 207h-2.453l-.609-2.328zm-2.633-1.914h2.125l-1.063-4.055-1.062 4.055zm13.695-5.219h-2.812V207h-2.305v-9.461h-2.766v-1.914h7.883v1.914zm4.242 2.172h1.36c1.151 0 2.067.328 2.75.984.682.651 1.023 1.524 1.023 2.617 0 1.089-.333 1.972-1 2.649-.667.672-1.549 1.018-2.648 1.039h-3.789v-11.375h2.304v4.086zm0 1.906v3.477h1.391c.448 0 .799-.167 1.055-.5.26-.339.39-.771.39-1.297 0-.495-.127-.896-.383-1.203-.25-.313-.599-.472-1.046-.477h-1.407zM36.03 214.621h1.986c1.277 0 2.261-.392 2.953-1.178.691-.785 1.037-1.857 1.037-3.216 0-3-1.16-4.5-3.48-4.5-1.114 0-1.987.404-2.62 1.212-.633.809-.949 1.87-.949 3.182h-3.094c0-2.051.621-3.738 1.864-5.062 1.254-1.336 2.853-2.004 4.798-2.004 2.016 0 3.616.633 4.8 1.898 1.183 1.254 1.775 3.035 1.775 5.344a6.32 6.32 0 01-.932 3.322c-.61 1.02-1.406 1.77-2.39 2.25 2.413.891 3.62 2.889 3.62 5.994 0 2.285-.638 4.108-1.916 5.467-1.265 1.348-2.923 2.022-4.974 2.022-2.028 0-3.668-.639-4.922-1.916-1.242-1.29-1.863-3.018-1.863-5.186h3.111c0 1.359.328 2.443.984 3.252.657.797 1.553 1.195 2.69 1.195 1.16 0 2.08-.392 2.76-1.177.691-.786 1.037-1.981 1.037-3.586 0-3.106-1.471-4.659-4.412-4.659h-1.864v-2.654zm27.492 3.463c0 3.773-.551 6.598-1.653 8.473-1.101 1.863-2.83 2.795-5.185 2.795-2.286 0-3.99-.897-5.116-2.69-1.125-1.793-1.71-4.488-1.758-8.086v-4.394c0-3.739.551-6.528 1.653-8.368 1.113-1.839 2.842-2.759 5.185-2.759 2.309 0 4.014.873 5.116 2.619 1.113 1.746 1.699 4.388 1.758 7.928v4.482zm-3.112-4.447c0-2.707-.299-4.699-.896-5.977-.598-1.289-1.553-1.933-2.866-1.933-1.277 0-2.214.632-2.812 1.898-.598 1.254-.908 3.152-.932 5.695v5.274c0 2.695.31 4.722.932 6.082.621 1.347 1.57 2.021 2.848 2.021 1.265 0 2.197-.638 2.794-1.916.598-1.277.909-3.228.932-5.853v-5.291zm20.9 4.447c0 3.773-.55 6.598-1.652 8.473-1.101 1.863-2.83 2.795-5.185 2.795-2.285 0-3.99-.897-5.116-2.69-1.125-1.793-1.71-4.488-1.757-8.086v-4.394c0-3.739.55-6.528 1.652-8.368 1.113-1.839 2.842-2.759 5.186-2.759 2.308 0 4.013.873 5.115 2.619 1.113 1.746 1.699 4.388 1.758 7.928v4.482zm-3.11-4.447c0-2.707-.3-4.699-.897-5.977-.598-1.289-1.553-1.933-2.865-1.933-1.278 0-2.215.632-2.813 1.898-.598 1.254-.908 3.152-.932 5.695v5.274c0 2.695.31 4.722.932 6.082.621 1.347 1.57 2.021 2.848 2.021 1.265 0 2.197-.638 2.795-1.916.597-1.277.908-3.228.931-5.853v-5.291zm25.259 10.529h-4.764V229h-3.199v-4.834H92.42v-2.777h3.076v-2.409H92.42v-2.759h3.076v-12.815h8.156c2.344 0 4.196.703 5.555 2.11 1.371 1.406 2.057 3.287 2.057 5.642 0 2.461-.651 4.377-1.952 5.748-1.3 1.36-3.146 2.051-5.537 2.074h-5.08v2.409h4.764v2.777zm-4.764-7.945h4.957c1.442 0 2.532-.434 3.27-1.301.75-.867 1.125-2.109 1.125-3.727 0-1.464-.381-2.66-1.143-3.586-.761-.925-1.81-1.4-3.146-1.423h-5.063v10.037zm17.139 14.976h-2.637l8.983-27.791h2.619l-8.965 27.791zm21.832-6.504l5.098-14.713h3.867V229h-3.094v-13.113L138.738 229h-2.127l-4.904-13.43V229h-3.094v-19.02h4.008l5.045 14.713zm22.148-7.418h-9v-1.898l4.5-5.063c.961-1.136 1.442-2.103 1.442-2.9 0-.574-.141-1.037-.422-1.389-.281-.363-.686-.545-1.213-.545-.68 0-1.178.223-1.494.668-.305.446-.457 1.002-.457 1.67h-2.619c0-1.336.416-2.437 1.248-3.304.844-.868 1.928-1.301 3.252-1.301 1.359 0 2.42.375 3.181 1.125.762.738 1.143 1.752 1.143 3.041 0 1.254-.568 2.537-1.705 3.85l-3.533 3.796h5.677v2.25z" fill="#fff"/><path d="M30 220h131.15v1.793H30V220zm175.621 9h-4.992v-19.547l-4.869 1.881v-4.148l9.334-3.815h.527V229zm7.77-12.586l1.265-13.008h12.393v4.254h-8.315l-.457 5.485c.961-.645 1.952-.967 2.971-.967 2.109 0 3.732.75 4.869 2.25 1.149 1.5 1.723 3.621 1.723 6.363 0 2.566-.68 4.635-2.039 6.205-1.36 1.57-3.176 2.356-5.449 2.356a7.635 7.635 0 01-3.745-.95 7.182 7.182 0 01-2.724-2.672c-.656-1.136-.99-2.425-1.002-3.867h4.922c.082 1.067.345 1.893.791 2.479.445.586 1.019.879 1.722.879.821 0 1.454-.393 1.899-1.178.445-.797.668-1.981.668-3.551 0-1.476-.27-2.59-.809-3.34-.527-.75-1.271-1.125-2.232-1.125-.938 0-1.664.323-2.18.967l-.316.44-3.955-1.02zm32.572 2.004c0 3.539-.645 6.246-1.934 8.121-1.277 1.875-3.105 2.813-5.484 2.813-2.356 0-4.178-.909-5.467-2.725-1.277-1.828-1.939-4.441-1.986-7.84v-4.834c0-3.527.638-6.223 1.916-8.086 1.277-1.875 3.111-2.812 5.502-2.812 2.39 0 4.224.925 5.502 2.777 1.277 1.852 1.927 4.494 1.951 7.928v4.658zm-4.992-5.186c0-2.015-.2-3.527-.598-4.535-.398-1.008-1.019-1.511-1.863-1.511-1.582 0-2.403 1.845-2.461 5.537v6.381c0 2.062.199 3.597.597 4.605.411 1.008 1.043 1.512 1.899 1.512.809 0 1.406-.469 1.793-1.407.398-.949.609-2.396.633-4.341v-6.241zm28.722 12.375h-4.447V229h-5.168v-3.393h-2.988v-4.289h2.988V220h-2.988v-4.307h2.988v-12.287h8.684c2.531 0 4.552.78 6.064 2.338 1.524 1.559 2.285 3.58 2.285 6.065 0 2.507-.744 4.5-2.232 5.976-1.488 1.477-3.563 2.215-6.223 2.215h-3.41v1.318h4.447v4.289zm-4.447-9.914h3.393c2.156 0 3.234-1.283 3.234-3.849 0-1.207-.275-2.192-.826-2.953-.551-.774-1.307-1.161-2.268-1.161h-3.533v7.963zm16.875 15.504h-3.639l7.682-27.791h3.639l-7.682 27.791zm20.074-8.244l3.569-12.973h6.24V229h-4.975v-10.178L303.865 229h-3.322l-3.041-9.844V229h-4.957v-19.02h6.135l3.515 12.973zm22.834-5.678h-9.369v-2.425l4.219-4.518c.504-.574.867-1.107 1.09-1.6.222-.492.334-.873.334-1.142 0-.985-.375-1.477-1.125-1.477-.399 0-.715.182-.949.545-.223.352-.334.815-.334 1.389h-3.499c0-1.383.434-2.531 1.301-3.445.867-.926 1.975-1.389 3.323-1.389 1.535 0 2.707.381 3.515 1.142.82.75 1.231 1.823 1.231 3.217 0 .903-.211 1.711-.633 2.426-.41.703-1.307 1.664-2.69 2.883l-1.213 1.494h4.799v2.9z" fill="#fff"/><path fill="#FCB317" d="M527 59.2l1.4-1.401 5.6 5.6-1.4 1.4z"/><path fill="#FCB317" d="M539.6 55l1.4 1.4-8.4 8.4-1.4-1.4zM527 95.2l1.4-1.401 5.6 5.6-1.4 1.4z"/><path fill="#FCB317" d="M539.6 91l1.4 1.4-8.4 8.4-1.4-1.4zM527 131.199l1.4-1.4 5.6 5.6-1.4 1.4z"/><path fill="#FCB317" d="M539.6 127l1.4 1.4-8.4 8.4-1.4-1.4z"/></svg>