<svg width="345" height="230" viewBox="0 0 345 230" fill="none" xmlns="http://www.w3.org/2000/svg"><path opacity=".75" fill="#000" d="M0 0h345v229.102H0z"/><path d="M30.346 34.327h-2.132V31.5h-5.44v2.819h-2.196l-.126-4.746h.766c.337-.31.602-.81.797-1.5.195-.69.332-1.593.41-2.709l.325-5.361h6.609v9.57h1.192l-.205 4.754zm-6.633-4.754h3.332v-7.636h-2.084l-.19 3.167c-.131 1.9-.484 3.39-1.058 4.47zm7.667-2.621c0-1.295.306-2.311.916-3.048.611-.737 1.456-1.106 2.535-1.106 1.09 0 1.94.369 2.55 1.106.611.737.917 1.758.917 3.064v.544c0 1.3-.303 2.317-.908 3.048-.606.732-1.453 1.098-2.543 1.098-1.095 0-1.948-.366-2.559-1.098-.605-.737-.908-1.758-.908-3.063v-.545zm2.243.56c0 1.527.408 2.29 1.224 2.29.753 0 1.158-.637 1.216-1.91l.008-.94c0-.78-.108-1.356-.324-1.73-.216-.379-.521-.568-.916-.568-.379 0-.676.19-.892.568-.21.374-.316.95-.316 1.73v.56zm11.726-2.78h1.082c.41 0 .71-.141.9-.426.195-.29.292-.674.292-1.152 0-.459-.1-.814-.3-1.067a.938.938 0 00-.79-.386.95.95 0 00-.765.363c-.195.242-.293.547-.293.916h-2.234c0-.6.137-1.137.41-1.611.28-.48.666-.853 1.161-1.121a3.45 3.45 0 011.659-.403c1.058 0 1.887.292 2.487.876.6.585.9 1.385.9 2.4 0 .522-.137 1.006-.41 1.454a2.75 2.75 0 01-1.067 1.018c.543.232.945.58 1.209 1.043.268.463.402 1.01.402 1.642 0 1.021-.326 1.84-.979 2.456-.647.616-1.5.924-2.558.924-.985 0-1.785-.303-2.4-.908-.611-.61-.917-1.411-.917-2.4h2.235c0 .41.108.755.324 1.034.215.279.49.418.82.418.385 0 .688-.142.909-.426.226-.284.34-.663.34-1.137 0-1.132-.44-1.7-1.32-1.706H45.35v-1.8zM56.46 31.5h-2.242v-8.78l-2.188.844v-1.863l4.193-1.714h.237V31.5zm11.53-2.716l1.602-5.828h2.803V31.5H70.16v-4.572L68.738 31.5h-1.492l-1.366-4.422V31.5h-2.227v-8.544h2.756l1.58 5.828zM78.31 31.5c-.063-.132-.126-.353-.19-.663-.4.547-.942.82-1.626.82-.716 0-1.311-.236-1.785-.71-.468-.473-.703-1.087-.703-1.84 0-.895.285-1.587.853-2.076.574-.49 1.398-.74 2.472-.75h.679v-.688c0-.384-.066-.655-.198-.813-.131-.158-.323-.237-.576-.237-.558 0-.837.327-.837.98h-2.235c0-.79.295-1.44.885-1.951.594-.516 1.345-.774 2.25-.774.937 0 1.661.245 2.172.735.516.484.773 1.179.773 2.084v4.02c.011.736.116 1.313.316 1.729v.134h-2.25zm-1.319-1.595c.248 0 .458-.05.632-.15.174-.1.302-.219.387-.355v-1.777h-.537c-.38 0-.68.12-.9.363-.216.242-.324.566-.324.971 0 .632.247.948.742.948zm11.055-6.949V31.5h-2.219v-2.945h-.829l-1.39 2.945h-2.25l1.587-3.372a2.6 2.6 0 01-1.003-.947 2.661 2.661 0 01-.347-1.358c0-.848.29-1.538.868-2.07.585-.531 1.372-.797 2.361-.797h3.222zm-4.217 2.938c0 .3.09.552.269.758.184.2.418.3.703.3h1.026v-2.156h-1.034a.876.876 0 00-.695.324c-.18.21-.269.468-.269.773zm16.449 5.606h-6.776v-1.58l3.112-3.955c.395-.548.684-1.027.868-1.438.19-.415.285-.813.285-1.192 0-.51-.09-.91-.269-1.2a.833.833 0 00-.758-.434c-.363 0-.653.168-.868.505-.211.337-.316.81-.316 1.421h-2.243c0-.705.145-1.35.434-1.934a3.281 3.281 0 011.232-1.359 3.372 3.372 0 011.8-.49c1.027 0 1.822.285 2.385.854.569.563.853 1.366.853 2.408 0 .648-.158 1.306-.474 1.974-.31.664-.876 1.482-1.697 2.456l-1.477 2.108h3.909V31.5zm8.086-4.754c0 1.59-.29 2.806-.869 3.649-.574.842-1.395 1.263-2.464 1.263-1.058 0-1.876-.408-2.455-1.224-.574-.821-.872-1.995-.893-3.522v-2.171c0-1.585.287-2.796.861-3.633.574-.842 1.398-1.263 2.472-1.263 1.073 0 1.897.416 2.471 1.248.574.831.866 2.018.877 3.56v2.093zm-2.243-2.33c0-.904-.089-1.584-.268-2.036-.179-.453-.458-.68-.837-.68-.711 0-1.08.83-1.106 2.488v2.866c0 .927.09 1.616.269 2.07.184.452.468.678.852.678.364 0 .632-.21.806-.631.179-.427.274-1.077.284-1.95v-2.804zm10.518 7.084h-6.775v-1.58l3.111-3.955c.395-.548.684-1.027.869-1.438.189-.415.284-.813.284-1.192 0-.51-.089-.91-.268-1.2a.835.835 0 00-.759-.434c-.363 0-.652.168-.868.505-.211.337-.316.81-.316 1.421h-2.243c0-.705.145-1.35.435-1.934a3.279 3.279 0 011.232-1.359 3.368 3.368 0 011.8-.49c1.026 0 1.821.285 2.385.854.568.563.852 1.366.852 2.408 0 .648-.157 1.306-.473 1.974-.311.664-.877 1.482-1.698 2.456l-1.477 2.108h3.909V31.5zm8.086-4.754c0 1.59-.29 2.806-.869 3.649-.573.842-1.395 1.263-2.463 1.263-1.058 0-1.877-.408-2.456-1.224-.574-.821-.871-1.995-.892-3.522v-2.171c0-1.585.287-2.796.86-3.633.574-.842 1.398-1.263 2.472-1.263s1.898.416 2.472 1.248c.573.831.865 2.018.876 3.56v2.093zm-2.243-2.33c0-.904-.089-1.584-.268-2.036-.179-.453-.458-.68-.837-.68-.711 0-1.079.83-1.106 2.488v2.866c0 .927.09 1.616.269 2.07.184.452.468.678.853.678.363 0 .631-.21.805-.631.179-.427.274-1.077.284-1.95v-2.804z" fill="#FCB317"/><path d="M132.755 27.78l1.137-4.824h2.384l-2.811 9.823c-.421 1.448-1.213 2.172-2.376 2.172-.269 0-.574-.05-.916-.15v-1.745l.26.008c.348 0 .608-.069.782-.206.179-.131.313-.363.403-.695l.173-.576-2.463-8.63h2.4l1.027 4.824zm7.454 2.022c.647 0 .976-.42.987-1.263h2.1c-.01.932-.297 1.684-.86 2.258-.564.574-1.29.86-2.18.86-1.1 0-1.94-.341-2.519-1.026-.579-.684-.874-1.692-.884-3.024v-.679c0-1.342.284-2.366.853-3.072.574-.705 1.418-1.058 2.534-1.058.943 0 1.685.292 2.227.877.542.579.819 1.403.829 2.471h-2.1c-.005-.479-.084-.847-.237-1.105-.153-.258-.405-.387-.758-.387-.39 0-.669.14-.837.418-.168.274-.258.808-.269 1.603v.869c0 .695.035 1.182.103 1.46.069.274.182.477.34.609.158.126.381.19.671.19zm10.802 1.698h-2.234v-6.68h-1.982v6.68h-2.243v-8.544h6.459V31.5zm5.085.158c-1.147 0-2.042-.342-2.684-1.027-.643-.684-.964-1.663-.964-2.937v-.68c0-1.347.295-2.386.885-3.118.589-.732 1.434-1.098 2.535-1.098 1.073 0 1.881.345 2.424 1.035.542.684.818 1.7.829 3.048v1.097h-4.446c.032.632.171 1.095.419 1.39.247.29.629.434 1.145.434.747 0 1.371-.255 1.871-.766l.877 1.35c-.274.38-.672.688-1.193.925a4.133 4.133 0 01-1.698.347zm-1.405-5.243h2.235v-.206c-.011-.51-.095-.897-.253-1.16-.158-.264-.432-.395-.821-.395-.39 0-.674.14-.853.418-.174.28-.276.727-.308 1.343zm9.918-3.459h2.227V31.5h-2.227v-5.251l-1.99 5.251h-2.243v-8.544h2.243V28.2l1.99-5.243zm1.792-3.474c0 .7-.252 1.266-.758 1.697-.5.432-1.161.648-1.982.648-.826 0-1.492-.216-1.998-.648-.5-.431-.75-.997-.75-1.697h1.635c0 .326.097.581.292.766.2.179.474.268.821.268.342 0 .611-.09.806-.268.194-.185.292-.44.292-.766h1.642zm8.221 5.314h-2.196V31.5h-2.234v-6.704h-2.18v-1.84h6.61v1.84zm4.137 6.862c-1.147 0-2.042-.342-2.685-1.027-.642-.684-.963-1.663-.963-2.937v-.68c0-1.347.295-2.386.884-3.118.59-.732 1.435-1.098 2.535-1.098 1.074 0 1.882.345 2.424 1.035.543.684.819 1.7.83 3.048v1.097h-4.446c.031.632.171 1.095.418 1.39.248.29.629.434 1.145.434.748 0 1.372-.255 1.872-.766l.876 1.35c-.273.38-.671.688-1.192.925a4.133 4.133 0 01-1.698.347zm-1.405-5.243h2.234v-.206c-.01-.51-.094-.897-.252-1.16-.158-.264-.432-.395-.822-.395-.389 0-.673.14-.852.418-.174.28-.277.727-.308 1.343zm12.508 3.387c.647 0 .976-.42.987-1.263h2.1c-.01.932-.297 1.684-.861 2.258-.563.574-1.289.86-2.179.86-1.1 0-1.94-.341-2.519-1.026-.579-.684-.874-1.692-.884-3.024v-.679c0-1.342.284-2.366.852-3.072.574-.705 1.419-1.058 2.535-1.058.942 0 1.685.292 2.227.877.542.579.819 1.403.829 2.471h-2.1c-.006-.479-.085-.847-.237-1.105-.153-.258-.406-.387-.758-.387-.39 0-.669.14-.837.418-.169.274-.258.808-.269 1.603v.869c0 .695.034 1.182.103 1.46.068.274.181.477.339.609.158.126.382.19.672.19zm8.22 1.698v-8.544h3.103c.995 0 1.758.205 2.29.616.537.41.805 1 .805 1.769 0 .395-.115.75-.347 1.066-.226.31-.558.55-.995.718.532.11.95.335 1.256.672.31.331.466.752.466 1.263 0 1.627-1.024 2.44-3.072 2.44h-3.506zm2.227-3.538v1.698h1.334c.29 0 .492-.07.608-.213.116-.142.174-.35.174-.624 0-.316-.063-.537-.19-.663-.126-.127-.308-.192-.545-.198h-1.381zm0-1.54h.908c.3 0 .51-.063.631-.189.127-.131.19-.324.19-.576 0-.553-.258-.84-.774-.861h-.955v1.627zm8.062-.979h1.145c1.005 0 1.795.277 2.369.83.579.552.868 1.292.868 2.218 0 .906-.292 1.635-.876 2.188-.579.547-1.369.821-2.369.821h-3.372v-8.544h2.235v2.487zm7.588 6.057h-2.234v-8.544h2.234V31.5zm-7.588-4.2v2.36h1.168c.311 0 .553-.102.727-.308.174-.205.261-.49.261-.853 0-.8-.351-1.2-1.051-1.2h-1.105zm14.466-2.48h-2.772v6.68h-2.234v-8.544h5.006v1.864zm.584 2.132c0-1.295.306-2.311.916-3.048.611-.737 1.456-1.106 2.535-1.106 1.09 0 1.94.369 2.551 1.106.61.737.916 1.758.916 3.064v.544c0 1.3-.303 2.317-.908 3.048-.606.732-1.453 1.098-2.543 1.098-1.095 0-1.948-.366-2.559-1.098-.605-.737-.908-1.758-.908-3.063v-.545zm2.243.56c0 1.527.408 2.29 1.224 2.29.753 0 1.158-.637 1.216-1.91l.008-.94c0-.78-.108-1.356-.324-1.73-.216-.379-.521-.568-.916-.568-.379 0-.676.19-.892.568-.211.374-.316.95-.316 1.73v.56zm5.678 2.132c.368-.42.631-.845.789-1.271.158-.426.25-1.024.277-1.793l.063-3.624h5.567v6.688h1.129v4.422h-2.235V31.5h-3.94v2.566h-2.29v-4.422h.64zm2.479 0h1.99V24.86h-1.137l-.008.845c-.016 1.632-.298 2.945-.845 3.94zm6.23-2.692c0-1.295.306-2.311.916-3.048.611-.737 1.456-1.106 2.535-1.106 1.09 0 1.94.369 2.551 1.106.61.737.916 1.758.916 3.064v.544c0 1.3-.303 2.317-.909 3.048-.605.732-1.452 1.098-2.542 1.098-1.095 0-1.948-.366-2.559-1.098-.605-.737-.908-1.758-.908-3.063v-.545zm2.243.56c0 1.527.408 2.29 1.224 2.29.753 0 1.158-.637 1.216-1.91l.008-.94c0-.78-.108-1.356-.324-1.73-.216-.379-.521-.568-.916-.568-.379 0-.676.19-.892.568-.211.374-.316.95-.316 1.73v.56zm10.297-4.556h2.227V31.5h-2.227v-5.251l-1.99 5.251h-2.243v-8.544h2.243V28.2l1.99-5.243zm1.792-3.474c0 .7-.252 1.266-.758 1.697-.5.432-1.161.648-1.982.648-.826 0-1.492-.216-1.998-.648-.5-.431-.75-.997-.75-1.697h1.635c0 .326.097.581.292.766.2.179.474.268.821.268.342 0 .611-.09.806-.268.194-.185.292-.44.292-.766h1.642zM24.116 50.802c.647 0 .976-.42.987-1.263h2.1c-.01.932-.297 1.684-.86 2.258-.564.574-1.29.86-2.18.86-1.1 0-1.94-.341-2.519-1.026-.579-.684-.874-1.692-.884-3.024v-.679c0-1.342.284-2.366.852-3.072.574-.705 1.42-1.058 2.535-1.058.943 0 1.685.292 2.227.877.542.579.819 1.403.83 2.471h-2.101c-.006-.479-.085-.847-.237-1.105-.153-.258-.405-.387-.758-.387-.39 0-.669.14-.837.418-.169.274-.258.808-.269 1.603v.869c0 .695.035 1.182.103 1.46.068.275.182.477.34.609.157.126.381.19.67.19zM34.918 52.5h-2.235v-6.68h-1.982v6.68H28.46v-8.544h6.459V52.5zm8.291-4.004c0 1.343-.231 2.372-.695 3.088-.458.716-1.142 1.074-2.053 1.074-.695 0-1.253-.282-1.674-.845v3.972h-2.234V43.956h2.068l.08.782c.426-.627 1.008-.94 1.745-.94.91 0 1.595.332 2.053.995.463.663.7 1.68.71 3.048v.655zm-2.227-.56c0-.827-.092-1.411-.276-1.753-.179-.342-.484-.513-.916-.513-.458 0-.792.192-1.003.576v4.003c.2.369.54.553 1.019.553.442 0 .747-.187.916-.56.174-.374.26-.956.26-1.745v-.561zm3.317.016c0-1.295.305-2.311.916-3.048.61-.737 1.455-1.106 2.535-1.106 1.09 0 1.94.369 2.55 1.106.61.737.916 1.758.916 3.063v.545c0 1.3-.303 2.317-.908 3.048-.605.732-1.453 1.098-2.542 1.098-1.096 0-1.948-.366-2.559-1.098-.605-.737-.908-1.758-.908-3.064v-.544zm2.242.56c0 1.527.409 2.29 1.225 2.29.752 0 1.158-.637 1.215-1.91l.008-.94c0-.78-.107-1.356-.323-1.73-.216-.379-.521-.568-.916-.568-.38 0-.677.19-.893.568-.21.374-.316.95-.316 1.73v.56zm9.524 4.146c-1.148 0-2.043-.342-2.685-1.027-.642-.684-.964-1.663-.964-2.937v-.68c0-1.347.295-2.387.885-3.118.59-.732 1.434-1.098 2.535-1.098 1.074 0 1.882.345 2.424 1.035.542.684.818 1.7.829 3.048v1.097h-4.446c.032.632.171 1.095.419 1.39.247.29.629.434 1.145.434.747 0 1.371-.255 1.871-.766l.877 1.35c-.274.38-.672.688-1.193.924a4.132 4.132 0 01-1.697.348zm-1.406-5.243h2.235v-.206c-.01-.51-.095-.897-.253-1.16-.158-.264-.432-.395-.821-.395-.39 0-.674.14-.853.418-.174.28-.276.727-.308 1.343zm8.662 1.95h-.584V52.5H60.51v-8.544h2.227v3.206h.553l1.295-3.206h2.803l-2.25 3.94 2.424 4.604H64.6l-1.28-3.135zm11.332-3.57h-2.195V52.5h-2.235v-6.704h-2.18v-1.84h6.61v1.84zm5.417-1.839h2.227V52.5H80.07v-5.251L78.08 52.5h-2.243v-8.544h2.243V49.2l1.99-5.243zm10.518 4.54c0 1.343-.232 2.372-.695 3.088-.458.716-1.142 1.074-2.053 1.074-.695 0-1.253-.282-1.674-.845v3.972H83.93V43.956H86l.079.782c.426-.627 1.008-.94 1.745-.94.91 0 1.595.332 2.053.995.463.663.7 1.68.71 3.048v.655zm-2.227-.56c0-.827-.092-1.411-.276-1.753-.18-.342-.485-.513-.916-.513-.458 0-.793.192-1.003.576v4.003c.2.369.54.553 1.018.553.443 0 .748-.187.916-.56.174-.374.261-.956.261-1.745v-.561zm3.316.016c0-1.295.306-2.311.916-3.048.611-.737 1.456-1.106 2.535-1.106 1.09 0 1.94.369 2.55 1.106.611.737.917 1.758.917 3.063v.545c0 1.3-.303 2.317-.908 3.048-.606.732-1.453 1.098-2.543 1.098-1.095 0-1.948-.366-2.558-1.098-.606-.737-.909-1.758-.909-3.064v-.544zm2.243.56c0 1.527.408 2.29 1.224 2.29.753 0 1.158-.637 1.216-1.91l.008-.94c0-.78-.108-1.356-.324-1.73-.216-.379-.521-.568-.916-.568-.379 0-.676.19-.892.568-.21.374-.316.95-.316 1.73v.56zm6.215 3.988v-8.544h3.103c.995 0 1.758.205 2.29.616.537.41.805 1 .805 1.769 0 .395-.116.75-.347 1.066-.227.31-.558.55-.995.718.532.11.95.335 1.255.672.311.331.466.752.466 1.263 0 1.627-1.024 2.44-3.071 2.44h-3.506zm2.226-3.538v1.698h1.335c.289 0 .492-.07.608-.213.116-.142.174-.35.174-.624 0-.316-.064-.537-.19-.663-.126-.127-.308-.192-.545-.198h-1.382zm0-1.54h.908c.3 0 .511-.063.632-.189.126-.131.19-.324.19-.576 0-.553-.258-.84-.774-.861h-.956v1.627zm9.745 5.078c-.064-.132-.127-.353-.19-.663-.4.547-.942.82-1.627.82-.716 0-1.31-.236-1.784-.71-.469-.474-.703-1.087-.703-1.84 0-.895.284-1.587.853-2.076.574-.49 1.397-.74 2.471-.75h.679v-.688c0-.384-.065-.655-.197-.813-.132-.158-.324-.237-.576-.237-.558 0-.837.327-.837.98h-2.235c0-.79.295-1.44.884-1.951.595-.516 1.345-.774 2.251-.774.937 0 1.661.245 2.171.734.516.485.774 1.18.774 2.085v4.02c.011.736.116 1.313.316 1.729v.134h-2.25zm-1.319-1.595c.247 0 .458-.05.632-.15.173-.1.302-.219.386-.355v-1.777h-.536c-.38 0-.68.12-.901.363-.216.242-.323.566-.323.971 0 .632.247.948.742.948zm10.897-5.11h-2.195V52.5h-2.235v-6.704h-2.179v-1.84h6.609v1.84zm3.569.648h1.145c1.006 0 1.795.277 2.369.83.579.552.869 1.292.869 2.218 0 .906-.293 1.635-.877 2.188-.579.547-1.369.821-2.369.821h-3.372v-8.544h2.235v2.487zm0 1.856v2.361h1.169c.31 0 .552-.102.726-.308.174-.205.261-.49.261-.853 0-.8-.35-1.2-1.05-1.2h-1.106zm9.499 2.345c.369-.42.632-.845.79-1.271.158-.426.25-1.024.276-1.792l.064-3.625h5.567v6.688h1.129v4.422h-2.235V52.5h-3.94v2.566h-2.29v-4.422h.639zm2.48 0h1.99V45.86h-1.137l-.008.845c-.016 1.632-.298 2.945-.845 3.94zm6.23-2.692c0-1.295.306-2.311.916-3.048.611-.737 1.456-1.106 2.535-1.106 1.09 0 1.94.369 2.551 1.106.61.737.915 1.758.915 3.063v.545c0 1.3-.302 2.317-.908 3.048-.605.732-1.453 1.098-2.542 1.098-1.095 0-1.948-.366-2.559-1.098-.605-.737-.908-1.758-.908-3.064v-.544zm2.243.56c0 1.527.408 2.29 1.224 2.29.753 0 1.158-.637 1.216-1.91l.008-.94c0-.78-.108-1.356-.324-1.73-.216-.379-.521-.568-.916-.568-.379 0-.677.19-.892.568-.211.374-.316.95-.316 1.73v.56zm10.549 1.272l1.603-5.828h2.804V52.5h-2.235v-4.572l-1.421 4.572h-1.493l-1.366-4.422V52.5h-2.227v-8.544h2.756l1.579 5.828zm10.132 2.716v-8.544h3.103c.995 0 1.758.205 2.29.616.537.41.805 1 .805 1.769 0 .395-.116.75-.347 1.066-.227.31-.558.55-.995.718.532.11.95.335 1.255.672.311.331.466.752.466 1.263 0 1.627-1.024 2.44-3.071 2.44h-3.506zm2.226-3.538v1.698h1.335c.289 0 .492-.07.608-.213.116-.142.174-.35.174-.624 0-.316-.064-.537-.19-.663-.126-.127-.308-.192-.545-.198h-1.382zm0-1.54h.908c.3 0 .511-.063.632-.189.126-.131.19-.324.19-.576 0-.553-.258-.84-.774-.861h-.956v1.627zm9.745 5.078c-.064-.132-.127-.353-.19-.663-.4.547-.942.82-1.627.82-.716 0-1.31-.236-1.784-.71-.469-.474-.703-1.087-.703-1.84 0-.895.284-1.587.853-2.076.574-.49 1.397-.74 2.471-.75h.679v-.688c0-.384-.065-.655-.197-.813-.132-.158-.324-.237-.576-.237-.558 0-.837.327-.837.98h-2.235c0-.79.295-1.44.884-1.951.595-.516 1.345-.774 2.251-.774.937 0 1.661.245 2.171.734.516.485.774 1.18.774 2.085v4.02c.011.736.116 1.313.316 1.729v.134h-2.25zm-1.319-1.595c.247 0 .458-.05.632-.15.173-.1.302-.219.386-.355v-1.777h-.537c-.379 0-.679.12-.9.363-.216.242-.323.566-.323.971 0 .632.247.948.742.948zm7.107-6.949v6.688h1.603v-6.688h2.242v6.688h1.619v-6.688h2.235V52.5h-9.942v-8.544h2.243zm12.902 8.702c-1.147 0-2.042-.342-2.684-1.027-.643-.684-.964-1.663-.964-2.937v-.68c0-1.347.295-2.387.885-3.118.589-.732 1.434-1.098 2.534-1.098 1.074 0 1.882.345 2.425 1.035.542.684.818 1.7.829 3.048v1.097h-4.446c.032.632.171 1.095.419 1.39.247.29.629.434 1.144.434.748 0 1.372-.255 1.872-.766l.876 1.35c-.273.38-.671.688-1.192.924a4.133 4.133 0 01-1.698.348zm-1.405-5.243h2.234v-.206c-.01-.51-.094-.897-.252-1.16-.158-.264-.432-.395-.821-.395-.39 0-.674.14-.853.418-.174.28-.277.727-.308 1.343zm9.918-3.459h2.226V52.5h-2.226v-5.251l-1.99 5.251h-2.243v-8.544h2.243V49.2l1.99-5.243zm1.792-3.474c0 .7-.253 1.266-.758 1.697-.5.432-1.161.648-1.982.648-.826 0-1.492-.216-1.998-.648-.5-.431-.75-.997-.75-1.697h1.635c0 .326.097.581.292.766.2.179.474.268.821.268.342 0 .611-.09.806-.268.194-.185.292-.44.292-.766h1.642zm10.273 9.302l1.603-5.828h2.804V52.5h-2.235v-4.572l-1.421 4.572h-1.493l-1.366-4.422V52.5h-2.227v-8.544h2.756l1.579 5.828zm9.713 2.874c-1.148 0-2.043-.342-2.685-1.027-.642-.684-.963-1.663-.963-2.937v-.68c0-1.347.295-2.387.884-3.118.59-.732 1.435-1.098 2.535-1.098 1.074 0 1.882.345 2.424 1.035.542.684.819 1.7.829 3.048v1.097h-4.445c.031.632.171 1.095.418 1.39.248.29.629.434 1.145.434.748 0 1.372-.255 1.872-.766l.876 1.35c-.274.38-.671.688-1.192.924a4.133 4.133 0 01-1.698.348zm-1.406-5.243h2.235v-.206c-.01-.51-.095-.897-.253-1.16-.157-.264-.431-.395-.821-.395-.389 0-.674.14-.853.418-.173.28-.276.727-.308 1.343zm12.003 5.085h-2.243v-2.637a3.9 3.9 0 01-.766.079c-1.126 0-1.979-.28-2.558-.837-.574-.564-.861-1.377-.861-2.44v-2.709h2.243v2.716c0 .522.084.888.253 1.098.173.21.481.316.923.316.232 0 .487-.03.766-.087v-4.043h2.243V52.5zm7.77-6.704h-2.195V52.5h-2.235v-6.704h-2.179v-1.84h6.609v1.84zm3.569.647h1.145c1.006 0 1.795.277 2.369.83.579.552.869 1.292.869 2.218 0 .906-.292 1.635-.877 2.188-.579.547-1.368.821-2.369.821h-3.371v-8.544h2.234v2.487zm7.589 6.057h-2.235v-8.544h2.235V52.5zm-7.589-4.2v2.36h1.169c.311 0 .553-.102.726-.308.174-.205.261-.49.261-.853 0-.8-.35-1.2-1.05-1.2h-1.106z" fill="#fff"/><path d="M19.275 95.059l2.193-22.54H42.94v7.372H28.534l-.792 9.503c1.665-1.117 3.381-1.675 5.148-1.675 3.655 0 6.467 1.3 8.437 3.898 1.99 2.6 2.985 6.275 2.985 11.026 0 4.447-1.178 8.031-3.533 10.752-2.356 2.721-5.503 4.081-9.443 4.081-2.335 0-4.497-.548-6.487-1.644a12.451 12.451 0 01-4.721-4.63c-1.137-1.97-1.716-4.203-1.736-6.701h8.528c.142 1.848.599 3.279 1.37 4.295.772 1.015 1.767 1.523 2.986 1.523 1.42 0 2.517-.681 3.289-2.041.772-1.381 1.157-3.432 1.157-6.153 0-2.558-.467-4.487-1.4-5.787-.914-1.3-2.204-1.95-3.869-1.95-1.624 0-2.883.56-3.777 1.676l-.548.762-6.853-1.767zm56.44 3.472c0 6.133-1.118 10.823-3.351 14.072-2.213 3.249-5.381 4.873-9.503 4.873-4.082 0-7.24-1.573-9.473-4.721-2.213-3.167-3.36-7.696-3.441-13.584v-8.376c0-6.112 1.106-10.782 3.32-14.011 2.213-3.249 5.39-4.873 9.533-4.873 4.142 0 7.32 1.604 9.533 4.812 2.214 3.208 3.34 7.787 3.381 13.737v8.071zm-8.65-8.985c0-3.493-.346-6.112-1.037-7.858-.69-1.747-1.766-2.62-3.228-2.62-2.741 0-4.163 3.198-4.264 9.595v11.056c0 3.574.345 6.234 1.035 7.98.711 1.746 1.808 2.62 3.29 2.62 1.401 0 2.437-.813 3.107-2.437.69-1.645 1.055-4.153 1.096-7.523V89.546zm14.497-8.498c0-2.7.742-4.904 2.224-6.61 1.502-1.705 3.523-2.558 6.061-2.558s4.559.843 6.061 2.528c1.523 1.665 2.285 3.92 2.285 6.762v2.223c0 2.742-.752 4.945-2.254 6.61-1.503 1.665-3.513 2.498-6.031 2.498-2.498 0-4.518-.833-6.061-2.498-1.523-1.665-2.285-3.93-2.285-6.792v-2.163zm5.605 2.345c0 1.219.254 2.193.761 2.924.528.711 1.188 1.067 1.98 1.067.812 0 1.452-.376 1.919-1.127.487-.752.73-1.737.73-2.955v-2.254c0-1.178-.243-2.142-.73-2.893-.487-.772-1.147-1.158-1.98-1.158-.812 0-1.462.386-1.95 1.158-.487.75-.73 1.746-.73 2.984v2.254zm11.879 22.601c0-2.742.76-4.945 2.284-6.61 1.523-1.685 3.533-2.528 6.031-2.528 2.517 0 4.538.833 6.061 2.498 1.523 1.644 2.284 3.908 2.284 6.792v2.223c0 2.721-.741 4.924-2.223 6.61-1.483 1.665-3.503 2.497-6.061 2.497-2.579 0-4.62-.842-6.123-2.528-1.502-1.685-2.254-3.919-2.254-6.701v-2.253zm5.634 2.375c0 1.137.264 2.092.792 2.863.548.772 1.198 1.158 1.95 1.158 1.685 0 2.568-1.208 2.649-3.625v-2.771c0-1.198-.253-2.163-.761-2.894-.487-.751-1.137-1.127-1.949-1.127-1.787 0-2.681 1.553-2.681 4.66v1.736zm-13.219 5.178l-4.081-2.315 18.184-34.661 4.111 2.315-18.214 34.661zm50.227-29.042h-4.75l-.923 3.53h-3.684l5.389-17.246h3.186l5.425 17.246h-3.719l-.924-3.53zm-3.991-2.901h3.221l-1.611-6.148-1.61 6.147zm15.279-.605h-1.516v7.036h-3.482V70.79h3.482v6.894h1.173l2.996-6.894h4.241l-4.217 8.031 4.69 9.215h-4.145L152.976 81zm8.54-10.21h3.482v14.356h5.105V70.79h3.495v14.368h2.12l-.237 7.036h-3.246v-4.158h-10.719V70.79zm24.779 0h3.482v17.246h-3.482V76.617l-5.081 11.418h-3.494V70.79h3.494v11.43l5.081-11.43zm12.698 17.246V81.83h-1.825l-2.546 6.206h-3.755l3.056-7.462c-1.421-.987-2.132-2.471-2.132-4.453 0-1.706.478-3.02 1.433-3.945.964-.924 2.326-1.386 4.087-1.386h5.176v17.246h-3.494zm-3.708-11.643c0 .955.17 1.65.509 2.085.34.426.869.64 1.588.64h1.611V73.69h-1.73c-1.319 0-1.978.9-1.978 2.7zm27.61 11.643h-3.471v-7.38h-5.14v7.38h-3.482V70.79h3.482v6.977h5.14V70.79h3.471v17.246zm11.252-3.53h-4.749l-.924 3.53h-3.684l5.389-17.246h3.187l5.424 17.246h-3.719l-.924-3.53zm-3.991-2.901h3.221l-1.61-6.148-1.611 6.147zm-84.595 33.431h-3.482v-14.344h-5.117v14.344h-3.482V97.789h12.081v17.246zm6.302-6.064v6.064h-3.483V97.789h5.875c1.706 0 3.064.53 4.075 1.587 1.019 1.059 1.528 2.433 1.528 4.122 0 1.69-.502 3.025-1.504 4.004-1.003.979-2.393 1.469-4.17 1.469h-2.321zm0-2.902h2.392c.664 0 1.177-.217 1.54-.652.363-.434.545-1.066.545-1.895 0-.861-.186-1.544-.557-2.049-.371-.513-.868-.774-1.492-.782h-2.428v5.378zm22.469 1.895c0 2.314-.549 4.11-1.646 5.389-1.09 1.279-2.606 1.919-4.549 1.919-1.934 0-3.454-.632-4.56-1.895-1.105-1.271-1.666-3.048-1.682-5.33v-2.949c0-2.369.549-4.217 1.647-5.544 1.097-1.334 2.621-2.002 4.572-2.002 1.918 0 3.431.656 4.536 1.967 1.106 1.303 1.666 3.135 1.682 5.496v2.949zm-3.494-2.89c0-1.556-.221-2.713-.663-3.471-.443-.758-1.13-1.137-2.061-1.137-.924 0-1.607.367-2.05 1.102-.442.726-.671 1.836-.687 3.328v3.068c0 1.508.225 2.622.676 3.34.45.711 1.145 1.066 2.084 1.066.908 0 1.583-.347 2.026-1.042.442-.703.667-1.789.675-3.257v-2.997zm14.9 2.499h-5.424v4.572h6.419v2.89h-9.902V97.789h9.879v2.902h-6.396v4.075h5.424v2.807zm8.031.426h-1.516v7.036h-3.482V97.789h3.482v6.894h1.173l2.996-6.894h4.241l-4.217 8.031 4.69 9.215h-4.145l-3.222-7.036zm19.84-7.308h-4.264v14.344h-3.494v-14.344h-4.193v-2.902h11.951v2.902zm10.447-2.902h3.482v17.246h-3.482v-11.418l-5.082 11.418h-3.494V97.789h3.494v11.43l5.082-11.43zm9.748 11.182v6.064h-3.482V97.789h5.874c1.706 0 3.064.53 4.075 1.587 1.019 1.059 1.528 2.433 1.528 4.122 0 1.69-.501 3.025-1.504 4.004-1.003.979-2.393 1.469-4.17 1.469h-2.321zm0-2.902h2.392c.664 0 1.177-.217 1.54-.652.364-.434.545-1.066.545-1.895 0-.861-.185-1.544-.557-2.049-.371-.513-.868-.774-1.492-.782h-2.428v5.378zm22.469 1.895c0 2.314-.549 4.11-1.646 5.389-1.09 1.279-2.606 1.919-4.549 1.919-1.934 0-3.454-.632-4.56-1.895-1.105-1.271-1.666-3.048-1.682-5.33v-2.949c0-2.369.549-4.217 1.647-5.544 1.097-1.334 2.621-2.002 4.572-2.002 1.919 0 3.431.656 4.536 1.967 1.106 1.303 1.666 3.135 1.682 5.496v2.949zm-3.494-2.89c0-1.556-.221-2.713-.663-3.471-.443-.758-1.13-1.137-2.061-1.137-.924 0-1.607.367-2.049 1.102-.443.726-.672 1.836-.687 3.328v3.068c0 1.508.225 2.622.675 3.34.45.711 1.145 1.066 2.084 1.066.908 0 1.584-.347 2.026-1.042.442-.703.667-1.789.675-3.257v-2.997zm5.993 9.961V97.789h5.33c1.801 0 3.167.403 4.099 1.209.939.797 1.409 1.97 1.409 3.517 0 .877-.193 1.631-.58 2.263a3.435 3.435 0 01-1.587 1.386c.773.221 1.37.667 1.788 1.338.419.663.628 1.484.628 2.464 0 1.674-.462 2.937-1.386 3.79-.916.853-2.246 1.279-3.992 1.279h-5.709zm3.483-7.497v4.607h2.226c.624 0 1.098-.193 1.422-.58.324-.387.485-.936.485-1.647 0-1.547-.56-2.341-1.681-2.38h-2.452zm0-2.535h1.812c1.366 0 2.049-.707 2.049-2.12 0-.782-.158-1.343-.474-1.682-.316-.34-.829-.51-1.54-.51h-1.847v4.312zm18.371 6.502h-4.75l-.924 3.53h-3.684l5.39-17.246h3.186l5.425 17.246h-3.719l-.924-3.53zm-3.992-2.901h3.222l-1.611-6.148-1.611 6.148zm22.351 6.431h-3.471v-7.379h-5.14v7.379h-3.482V97.789h3.482v6.977h5.14v-6.977h3.471v17.246zm11.252-17.246h3.483v17.246h-3.483v-11.418l-5.081 11.418h-3.494V97.789h3.494v11.43l5.081-11.43zm15.173 9.784h-5.425v4.572h6.42v2.89h-9.902V97.789h9.879v2.902h-6.397v4.075h5.425v2.807zM20.215 172.5c0-.744.603-1.348 1.348-1.348h93.662c.744 0 1.347.604 1.347 1.348v33.691c0 .745-.603 1.348-1.347 1.348H21.563a1.348 1.348 0 01-1.348-1.348V172.5z" fill="#FCB317"/><path d="M46.731 187.599c0-.281-.079-.506-.237-.674-.154-.169-.365-.253-.632-.253a.75.75 0 00-.579.247c-.147.162-.22.378-.22.648h-1.548c0-.425.101-.802.305-1.132.207-.333.491-.591.853-.774a2.608 2.608 0 011.19-.273c.761 0 1.354.191 1.779.573.428.379.642.915.642 1.606 0 .351-.09.672-.268.963a1.9 1.9 0 01-.727.685c.351.147.621.372.81.673.19.299.285.671.285 1.117 0 .691-.23 1.238-.69 1.642-.46.404-1.07.605-1.832.605-.463 0-.882-.089-1.258-.268a2.067 2.067 0 01-.874-.769c-.207-.333-.31-.73-.31-1.189h1.553c0 .263.082.487.247.673a.818.818 0 00.642.279c.295 0 .53-.093.706-.279.175-.186.263-.426.263-.721 0-.396-.075-.681-.226-.853-.151-.172-.37-.258-.658-.258h-.785v-1.247h.79c.52-.004.779-.344.779-1.021zm6.77 3.985H51.39l-.41 1.568h-1.638l2.395-7.664h1.416l2.412 7.664H53.91l-.41-1.568zm-1.774-1.29h1.432l-.716-2.732-.716 2.732zm7.128-.269h-.674v3.127h-1.548v-7.664h1.548v3.063h.521l1.332-3.063h1.885l-1.875 3.569 2.085 4.095h-1.842l-1.432-3.127zm7.849 1.559h-2.111l-.41 1.568h-1.638l2.395-7.664h1.416l2.411 7.664h-1.653l-.41-1.568zm-1.774-1.29h1.431l-.715-2.732-.716 2.732zm7.964-2.695c0-.281-.078-.506-.236-.674-.155-.169-.365-.253-.632-.253a.75.75 0 00-.58.247c-.147.162-.22.378-.22.648h-1.548c0-.425.102-.802.305-1.132.207-.333.492-.591.853-.774a2.608 2.608 0 011.19-.273c.761 0 1.355.191 1.78.573.427.379.642.915.642 1.606 0 .351-.09.672-.269.963a1.9 1.9 0 01-.727.685c.352.147.622.372.811.673.19.299.284.671.284 1.117 0 .691-.23 1.238-.69 1.642-.459.404-1.07.605-1.831.605-.463 0-.883-.089-1.258-.268a2.066 2.066 0 01-.874-.769c-.207-.333-.31-.73-.31-1.189h1.552c0 .263.083.487.248.673a.818.818 0 00.642.279c.295 0 .53-.093.705-.279.176-.186.264-.426.264-.721 0-.396-.076-.681-.227-.853-.15-.172-.37-.258-.658-.258h-.784v-1.247h.79c.519-.004.778-.344.778-1.021zm6.77 3.985h-2.11l-.411 1.568h-1.637l2.395-7.664h1.416l2.411 7.664h-1.653l-.41-1.568zm-1.774-1.29h1.432l-.716-2.732-.716 2.732zm9.229-3.517h-1.895v6.375H83.67v-6.375h-1.864v-1.289h5.312v1.289zm2.858 1.464h.916c.776 0 1.393.221 1.853.663.46.439.69 1.027.69 1.764 0 .733-.225 1.328-.674 1.784-.45.453-1.044.686-1.785.7h-2.553v-7.664h1.553v2.753zm0 1.284v2.343h.937a.844.844 0 00.71-.337c.176-.228.264-.519.264-.874 0-.333-.086-.604-.258-.811-.168-.21-.403-.317-.705-.321h-.948zM24.278 145.28h1.338c.86 0 1.524-.265 1.99-.794.466-.529.699-1.251.699-2.167 0-2.022-.782-3.033-2.346-3.033-.75 0-1.338.273-1.764.818-.427.545-.64 1.259-.64 2.144H21.47c0-1.382.419-2.519 1.256-3.412.845-.9 1.923-1.35 3.233-1.35 1.359 0 2.436.426 3.234 1.279.798.845 1.196 2.045 1.196 3.601 0 .798-.209 1.544-.627 2.239-.411.687-.948 1.192-1.611 1.516 1.626.6 2.44 1.946 2.44 4.039 0 1.54-.43 2.768-1.291 3.684-.853.908-1.97 1.362-3.352 1.362-1.366 0-2.472-.431-3.317-1.291-.837-.869-1.255-2.034-1.255-3.495h2.096c0 .916.221 1.647.663 2.192.443.537 1.047.805 1.813.805.781 0 1.401-.264 1.86-.793.465-.53.698-1.335.698-2.417 0-2.092-.99-3.139-2.973-3.139h-1.255v-1.788zm18.525 2.333c0 2.543-.372 4.446-1.114 5.709-.742 1.256-1.907 1.884-3.494 1.884-1.54 0-2.689-.604-3.447-1.813-.758-1.208-1.153-3.024-1.184-5.448v-2.961c0-2.519.37-4.399 1.113-5.638.75-1.24 1.915-1.86 3.494-1.86 1.556 0 2.705.588 3.447 1.765.75 1.176 1.145 2.957 1.185 5.342v3.02zm-2.097-2.996c0-1.825-.201-3.167-.604-4.028-.403-.868-1.046-1.303-1.93-1.303-.861 0-1.493.427-1.896 1.28-.403.845-.612 2.124-.628 3.837v3.554c0 1.816.21 3.182.628 4.098.419.908 1.058 1.362 1.919 1.362.853 0 1.48-.43 1.883-1.291s.612-2.175.628-3.944v-3.565zm14.083 2.996c0 2.543-.37 4.446-1.113 5.709-.742 1.256-1.907 1.884-3.494 1.884-1.54 0-2.689-.604-3.447-1.813-.758-1.208-1.153-3.024-1.184-5.448v-2.961c0-2.519.37-4.399 1.113-5.638.75-1.24 1.915-1.86 3.494-1.86 1.556 0 2.705.588 3.447 1.765.75 1.176 1.145 2.957 1.184 5.342v3.02zm-2.096-2.996c0-1.825-.201-3.167-.604-4.028-.403-.868-1.047-1.303-1.93-1.303-.862 0-1.493.427-1.896 1.28-.403.845-.612 2.124-.628 3.837v3.554c0 1.816.21 3.182.628 4.098.418.908 1.058 1.362 1.919 1.362.853 0 1.48-.43 1.883-1.291s.612-2.175.628-3.944v-3.565zm17.02 7.094h-3.21v3.258h-2.155v-3.258h-2.073v-1.871h2.073v-1.623h-2.073v-1.859h2.073v-8.635h5.496c1.58 0 2.827.474 3.743 1.421.924.948 1.386 2.215 1.386 3.802 0 1.659-.439 2.95-1.315 3.874-.877.916-2.12 1.382-3.731 1.397h-3.423v1.623h3.21v1.871zm-3.21-5.353h3.34c.972 0 1.706-.292 2.204-.877.505-.584.758-1.421.758-2.511 0-.987-.257-1.792-.77-2.416-.513-.624-1.22-.944-2.12-.96h-3.411v6.764zm11.55 10.091h-1.778l6.053-18.726h1.765l-6.04 18.726zm14.71-4.382l3.435-9.914h2.606v12.816h-2.085v-8.836l-3.233 8.836h-1.433l-3.305-9.05v9.05h-2.085v-12.816h2.7l3.4 9.914zm14.924-4.999h-6.064v-1.279l3.032-3.411c.648-.766.972-1.418.972-1.954 0-.387-.095-.699-.285-.936-.189-.245-.462-.367-.817-.367-.458 0-.794.15-1.007.45-.205.3-.308.675-.308 1.125h-1.765c0-.9.281-1.642.841-2.227.569-.584 1.299-.876 2.192-.876.916 0 1.63.252 2.143.758.514.497.77 1.18.77 2.049 0 .845-.383 1.709-1.149 2.594l-2.38 2.558h3.825v1.516z" fill="#fff"/><path d="M20.215 148.904h88.373v1.208H20.215v-1.208zm118.338 6.065h-3.364v-13.171l-3.281 1.267v-2.795l6.29-2.571h.355v17.27zm5.236-8.481l.852-8.765h8.351v2.866h-5.603l-.308 3.696c.648-.434 1.315-.652 2.002-.652 1.422 0 2.515.506 3.281 1.517.774 1.01 1.161 2.44 1.161 4.287 0 1.73-.458 3.123-1.374 4.181-.916 1.059-2.14 1.588-3.672 1.588a5.148 5.148 0 01-2.523-.64 4.837 4.837 0 01-1.836-1.8c-.442-.766-.667-1.635-.675-2.606h3.317c.055.718.233 1.275.533 1.67.3.395.687.592 1.16.592.553 0 .98-.264 1.28-.793.3-.537.45-1.335.45-2.393 0-.995-.182-1.745-.545-2.251-.355-.505-.857-.758-1.504-.758-.632 0-1.122.218-1.469.652l-.213.296-2.665-.687zm21.948 1.35c0 2.385-.435 4.209-1.303 5.473-.861 1.263-2.093 1.895-3.696 1.895-1.587 0-2.815-.612-3.683-1.836-.861-1.232-1.307-2.993-1.339-5.283v-3.257c0-2.377.431-4.193 1.291-5.449.861-1.263 2.097-1.895 3.708-1.895 1.61 0 2.846.624 3.707 1.872.861 1.247 1.299 3.028 1.315 5.341v3.139zm-3.364-3.494c0-1.358-.134-2.377-.403-3.056-.268-.679-.687-1.018-1.255-1.018-1.066 0-1.619 1.243-1.659 3.731v4.299c0 1.39.135 2.424.403 3.104.276.679.703 1.018 1.279 1.018.545 0 .948-.316 1.208-.947.269-.64.411-1.615.427-2.926v-4.205zm19.354 8.339h-2.997v2.286h-3.482v-2.286h-2.014v-2.89h2.014v-.889h-2.014v-2.902h2.014v-8.279h5.851c1.706 0 3.068.525 4.087 1.575 1.026 1.051 1.539 2.413 1.539 4.087 0 1.69-.501 3.032-1.504 4.027-1.003.995-2.4 1.492-4.193 1.492h-2.298v.889h2.997v2.89zm-2.997-6.681h2.286c1.453 0 2.18-.864 2.18-2.594 0-.813-.186-1.476-.557-1.99-.371-.521-.88-.781-1.528-.781h-2.381v5.365zm11.371 10.447h-2.452l5.176-18.726h2.452l-5.176 18.726zm13.527-5.555l2.404-8.741h4.205v12.816h-3.352v-6.858l-2.132 6.858h-2.239l-2.049-6.633v6.633h-3.34v-12.816h4.134l2.369 8.741zm15.386-3.826h-6.313v-1.634l2.842-3.044c.34-.387.585-.746.735-1.078.15-.332.225-.588.225-.77 0-.663-.253-.995-.758-.995-.269 0-.482.122-.64.367-.15.237-.225.549-.225.936h-2.357c0-.932.292-1.706.877-2.322.584-.623 1.33-.935 2.238-.935 1.035 0 1.824.256 2.369.77.553.505.829 1.227.829 2.167a3.16 3.16 0 01-.426 1.635c-.277.473-.881 1.121-1.812 1.942l-.818 1.007h3.234v1.954z" fill="#fff"/></svg>