<svg width="465" height="254" viewBox="0 0 465 254" fill="none" xmlns="http://www.w3.org/2000/svg"><path opacity=".75" fill="#000" d="M0 0h465v254H0z"/><path d="M49.004 56h-5.15V45.049h-7.63V56h-5.167V30.406h5.168V40.76h7.628V30.406h5.15V56zm16.7-5.238h-7.05L57.284 56h-5.468l7.998-25.594h4.729L72.593 56h-5.519l-1.37-5.238zm-5.925-4.307h4.782l-2.391-9.123-2.39 9.123zm32.098-16.049V56h-5.168v-9.65c-1.371.304-2.66.457-3.867.457-2.79 0-4.916-.704-6.381-2.11-1.465-1.406-2.227-3.433-2.285-6.082v-8.209h5.185v7.928c0 1.5.252 2.572.756 3.217.516.644 1.424.967 2.725.967 1.254 0 2.543-.153 3.867-.458V30.406h5.168zm17.367 14.52h-8.051v6.785h9.528V56H96.025V30.406h14.661v4.307h-9.493v6.047h8.051v4.166zM118.877 47v9h-5.168V30.406h8.719c2.531 0 4.547.785 6.047 2.356 1.511 1.57 2.267 3.61 2.267 6.117 0 2.508-.744 4.488-2.232 5.941-1.489 1.453-3.551 2.18-6.188 2.18h-3.445zm0-4.307h3.551c.984 0 1.746-.322 2.285-.966.539-.645.808-1.582.808-2.813 0-1.277-.275-2.291-.826-3.041-.55-.762-1.289-1.148-2.215-1.16h-3.603v7.98zm31.904-7.98h-6.328V56h-5.185V34.713h-6.223v-4.307h17.736v4.307zm15.504-4.307h5.168V56h-5.168V39.055L158.744 56h-5.185V30.406h5.185V47.37l7.541-16.963zm16.049 0l4.834 18.51 4.816-18.51h6.75V56h-5.185v-6.926l.474-10.67L188.908 56h-3.515l-5.116-17.596.475 10.67V56h-5.168V30.406h6.75zm49.359 31.887h-4.746V56h-12.111v6.275h-4.887l-.281-10.564h1.705c.75-.691 1.342-1.805 1.775-3.34.434-1.535.739-3.545.914-6.03l.721-11.935h14.713v21.305h2.654l-.457 10.582zm-14.765-10.582h7.418V34.713h-4.641l-.422 7.049c-.293 4.23-1.078 7.547-2.355 9.949zm35.49-6.205c0 3.434-.814 6.1-2.443 7.998-1.618 1.898-3.868 2.848-6.75 2.848-2.871 0-5.127-.938-6.768-2.813-1.641-1.887-2.473-4.523-2.496-7.91v-4.377c0-3.516.814-6.258 2.443-8.227 1.629-1.98 3.891-2.97 6.785-2.97 2.848 0 5.092.972 6.733 2.918 1.64 1.933 2.473 4.652 2.496 8.156v4.377zm-5.186-4.29c0-2.308-.328-4.025-.984-5.15-.656-1.125-1.676-1.687-3.059-1.687-1.371 0-2.384.545-3.041 1.635-.656 1.078-.996 2.724-1.019 4.94v4.552c0 2.238.334 3.89 1.002 4.957.668 1.055 1.699 1.582 3.094 1.582 1.347 0 2.349-.516 3.005-1.547.657-1.043.991-2.654 1.002-4.834v-4.447zm15.645-10.81l4.834 18.51 4.816-18.51h6.75V56h-5.185v-6.926l.474-10.67L269.451 56h-3.515l-5.116-17.596.475 10.67V56h-5.168V30.406h6.75zM49.021 96h-5.168V74.713H36.26V96h-5.168V70.406h17.93V96zm22.202-10.494c0 3.433-.815 6.1-2.444 7.998-1.617 1.898-3.867 2.848-6.75 2.848-2.87 0-5.127-.938-6.767-2.813-1.64-1.887-2.473-4.523-2.496-7.91v-4.377c0-3.516.814-6.258 2.443-8.227 1.629-1.98 3.89-2.97 6.785-2.97 2.848 0 5.092.972 6.733 2.918 1.64 1.933 2.472 4.652 2.496 8.156v4.377zm-5.186-4.29c0-2.308-.328-4.025-.984-5.15-.656-1.125-1.676-1.687-3.059-1.687-1.371 0-2.385.545-3.04 1.635-.657 1.078-.997 2.724-1.02 4.94v4.552c0 2.238.334 3.89 1.002 4.957.667 1.055 1.699 1.582 3.093 1.582 1.348 0 2.35-.516 3.006-1.547.656-1.043.99-2.654 1.002-4.834v-4.447zM83.228 96V70.406h7.91c2.672 0 4.7.598 6.083 1.793 1.394 1.184 2.091 2.924 2.091 5.22 0 1.302-.287 2.42-.86 3.358a5.084 5.084 0 01-2.356 2.057c1.148.328 2.033.99 2.654 1.986.621.985.932 2.203.932 3.657 0 2.484-.686 4.359-2.057 5.625C96.265 95.367 94.291 96 91.701 96H83.23zm5.169-11.127v6.838H91.7c.926 0 1.63-.287 2.11-.861.48-.575.72-1.39.72-2.444 0-2.297-.832-3.474-2.496-3.533h-3.638zm0-3.762h2.689c2.027 0 3.041-1.049 3.041-3.146 0-1.16-.234-1.992-.703-2.496s-1.23-.756-2.285-.756h-2.742v6.398zm27.263 9.65h-7.049L107.24 96h-5.467l7.998-25.594h4.729L122.551 96h-5.52l-1.371-5.238zm-5.924-4.306h4.782l-2.391-9.123-2.391 9.123zm20.409-16.049v21.305h5.203V70.406h5.168v21.305h5.132V70.406h5.168V96h-25.857V70.406h5.186zm37.335 0h5.168V96h-5.168V79.055L159.939 96h-5.185V70.406h5.185V87.37l7.541-16.963zm16.049 0l4.834 18.51 4.817-18.51h6.75V96h-5.186v-6.926l.475-10.67L190.104 96h-3.516l-5.115-17.596.474 10.67V96h-5.168V70.406h6.75zM230.357 96h-5.168V74.713h-7.593V96h-5.168V70.406h17.929V96zm22.202-10.494c0 3.433-.815 6.1-2.444 7.998-1.617 1.898-3.867 2.848-6.75 2.848-2.871 0-5.127-.938-6.767-2.813-1.641-1.887-2.473-4.523-2.496-7.91v-4.377c0-3.516.814-6.258 2.443-8.227 1.629-1.98 3.891-2.97 6.785-2.97 2.848 0 5.092.972 6.732 2.918 1.641 1.933 2.473 4.652 2.497 8.156v4.377zm-5.186-4.29c0-2.308-.328-4.025-.984-5.15-.657-1.125-1.676-1.687-3.059-1.687-1.371 0-2.385.545-3.041 1.635-.656 1.078-.996 2.724-1.019 4.94v4.552c0 2.238.334 3.89 1.001 4.957.668 1.055 1.7 1.582 3.094 1.582 1.348 0 2.35-.516 3.006-1.547.656-1.043.99-2.654 1.002-4.834v-4.447zm27.633 4.395h-2.444V96h-5.167V85.611h-2.532L260.838 96h-6.434l6.451-14.027-6.169-11.567h6.433l4.166 10.283h2.11V70.406h5.167V80.69h2.04l4.025-10.283h6.416l-6.029 11.514 6.31 14.08h-6.433l-3.885-10.389zm25.91-.685h-8.051v6.785h9.528V96h-14.696V70.406h14.66v4.307h-9.492v6.047h8.051v4.166zm22.412-14.52V96h-5.185V74.713h-4.747l-.351 9.07c-.141 2.989-.481 5.361-1.02 7.12-.527 1.745-1.306 3.029-2.337 3.849-1.02.82-2.397 1.236-4.131 1.248h-1.266v-4.29l.598-.052c1.078-.129 1.851-.832 2.32-2.11.48-1.288.779-3.562.896-6.82l.334-12.322h14.889zm16.699 20.356h-7.048L331.607 96h-5.466l7.998-25.594h4.728L346.918 96h-5.52l-1.371-5.238zm-5.923-4.307h4.781l-2.391-9.123-2.39 9.123zM367.273 96h-5.15V85.049h-7.629V96h-5.168V70.406h5.168V80.76h7.629V70.406h5.15V96zm16.7-25.594h5.168V96h-5.168V79.055L376.432 96h-5.186V70.406h5.186V87.37l7.541-16.963zM402.816 96v-9.21h-2.707L396.33 96h-5.572l4.535-11.074c-2.109-1.465-3.164-3.668-3.164-6.61 0-2.53.709-4.482 2.127-5.853 1.43-1.371 3.451-2.057 6.064-2.057h7.682V96h-5.186zm-5.502-17.28c0 1.419.252 2.45.756 3.094.504.633 1.289.95 2.356.95h2.39v-8.051h-2.566c-1.957 0-2.936 1.336-2.936 4.008zm21.481-8.314l4.834 18.51 4.816-18.51h6.75V96h-5.185v-6.926l.474-10.67L425.369 96h-3.515l-5.116-17.596.475 10.67V96h-5.168V70.406h6.75z" fill="#fff"/><path d="M45.4 114.713h-9.175v4.887h3.058c2.59 0 4.652.738 6.188 2.214 1.535 1.465 2.302 3.428 2.302 5.889 0 2.449-.75 4.436-2.25 5.959-1.5 1.512-3.486 2.291-5.959 2.338H31.04v-25.594H45.4v4.307zm-9.175 9.176v7.822h3.128c1.008 0 1.8-.375 2.374-1.125.586-.762.879-1.734.879-2.918 0-1.113-.288-2.016-.862-2.707-.562-.703-1.347-1.061-2.355-1.072h-3.164zm27.703 1.037h-8.051v6.785h9.527V136H50.71v-25.594h14.66v4.307h-9.492v6.047h8.05v4.166zm21.814 2.549c-.129 2.918-.949 5.127-2.46 6.627-1.513 1.5-3.645 2.25-6.4 2.25-2.894 0-5.114-.95-6.661-2.848-1.535-1.91-2.303-4.629-2.303-8.156v-4.307c0-3.516.797-6.223 2.39-8.121 1.594-1.91 3.81-2.865 6.645-2.865 2.79 0 4.904.779 6.346 2.338 1.453 1.558 2.28 3.796 2.478 6.714h-5.185c-.047-1.804-.328-3.046-.844-3.726-.504-.692-1.436-1.037-2.795-1.037-1.383 0-2.361.486-2.935 1.459-.575.961-.88 2.549-.915 4.763v4.834c0 2.543.282 4.289.844 5.239.575.949 1.553 1.423 2.936 1.423 1.36 0 2.297-.328 2.812-.984.516-.668.809-1.869.88-3.603h5.167zM106.89 136h-5.168v-21.287h-7.594V136H88.96v-25.594h17.93V136zm22.131-25.594V136h-5.186v-21.287h-4.746l-.352 9.07c-.14 2.988-.48 5.362-1.019 7.119-.528 1.746-1.307 3.03-2.338 3.85-1.02.82-2.397 1.236-4.131 1.248h-1.266v-4.289l.598-.053c1.078-.129 1.852-.832 2.32-2.109.481-1.289.78-3.563.897-6.82l.334-12.323h14.889zm16.699 20.356h-7.049L137.299 136h-5.467l7.998-25.594h4.729l8.05 25.594h-5.519l-1.371-5.238zm-5.924-4.307h4.781l-2.39-9.123-2.391 9.123zm29.689-11.742h-6.328V136h-5.185v-21.287h-6.223v-4.307h17.736v4.307zM190.402 136h-5.15v-10.951h-7.629V136h-5.168v-25.594h5.168v10.354h7.629v-10.354h5.15V136zm22.184-10.494c0 3.433-.815 6.099-2.443 7.998-1.618 1.898-3.868 2.848-6.75 2.848-2.872 0-5.127-.938-6.768-2.813-1.641-1.887-2.473-4.523-2.496-7.91v-4.377c0-3.516.814-6.258 2.443-8.227 1.629-1.98 3.891-2.97 6.785-2.97 2.848 0 5.092.972 6.733 2.918 1.64 1.933 2.472 4.652 2.496 8.156v4.377zm-5.186-4.289c0-2.309-.328-4.026-.984-5.151-.656-1.125-1.676-1.687-3.059-1.687-1.371 0-2.384.545-3.041 1.635-.656 1.078-.996 2.724-1.019 4.939v4.553c0 2.238.334 3.89 1.002 4.957.668 1.055 1.699 1.582 3.094 1.582 1.347 0 2.349-.516 3.005-1.547.657-1.043.991-2.654 1.002-4.834v-4.447zM29 168a2 2 0 012-2h139a2 2 0 012 2v50a2 2 0 01-2 2H31a2 2 0 01-2-2v-50z" fill="#FCB317"/><path d="M68.352 189.758c0-.417-.118-.75-.352-1-.23-.25-.542-.375-.938-.375-.349 0-.635.122-.859.367-.219.24-.328.56-.328.961h-2.297c0-.63.151-1.19.453-1.68.307-.495.73-.877 1.266-1.148a3.859 3.859 0 011.766-.406c1.13 0 2.01.283 2.64.851.635.563.953 1.357.953 2.383 0 .521-.133.997-.398 1.43-.26.427-.62.765-1.078 1.015.52.219.922.552 1.203 1 .281.443.422.995.422 1.656 0 1.027-.342 1.839-1.024 2.438-.682.599-1.588.898-2.719.898-.687 0-1.31-.132-1.867-.398a3.074 3.074 0 01-1.297-1.141c-.307-.494-.46-1.083-.46-1.765h2.304c0 .39.123.724.367 1 .245.276.563.414.954.414.437 0 .786-.138 1.046-.414.26-.276.391-.633.391-1.071 0-.588-.112-1.01-.336-1.265-.224-.255-.55-.383-.977-.383h-1.164v-1.852h1.172c.771-.005 1.157-.51 1.157-1.515zm10.046 5.914h-3.132l-.61 2.328h-2.43l3.555-11.375h2.102L81.46 198h-2.453l-.61-2.328zm-2.632-1.914h2.125l-1.063-4.055-1.062 4.055zm10.578-.399h-1V198h-2.297v-11.375h2.297v4.547h.773l1.977-4.547h2.797l-2.782 5.297L91.203 198H88.47l-2.125-4.641zm11.648 2.313H94.86L94.25 198h-2.43l3.555-11.375h2.102L101.055 198h-2.453l-.61-2.328zm-2.633-1.914h2.125l-1.062-4.055-1.063 4.055zm11.821-4c0-.417-.118-.75-.352-1-.229-.25-.542-.375-.937-.375-.349 0-.636.122-.86.367-.219.24-.328.56-.328.961h-2.297c0-.63.151-1.19.453-1.68a3.11 3.11 0 011.266-1.148 3.858 3.858 0 011.766-.406c1.13 0 2.01.283 2.64.851.636.563.953 1.357.953 2.383 0 .521-.132.997-.398 1.43-.26.427-.62.765-1.078 1.015.521.219.922.552 1.203 1 .281.443.422.995.422 1.656 0 1.027-.341 1.839-1.024 2.438-.682.599-1.588.898-2.718.898-.688 0-1.31-.132-1.868-.398a3.069 3.069 0 01-1.296-1.141c-.308-.494-.461-1.083-.461-1.765h2.304c0 .39.123.724.368 1 .244.276.562.414.953.414.437 0 .786-.138 1.047-.414.26-.276.39-.633.39-1.071 0-.588-.112-1.01-.336-1.265-.224-.255-.549-.383-.976-.383h-1.164v-1.852h1.171c.771-.005 1.157-.51 1.157-1.515zm10.047 5.914h-3.133l-.61 2.328h-2.429l3.554-11.375h2.102L120.289 198h-2.453l-.609-2.328zm-2.633-1.914h2.125l-1.063-4.055-1.062 4.055zm13.695-5.219h-2.812V198h-2.305v-9.461h-2.766v-1.914h7.883v1.914zm4.242 2.172h1.36c1.151 0 2.067.328 2.75.984.682.651 1.023 1.524 1.023 2.617 0 1.089-.333 1.972-1 2.649-.667.672-1.549 1.018-2.648 1.039h-3.789v-11.375h2.304v4.086zm0 1.906v3.477h1.391c.448 0 .799-.167 1.055-.5.26-.339.39-.771.39-1.297 0-.495-.127-.896-.383-1.203-.25-.313-.599-.472-1.046-.477h-1.407z" fill="#fff"/></svg>