<svg width="582" height="190" viewBox="0 0 582 190" fill="none" xmlns="http://www.w3.org/2000/svg"><path fill="#fff" stroke="#E1E1E1" stroke-dasharray="2 2" d="M.5.5h581v189H.5z"/><path d="M297.767 39.566a6.883 6.883 0 00-13.5-.004 4.819 4.819 0 00.555 9.605h3.442a.688.688 0 000-1.377h-3.442a3.441 3.441 0 11.041-6.883.69.69 0 00.684-.612 5.506 5.506 0 0110.94 0 .73.73 0 00.725.612 3.442 3.442 0 010 6.883h-3.442a.688.688 0 000 1.377h3.442a4.818 4.818 0 00.555-9.6z" fill="#363636"/><path d="M293.45 46.38a.689.689 0 00.99-.956l-.016-.017-2.92-2.92a.688.688 0 00-.973 0h-.001l-2.919 2.92a.688.688 0 10.956.99l.017-.017 1.745-1.745v8.663a.688.688 0 101.376 0v-8.663l1.745 1.745zM138.389 79h-.996v-7.682h-4.401V79h-.996v-8.566h6.393V79zm4.927.117c-.949 0-1.699-.289-2.25-.867-.546-.578-.82-1.38-.82-2.408 0-1.035.254-1.858.762-2.467.512-.61 1.197-.914 2.056-.914.805 0 1.442.266 1.911.797.468.527.703 1.224.703 2.092v.615h-4.424c.019.754.209 1.326.568 1.717.364.39.873.586 1.53.586a5.17 5.17 0 002.05-.434v.867c-.343.149-.67.254-.978.317-.305.066-.674.1-1.108.1zm-.263-5.842c-.516 0-.928.168-1.237.504-.304.336-.484.801-.539 1.395h3.358c0-.614-.137-1.082-.41-1.406-.274-.329-.664-.493-1.172-.493zm7.277 5.842c-.418 0-.801-.076-1.148-.228a2.188 2.188 0 01-.868-.715h-.07c.047.375.07.73.07 1.066v2.643h-.972v-9.305h.791l.135.879h.046c.25-.351.541-.605.874-.762a2.651 2.651 0 011.142-.234c.852 0 1.508.291 1.969.873.465.582.697 1.398.697 2.45 0 1.054-.236 1.874-.709 2.46-.469.582-1.121.873-1.957.873zm-.141-5.83c-.656 0-1.13.182-1.423.545-.293.363-.444.941-.452 1.734v.217c0 .903.151 1.549.452 1.94.3.386.783.58 1.447.58.555 0 .988-.225 1.301-.674.316-.45.474-1.069.474-1.858 0-.8-.158-1.414-.474-1.84-.313-.429-.754-.644-1.325-.644zm7.225 5.83c-.949 0-1.699-.289-2.25-.867-.547-.578-.82-1.38-.82-2.408 0-1.035.254-1.858.761-2.467.512-.61 1.198-.914 2.057-.914.805 0 1.442.266 1.91.797.469.527.703 1.224.703 2.092v.615h-4.423c.019.754.209 1.326.568 1.717.363.39.873.586 1.529.586.692 0 1.375-.145 2.051-.434v.867c-.344.149-.67.254-.979.317-.304.066-.673.1-1.107.1zm-.264-5.842c-.515 0-.927.168-1.236.504-.305.336-.484.801-.539 1.395h3.357c0-.614-.136-1.082-.41-1.406-.273-.329-.664-.493-1.172-.493zm8.62.135h-2.086V79h-.973v-5.59h-2.063v-.832h5.122v.832zm5.22 5.59l-.193-.914h-.047c-.32.402-.641.676-.961.82-.316.14-.713.211-1.189.211-.637 0-1.137-.164-1.5-.492-.36-.328-.539-.795-.539-1.4 0-1.297 1.037-1.977 3.111-2.04l1.09-.035v-.398c0-.504-.11-.875-.328-1.113-.215-.242-.561-.364-1.038-.364-.535 0-1.14.164-1.816.493l-.299-.745a4.598 4.598 0 011.037-.404 4.543 4.543 0 011.137-.146c.766 0 1.332.17 1.699.51.371.34.557.884.557 1.634V79h-.721zm-2.197-.686c.605 0 1.08-.166 1.424-.498.347-.332.521-.797.521-1.394v-.58l-.972.04c-.774.028-1.332.15-1.676.364-.34.211-.51.541-.51.99 0 .352.106.62.316.803.215.184.514.275.897.275zm9.715-.152h2.847V72.59h.973v5.572h.92v3.047h-.984V79h-8.543v-6.41h.972v5.572h2.842V72.59h.973v5.572zm6.896-5.584v4.072l-.041 1.067-.017.334 3.474-5.473h1.213V79h-.908v-3.926l.018-.773.029-.762L185.703 79h-1.213v-6.422h.914zm11.022.832h-2.086V79h-.973v-5.59h-2.062v-.832h5.121v.832zm3.984 5.707c-.949 0-1.699-.289-2.25-.867-.547-.578-.82-1.38-.82-2.408 0-1.035.254-1.858.762-2.467.511-.61 1.197-.914 2.056-.914.805 0 1.442.266 1.91.797.469.527.703 1.224.703 2.092v.615h-4.423c.019.754.209 1.326.568 1.717.363.39.873.586 1.529.586.692 0 1.375-.145 2.051-.434v.867c-.344.149-.67.254-.978.317-.305.066-.674.1-1.108.1zm-.264-5.842c-.515 0-.927.168-1.236.504-.305.336-.484.801-.539 1.395h3.358c0-.614-.137-1.082-.411-1.406-.273-.329-.664-.493-1.172-.493zm12.95 2.508c0 1.047-.264 1.865-.791 2.455-.528.586-1.256.88-2.186.88a2.899 2.899 0 01-1.529-.405 2.669 2.669 0 01-1.031-1.16c-.243-.504-.364-1.094-.364-1.77 0-1.047.262-1.861.785-2.443.524-.586 1.25-.88 2.18-.88.899 0 1.611.3 2.139.897.531.598.797 1.407.797 2.426zm-4.893 0c0 .82.164 1.445.492 1.875.328.43.811.645 1.448.645.636 0 1.119-.213 1.447-.639.332-.43.498-1.057.498-1.88 0-.817-.166-1.436-.498-1.858-.328-.426-.815-.639-1.459-.639-.637 0-1.117.21-1.442.627-.324.418-.486 1.041-.486 1.87zm12.182 5.438h-.944V79h-4.488v2.22h-.937v-3.058h.504c.523-.71.933-1.545 1.23-2.502.297-.957.451-1.984.463-3.082h3.252v5.584h.92v3.059zm-1.858-3.059v-4.816h-1.441a10.693 10.693 0 01-.504 2.636c-.281.887-.633 1.614-1.055 2.18h3zm4.061-5.584v4.072l-.041 1.067-.018.334 3.475-5.473h1.213V79h-.908v-3.926l.017-.773.029-.762L222.887 79h-1.213v-6.422h.914zm7.664 0v2.69h3.598v-2.69h.972V79h-.972v-2.894h-3.598V79h-.973v-6.422h.973zm10.664 0v4.072l-.041 1.067-.018.334 3.475-5.473h1.213V79h-.908v-3.926l.017-.773.03-.762L241.215 79h-1.213v-6.422h.914zM252.395 79h-.985v-5.59h-1.928c-.105 1.39-.252 2.494-.439 3.31-.188.817-.432 1.415-.732 1.794-.297.379-.676.568-1.137.568a1.47 1.47 0 01-.504-.07v-.721c.086.023.184.035.293.035.449 0 .807-.474 1.072-1.424.266-.949.467-2.39.604-4.324h3.756V79zm2.982-6.422v4.072l-.041 1.067-.018.334 3.475-5.473h1.213V79h-.908v-3.926l.017-.773.03-.762L255.676 79h-1.213v-6.422h.914zm10.781 0v2.69h3.598v-2.69h.973V79h-.973v-2.894h-3.598V79h-.972v-6.422h.972zm9.346 6.54c-.949 0-1.699-.29-2.25-.868-.547-.578-.82-1.38-.82-2.408 0-1.035.254-1.858.761-2.467.512-.61 1.198-.914 2.057-.914.805 0 1.441.266 1.91.797.469.527.703 1.224.703 2.092v.615h-4.424c.02.754.209 1.326.569 1.717.363.39.873.586 1.529.586.691 0 1.375-.145 2.051-.434v.867c-.344.149-.67.254-.979.317-.304.066-.673.1-1.107.1zm-.264-5.843c-.515 0-.928.168-1.236.504-.305.336-.484.801-.539 1.395h3.357c0-.614-.136-1.082-.41-1.406-.273-.329-.664-.493-1.172-.493zm6.856 5.842c-.93 0-1.651-.285-2.162-.855-.508-.575-.762-1.385-.762-2.432 0-1.074.258-1.904.773-2.49.52-.586 1.258-.88 2.215-.88.309 0 .617.034.926.1.309.067.551.145.726.235l-.298.826a4.395 4.395 0 00-.703-.21 3.044 3.044 0 00-.674-.089c-1.305 0-1.957.832-1.957 2.496 0 .79.158 1.395.474 1.817.321.422.793.633 1.418.633.535 0 1.084-.116 1.647-.346v.861c-.43.223-.971.334-1.623.334zm6.896-6.539h1.067l-2.772 3.1 3 3.322h-1.137l-2.929-3.252V79h-.973v-6.422h.973v3.123l2.771-3.123zm8.033 3.205c0 1.047-.263 1.865-.791 2.455-.527.586-1.255.88-2.185.88a2.899 2.899 0 01-1.529-.405 2.664 2.664 0 01-1.032-1.16c-.242-.504-.363-1.094-.363-1.77 0-1.047.262-1.861.785-2.443.524-.586 1.25-.88 2.18-.88.898 0 1.611.3 2.139.897.531.598.796 1.407.796 2.426zm-4.892 0c0 .82.164 1.445.492 1.875.328.43.811.645 1.447.645.637 0 1.119-.213 1.448-.639.332-.43.498-1.057.498-1.88 0-.817-.166-1.436-.498-1.858-.329-.426-.815-.639-1.459-.639-.637 0-1.118.21-1.442.627-.324.418-.486 1.041-.486 1.87zM303.523 79h-.984v-5.59h-1.928c-.105 1.39-.252 2.494-.439 3.31-.188.817-.432 1.415-.733 1.794-.296.379-.675.568-1.136.568a1.47 1.47 0 01-.504-.07v-.721c.086.023.183.035.293.035.449 0 .806-.474 1.072-1.424.266-.949.467-2.39.604-4.324h3.755V79zm3.041-3.768h1.981c1.641 0 2.461.604 2.461 1.811 0 .633-.215 1.117-.645 1.453-.425.336-1.05.504-1.875.504h-2.894v-6.422h.972v2.654zm0 .838v2.116h1.875c.516 0 .911-.09 1.184-.27.273-.18.41-.451.41-.814 0-.356-.127-.616-.381-.78-.25-.168-.664-.252-1.242-.252h-1.846zm9.874-3.492h1.066l-2.772 3.1 3 3.322h-1.136l-2.93-3.252V79h-.973v-6.422h.973v3.123l2.772-3.123zm8.033 3.205c0 1.047-.264 1.865-.791 2.455-.528.586-1.256.88-2.186.88a2.899 2.899 0 01-1.529-.405 2.669 2.669 0 01-1.031-1.16c-.243-.504-.364-1.094-.364-1.77 0-1.047.262-1.861.785-2.443.524-.586 1.25-.88 2.18-.88.899 0 1.611.3 2.139.897.531.598.797 1.407.797 2.426zm-4.893 0c0 .82.164 1.445.492 1.875.328.43.811.645 1.448.645.636 0 1.119-.213 1.447-.639.332-.43.498-1.057.498-1.88 0-.817-.166-1.436-.498-1.858-.328-.426-.815-.639-1.459-.639-.637 0-1.117.21-1.442.627-.324.418-.486 1.041-.486 1.87zm16.6 0c0 .973-.278 1.748-.832 2.326-.551.575-1.323.903-2.315.985v2.789h-.961v-2.79c-.968-.074-1.734-.406-2.297-.995-.562-.59-.843-1.362-.843-2.315 0-.972.279-1.746.838-2.32.562-.574 1.341-.9 2.337-.979v-2.601h.926v2.601c.981.09 1.75.428 2.309 1.014.558.586.838 1.348.838 2.285zm-6.229 0c0 .75.172 1.338.516 1.764.344.426.89.674 1.64.744v-4.992c-.722.066-1.263.303-1.623.709-.355.402-.533.994-.533 1.775zm5.221 0c0-1.496-.713-2.32-2.139-2.472v4.98c.742-.074 1.283-.324 1.623-.75.344-.426.516-1.012.516-1.758zM341.826 79l-.193-.914h-.047c-.32.402-.641.676-.961.82-.316.14-.713.211-1.189.211-.637 0-1.137-.164-1.5-.492-.36-.328-.54-.795-.54-1.4 0-1.297 1.038-1.977 3.112-2.04l1.09-.035v-.398c0-.504-.11-.875-.328-1.113-.215-.242-.561-.364-1.038-.364-.535 0-1.14.164-1.816.493l-.299-.745a4.598 4.598 0 011.037-.404 4.543 4.543 0 011.137-.146c.766 0 1.332.17 1.699.51.371.34.557.884.557 1.634V79h-.721zm-2.197-.686c.605 0 1.08-.166 1.424-.498.347-.332.521-.797.521-1.394v-.58l-.972.04c-.774.028-1.332.15-1.676.364-.34.211-.51.541-.51.99 0 .352.105.62.316.803.215.184.514.275.897.275zm5.842-5.736v4.072l-.041 1.067-.018.334 3.475-5.473h1.213V79h-.909v-3.926l.018-.773.029-.762L345.77 79h-1.213v-6.422h.914zm1.834-.85c-.723 0-1.25-.138-1.582-.415-.332-.282-.518-.743-.557-1.383h.914c.035.406.141.69.316.85.18.16.491.24.932.24.402 0 .699-.086.891-.258.195-.172.314-.45.357-.832h.92c-.047.617-.244 1.072-.592 1.365-.347.289-.881.433-1.599.433zM356.949 79h-.984v-5.59h-1.928c-.105 1.39-.252 2.494-.439 3.31-.188.817-.432 1.415-.733 1.794-.297.379-.676.568-1.136.568a1.47 1.47 0 01-.504-.07v-.721c.086.023.183.035.293.035.449 0 .806-.474 1.072-1.424.265-.949.467-2.39.603-4.324h3.756V79zm7.612-3.217c0 1.047-.264 1.865-.791 2.455-.528.586-1.256.88-2.186.88a2.899 2.899 0 01-1.529-.405 2.67 2.67 0 01-1.032-1.16c-.242-.504-.363-1.094-.363-1.77 0-1.047.262-1.861.785-2.443.524-.586 1.25-.88 2.18-.88.898 0 1.611.3 2.139.897.531.598.797 1.407.797 2.426zm-4.893 0c0 .82.164 1.445.492 1.875.328.43.811.645 1.447.645.637 0 1.12-.213 1.448-.639.332-.43.498-1.057.498-1.88 0-.817-.166-1.436-.498-1.858-.328-.426-.815-.639-1.459-.639-.637 0-1.117.21-1.442.627-.324.418-.486 1.041-.486 1.87zm11.812-1.594c0 .418-.121.737-.363.956-.238.214-.574.359-1.008.433v.053c.547.074.946.234 1.196.48.254.246.381.586.381 1.02 0 .597-.221 1.058-.663 1.383-.437.324-1.078.486-1.921.486h-2.831v-6.422h2.819c1.594 0 2.39.537 2.39 1.611zm-.767 2.877c0-.347-.133-.6-.399-.755-.261-.16-.697-.24-1.306-.24h-1.764v2.115h1.787c1.121 0 1.682-.374 1.682-1.12zm-.182-2.783c0-.312-.121-.533-.363-.662-.238-.133-.602-.2-1.09-.2h-1.834v1.811h1.647c.601 0 1.025-.074 1.271-.222.246-.149.369-.39.369-.727zm10.899-.094c0 .418-.121.737-.364.956-.238.214-.574.359-1.007.433v.053c.546.074.945.234 1.195.48.254.246.381.586.381 1.02 0 .597-.221 1.058-.662 1.383-.438.324-1.078.486-1.922.486h-2.83v-6.422h2.818c1.594 0 2.391.537 2.391 1.611zm-.768 2.877c0-.347-.133-.6-.398-.755-.262-.16-.698-.24-1.307-.24h-1.764v2.115h1.787c1.122 0 1.682-.374 1.682-1.12zm-.182-2.783c0-.312-.121-.533-.363-.662-.238-.133-.601-.2-1.09-.2h-1.834v1.811h1.647c.601 0 1.025-.074 1.271-.222.246-.149.369-.39.369-.727zm6.663 4.834c-.653 0-1.209-.111-1.67-.334v-.861c.234.09.488.17.761.24.274.07.588.106.944.106.679 0 1.203-.182 1.57-.545.371-.364.576-.907.615-1.63h-3.252v-.825h3.241c-.063-.672-.26-1.165-.592-1.477-.328-.313-.807-.469-1.436-.469-.402 0-.898.106-1.488.317l-.275-.82a3.6 3.6 0 01.802-.253c.321-.07.637-.105.949-.105 1 0 1.76.287 2.28.861.519.57.779 1.395.779 2.473 0 1.05-.283 1.867-.85 2.45-.562.581-1.355.872-2.378.872zm9.263-5.707h-2.086V79h-.972v-5.59h-2.063v-.832h5.121v.832zm.252-.832h1.043l1.406 3.662c.309.836.5 1.44.575 1.81h.047c.05-.198.156-.538.316-1.019.164-.484.695-1.969 1.594-4.453h1.043l-2.76 7.313c-.274.722-.594 1.234-.961 1.535-.363.305-.811.457-1.342.457-.297 0-.59-.033-.879-.1v-.78c.215.048.455.071.721.071.668 0 1.144-.375 1.43-1.125l.357-.914-2.59-6.457zm15.727 3.205c0 1.047-.264 1.865-.791 2.455-.528.586-1.256.88-2.186.88a2.899 2.899 0 01-1.529-.405 2.669 2.669 0 01-1.031-1.16c-.243-.504-.364-1.094-.364-1.77 0-1.047.262-1.861.786-2.443.523-.586 1.25-.88 2.179-.88.899 0 1.612.3 2.139.897.531.598.797 1.407.797 2.426zm-4.893 0c0 .82.164 1.445.492 1.875.328.43.811.645 1.448.645.636 0 1.119-.213 1.447-.639.332-.43.498-1.057.498-1.88 0-.817-.166-1.436-.498-1.858-.328-.426-.815-.639-1.459-.639-.637 0-1.117.21-1.441.627-.325.418-.487 1.041-.487 1.87zm6.27-.633c0-1.406.207-2.502.621-3.287.414-.789 1.07-1.281 1.969-1.476a81.134 81.134 0 012.953-.58l.181.855c-1.355.227-2.324.406-2.906.54-.566.128-.992.433-1.277.913-.282.48-.436 1.135-.463 1.963h.07c.242-.328.555-.586.938-.773a2.694 2.694 0 011.201-.282c.789 0 1.404.256 1.846.768.441.512.662 1.22.662 2.127 0 1.004-.256 1.789-.768 2.355-.512.563-1.225.844-2.139.844-.902 0-1.609-.346-2.121-1.037-.511-.691-.767-1.668-.767-2.93zm2.976 3.153c1.192 0 1.787-.76 1.787-2.28 0-1.449-.541-2.173-1.623-2.173a2.07 2.07 0 00-.861.187 2.955 2.955 0 00-.756.486 2.645 2.645 0 00-.527.627c0 1.028.162 1.81.486 2.35.324.535.822.803 1.494.803zm9.305.697h-.984v-5.59h-1.928c-.106 1.39-.252 2.494-.44 3.31-.187.817-.431 1.415-.732 1.794-.297.379-.676.568-1.137.568a1.47 1.47 0 01-.504-.07v-.721c.086.023.184.035.293.035.45 0 .807-.474 1.073-1.424.265-.949.466-2.39.603-4.324h3.756V79zm6.018 0l-.194-.914h-.047c-.32.402-.64.676-.961.82-.316.14-.713.211-1.189.211-.637 0-1.137-.164-1.5-.492-.359-.328-.539-.795-.539-1.4 0-1.297 1.037-1.977 3.111-2.04l1.09-.035v-.398c0-.504-.109-.875-.328-1.113-.215-.242-.561-.364-1.037-.364-.535 0-1.141.164-1.817.493l-.298-.745a4.58 4.58 0 011.037-.404 4.536 4.536 0 011.136-.146c.766 0 1.332.17 1.7.51.371.34.556.884.556 1.634V79h-.72zm-2.198-.686c.606 0 1.08-.166 1.424-.498.348-.332.522-.797.522-1.394v-.58l-.973.04c-.774.028-1.332.15-1.676.364-.34.211-.51.541-.51.99 0 .352.106.62.317.803.215.184.513.275.896.275zm7.494.803c-.929 0-1.65-.285-2.162-.855-.507-.575-.761-1.385-.761-2.432 0-1.074.257-1.904.773-2.49.52-.586 1.258-.88 2.215-.88.308 0 .617.034.926.1.308.067.55.145.726.235l-.299.826a4.333 4.333 0 00-.703-.21 3.037 3.037 0 00-.674-.089c-1.304 0-1.957.832-1.957 2.496 0 .79.159 1.395.475 1.817.32.422.793.633 1.418.633.535 0 1.084-.116 1.646-.346v.861c-.429.223-.97.334-1.623.334zm7.483-5.707h-2.086V79h-.973v-5.59h-2.062v-.832h5.121v.832zm2.244 1.822h1.98c1.641 0 2.461.604 2.461 1.811 0 .633-.214 1.117-.644 1.453-.426.336-1.051.504-1.875.504h-2.895v-6.422h.973v2.654zm0 .838v2.116h1.875c.516 0 .91-.09 1.184-.27.273-.18.41-.451.41-.814 0-.356-.127-.616-.381-.78-.25-.168-.664-.252-1.242-.252h-1.846zM185.293 90.578v4.072l-.041 1.067-.018.334 3.475-5.473h1.213V97h-.908v-3.926l.017-.773.03-.762L185.592 97h-1.213v-6.422h.914zM196.771 97h-.984v-5.59h-1.928c-.105 1.39-.252 2.494-.439 3.31-.188.817-.432 1.415-.732 1.794-.297.379-.676.568-1.137.568a1.47 1.47 0 01-.504-.07v-.721c.086.023.183.035.293.035.449 0 .806-.474 1.072-1.424.266-.949.467-2.39.604-4.324h3.755V97zm2.983-6.422v4.072l-.041 1.067-.018.334 3.475-5.473h1.213V97h-.908v-3.926l.017-.773.029-.762L200.053 97h-1.213v-6.422h.914z" fill="#363636"/><path d="M214.771 92.19c0 .417-.121.736-.363.954-.238.215-.574.36-1.008.434v.053c.547.074.946.234 1.196.48.254.246.381.586.381 1.02 0 .597-.221 1.058-.663 1.383-.437.324-1.078.486-1.921.486h-2.831v-6.422h2.819c1.594 0 2.39.537 2.39 1.611zm-.767 2.876c0-.347-.133-.6-.399-.755-.261-.16-.697-.24-1.306-.24h-1.764v2.115h1.787c1.121 0 1.682-.374 1.682-1.12zm-.182-2.783c0-.312-.121-.533-.363-.662-.238-.133-.602-.2-1.09-.2h-1.834v1.811h1.647c.601 0 1.025-.074 1.271-.222.246-.149.369-.39.369-.727zm3.545.95h1.752c.817 0 1.42.152 1.811.456.394.301.591.752.591 1.354 0 .644-.209 1.133-.626 1.465-.415.328-1.026.492-1.834.492h-2.666v-6.422h.972v2.654zM223.572 97h-.972v-6.422h.972V97zm-6.205-2.93v2.116h1.647c1.031 0 1.547-.362 1.547-1.084 0-.36-.12-.621-.358-.786-.238-.164-.644-.246-1.219-.246h-1.617zm7.94-.92c0-1.406.207-2.502.621-3.287.414-.789 1.07-1.281 1.968-1.476a81.57 81.57 0 012.954-.58l.181.855c-1.355.227-2.324.406-2.906.54-.566.128-.992.433-1.277.913-.282.48-.436 1.135-.463 1.963h.07c.242-.328.555-.586.938-.773a2.694 2.694 0 011.201-.282c.789 0 1.404.256 1.845.768.442.512.663 1.22.663 2.127 0 1.004-.256 1.789-.768 2.355-.512.563-1.225.844-2.139.844-.902 0-1.609-.346-2.121-1.037s-.767-1.668-.767-2.93zm2.976 3.153c1.192 0 1.787-.76 1.787-2.28 0-1.449-.541-2.173-1.623-2.173a2.07 2.07 0 00-.861.187 2.938 2.938 0 00-.756.486 2.645 2.645 0 00-.527.627c0 1.028.162 1.81.486 2.35.324.535.822.803 1.494.803zm7.231.814c-.95 0-1.7-.289-2.25-.867-.547-.578-.821-1.38-.821-2.408 0-1.035.254-1.858.762-2.467.512-.61 1.197-.914 2.057-.914.804 0 1.441.266 1.91.797.469.527.703 1.224.703 2.092v.615h-4.424c.02.754.209 1.326.569 1.717.363.39.873.586 1.529.586.691 0 1.375-.145 2.051-.434v.867c-.344.149-.67.254-.979.317a5.31 5.31 0 01-1.107.1zm-.264-5.842c-.516 0-.928.168-1.236.504-.305.336-.485.801-.539 1.395h3.357c0-.614-.137-1.082-.41-1.406-.274-.329-.664-.493-1.172-.493zm7.277 5.842c-.418 0-.8-.076-1.148-.228a2.178 2.178 0 01-.867-.715h-.071c.047.375.071.73.071 1.066v2.643h-.973v-9.305h.791l.135.879h.047c.25-.351.541-.605.873-.762a2.654 2.654 0 011.142-.234c.852 0 1.508.291 1.969.873.465.582.697 1.398.697 2.45 0 1.054-.236 1.874-.709 2.46-.468.582-1.121.873-1.957.873zm-.14-5.83c-.657 0-1.131.182-1.424.545-.293.363-.443.941-.451 1.734v.217c0 .903.15 1.549.451 1.94.301.386.783.58 1.447.58.555 0 .988-.225 1.301-.674.316-.45.475-1.069.475-1.858 0-.8-.159-1.414-.475-1.84-.313-.429-.754-.644-1.324-.644zm5.425-.709v4.072l-.041 1.067-.017.334 3.475-5.473h1.212V97h-.908v-3.926l.018-.773.029-.762L248.111 97h-1.213v-6.422h.914zm11.022.832h-2.086V97h-.973v-5.59h-2.062v-.832h5.121v.832zm3.984 5.707c-.949 0-1.699-.289-2.25-.867-.547-.578-.82-1.38-.82-2.408 0-1.035.254-1.858.762-2.467.511-.61 1.197-.914 2.056-.914.805 0 1.442.266 1.911.797.468.527.703 1.224.703 2.092v.615h-4.424c.019.754.209 1.326.568 1.717.364.39.873.586 1.53.586a5.17 5.17 0 002.05-.434v.867c-.343.149-.67.254-.978.317-.305.066-.674.1-1.108.1zm-.263-5.842c-.516 0-.928.168-1.237.504-.304.336-.484.801-.539 1.395h3.358c0-.614-.137-1.082-.41-1.406-.274-.329-.665-.493-1.172-.493zm14.285 2.508c0 .973-.278 1.748-.832 2.326-.551.575-1.322.903-2.315.985v2.789h-.961v-2.79c-.968-.074-1.734-.406-2.296-.995-.563-.59-.844-1.362-.844-2.315 0-.972.279-1.746.838-2.32.562-.574 1.341-.9 2.338-.979v-2.601h.925v2.601c.981.09 1.75.428 2.309 1.014.559.586.838 1.348.838 2.285zm-6.229 0c0 .75.172 1.338.516 1.764.344.426.891.674 1.641.744v-4.992c-.723.066-1.264.303-1.623.709-.356.402-.534.994-.534 1.775zm5.221 0c0-1.496-.713-2.32-2.139-2.472v4.98c.743-.074 1.284-.324 1.623-.75.344-.426.516-1.012.516-1.758zM282.488 97l-.193-.914h-.047c-.32.402-.641.676-.961.82-.316.14-.713.211-1.189.211-.637 0-1.137-.164-1.5-.492-.36-.328-.539-.795-.539-1.4 0-1.297 1.037-1.977 3.111-2.04l1.09-.035v-.398c0-.504-.11-.875-.328-1.113-.215-.242-.561-.364-1.037-.364-.536 0-1.141.164-1.817.493l-.299-.745a4.598 4.598 0 011.037-.404 4.543 4.543 0 011.137-.146c.766 0 1.332.17 1.699.51.371.34.557.884.557 1.634V97h-.721zm-2.197-.686c.605 0 1.08-.166 1.424-.498.347-.332.521-.797.521-1.394v-.58l-.972.04c-.774.028-1.332.15-1.676.364-.34.211-.51.541-.51.99 0 .352.106.62.317.803.214.184.513.275.896.275zm5.842-5.736v4.072l-.041 1.067-.018.334 3.475-5.473h1.213V97h-.908v-3.926l.017-.773.029-.762L286.432 97h-1.213v-6.422h.914zm1.834-.85c-.723 0-1.25-.138-1.582-.415-.332-.282-.518-.743-.557-1.383h.914c.035.406.141.69.317.85.179.16.49.24.931.24.403 0 .699-.086.891-.258.195-.172.314-.45.357-.832h.92c-.047.617-.244 1.072-.592 1.365-.347.289-.88.433-1.599.433zM297.611 97h-.984v-5.59h-1.928c-.105 1.39-.252 2.494-.439 3.31-.188.817-.432 1.415-.733 1.794-.297.379-.675.568-1.136.568a1.47 1.47 0 01-.504-.07v-.721c.086.023.183.035.293.035.449 0 .806-.474 1.072-1.424.266-.949.467-2.39.603-4.324h3.756V97zm6.159-6.422v2.69h3.597v-2.69h.973V97h-.973v-2.894h-3.597V97h-.973v-6.422h.973zM314.352 97l-.194-.914h-.047c-.32.402-.64.676-.961.82-.316.14-.712.211-1.189.211-.637 0-1.137-.164-1.5-.492-.359-.328-.539-.795-.539-1.4 0-1.297 1.037-1.977 3.111-2.04l1.09-.035v-.398c0-.504-.109-.875-.328-1.113-.215-.242-.561-.364-1.037-.364-.535 0-1.141.164-1.817.493l-.298-.745a4.58 4.58 0 011.037-.404 4.541 4.541 0 011.136-.146c.766 0 1.332.17 1.7.51.371.34.556.884.556 1.634V97h-.72zm-2.198-.686c.606 0 1.08-.166 1.424-.498.348-.332.522-.797.522-1.394v-.58l-.973.04c-.773.028-1.332.15-1.676.364-.34.211-.51.541-.51.99 0 .352.106.62.317.803.215.184.513.275.896.275zm11.789-5.736h1.067l-2.772 3.1 3 3.322h-1.136l-2.93-3.252V97h-.973v-6.422h.973v3.123l2.771-3.123zm8.034 3.205c0 1.047-.264 1.865-.791 2.455-.528.586-1.256.88-2.186.88a2.899 2.899 0 01-1.529-.405 2.67 2.67 0 01-1.032-1.16c-.242-.504-.363-1.094-.363-1.77 0-1.047.262-1.861.785-2.443.524-.586 1.25-.88 2.18-.88.898 0 1.611.3 2.139.897.531.598.797 1.407.797 2.426zm-4.893 0c0 .82.164 1.445.492 1.875.328.43.811.645 1.447.645.637 0 1.12-.213 1.448-.639.332-.43.498-1.057.498-1.88 0-.817-.166-1.436-.498-1.858-.328-.426-.815-.639-1.459-.639-.637 0-1.117.21-1.442.627-.324.418-.486 1.041-.486 1.87zm9.937 2.28l.182-.545.252-.692 1.74-4.236h1.237V97h-.862v-5.303l-.117.34-.34.897L337.455 97h-.814l-1.659-4.078a11.951 11.951 0 01-.427-1.225V97h-.867v-6.41h1.189l1.682 4.072c.168.43.322.897.462 1.4zm6.463.937h-.972v-6.422h5.39V97h-.984v-5.578h-3.434V97zm7.454-3.768h1.98c1.641 0 2.461.604 2.461 1.811 0 .633-.215 1.117-.645 1.453-.425.336-1.05.504-1.875.504h-2.894v-6.422h.973v2.654zm0 .838v2.116h1.874c.516 0 .911-.09 1.184-.27.274-.18.41-.451.41-.814 0-.356-.127-.616-.381-.78-.25-.168-.664-.252-1.242-.252h-1.845zm14.396-.287c0 1.051-.252 1.87-.756 2.455-.5.586-1.187.88-2.062.88-.832 0-1.493-.26-1.981-.78-.488-.523-.76-1.268-.814-2.232h-1.682V97h-.973v-6.422h.973v2.69h1.693c.079-.891.364-1.58.856-2.069.492-.492 1.142-.738 1.951-.738.859 0 1.539.299 2.039.896.504.594.756 1.403.756 2.426zm-4.605 0c0 .824.142 1.451.427 1.881.285.426.742.639 1.371.639.618 0 1.071-.207 1.36-.621.293-.418.439-1.051.439-1.899 0-.82-.142-1.441-.428-1.863-.285-.422-.742-.633-1.371-.633s-1.086.211-1.371.633c-.285.422-.427 1.043-.427 1.863zm10.64-2.373h-2.086V97h-.972v-5.59h-2.063v-.832h5.121v.832zm3.985 5.707c-.95 0-1.7-.289-2.25-.867-.547-.578-.821-1.38-.821-2.408 0-1.035.254-1.858.762-2.467.512-.61 1.197-.914 2.057-.914.804 0 1.441.266 1.91.797.468.527.703 1.224.703 2.092v.615h-4.424c.02.754.209 1.326.568 1.717.364.39.873.586 1.53.586a5.17 5.17 0 002.05-.434v.867a4.946 4.946 0 01-.978.317 5.31 5.31 0 01-1.107.1zm-.264-5.842c-.516 0-.928.168-1.236.504-.305.336-.485.801-.54 1.395h3.358c0-.614-.137-1.082-.41-1.406-.274-.329-.664-.493-1.172-.493zm7.277 5.842c-.418 0-.801-.076-1.148-.228a2.178 2.178 0 01-.867-.715h-.071c.047.375.071.73.071 1.066v2.643h-.973v-9.305h.791l.135.879h.047c.25-.351.541-.605.873-.762a2.654 2.654 0 011.142-.234c.852 0 1.508.291 1.969.873.465.582.697 1.398.697 2.45 0 1.054-.236 1.874-.709 2.46-.469.582-1.121.873-1.957.873zm-.14-5.83c-.657 0-1.131.182-1.424.545-.293.363-.444.941-.451 1.734v.217c0 .903.15 1.549.451 1.94.301.386.783.58 1.447.58.555 0 .988-.225 1.301-.674.316-.45.474-1.069.474-1.858 0-.8-.158-1.414-.474-1.84-.313-.429-.754-.644-1.324-.644zm7.224 5.83c-.949 0-1.699-.289-2.25-.867-.547-.578-.82-1.38-.82-2.408 0-1.035.254-1.858.762-2.467.511-.61 1.197-.914 2.056-.914.805 0 1.442.266 1.91.797.469.527.703 1.224.703 2.092v.615h-4.423c.019.754.209 1.326.568 1.717.363.39.873.586 1.529.586.692 0 1.375-.145 2.051-.434v.867c-.344.149-.67.254-.978.317-.305.066-.674.1-1.108.1zm-.263-5.842c-.516 0-.928.168-1.237.504-.305.336-.484.801-.539 1.395h3.358c0-.614-.137-1.082-.411-1.406-.273-.329-.664-.493-1.171-.493z" fill="#0079D1"/><path d="M56.047 116.434h2.42c1.136 0 1.959.17 2.467.509.507.34.761.877.761 1.612 0 .507-.142.927-.427 1.259-.282.329-.694.541-1.237.639v.059c1.301.222 1.951.906 1.951 2.05 0 .766-.26 1.364-.779 1.793-.516.43-1.238.645-2.168.645h-2.988v-8.566zm.996 3.668h1.64c.704 0 1.21-.11 1.518-.329.309-.222.463-.595.463-1.119 0-.48-.172-.826-.516-1.037-.343-.215-.89-.322-1.64-.322h-1.465v2.807zm0 .843v3.205h1.787c.692 0 1.211-.132 1.559-.398.351-.27.527-.69.527-1.26 0-.531-.18-.922-.539-1.172-.355-.25-.899-.375-1.629-.375h-1.705zm7.611.287h1.752c.817 0 1.42.153 1.81.457.395.301.593.752.593 1.354 0 .645-.21 1.133-.627 1.465-.414.328-1.026.492-1.834.492h-2.666v-6.422h.972v2.654zM70.86 125h-.972v-6.422h.972V125zm-6.205-2.93v2.116h1.647c1.031 0 1.547-.362 1.547-1.084 0-.36-.12-.622-.358-.786-.238-.164-.644-.246-1.218-.246h-1.618zm7.94-.92c0-1.406.207-2.502.62-3.287.415-.789 1.071-1.281 1.97-1.476a78.892 78.892 0 012.953-.58l.181.855c-1.355.227-2.324.406-2.906.539-.566.129-.992.434-1.277.914-.282.481-.436 1.135-.463 1.963h.07a2.52 2.52 0 01.938-.773 2.692 2.692 0 011.2-.282c.79 0 1.405.256 1.847.768.441.512.662 1.221.662 2.127 0 1.004-.256 1.789-.768 2.355-.512.563-1.224.844-2.139.844-.902 0-1.609-.346-2.12-1.037-.512-.691-.768-1.668-.768-2.93zm2.976 3.153c1.192 0 1.787-.76 1.787-2.28 0-1.449-.54-2.173-1.623-2.173-.296 0-.584.062-.861.187a2.937 2.937 0 00-.756.486 2.666 2.666 0 00-.527.627c0 1.028.162 1.811.486 2.35.324.535.822.803 1.494.803zm7.23.814c-.948 0-1.698-.289-2.25-.867-.546-.578-.82-1.381-.82-2.408 0-1.035.254-1.858.762-2.467.512-.609 1.197-.914 2.057-.914.804 0 1.441.266 1.91.797.469.527.703 1.224.703 2.092v.615h-4.424c.02.754.21 1.326.569 1.717.363.39.873.586 1.529.586a5.17 5.17 0 002.05-.434v.867c-.343.149-.67.254-.978.317a5.315 5.315 0 01-1.107.099zm-.263-5.842c-.516 0-.928.168-1.236.504-.305.336-.485.801-.54 1.395h3.358c0-.613-.137-1.082-.41-1.406-.273-.329-.664-.493-1.172-.493zm7.277 5.842c-.417 0-.8-.076-1.148-.228a2.192 2.192 0 01-.867-.715h-.07c.046.375.07.73.07 1.066v2.643h-.973v-9.305h.791l.135.879h.047c.25-.352.54-.605.873-.762a2.658 2.658 0 011.142-.234c.852 0 1.508.291 1.97.873.464.582.697 1.398.697 2.449 0 1.055-.237 1.875-.71 2.461-.468.582-1.12.873-1.957.873zm-.14-5.83c-.656 0-1.131.182-1.424.545-.293.363-.443.941-.451 1.734v.217c0 .903.15 1.549.451 1.94.3.386.783.58 1.447.58.555 0 .989-.225 1.301-.674.316-.449.475-1.068.475-1.858 0-.8-.159-1.414-.475-1.839-.313-.43-.754-.645-1.324-.645zm5.426-.709v4.072l-.041 1.067-.018.334 3.475-5.473h1.212V125h-.908v-3.926l.018-.773.03-.762-3.47 5.461h-1.212v-6.422h.914zm11.021.832h-2.086V125h-.973v-5.59H101v-.832h5.121v.832zm3.984 5.707c-.949 0-1.699-.289-2.25-.867-.546-.578-.82-1.381-.82-2.408 0-1.035.254-1.858.762-2.467.512-.609 1.197-.914 2.057-.914.804 0 1.441.266 1.91.797.468.527.703 1.224.703 2.092v.615h-4.424c.019.754.209 1.326.568 1.717.364.39.873.586 1.53.586a5.17 5.17 0 002.05-.434v.867c-.343.149-.67.254-.978.317a5.32 5.32 0 01-1.108.099zm-.263-5.842c-.516 0-.928.168-1.237.504-.304.336-.484.801-.539 1.395h3.358c0-.613-.137-1.082-.41-1.406-.274-.329-.664-.493-1.172-.493zm14.285 2.508c0 .973-.277 1.748-.832 2.326-.551.575-1.322.903-2.315.985v2.789h-.96v-2.789c-.969-.074-1.735-.406-2.297-.996-.563-.59-.844-1.362-.844-2.315 0-.972.279-1.746.838-2.32.562-.574 1.342-.901 2.338-.979v-2.601h.925v2.601c.981.09 1.75.428 2.309 1.014.559.586.838 1.348.838 2.285zm-6.229 0c0 .75.172 1.338.516 1.764.344.426.891.674 1.641.744v-4.992c-.723.066-1.264.303-1.623.709-.356.402-.534.994-.534 1.775zm5.221 0c0-1.496-.713-2.32-2.139-2.472v4.98c.743-.074 1.284-.324 1.624-.75.343-.426.515-1.012.515-1.758zm6.656 3.217l-.193-.914h-.047c-.32.402-.64.676-.961.82-.316.141-.713.211-1.189.211-.637 0-1.137-.164-1.5-.492-.36-.328-.539-.795-.539-1.4 0-1.297 1.037-1.977 3.111-2.039l1.09-.036v-.398c0-.504-.109-.875-.328-1.113-.215-.243-.561-.364-1.037-.364-.536 0-1.141.164-1.817.493l-.299-.745a4.658 4.658 0 012.174-.55c.766 0 1.332.17 1.699.509.372.34.557.885.557 1.635V125h-.721zm-2.197-.686c.606 0 1.08-.166 1.424-.498.348-.332.521-.796.521-1.394v-.58l-.972.041c-.774.027-1.332.148-1.676.363-.34.211-.51.541-.51.99 0 .352.106.619.317.803.214.184.513.275.896.275zm5.842-5.736v4.072l-.041 1.067-.018.334 3.475-5.473h1.213V125h-.908v-3.926l.017-.773.03-.762L133.72 125h-1.213v-6.422h.914zm1.834-.849c-.723 0-1.25-.139-1.582-.417-.332-.281-.518-.742-.557-1.382h.914c.035.406.141.689.317.849.179.16.49.241.931.241.403 0 .7-.086.891-.258.195-.172.314-.45.357-.832h.92c-.047.617-.244 1.072-.591 1.365-.348.289-.881.434-1.6.434zm9.644 7.271h-.984v-5.59h-1.928c-.105 1.391-.252 2.494-.439 3.311-.188.816-.432 1.414-.733 1.793-.296.379-.675.568-1.136.568a1.47 1.47 0 01-.504-.07v-.721c.086.023.183.035.293.035.449 0 .806-.474 1.072-1.424.266-.949.467-2.39.604-4.324h3.755V125zm7.752.117c-.929 0-1.65-.285-2.162-.855-.508-.574-.761-1.385-.761-2.432 0-1.074.257-1.904.773-2.49.52-.586 1.258-.879 2.215-.879.308 0 .617.033.926.1.308.066.55.144.726.234l-.299.826a4.363 4.363 0 00-.703-.211 3.074 3.074 0 00-.674-.088c-1.304 0-1.957.832-1.957 2.496 0 .789.159 1.395.475 1.817.32.422.793.633 1.418.633.535 0 1.084-.116 1.646-.346v.861c-.429.223-.97.334-1.623.334zm9.258 0c-.418 0-.801-.076-1.148-.228a2.187 2.187 0 01-.867-.715h-.071c.047.375.071.73.071 1.066v2.643h-.973v-9.305h.791l.135.879h.047c.25-.352.541-.605.873-.762a2.657 2.657 0 011.142-.234c.852 0 1.508.291 1.969.873.465.582.697 1.398.697 2.449 0 1.055-.236 1.875-.709 2.461-.469.582-1.121.873-1.957.873zm-.14-5.83c-.657 0-1.131.182-1.424.545-.293.363-.444.941-.451 1.734v.217c0 .903.15 1.549.451 1.94.301.386.783.58 1.447.58.555 0 .988-.225 1.301-.674.316-.449.474-1.068.474-1.858 0-.8-.158-1.414-.474-1.839-.313-.43-.754-.645-1.324-.645zM170.23 125l-.194-.914h-.047c-.32.402-.64.676-.961.82-.316.141-.713.211-1.189.211-.637 0-1.137-.164-1.5-.492-.359-.328-.539-.795-.539-1.4 0-1.297 1.037-1.977 3.111-2.039l1.09-.036v-.398c0-.504-.109-.875-.328-1.113-.215-.243-.561-.364-1.037-.364-.535 0-1.141.164-1.817.493l-.298-.745a4.631 4.631 0 012.173-.55c.766 0 1.332.17 1.7.509.371.34.556.885.556 1.635V125h-.72zm-2.198-.686c.606 0 1.08-.166 1.424-.498.348-.332.522-.796.522-1.394v-.58l-.973.041c-.774.027-1.332.148-1.676.363-.34.211-.51.541-.51.99 0 .352.106.619.317.803.215.184.513.275.896.275zm7.494.803c-.929 0-1.65-.285-2.162-.855-.508-.574-.761-1.385-.761-2.432 0-1.074.257-1.904.773-2.49.52-.586 1.258-.879 2.215-.879.308 0 .617.033.926.1.308.066.55.144.726.234l-.299.826a4.363 4.363 0 00-.703-.211 3.074 3.074 0 00-.674-.088c-1.304 0-1.957.832-1.957 2.496 0 .789.159 1.395.475 1.817.32.422.793.633 1.418.633.535 0 1.084-.116 1.646-.346v.861c-.429.223-.97.334-1.623.334zm7.94-.955h2.847v-5.584h.985V125h-8.619v-6.422h.972v5.584h2.842v-5.584h.973v5.584zm6.814-5.584v4.072l-.041 1.067-.017.334 3.474-5.473h1.213V125H194v-3.926l.018-.773.029-.762-3.469 5.461h-1.213v-6.422h.914zm9.68 6.539c-.418 0-.801-.076-1.148-.228a2.197 2.197 0 01-.868-.715h-.07c.047.375.07.73.07 1.066v2.643h-.972v-9.305h.791l.134.879h.047c.25-.352.541-.605.873-.762a2.658 2.658 0 011.143-.234c.852 0 1.508.291 1.969.873.465.582.697 1.398.697 2.449 0 1.055-.236 1.875-.709 2.461-.469.582-1.121.873-1.957.873zm-.141-5.83c-.656 0-1.13.182-1.423.545-.293.363-.444.941-.452 1.734v.217c0 .903.151 1.549.452 1.94.3.386.783.58 1.447.58.554 0 .988-.225 1.301-.674.316-.449.474-1.068.474-1.858 0-.8-.158-1.414-.474-1.839-.313-.43-.754-.645-1.325-.645zm7.225 5.83c-.949 0-1.699-.289-2.25-.867-.547-.578-.82-1.381-.82-2.408 0-1.035.254-1.858.761-2.467.512-.609 1.198-.914 2.057-.914.805 0 1.441.266 1.91.797.469.527.703 1.224.703 2.092v.615h-4.424c.02.754.209 1.326.569 1.717.363.39.873.586 1.529.586.692 0 1.375-.145 2.051-.434v.867c-.344.149-.67.254-.979.317a5.303 5.303 0 01-1.107.099zm-.264-5.842c-.515 0-.927.168-1.236.504-.305.336-.484.801-.539 1.395h3.357c0-.613-.136-1.082-.41-1.406-.273-.329-.664-.493-1.172-.493zm5.262-.697v2.69h3.598v-2.69h.972V125h-.972v-2.895h-3.598V125h-.973v-6.422h.973zm7.547 0v4.072l-.041 1.067-.018.334 3.475-5.473h1.213V125h-.908v-3.926l.017-.773.029-.762-3.468 5.461h-1.213v-6.422h.914zm9.404 6.539c-.949 0-1.699-.289-2.25-.867-.547-.578-.82-1.381-.82-2.408 0-1.035.254-1.858.762-2.467.511-.609 1.197-.914 2.056-.914.805 0 1.442.266 1.91.797.469.527.704 1.224.704 2.092v.615h-4.424c.019.754.209 1.326.568 1.717.363.39.873.586 1.529.586.692 0 1.375-.145 2.051-.434v.867c-.344.149-.67.254-.978.317a5.32 5.32 0 01-1.108.099zm-.263-5.842c-.516 0-.928.168-1.237.504-.304.336-.484.801-.539 1.395h3.358c0-.613-.137-1.082-.411-1.406-.273-.329-.664-.493-1.171-.493zm7.623 4.787l.181-.544.252-.692 1.74-4.236h1.237V125h-.862v-5.303l-.117.34-.34.897-1.658 4.066h-.814l-1.659-4.078a11.985 11.985 0 01-.427-1.225V125h-.867v-6.41h1.189l1.682 4.072c.168.43.322.897.463 1.4zm8.056-2.349c0-1.035.151-2.004.451-2.906a7.265 7.265 0 011.313-2.373h.949a8.324 8.324 0 00-1.271 2.484 9.273 9.273 0 00-.422 2.783c0 .938.144 1.854.433 2.748a8.518 8.518 0 001.248 2.449h-.937a6.91 6.91 0 01-1.313-2.326 8.863 8.863 0 01-.451-2.859zm8.473 2.426h-.053c-.449.652-1.121.978-2.016.978-.839 0-1.494-.287-1.962-.861-.465-.574-.698-1.391-.698-2.449 0-1.059.235-1.881.703-2.467.469-.586 1.122-.879 1.957-.879.872 0 1.54.316 2.004.949h.077l-.041-.463-.024-.451v-2.613h.973V125h-.791l-.129-.861zm-1.945.164c.664 0 1.144-.18 1.441-.539.301-.364.451-.948.451-1.752v-.205c0-.911-.152-1.559-.457-1.946-.301-.39-.783-.586-1.447-.586-.57 0-1.008.223-1.313.668-.3.442-.451 1.067-.451 1.875 0 .821.151 1.44.451 1.858.301.418.743.627 1.325.627zm10.476-2.52c0 1.047-.264 1.865-.791 2.455-.527.586-1.256.879-2.185.879a2.902 2.902 0 01-1.53-.404 2.67 2.67 0 01-1.031-1.16c-.242-.504-.363-1.094-.363-1.77 0-1.047.261-1.861.785-2.443.523-.586 1.25-.879 2.18-.879.898 0 1.611.299 2.138.896.531.598.797 1.407.797 2.426zm-4.892 0c0 .821.164 1.446.492 1.875.328.43.81.645 1.447.645s1.119-.213 1.447-.639c.332-.43.498-1.057.498-1.881 0-.816-.166-1.435-.498-1.857-.328-.426-.814-.639-1.459-.639-.636 0-1.117.209-1.441.627-.324.418-.486 1.041-.486 1.869zm9.169 3.334c-.929 0-1.65-.285-2.162-.855-.507-.574-.761-1.385-.761-2.432 0-1.074.257-1.904.773-2.49.52-.586 1.258-.879 2.215-.879.308 0 .617.033.926.1.308.066.55.144.726.234l-.299.826a4.363 4.363 0 00-.703-.211 3.074 3.074 0 00-.674-.088c-1.304 0-1.957.832-1.957 2.496 0 .789.159 1.395.475 1.817.32.422.793.633 1.418.633.535 0 1.084-.116 1.646-.346v.861c-.429.223-.97.334-1.623.334zm4.172-1.512l.088.135c-.101.391-.248.844-.439 1.36a19.388 19.388 0 01-.598 1.447h-.732c.105-.406.22-.908.345-1.506a21.43 21.43 0 00.27-1.436h1.066zm9.41.534h-.052c-.449.652-1.121.978-2.016.978-.84 0-1.494-.287-1.963-.861-.465-.574-.697-1.391-.697-2.449 0-1.059.234-1.881.703-2.467.469-.586 1.121-.879 1.957-.879.871 0 1.539.316 2.004.949h.076l-.041-.463-.023-.451v-2.613h.972V125h-.791l-.129-.861zm-1.945.164c.664 0 1.145-.18 1.442-.539.3-.364.451-.948.451-1.752v-.205c0-.911-.153-1.559-.457-1.946-.301-.39-.783-.586-1.448-.586-.57 0-1.007.223-1.312.668-.301.442-.451 1.067-.451 1.875 0 .821.15 1.44.451 1.858.301.418.742.627 1.324.627zm10.477-2.52c0 1.047-.264 1.865-.791 2.455-.528.586-1.256.879-2.186.879-.574 0-1.084-.135-1.529-.404a2.67 2.67 0 01-1.031-1.16c-.243-.504-.364-1.094-.364-1.77 0-1.047.262-1.861.786-2.443.523-.586 1.25-.879 2.179-.879.899 0 1.612.299 2.139.896.531.598.797 1.407.797 2.426zm-4.893 0c0 .821.164 1.446.492 1.875.328.43.811.645 1.448.645.636 0 1.119-.213 1.447-.639.332-.43.498-1.057.498-1.881 0-.816-.166-1.435-.498-1.857-.328-.426-.815-.639-1.459-.639-.637 0-1.117.209-1.442.627-.324.418-.486 1.041-.486 1.869zm9.17 3.334c-.93 0-1.65-.285-2.162-.855-.508-.574-.762-1.385-.762-2.432 0-1.074.258-1.904.774-2.49.519-.586 1.258-.879 2.215-.879.308 0 .617.033.925.1.309.066.551.144.727.234l-.299.826a4.394 4.394 0 00-.703-.211 3.081 3.081 0 00-.674-.088c-1.305 0-1.957.832-1.957 2.496 0 .789.158 1.395.475 1.817.32.422.793.633 1.418.633.535 0 1.084-.116 1.646-.346v.861c-.43.223-.971.334-1.623.334zm4.699-3.404l-2.232-3.135h1.107l1.694 2.461 1.687-2.461h1.096l-2.233 3.135 2.35 3.287h-1.102l-1.798-2.602-1.817 2.602h-1.101l2.349-3.287zm5.766 1.892l.088.135c-.102.391-.248.844-.44 1.36a18.98 18.98 0 01-.597 1.447h-.733c.106-.406.221-.908.346-1.506a21.43 21.43 0 00.27-1.436h1.066zm6.586-1.892l-2.233-3.135h1.108l1.693 2.461 1.688-2.461h1.095l-2.232 3.135L312.6 125h-1.102l-1.799-2.602-1.816 2.602h-1.102l2.35-3.287zM314.85 125h-.973v-9.117h.973V125zm6.205-1.752c0 .598-.223 1.059-.668 1.383-.446.324-1.071.486-1.875.486-.852 0-1.516-.135-1.992-.404v-.902c.308.156.638.279.99.369.355.09.697.134 1.025.134.508 0 .899-.08 1.172-.24.273-.164.41-.412.41-.744 0-.25-.109-.463-.328-.639-.215-.179-.637-.39-1.266-.632-.597-.223-1.023-.416-1.277-.58a1.807 1.807 0 01-.562-.569 1.485 1.485 0 01-.182-.756c0-.523.213-.935.639-1.236.425-.305 1.009-.457 1.752-.457a5.13 5.13 0 012.027.422l-.346.791c-.644-.266-1.228-.399-1.752-.399-.461 0-.808.073-1.043.217-.234.145-.351.344-.351.598 0 .172.043.318.129.439.089.121.232.237.427.346.196.109.571.268 1.125.475.762.277 1.276.556 1.541.838.27.281.405.634.405 1.06zm2.607.357l.088.135c-.102.391-.248.844-.439 1.36a19.388 19.388 0 01-.598 1.447h-.733c.106-.406.221-.908.346-1.506a21.43 21.43 0 00.27-1.436h1.066zm6.586-1.892l-2.232-3.135h1.107l1.693 2.461 1.688-2.461h1.096l-2.233 3.135 2.35 3.287h-1.102l-1.799-2.602L329 125h-1.102l2.35-3.287zm5.719 3.287h-.973v-9.117h.973V125zm6.205-1.752c0 .598-.223 1.059-.668 1.383-.445.324-1.07.486-1.875.486-.852 0-1.516-.135-1.992-.404v-.902c.308.156.638.279.99.369.355.09.697.134 1.025.134.508 0 .899-.08 1.172-.24.274-.164.41-.412.41-.744 0-.25-.109-.463-.328-.639-.215-.179-.636-.39-1.265-.632-.598-.223-1.024-.416-1.278-.58a1.807 1.807 0 01-.562-.569 1.495 1.495 0 01-.182-.756c0-.523.213-.935.639-1.236.426-.305 1.01-.457 1.752-.457a5.13 5.13 0 012.027.422l-.346.791c-.644-.266-1.228-.399-1.752-.399-.46 0-.808.073-1.043.217-.234.145-.351.344-.351.598 0 .172.043.318.129.439.09.121.232.237.428.346.195.109.57.268 1.125.475.761.277 1.275.556 1.541.838.269.281.404.634.404 1.06zm3.135-1.535l-2.233-3.135h1.108l1.693 2.461 1.687-2.461h1.096l-2.232 3.135 2.349 3.287h-1.101l-1.799-2.602-1.816 2.602h-1.102l2.35-3.287zm5.765 1.892l.088.135c-.101.391-.248.844-.439 1.36a19.388 19.388 0 01-.598 1.447h-.732c.105-.406.22-.908.345-1.506a21.43 21.43 0 00.27-1.436h1.066zm7.114.709c.171 0 .337-.011.498-.035.16-.027.287-.054.38-.082v.744a1.697 1.697 0 01-.468.123 3.177 3.177 0 01-.551.053c-1.242 0-1.863-.654-1.863-1.963v-3.82h-.92v-.469l.92-.404.41-1.371h.562v1.488h1.864v.756h-1.864v3.779c0 .387.092.684.276.891.183.207.435.31.756.31zm3.714-2.601l-2.232-3.135h1.107l1.694 2.461 1.687-2.461h1.096l-2.232 3.135 2.349 3.287h-1.101l-1.799-2.602-1.817 2.602h-1.101l2.349-3.287zm6.821 2.601c.172 0 .338-.011.498-.035.16-.027.287-.054.381-.082v.744a1.716 1.716 0 01-.469.123 3.177 3.177 0 01-.551.053c-1.242 0-1.863-.654-1.863-1.963v-3.82h-.92v-.469l.92-.404.41-1.371h.562v1.488h1.864v.756h-1.864v3.779c0 .387.092.684.276.891.183.207.435.31.756.31zm3.187-.709l.088.135c-.101.391-.248.844-.439 1.36a19.388 19.388 0 01-.598 1.447h-.732c.105-.406.22-.908.345-1.506a21.43 21.43 0 00.27-1.436h1.066zm7.969-5.144c.285 0 .541.023.768.07l-.135.903a3.29 3.29 0 00-.703-.088c-.52 0-.965.211-1.336.633-.367.421-.551.947-.551 1.576V125h-.973v-6.422h.803l.111 1.19h.047c.238-.418.526-.741.862-.967.335-.227.705-.34 1.107-.34zm4.043 5.853c.172 0 .338-.011.498-.035.16-.027.287-.054.381-.082v.744a1.716 1.716 0 01-.469.123 3.177 3.177 0 01-.551.053c-1.242 0-1.863-.654-1.863-1.963v-3.82h-.92v-.469l.92-.404.41-1.371h.563v1.488h1.863v.756h-1.863v3.779c0 .387.091.684.275.891.184.207.436.31.756.31zm5.062-4.98h-1.634V125h-.973v-5.666h-1.148v-.439l1.148-.352v-.357c0-1.579.689-2.368 2.068-2.368.34 0 .739.069 1.196.205l-.252.78c-.375-.121-.696-.182-.961-.182-.367 0-.639.123-.815.369-.175.242-.263.633-.263 1.172v.416h1.634v.756zm2.192 4.271l.088.135c-.102.391-.248.844-.44 1.36a18.98 18.98 0 01-.597 1.447h-.733c.106-.406.221-.908.346-1.506.129-.598.219-1.076.269-1.436h1.067zm8.027 1.512c-.418 0-.801-.076-1.148-.228a2.187 2.187 0 01-.867-.715h-.071c.047.375.071.73.071 1.066v2.643h-.973v-9.305h.791l.135.879h.047c.25-.352.541-.605.873-.762a2.654 2.654 0 011.142-.234c.852 0 1.508.291 1.969.873.465.582.697 1.398.697 2.449 0 1.055-.236 1.875-.709 2.461-.469.582-1.121.873-1.957.873zm-.14-5.83c-.657 0-1.131.182-1.424.545-.293.363-.444.941-.451 1.734v.217c0 .903.15 1.549.451 1.94.301.386.783.58 1.447.58.555 0 .988-.225 1.301-.674.316-.449.474-1.068.474-1.858 0-.8-.158-1.414-.474-1.839-.313-.43-.754-.645-1.324-.645zm8.882 4.852h-.052c-.45.652-1.121.978-2.016.978-.84 0-1.494-.287-1.963-.861-.465-.574-.697-1.391-.697-2.449 0-1.059.234-1.881.703-2.467.469-.586 1.121-.879 1.957-.879.871 0 1.539.316 2.004.949h.076l-.041-.463-.023-.451v-2.613h.972V125h-.791l-.129-.861zm-1.945.164c.664 0 1.145-.18 1.441-.539.301-.364.452-.948.452-1.752v-.205c0-.911-.153-1.559-.457-1.946-.301-.39-.784-.586-1.448-.586-.57 0-1.007.223-1.312.668-.301.442-.451 1.067-.451 1.875 0 .821.15 1.44.451 1.858.301.418.742.627 1.324.627zm7.828-4.969h-1.635V125h-.972v-5.666h-1.149v-.439l1.149-.352v-.357c0-1.579.689-2.368 2.068-2.368.34 0 .738.069 1.195.205l-.252.78c-.375-.121-.695-.182-.96-.182-.368 0-.639.123-.815.369-.176.242-.264.633-.264 1.172v.416h1.635v.756zm2.192 4.271l.087.135c-.101.391-.248.844-.439 1.36a18.972 18.972 0 01-.598 1.447h-.732c.105-.406.221-.908.346-1.506.129-.598.218-1.076.269-1.436h1.067zm8.027 1.512a2.84 2.84 0 01-1.149-.228 2.2 2.2 0 01-.867-.715h-.07c.047.375.07.73.07 1.066v2.643h-.972v-9.305h.791l.134.879h.047c.25-.352.541-.605.873-.762a2.658 2.658 0 011.143-.234c.851 0 1.508.291 1.969.873.465.582.697 1.398.697 2.449 0 1.055-.236 1.875-.709 2.461-.469.582-1.121.873-1.957.873zm-.141-5.83c-.656 0-1.131.182-1.424.545-.292.363-.443.941-.451 1.734v.217c0 .903.151 1.549.451 1.94.301.386.784.58 1.448.58.554 0 .988-.225 1.301-.674.316-.449.474-1.068.474-1.858 0-.8-.158-1.414-.474-1.839-.313-.43-.754-.645-1.325-.645zm8.907 5.713v-4.154c0-.524-.12-.914-.358-1.172-.238-.258-.611-.387-1.119-.387-.672 0-1.164.182-1.477.545-.312.363-.468.963-.468 1.799V125h-.973v-6.422h.791l.158.879h.047c.199-.316.479-.561.838-.732.359-.176.76-.264 1.201-.264.774 0 1.356.187 1.746.562.391.372.586.967.586 1.788V125h-.972zm8.232-6.422v.615l-1.189.141c.109.137.207.316.292.539.086.219.129.467.129.744 0 .629-.214 1.131-.644 1.506-.43.375-1.02.563-1.77.563-.191 0-.371-.016-.539-.047-.414.218-.621.494-.621.826 0 .176.072.306.217.392.144.082.393.123.744.123h1.137c.695 0 1.228.147 1.599.44.375.293.563.719.563 1.277 0 .711-.285 1.252-.856 1.623-.57.375-1.402.563-2.496.563-.839 0-1.488-.156-1.945-.469-.453-.312-.68-.754-.68-1.324 0-.391.125-.729.375-1.014.25-.285.602-.478 1.055-.58a1.03 1.03 0 01-.416-.346.929.929 0 01-.164-.545c0-.234.062-.439.187-.615s.323-.345.592-.51a1.746 1.746 0 01-.814-.697 2.063 2.063 0 01-.311-1.125c0-.703.211-1.244.633-1.623.422-.383 1.02-.574 1.793-.574.336 0 .639.039.908.117h2.221zm-5.121 7.5c0 .348.146.611.439.791.293.18.713.27 1.26.27.817 0 1.42-.123 1.811-.369.394-.243.591-.573.591-.991 0-.347-.107-.59-.322-.726-.215-.133-.619-.199-1.213-.199h-1.166c-.441 0-.785.105-1.031.316-.246.211-.369.514-.369.908zm.527-5.443c0 .449.127.789.381 1.019.254.231.608.346 1.061.346.949 0 1.423-.461 1.423-1.383 0-.965-.48-1.447-1.441-1.447-.457 0-.809.123-1.055.369-.246.246-.369.611-.369 1.096zm6.932 2.97l.088.135c-.102.391-.248.844-.44 1.36a18.98 18.98 0 01-.597 1.447h-.733c.106-.406.221-.908.346-1.506.129-.598.219-1.076.269-1.436h1.067zm4.26 4.278c-.371 0-.672-.049-.903-.147v-.791c.27.078.535.117.797.117.305 0 .527-.083.668-.251.145-.165.217-.416.217-.756v-7.477h.973v7.406c0 1.266-.584 1.899-1.752 1.899zm.697-11.045c0-.223.055-.385.164-.486a.565.565 0 01.41-.159.57.57 0 01.404.159c.114.105.17.267.17.486 0 .219-.056.383-.17.492a.57.57 0 01-.404.158.564.564 0 01-.41-.158c-.109-.109-.164-.273-.164-.492zm6.105 8.279c-.418 0-.8-.076-1.148-.228a2.187 2.187 0 01-.867-.715h-.071c.047.375.071.73.071 1.066v2.643h-.973v-9.305h.791l.135.879h.047c.25-.352.541-.605.873-.762a2.657 2.657 0 011.142-.234c.852 0 1.508.291 1.969.873.465.582.697 1.398.697 2.449 0 1.055-.236 1.875-.709 2.461-.468.582-1.121.873-1.957.873zm-.14-5.83c-.657 0-1.131.182-1.424.545-.293.363-.443.941-.451 1.734v.217c0 .903.15 1.549.451 1.94.301.386.783.58 1.447.58.555 0 .988-.225 1.301-.674.316-.449.475-1.068.475-1.858 0-.8-.159-1.414-.475-1.839-.313-.43-.754-.645-1.324-.645zm7.224 5.83c-.949 0-1.699-.289-2.25-.867-.547-.578-.82-1.381-.82-2.408 0-1.035.254-1.858.762-2.467.511-.609 1.197-.914 2.056-.914.805 0 1.442.266 1.911.797.468.527.703 1.224.703 2.092v.615h-4.424c.019.754.209 1.326.568 1.717.363.39.873.586 1.529.586a5.17 5.17 0 002.051-.434v.867c-.343.149-.67.254-.978.317a5.32 5.32 0 01-1.108.099zm-.263-5.842c-.516 0-.928.168-1.237.504-.304.336-.484.801-.539 1.395h3.358c0-.613-.137-1.082-.41-1.406-.274-.329-.665-.493-1.172-.493zm9.545-.697v.615l-1.19.141c.11.137.207.316.293.539.086.219.129.467.129.744 0 .629-.215 1.131-.645 1.506-.429.375-1.019.563-1.769.563-.191 0-.371-.016-.539-.047-.414.218-.621.494-.621.826 0 .176.072.306.217.392.144.082.392.123.744.123h1.136c.696 0 1.229.147 1.6.44.375.293.563.719.563 1.277 0 .711-.286 1.252-.856 1.623-.57.375-1.402.563-2.496.563-.84 0-1.488-.156-1.945-.469-.453-.312-.68-.754-.68-1.324 0-.391.125-.729.375-1.014.25-.285.602-.478 1.055-.58a1.03 1.03 0 01-.416-.346.922.922 0 01-.164-.545c0-.234.062-.439.187-.615s.322-.345.592-.51a1.748 1.748 0 01-.815-.697 2.063 2.063 0 01-.31-1.125c0-.703.211-1.244.633-1.623.422-.383 1.019-.574 1.793-.574.336 0 .638.039.908.117h2.221zm-5.121 7.5c0 .348.146.611.439.791.293.18.713.27 1.26.27.816 0 1.42-.123 1.81-.369.395-.243.592-.573.592-.991 0-.347-.107-.59-.322-.726-.215-.133-.619-.199-1.213-.199h-1.166c-.442 0-.785.105-1.031.316-.246.211-.369.514-.369.908zm.527-5.443c0 .449.127.789.381 1.019.254.231.607.346 1.06.346.949 0 1.424-.461 1.424-1.383 0-.965-.48-1.447-1.441-1.447-.457 0-.809.123-1.055.369-.246.246-.369.611-.369 1.096zm6.931 2.97l.088.135c-.101.391-.248.844-.439 1.36a18.972 18.972 0 01-.598 1.447h-.732c.105-.406.221-.908.346-1.506.128-.598.218-1.076.269-1.436h1.066zm4.26 4.278c-.371 0-.672-.049-.902-.147v-.791c.269.078.535.117.797.117.304 0 .527-.083.668-.251.144-.165.217-.416.217-.756v-7.477h.972v7.406c0 1.266-.584 1.899-1.752 1.899zm.698-11.045c0-.223.054-.385.164-.486a.565.565 0 01.41-.159.57.57 0 01.404.159c.113.105.17.267.17.486 0 .219-.057.383-.17.492a.57.57 0 01-.404.158.564.564 0 01-.41-.158c-.11-.109-.164-.273-.164-.492zm6.105 8.279c-.418 0-.801-.076-1.148-.228a2.197 2.197 0 01-.868-.715h-.07c.047.375.07.73.07 1.066v2.643h-.972v-9.305h.791l.134.879h.047c.25-.352.541-.605.873-.762a2.658 2.658 0 011.143-.234c.852 0 1.508.291 1.969.873.465.582.697 1.398.697 2.449 0 1.055-.236 1.875-.709 2.461-.469.582-1.121.873-1.957.873zm-.141-5.83c-.656 0-1.13.182-1.423.545-.293.363-.444.941-.452 1.734v.217c0 .903.151 1.549.452 1.94.3.386.783.58 1.447.58.554 0 .988-.225 1.301-.674.316-.449.474-1.068.474-1.858 0-.8-.158-1.414-.474-1.839-.313-.43-.754-.645-1.325-.645zm9.768-.709v.615l-1.19.141c.11.137.208.316.293.539.086.219.129.467.129.744 0 .629-.214 1.131-.644 1.506-.43.375-1.02.563-1.77.563-.191 0-.371-.016-.539-.047-.414.218-.621.494-.621.826 0 .176.072.306.217.392.144.082.393.123.744.123h1.137c.695 0 1.228.147 1.599.44.375.293.563.719.563 1.277 0 .711-.285 1.252-.856 1.623-.57.375-1.402.563-2.496.563-.84 0-1.488-.156-1.945-.469-.453-.312-.68-.754-.68-1.324 0-.391.125-.729.375-1.014.25-.285.602-.478 1.055-.58a1.03 1.03 0 01-.416-.346.929.929 0 01-.164-.545c0-.234.062-.439.187-.615s.323-.345.592-.51a1.746 1.746 0 01-.814-.697 2.063 2.063 0 01-.311-1.125c0-.703.211-1.244.633-1.623.422-.383 1.02-.574 1.793-.574.336 0 .639.039.908.117h2.221zm-5.121 7.5c0 .348.146.611.439.791.293.18.713.27 1.26.27.816 0 1.42-.123 1.811-.369.394-.243.591-.573.591-.991 0-.347-.107-.59-.322-.726-.215-.133-.619-.199-1.213-.199h-1.166c-.441 0-.785.105-1.031.316-.246.211-.369.514-.369.908zm.527-5.443c0 .449.127.789.381 1.019.254.231.607.346 1.061.346.949 0 1.423-.461 1.423-1.383 0-.965-.48-1.447-1.441-1.447-.457 0-.809.123-1.055.369-.246.246-.369.611-.369 1.096zm6.932 2.97l.088.135c-.102.391-.248.844-.44 1.36a18.98 18.98 0 01-.597 1.447h-.733c.106-.406.221-.908.346-1.506.129-.598.219-1.076.269-1.436h1.067zm10.295-5.027v.615l-1.19.141c.11.137.207.316.293.539.086.219.129.467.129.744 0 .629-.215 1.131-.644 1.506-.43.375-1.02.563-1.77.563-.191 0-.371-.016-.539-.047-.414.218-.621.494-.621.826 0 .176.072.306.217.392.144.082.392.123.744.123h1.137c.695 0 1.228.147 1.599.44.375.293.563.719.563 1.277 0 .711-.285 1.252-.856 1.623-.57.375-1.402.563-2.496.563-.84 0-1.488-.156-1.945-.469-.453-.312-.68-.754-.68-1.324 0-.391.125-.729.375-1.014.25-.285.602-.478 1.055-.58a1.03 1.03 0 01-.416-.346.922.922 0 01-.164-.545c0-.234.062-.439.187-.615s.323-.345.592-.51a1.746 1.746 0 01-.814-.697 2.063 2.063 0 01-.311-1.125c0-.703.211-1.244.633-1.623.422-.383 1.019-.574 1.793-.574.336 0 .639.039.908.117h2.221zm-5.121 7.5c0 .348.146.611.439.791.293.18.713.27 1.26.27.816 0 1.42-.123 1.81-.369.395-.243.592-.573.592-.991 0-.347-.107-.59-.322-.726-.215-.133-.619-.199-1.213-.199h-1.166c-.441 0-.785.105-1.031.316-.246.211-.369.514-.369.908zm.527-5.443c0 .449.127.789.381 1.019.254.231.607.346 1.06.346.95 0 1.424-.461 1.424-1.383 0-.965-.48-1.447-1.441-1.447-.457 0-.809.123-1.055.369-.246.246-.369.611-.369 1.096zM508.76 125h-.973v-6.422h.973V125zm-1.055-8.162c0-.223.055-.385.164-.486a.567.567 0 01.41-.159c.157 0 .291.053.405.159.113.105.17.267.17.486 0 .219-.057.383-.17.492a.572.572 0 01-.405.158.566.566 0 01-.41-.158c-.109-.109-.164-.273-.164-.492zm6.012 2.496h-1.635V125h-.973v-5.666h-1.148v-.439l1.148-.352v-.357c0-1.579.69-2.368 2.069-2.368.34 0 .738.069 1.195.205l-.252.78c-.375-.121-.695-.182-.961-.182-.367 0-.639.123-.814.369-.176.242-.264.633-.264 1.172v.416h1.635v.756zm3.211 2.379a8.798 8.798 0 01-.457 2.871 6.831 6.831 0 01-1.307 2.314h-.937a8.433 8.433 0 001.248-2.443 8.936 8.936 0 00.433-2.754c0-.953-.142-1.881-.428-2.783a8.216 8.216 0 00-1.265-2.484h.949a7.184 7.184 0 011.313 2.384c.3.903.451 1.868.451 2.895zm5.543-3.135v4.072l-.041 1.067-.018.334 3.475-5.473h1.213V125h-.909v-3.926l.018-.773.029-.762L522.77 125h-1.213v-6.422h.914zm-334.899 24.539c-.418 0-.801-.076-1.148-.228a2.187 2.187 0 01-.867-.715h-.071c.047.375.071.73.071 1.066v2.643h-.973v-9.305h.791l.135.879h.047c.25-.352.541-.605.873-.762a2.657 2.657 0 011.142-.234c.852 0 1.508.291 1.969.873.465.582.697 1.398.697 2.449 0 1.055-.236 1.875-.709 2.461-.468.582-1.121.873-1.957.873zm-.14-5.83c-.657 0-1.131.182-1.424.545-.293.363-.444.941-.451 1.734v.217c0 .903.15 1.549.451 1.94.301.386.783.58 1.447.58.555 0 .988-.225 1.301-.674.316-.449.474-1.068.474-1.858 0-.8-.158-1.414-.474-1.839-.313-.43-.754-.645-1.324-.645zm8.461 5.713l-.194-.914h-.047c-.32.402-.64.676-.961.82-.316.141-.712.211-1.189.211-.637 0-1.137-.164-1.5-.492-.359-.328-.539-.795-.539-1.4 0-1.297 1.037-1.977 3.111-2.039l1.09-.036v-.398c0-.504-.109-.875-.328-1.113-.215-.243-.561-.364-1.037-.364-.535 0-1.141.164-1.817.493l-.298-.745a4.631 4.631 0 012.173-.55c.766 0 1.332.17 1.7.509.371.34.556.885.556 1.635V143h-.72zm-2.198-.686c.606 0 1.08-.166 1.424-.498.348-.332.522-.796.522-1.394v-.58l-.973.041c-.773.027-1.332.148-1.676.363-.34.211-.51.541-.51.99 0 .352.106.619.317.803.215.184.513.275.896.275zm6.153-3.07c1.214 0 1.822-.336 1.822-1.008 0-.632-.492-.949-1.477-.949-.3 0-.574.027-.82.082a6.325 6.325 0 00-.967.328l-.345-.791a5.26 5.26 0 012.173-.445c.739 0 1.321.152 1.746.457.426.301.639.713.639 1.236 0 .719-.4 1.19-1.201 1.412v.047c.492.145.852.352 1.078.621.227.266.34.6.34 1.002 0 .594-.24 1.057-.721 1.389-.476.328-1.136.492-1.98.492-.926 0-1.641-.138-2.145-.416v-.89a5.067 5.067 0 002.168.503c.563 0 .987-.095 1.272-.287.289-.195.433-.474.433-.838 0-.746-.607-1.119-1.822-1.119h-.891v-.826h.698zm7.91 2.818l.181-.544.252-.692 1.741-4.236h1.236V143h-.861v-5.303l-.118.34-.339.897-1.659 4.066h-.814l-1.658-4.078c-.207-.524-.35-.932-.428-1.225V143h-.867v-6.41h1.189l1.682 4.072c.168.43.322.897.463 1.4zm8.203 1.055c-.949 0-1.699-.289-2.25-.867-.547-.578-.82-1.381-.82-2.408 0-1.035.254-1.858.761-2.467.512-.609 1.198-.914 2.057-.914.805 0 1.441.266 1.91.797.469.527.703 1.224.703 2.092v.615h-4.424c.02.754.209 1.326.569 1.717.363.39.873.586 1.529.586.692 0 1.375-.145 2.051-.434v.867c-.344.149-.67.254-.979.317a5.303 5.303 0 01-1.107.099zm-.264-5.842c-.515 0-.927.168-1.236.504-.305.336-.484.801-.539 1.395h3.357c0-.613-.136-1.082-.41-1.406-.273-.329-.664-.493-1.172-.493zm7.278 5.842a2.84 2.84 0 01-1.149-.228 2.187 2.187 0 01-.867-.715h-.07c.047.375.07.73.07 1.066v2.643h-.973v-9.305h.791l.135.879h.047c.25-.352.541-.605.873-.762a2.658 2.658 0 011.143-.234c.851 0 1.507.291 1.968.873.465.582.698 1.398.698 2.449 0 1.055-.237 1.875-.709 2.461-.469.582-1.121.873-1.957.873zm-.141-5.83c-.656 0-1.131.182-1.424.545-.293.363-.443.941-.451 1.734v.217c0 .903.15 1.549.451 1.94.301.386.783.58 1.447.58.555 0 .989-.225 1.301-.674.317-.449.475-1.068.475-1.858 0-.8-.158-1.414-.475-1.839-.312-.43-.754-.645-1.324-.645zm10.055 2.496c0 1.047-.264 1.865-.791 2.455-.528.586-1.256.879-2.186.879-.574 0-1.084-.135-1.529-.404a2.67 2.67 0 01-1.031-1.16c-.243-.504-.364-1.094-.364-1.77 0-1.047.262-1.861.785-2.443.524-.586 1.25-.879 2.18-.879.899 0 1.611.299 2.139.896.531.598.797 1.407.797 2.426zm-4.893 0c0 .821.164 1.446.492 1.875.328.43.811.645 1.448.645.636 0 1.119-.213 1.447-.639.332-.43.498-1.057.498-1.881 0-.816-.166-1.435-.498-1.857-.328-.426-.815-.639-1.459-.639-.637 0-1.117.209-1.442.627-.324.418-.486 1.041-.486 1.869zm9.938 2.279l.181-.544.252-.692 1.74-4.236h1.237V143h-.862v-5.303l-.117.34-.34.897-1.658 4.066h-.814l-1.658-4.078c-.207-.524-.35-.932-.428-1.225V143h-.867v-6.41h1.189l1.682 4.072c.168.43.322.897.463 1.4zm6.509-.457l.088.135c-.101.391-.248.844-.439 1.36a19.388 19.388 0 01-.598 1.447h-.732c.105-.406.22-.908.345-1.506a21.43 21.43 0 00.27-1.436h1.066zm6.012-5.027v2.69h3.598v-2.69h.972V143h-.972v-2.895h-3.598V143h-.973v-6.422h.973zm9.346 6.539c-.949 0-1.699-.289-2.25-.867-.547-.578-.821-1.381-.821-2.408 0-1.035.254-1.858.762-2.467.512-.609 1.197-.914 2.057-.914.805 0 1.441.266 1.91.797.469.527.703 1.224.703 2.092v.615h-4.424c.02.754.209 1.326.569 1.717.363.39.873.586 1.529.586.691 0 1.375-.145 2.051-.434v.867c-.344.149-.67.254-.979.317a5.31 5.31 0 01-1.107.099zm-.264-5.842c-.516 0-.928.168-1.236.504-.305.336-.485.801-.539 1.395h3.357c0-.613-.137-1.082-.41-1.406-.273-.329-.664-.493-1.172-.493zm8.379 5.725h-.973v-6.422h5.391V143h-.984v-5.578h-3.434V143zm9.469.117a2.84 2.84 0 01-1.149-.228 2.2 2.2 0 01-.867-.715h-.07c.047.375.07.73.07 1.066v2.643h-.973v-9.305h.792l.134.879h.047c.25-.352.541-.605.873-.762a2.658 2.658 0 011.143-.234c.851 0 1.508.291 1.969.873.464.582.697 1.398.697 2.449 0 1.055-.237 1.875-.709 2.461-.469.582-1.121.873-1.957.873zm-.141-5.83c-.656 0-1.131.182-1.424.545-.293.363-.443.941-.451 1.734v.217c0 .903.151 1.549.451 1.94.301.386.784.58 1.448.58.554 0 .988-.225 1.3-.674.317-.449.475-1.068.475-1.858 0-.8-.158-1.414-.475-1.839-.312-.43-.754-.645-1.324-.645zm7.225 5.83c-.949 0-1.699-.289-2.25-.867-.547-.578-.821-1.381-.821-2.408 0-1.035.254-1.858.762-2.467.512-.609 1.197-.914 2.057-.914.804 0 1.441.266 1.91.797.469.527.703 1.224.703 2.092v.615h-4.424c.02.754.209 1.326.569 1.717.363.39.873.586 1.529.586.691 0 1.375-.145 2.051-.434v.867c-.344.149-.67.254-.979.317a5.316 5.316 0 01-1.107.099zm-.264-5.842c-.516 0-.928.168-1.236.504-.305.336-.485.801-.539 1.395h3.357c0-.613-.137-1.082-.41-1.406-.273-.329-.664-.493-1.172-.493zm9.498.914c0 .418-.121.737-.363.956-.238.214-.574.359-1.008.433v.053c.547.074.945.234 1.195.48.254.246.381.586.381 1.02 0 .598-.22 1.058-.662 1.383-.437.324-1.078.486-1.922.486h-2.83v-6.422h2.818c1.594 0 2.391.537 2.391 1.611zm-.767 2.877c0-.347-.133-.599-.399-.755-.262-.161-.697-.241-1.307-.241h-1.763v2.116h1.787c1.121 0 1.682-.374 1.682-1.12zm-.182-2.783c0-.312-.121-.533-.363-.662-.239-.133-.602-.199-1.09-.199h-1.834v1.81h1.646c.602 0 1.026-.074 1.272-.222.246-.149.369-.391.369-.727zm3.545.949h1.752c.816 0 1.42.153 1.81.457.395.301.592.752.592 1.354 0 .645-.209 1.133-.627 1.465-.414.328-1.025.492-1.834.492h-2.666v-6.422h.973v2.654zm6.205 3.768h-.973v-6.422h.973V143zm-6.205-2.93v2.116h1.646c1.032 0 1.547-.362 1.547-1.084 0-.36-.119-.622-.357-.786-.239-.164-.645-.246-1.219-.246h-1.617zm13.06 2.092h2.848v-5.584h.984V143h-8.619v-6.422h.973v5.584h2.842v-5.584h.972v5.584zm9.85.838l-.193-.914h-.047c-.321.402-.641.676-.961.82-.317.141-.713.211-1.19.211-.636 0-1.136-.164-1.5-.492-.359-.328-.539-.795-.539-1.4 0-1.297 1.037-1.977 3.112-2.039l1.089-.036v-.398c0-.504-.109-.875-.328-1.113-.214-.243-.56-.364-1.037-.364-.535 0-1.14.164-1.816.493l-.299-.745a4.631 4.631 0 012.174-.55c.765 0 1.332.17 1.699.509.371.34.557.885.557 1.635V143h-.721zm-2.197-.686c.605 0 1.08-.166 1.424-.498.347-.332.521-.796.521-1.394v-.58l-.973.041c-.773.027-1.332.148-1.675.363-.34.211-.51.541-.51.99 0 .352.105.619.316.803.215.184.514.275.897.275zm13.195-2.531c0 1.051-.252 1.869-.756 2.455-.5.586-1.187.879-2.062.879-.832 0-1.493-.26-1.981-.779-.488-.524-.76-1.268-.814-2.233h-1.682V143h-.973v-6.422h.973v2.69h1.693c.079-.891.364-1.58.856-2.069.492-.492 1.143-.738 1.951-.738.859 0 1.539.299 2.039.896.504.594.756 1.403.756 2.426zm-4.605 0c0 .824.142 1.451.427 1.881.285.426.742.639 1.371.639.618 0 1.071-.207 1.36-.621.293-.418.439-1.051.439-1.899 0-.82-.142-1.441-.428-1.863-.285-.422-.742-.633-1.371-.633s-1.086.211-1.371.633c-.285.422-.427 1.043-.427 1.863zm11.097 2.379h2.848v-5.572h.973v5.572h.919v3.047h-.984V143h-8.543v-6.41h.973v5.572h2.842v-5.572h.972v5.572zm6.897-5.584v4.072l-.041 1.067-.018.334 3.475-5.473h1.213V143h-.909v-3.926l.018-.773.029-.762-3.468 5.461h-1.213v-6.422h.914zm10.025 5.484l.182-.544.252-.692 1.74-4.236h1.236V143h-.861v-5.303l-.117.34-.34.897-1.658 4.066h-.815l-1.658-4.078c-.207-.524-.35-.932-.428-1.225V143h-.867v-6.41h1.19l1.681 4.072c.168.43.322.897.463 1.4zm13.793.938h-5.631v-.838l2.256-2.267c.688-.696 1.141-1.192 1.359-1.489.219-.297.383-.586.493-.867a2.49 2.49 0 00.164-.908c0-.457-.139-.819-.416-1.084-.278-.27-.662-.404-1.155-.404-.355 0-.693.058-1.013.175-.317.118-.67.33-1.061.639l-.515-.662c.789-.656 1.648-.984 2.578-.984.804 0 1.435.207 1.892.621.457.41.686.963.686 1.658 0 .543-.153 1.08-.457 1.611-.305.531-.875 1.203-1.711 2.016l-1.875 1.834v.047h4.406V143zm6.914-4.295c0 1.481-.234 2.586-.703 3.316-.465.731-1.178 1.096-2.139 1.096-.922 0-1.623-.373-2.103-1.119-.481-.75-.721-1.848-.721-3.293 0-1.492.233-2.6.697-3.322.465-.723 1.174-1.084 2.127-1.084.93 0 1.635.377 2.116 1.131.484.754.726 1.845.726 3.275zm-4.682 0c0 1.246.147 2.154.44 2.725.293.566.76.849 1.4.849.649 0 1.118-.287 1.407-.861.293-.578.439-1.482.439-2.713 0-1.23-.146-2.131-.439-2.701-.289-.574-.758-.861-1.407-.861-.64 0-1.107.283-1.4.849-.293.563-.44 1.467-.44 2.713zM383.018 143l-2.907-7.594h-.047c.055.602.082 1.317.082 2.145V143h-.919v-8.566h1.5l2.712 7.066h.047l2.737-7.066h1.488V143h-.996v-5.52c0-.632.027-1.32.082-2.062h-.047L383.82 143h-.802zm12.603-2.496c0 .851-.254 1.48-.762 1.887-.504.406-1.265.609-2.285.609h-2.508v-8.566h5.051v.884h-4.055v2.772h1.331c.753 0 1.367.088 1.839.264.473.171.823.427 1.049.767.227.34.34.801.34 1.383zm-4.559 1.635h1.401c.742 0 1.281-.127 1.617-.381.34-.254.51-.672.51-1.254 0-.555-.172-.949-.516-1.184-.344-.234-.943-.351-1.799-.351h-1.213v3.17zm6.077.24c0-.262.058-.459.175-.592.122-.137.293-.205.516-.205.227 0 .402.068.527.205.129.133.194.33.194.592 0 .254-.065.449-.194.586-.128.137-.304.205-.527.205a.713.713 0 01-.498-.182c-.129-.125-.193-.328-.193-.609z" fill="#969696"/></svg>