<svg width="61" height="56" viewBox="0 0 61 56" fill="none" xmlns="http://www.w3.org/2000/svg"><path d="M28.108 8.238l1.196.598 5.284 2.349 1.893 1.24V19.6l-2.392 4.186-5.383 3.588-1.794-1.195-2.99-1.795c-.997-1.395-2.99-4.306-2.99-4.784v-7.176c1.594-.798 4.784-2.512 4.784-2.99 0-.48 1.595-.997 2.392-1.197z" fill="#FCB317"/><path d="M54.567.465H15.123c-3.424 0-6.209 2.759-6.209 6.14L8.66 41.336H.962c-.545 0-.962.483-.962 1.028v4.78c0 4.475 3.581 8.135 7.903 8.335v.058h33.216v-.065c.247.01.397.065.567.065h.023a8.35 8.35 0 008.301-8.394v-30.38h10.028c.545 0 .962-.494.962-1.038V6.954a6.479 6.479 0 00-6.433-6.49zM8.335 53.562h-.007c-3.514 0-6.352-2.904-6.352-6.418v-3.831H33.34v3.815a8.36 8.36 0 002.44 5.933c.168.168.342.254.52.501H8.336zm39.7-6.419c0 3.515-2.812 6.419-6.327 6.419h-.02a6.418 6.418 0 01-6.372-6.434v-4.763a1.023 1.023 0 00-.988-1.028H10.636l.254-34.726c0-2.297 1.899-4.17 4.233-4.17h34.78c-1.125 1.234-1.869 2.797-1.869 4.54v40.162zm10.99-40.17v7.816H50.01v-7.81c0-2.472 2.057-4.538 4.528-4.538h.028a4.503 4.503 0 014.458 4.524v.007z" fill="#000"/><path d="M23.197 24.782l5.093 3.482a.97.97 0 001.104 0l5.078-3.481c1.764-1.204 3.066-3.72 3.066-5.853v-7.045a.966.966 0 00-.526-.887l-7.755-3.815a.97.97 0 00-.864 0l-7.74 3.804a.964.964 0 00-.526.887v7.056c0 2.134 1.306 4.65 3.07 5.852zM22.103 12.49l6.73-3.32 6.73 3.329v6.43c0 1.488-.976 3.38-2.206 4.22l-4.536 3.102-4.517-3.102c-1.23-.84-2.2-2.732-2.2-4.22v-6.44z" fill="#000"/><path d="M27.162 20.42a.986.986 0 00.7.296h.002a.989.989 0 00.698-.293l3.93-3.93a.988.988 0 10-1.397-1.399l-3.228 3.227-1.29-1.302a.988.988 0 10-1.404 1.391l1.99 2.01zM41.12 31.09H17.412a.988.988 0 000 1.976H41.12a.988.988 0 000-1.976zm0 4.566H17.412a.988.988 0 000 1.976H41.12a.988.988 0 000-1.976z" fill="#000"/></svg>