<svg width="50" height="61" viewBox="0 0 50 61" fill="none" xmlns="http://www.w3.org/2000/svg"><path d="M21.5 22.965l3-7.5h.5l3 7.5h2.5l5.5.5-.5 2-5.5 4c.667 2.333 2 7.1 2 7.5 0 .4-1.333.166-2 0l-5.5-4-6 4-1-1 2-6.5-5-4.5-.5-1.5 7.5-.5z" fill="#FCB317"/><path d="M.218 52.59l6.295-8.093a9.112 9.112 0 01-4.98-3.687C.05 38.247.72 35.12 1.369 32.1a23.79 23.79 0 00.7-4.739 23.74 23.74 0 00-.7-4.742c-.644-3.022-1.319-6.148.164-8.706 1.535-2.652 4.626-3.634 7.615-4.582 1.489-.41 2.93-.974 4.3-1.684a21.015 21.015 0 003.447-2.793c2.218-2.058 4.732-4.39 7.933-4.39 3.2 0 5.716 2.332 7.935 4.39a21.02 21.02 0 003.444 2.793 22.15 22.15 0 004.3 1.68c2.99.948 6.08 1.93 7.616 4.582 1.482 2.562.812 5.69.163 8.71a23.784 23.784 0 00-.7 4.742c.074 1.6.308 3.19.701 4.742.645 3.023 1.319 6.148-.163 8.707a9.112 9.112 0 01-4.986 3.685l6.3 8.093a1.034 1.034 0 01-.945 1.662l-7.397-.924-1.825 6.389a1.034 1.034 0 01-1.812.35l-6.606-8.497a9.566 9.566 0 01-6.025 2.69 9.566 9.566 0 01-6.025-2.69l-6.606 8.494a1.034 1.034 0 01-1.811-.347L8.56 53.327l-7.397.924a1.035 1.035 0 01-.945-1.662zm37.624 4.597l1.51-5.282c.14-.49.616-.805 1.122-.742l5.793.724-5.192-6.675-.573.183a22.151 22.151 0 00-4.295 1.68 21.015 21.015 0 00-3.446 2.794l-.355.329 5.436 6.989zm-13.014-4.998c2.39 0 4.4-1.862 6.529-3.836a22.801 22.801 0 013.816-3.07 23.99 23.99 0 014.71-1.861c2.734-.868 5.317-1.688 6.45-3.647 1.083-1.871.524-4.48-.068-7.241a25.335 25.335 0 01-.747-5.173c.07-1.745.32-3.478.746-5.172.592-2.761 1.151-5.369.069-7.241-1.138-1.96-3.717-2.779-6.451-3.647a24 24 0 01-4.71-1.862 22.804 22.804 0 01-3.814-3.07c-2.13-1.973-4.14-3.835-6.53-3.835-2.39 0-4.4 1.862-6.529 3.836a22.8 22.8 0 01-3.816 3.069c-1.5.785-3.079 1.41-4.71 1.862-2.734.868-5.317 1.687-6.45 3.647-1.083 1.871-.524 4.479.069 7.241.426 1.694.676 3.427.746 5.172a25.323 25.323 0 01-.745 5.173c-.593 2.76-1.152 5.369-.07 7.241 1.138 1.96 3.717 2.779 6.451 3.647a23.998 23.998 0 014.71 1.862 22.799 22.799 0 013.814 3.07c2.13 1.973 4.14 3.835 6.53 3.835zm-15.65-1.026c.505-.063.981.252 1.122.742l1.514 5.282 5.435-6.988-.355-.33a21.02 21.02 0 00-3.445-2.794 22.152 22.152 0 00-4.3-1.68l-.572-.183-5.193 6.675 5.793-.724z" fill="#000"/><path d="M24.827 8.742c10.284 0 18.62 8.337 18.62 18.62 0 10.285-8.337 18.622-18.62 18.622-10.284 0-18.621-8.337-18.621-18.621.012-10.28 8.342-18.609 18.62-18.62zm0 35.173c9.14 0 16.551-7.41 16.551-16.552 0-9.141-7.41-16.552-16.551-16.552-9.142 0-16.552 7.41-16.552 16.552.01 9.137 7.415 16.54 16.552 16.552z" fill="#000"/><path d="M12.89 23.041a2.068 2.068 0 011.672-.851h6.333l1.965-6.028a2.069 2.069 0 013.931 0l1.96 6.028h6.34a2.069 2.069 0 011.218 3.741l-5.127 3.724 1.958 6.029a2.069 2.069 0 01-3.184 2.313l-5.13-3.724-5.128 3.725a2.04 2.04 0 01-2.433 0 2.039 2.039 0 01-.751-2.313l1.958-6.03-5.127-3.724a2.069 2.069 0 01-.455-2.89zm7.407 5.383c.363.264.515.732.376 1.158l-2.191 6.743 5.736-4.167a1.034 1.034 0 011.215 0l5.736 4.167-2.19-6.743a1.035 1.035 0 01.376-1.157l5.735-4.166H28c-.447 0-.845-.289-.983-.715L24.826 16.8l-2.191 6.742a1.034 1.034 0 01-.984.715h-7.09l5.736 4.166z" fill="#000"/></svg>