<svg width="58" height="61" viewBox="0 0 58 61" fill="none" xmlns="http://www.w3.org/2000/svg"><path d="M27.025 15.115c.366-1.1 2.901-.458 4.123 0 .458.458 1.282 1.557.916 2.29-.366.733-.764 1.832-.916 2.29-.611.153-2.29.367-4.123 0-2.29-.458-.458-1.374-.458-2.29 0-.916 0-.916.458-2.29z" fill="#FCB317"/><path d="M12.041 38.935c0-.367 3.141-.458 4.712-.458l1.047 3.206.523 17.864-7.329-.458V47.638c.35-2.749 1.047-8.337 1.047-8.703z" fill="#FCB317" stroke="#000"/><path d="M56.793 15.243L30.156.3c-.714-.4-1.6-.4-2.312 0L1.206 15.243a2.364 2.364 0 000 4.12l6.89 3.865v13.029c0 .787.391 1.52 1.044 1.959l1.409.948a4.456 4.456 0 00-.596 2.231v17.887a1.18 1.18 0 001.18 1.181h6.614a1.18 1.18 0 001.18-1.18V44.804l8.754 5.893a2.357 2.357 0 002.638 0L48.86 38.216a2.36 2.36 0 001.043-1.96V23.229l6.89-3.865a2.364 2.364 0 000-4.12zm-46.334 9.31l2.8 1.571v10.942a4.49 4.49 0 00-.995.406l-1.805-1.215V24.554zm6.107 18.027v1.924h-4.252v-3.109c0-1.172.954-2.126 2.126-2.126s2.126.954 2.126 2.126v1.185zm-4.252 15.522V46.867h4.252v11.235h-4.252zM47.54 36.257L30.18 47.944v-4.896a1.181 1.181 0 00-2.362 0v4.896l-8.892-5.986v-.563a4.495 4.495 0 00-3.306-4.33V27.45l12.223 6.857c.357.2.756.3 1.156.3.4 0 .799-.1 1.156-.3l17.385-9.752v11.703zm.726-14.819a1.174 1.174 0 00-.23.129L29 32.247l-12.102-6.79 9.044-5.086c.823.59 1.885.948 3.044.948 2.605 0 4.724-1.802 4.724-4.016s-2.12-4.015-4.724-4.015c-2.605 0-4.724 1.801-4.724 4.015 0 .412.074.81.21 1.185l-9.986 5.617-4.524-2.538a1.173 1.173 0 00-.23-.128l-7.37-4.136L29 2.36l26.638 14.943-7.371 4.135zm-21.643-4.135c0-.896 1.082-1.653 2.362-1.653s2.362.757 2.362 1.653c0 .897-1.082 1.654-2.362 1.654s-2.362-.757-2.362-1.654z" fill="#000"/></svg>