<svg width="61" height="61" viewBox="0 0 61 61" fill="none" xmlns="http://www.w3.org/2000/svg"><g clip-path="url(#clip0)"><path d="M32.163 11.02L58.78 38.243l1.109 1.11-1.11 2.779-4.435 3.333-2.773-1.667L28.28 21.02l-8.873-10L23 8.965l3.063-3.5 6.1 5.555z" fill="#FCB317"/><path d="M1.191 60.64H59.81a1.19 1.19 0 001.1-.724 1.162 1.162 0 00-.258-1.28L2.034.867A1.204 1.204 0 00.735.613C.29.795 0 1.223 0 1.698v57.768c0 .649.533 1.174 1.191 1.174zM2.383 4.532l9.583 9.445-2.528 2.49a1.162 1.162 0 000 1.66c.465.459 1.22.46 1.685 0l2.528-2.49 5.055 4.982-2.528 2.49a1.163 1.163 0 000 1.661c.464.458 1.22.46 1.685 0l2.528-2.49 5.054 4.981-2.527 2.491a1.162 1.162 0 000 1.66c.465.459 1.22.459 1.685 0l2.527-2.49 5.055 4.981-2.527 2.491a1.162 1.162 0 000 1.66 1.2 1.2 0 001.684 0l2.528-2.49 5.055 4.981-2.527 2.492a1.162 1.162 0 000 1.66c.465.459 1.22.459 1.685 0l2.526-2.491 5.055 4.981-2.527 2.492a1.162 1.162 0 000 1.66c.465.459 1.22.459 1.685 0l2.527-2.491 9.583 9.444H2.382V4.532z" fill="#000"/><path d="M12.28 24.938a1.205 1.205 0 00-1.299-.255c-.444.182-.735.61-.735 1.085V49.37c0 .648.533 1.174 1.191 1.174h23.949a1.19 1.19 0 001.1-.725 1.163 1.163 0 00-.258-1.28L12.28 24.938zm.349 23.258V28.603l19.88 19.593H12.63zm5.456-35.706L51.53 45.45a3.61 3.61 0 005.055 0l3.369-3.321a3.493 3.493 0 000-4.982L26.51 4.187a1.191 1.191 0 00-.466-.283L15.935.584c-.428-.14-.9-.031-1.219.283-.319.315-.43.78-.288 1.202l3.37 9.963c.058.173.157.33.287.458zm40.182 26.317a1.164 1.164 0 010 1.661l-3.368 3.32c-.466.46-1.22.46-1.686 0l-2.581-2.543 5.054-4.982 2.581 2.544zm-4.265-4.205l-5.056 4.982-1.684-1.66 5.055-4.981 1.685 1.66zM26.456 7.456L50.632 31.28l-5.055 4.982-24.176-23.826 5.055-4.981zM24.645 5.92l-4.802 4.732-2.4-7.098 7.201 2.366z" fill="#000"/></g><defs><clipPath id="clip0"><path fill="#fff" d="M0 .465h61v60H0z"/></clipPath></defs></svg>