<svg width="52" height="63" viewBox="0 0 52 63" fill="none" xmlns="http://www.w3.org/2000/svg"><path d="M27.686 17.465C24.333 20.647 17.503 27.01 17 27.01v18.455l6.914-.637.629-9.545h7.543v10.182L39 44.828V28.283L27.686 17.465z" fill="#FCB317"/><path d="M49.586.465H6.06c-1.29 0-2.34 1.05-2.34 2.34v1.66h-.858A2.865 2.865 0 000 7.329a2.865 2.865 0 002.862 2.862h.857v3.93h-.857A2.865 2.865 0 000 16.983a2.865 2.865 0 002.862 2.861h.857v3.931h-.857A2.865 2.865 0 000 26.638a2.865 2.865 0 002.862 2.861h.857v3.931h-.857A2.865 2.865 0 000 36.292a2.865 2.865 0 002.862 2.862h.857v3.931h-.857A2.865 2.865 0 000 45.947a2.865 2.865 0 002.862 2.862h.857v3.93h-.857A2.865 2.865 0 000 55.603a2.865 2.865 0 002.862 2.862h.857v1.66c0 1.29 1.05 2.34 2.34 2.34h43.527c1.29 0 2.341-1.05 2.341-2.34V2.805c0-1.29-1.05-2.34-2.341-2.34zM3.719 8.352h-.857a1.025 1.025 0 010-2.048h.857v2.048zm0 9.654h-.857a1.024 1.024 0 010-2.047h.857v2.047zm0 9.655h-.857a1.025 1.025 0 010-2.048h.857v2.048zm0 9.655h-.857a1.025 1.025 0 010-2.048h.857v2.048zm0 9.654h-.857a1.025 1.025 0 010-2.047h.857v2.047zm0 9.655h-.857a1.024 1.024 0 010-2.047h.857v2.047zm46.37 3.499a.503.503 0 01-.503.503H6.06a.503.503 0 01-.502-.503V2.805c0-.276.225-.502.502-.502h43.526c.277 0 .502.226.502.502v57.319z" fill="#000"/><path d="M38.513 45.465H16.487c-.262 0-.487-.212-.487-.46v-17.08c0-.248.225-.46.487-.46s.487.212.487.46v16.62h21.052v-16.62c0-.248.225-.46.487-.46s.487.212.487.46v17.08c0 .248-.225.46-.487.46z" fill="#010202" stroke="#010102" stroke-miterlimit="10"/><path d="M43.482 32.465a.45.45 0 01-.335-.153L27.977 17.64l-15.17 14.672c-.187.191-.523.191-.672-.038a.463.463 0 01.038-.688l15.505-14.978a.464.464 0 01.671 0l15.506 14.978a.535.535 0 01.037.688c-.186.153-.298.19-.41.19zm-11.95 13h-8.03c-.27 0-.502-.215-.502-.466V34.931c0-.251.232-.466.502-.466h7.992c.27 0 .502.215.502.466v10.068c.038.25-.193.466-.463.466zm-7.528-.932h6.988v-9.137h-6.988v9.137z" fill="#010202" stroke="#010102" stroke-miterlimit="10"/></svg>