<svg width="63" height="63" viewBox="0 0 63 63" fill="none" xmlns="http://www.w3.org/2000/svg"><path d="M17 53.463l2-2.5-1-4 1.5-3.5c0-1.833.2-5.7 1-6.5l4.358-4.358c-2.728.597-1.104.17.142-.142l-.142.142.642-.142c4.5-1 8.5-1.5 10.5-.5s3.5 1.5 4.5 3 1 3.5 1.5 5-.5 2 .5 3.5 1.5 3 1.5 3.5 0 .5-.5 1.5-2 1-1 2.5c.8 1.2 2 2.5 2.5 3 0 .5-.2 1.5-1 1.5-1 0-1 0-1.5.5-.4.4-1.833.167-2.5 0l-2.5-2c-.333-.333-1.1-1-1.5-1-.4 0 .5-2 1-3 .833-1.5 2.2-4.9 1-6.5-1.2-1.6-2.5-2.666-3-3-.333-.333-1.2-1-2-1s-2.667-1-3.5-1.5c-.167-.166-.7-.4-1.5 0-1 .5-1.5.5-2.5 1.5s-1.5 1-1.5 2.5v3c0 2 0 2 .5 3.5s2.5 4 2 4-1.5.5-2 1-.5 1-1.5 1.5-1.5 1-2 1-1.5.5-2 0-1 0-1.5-.5c-.4-.4-.5-1.5-.5-2z" fill="#FCB317"/><path d="M15 18.465c.552 0 1 .449 1 1h2c0-1.654-1.346-3-3-3s-3 1.346-3 3h2c0-.551.448-1 1-1zm8 0c.552 0 1 .449 1 1h2c0-1.654-1.346-3-3-3s-3 1.346-3 3h2c0-.551.448-1 1-1zm-.212 7.657l.105-.211-1.788-.895-.105.212a2.224 2.224 0 01-2 1.236 2.224 2.224 0 01-2-1.236l-.105-.211-1.79.895.105.21A4.212 4.212 0 0019 28.464a4.212 4.212 0 003.788-2.342zM39 18.465c.552 0 1 .449 1 1h2c0-1.654-1.346-3-3-3s-3 1.346-3 3h2c0-.551.448-1 1-1zm8-2c-1.654 0-3 1.346-3 3h2a1.001 1.001 0 012 0h2c0-1.654-1.346-3-3-3zm-1 6.837a3.16 3.16 0 01-3 2.162 3.158 3.158 0 01-3-2.165l-.051-.154-1.896.637.052.151A5.152 5.152 0 0043 27.463a5.153 5.153 0 004.896-3.527l.052-.154-1.896-.637-.052.157z" fill="#000"/><path d="M57.355 34.833a10.495 10.495 0 00-2.347-1.163A14.576 14.576 0 0058 24.808v-9.343c0-8.271-6.729-15-15-15-4.273 0-8.346 1.862-11.176 5.02-2.146-3.031-5.673-5.02-9.662-5.02h-6.324C9.311.465 4 5.775 4 12.303c0 1.949.291 3.876.836 5.743A3.958 3.958 0 004 20.465c0 2.206 1.794 4 4 4h.426a11.037 11.037 0 005.232 6.608l-.511 2.557-5.233 1.162a10.157 10.157 0 00-5.699 3.553A10.148 10.148 0 000 44.659v10.806c0 3.859 3.141 7 7 7h48.002c3.858 0 6.999-3.14 7-6.998l.004-12.021c.001-3.451-1.712-6.653-4.651-8.613zm2.651 8.612l-.002 5.02H56v-6h-2v12h-2.586l-.855-.855a3.88 3.88 0 00-2.763-1.145c-.648 0-1.264.164-1.812.45a5.022 5.022 0 00-1.748-1.45 1.001 1.001 0 01-.447-1.342l.714-1.427c.325-.65.497-1.378.497-2.107a4.69 4.69 0 00-.791-2.613l-.537-.806A3.982 3.982 0 0143 40.95v-.485a9.938 9.938 0 00-.47-3.023c.156.01.312.023.47.023a6.594 6.594 0 005.481-2.921l4.253.608c1.261.179 2.442.632 3.58 1.39a8.277 8.277 0 013.692 6.903zM21.729 57.049a9.583 9.583 0 011.327-1.037c.269 1.943 1.922 3.45 3.937 3.453.107.357.27.689.464 1h-6.012a3.968 3.968 0 00.555-2c0-.5-.103-.975-.271-1.416zM29 54.202a7.953 7.953 0 002 .263c.692 0 1.359-.097 2-.263v.263c0 1.103-.897 2-2 2s-2-.897-2-2v-.263zm6 .263v-1c1.103 0 2 .897 2 2s-.897 2-2 2a1.97 1.97 0 01-.545-.09l-.564-.16A3.978 3.978 0 0035 54.465zm-4-2c-3.309 0-6-2.691-6-6v-3.23a4.016 4.016 0 012.9-3.845l1.112-.317a6.935 6.935 0 003.975 1.84l2.233.249A2 2 0 0137 43.15v3.314c0 3.309-2.691 6-6 6zm-4 1v1c0 1.067.426 2.032 1.109 2.75l-.564.16a1.97 1.97 0 01-.545.09c-1.103 0-2-.897-2-2s.897-2 2-2zm1.82 4.854l-.009-.513a3.971 3.971 0 004.378 0l-.009.513A2.194 2.194 0 0131 60.465a2.194 2.194 0 01-2.18-2.146zm6.188 1.146c2.015-.004 3.668-1.51 3.937-3.453a9.72 9.72 0 011.327 1.037A3.95 3.95 0 0040 58.465c0 .732.212 1.409.556 2h-6.012c.193-.311.357-.643.464-1zm6.44-4.055a11.67 11.67 0 00-2.998-1.933 4 4 0 00-1.622-1.55A7.962 7.962 0 0039 46.466V43.15a3.998 3.998 0 00-3.559-3.977l-2.233-.248a4.951 4.951 0 01-4.238-3.704l-1.939.486a6.87 6.87 0 00.656 1.663l-.335.096A6.024 6.024 0 0023 43.236v3.229c0 2.113.829 4.03 2.172 5.463a4 4 0 00-1.622 1.549 11.653 11.653 0 00-2.998 1.933A3.964 3.964 0 0018 54.465h-.386c-.039-.07-.086-.132-.128-.198a3.01 3.01 0 011.172-1.013 2.984 2.984 0 001.505-1.734A2.985 2.985 0 0020 49.229l-.714-1.427A2.728 2.728 0 0119 46.589a2.7 2.7 0 01.455-1.504l.537-.806A5.98 5.98 0 0021 40.95v-.486c0-4.411 3.589-8 8-8h4c4.411 0 8 3.589 8 8v.486c0 1.188.349 2.34 1.008 3.328l.537.806A2.7 2.7 0 0143 46.589c0 .419-.099.839-.286 1.213L42 49.229a2.985 2.985 0 00-.163 2.29c.254.76.788 1.377 1.574 1.77.45.225.827.565 1.103.978-.043.067-.09.129-.129.198H44c-.975 0-1.857.364-2.552.945zM28.239 27.413c.189 1.046.492 2.07.903 3.052H29c-1.643 0-3.19.405-4.558 1.11l-.1-.502a11.07 11.07 0 003.897-3.66zM30 21.465v-3c1.103 0 2 .897 2 2s-.897 2-2 2h-.051c.03-.33.051-.662.051-1zm16.923 11.813l-.091.136A4.597 4.597 0 0143 35.464a4.58 4.58 0 01-1.523-.278 10.076 10.076 0 00-2.245-2.528l.429-1.715a10.943 10.943 0 006.678 0l.584 2.335zm-15.562-2.813C30.484 28.71 30 26.773 30 24.808v-.343c.932 0 1.779-.333 2.46-.87a11.048 11.048 0 005.337 6.558l-.343 1.372A9.922 9.922 0 0033 30.465h-1.639zm11.639-1c-4.963 0-9-4.038-9-9V16.51a5.993 5.993 0 013.959-5.643 8.436 8.436 0 005.964 3.032l5.265.329A3.006 3.006 0 0152 17.223v3.242c0 4.962-4.037 9-9 9zm0-27c7.168 0 13 5.832 13 13v9.343a12.59 12.59 0 01-3.154 8.339l-4.04-.576-.604-2.417c3.449-1.86 5.798-5.505 5.798-9.69v-3.241a5.008 5.008 0 00-4.688-4.99l-5.265-.33A6.462 6.462 0 0138 5.466h-2c0 1.32.306 2.573.851 3.69a7.967 7.967 0 00-2.902 2.132 11.711 11.711 0 00-1.06-3.96C35.348 4.283 39.075 2.466 43 2.466zm-35 20c-1.103 0-2-.897-2-2s.897-2 2-2v3c0 .338.021.67.051 1H8zm.027-6H8c-.513 0-1.001.106-1.452.283A18.472 18.472 0 016 12.303c0-5.425 4.413-9.838 9.838-9.838h6.324c5.425 0 9.838 4.413 9.838 9.838 0 1.503-.188 2.992-.548 4.445A3.965 3.965 0 0030 16.465h-.101a5.009 5.009 0 00-4.899-4h-8.513A2.49 2.49 0 0114 9.978c0-1.072.684-2.021 1.699-2.36l.616-.204-.631-1.897-.617.205a4.48 4.48 0 00-3.038 4.775l-.611.364c-1.99 1.185-3.253 3.307-3.391 5.604zm1.973.41c0-1.753.936-3.4 2.441-4.296l.278-.166a4.49 4.49 0 003.768 2.052H25c1.654 0 3 1.346 3 3v4a8.928 8.928 0 01-1.171 4.422l-1.106-2.211a3.976 3.976 0 00-3.577-2.211h-6.291a3.978 3.978 0 00-3.578 2.21l-1.106 2.212A8.928 8.928 0 0110 21.465v-4.59zm2.509 10.808l1.556-3.112a1.988 1.988 0 011.789-1.106h6.291c.763 0 1.448.423 1.789 1.105l1.556 3.112a8.958 8.958 0 01-12.981 0zM19 32.465c1.212 0 2.375-.205 3.467-.568l.172.859a10.07 10.07 0 00-2.306 2.744L19 36.299l-3.881-2.33.415-2.072c1.091.363 2.254.568 3.466.568zm-5.172 3.063l3.424 2.055-2.851 2.28-1.747-4.074 1.174-.261zM2 55.465V44.659c0-1.833.631-3.632 1.777-5.064a8.136 8.136 0 014.571-2.85l2.32-.516 2.93 6.837L19.18 38.6c-.114.605-.18 1.227-.18 1.864v.486c0 .793-.232 1.56-.672 2.219l-.537.806A4.69 4.69 0 0017 46.589c0 .729.172 1.457.497 2.107l.714 1.427c.247.493.046 1.096-.517 1.376a4.842 4.842 0 00-1.68 1.415 3.903 3.903 0 00-1.81-.45 3.88 3.88 0 00-2.763 1.145l-.855.856H8v-12H6v12H4v2h6v4H7c-2.757 0-5-2.243-5-5zm10 5v-4.586l.855-.855c.36-.36.839-.56 1.349-.56.727 0 1.38.405 1.705 1.054l.472.947H18c1.103 0 2 .897 2 2s-.897 2-2 2h-6zm43.002 0H44c-1.103 0-2-.897-2-2s.897-2 2-2h1.619l.472-.945a1.895 1.895 0 011.705-1.055c.51 0 .988.198 1.349.559l1.441 1.44H58v-2h-2v-4h4.004l-.002 5.003a5.006 5.006 0 01-5 4.998z" fill="#000"/><path d="M28 45.465a1 1 0 100-2 1 1 0 000 2zm6 0a1 1 0 100-2 1 1 0 000 2zm-1 1.763a2.224 2.224 0 01-2 1.236 2.224 2.224 0 01-2-1.236l-.105-.211-1.79.895.105.21A4.213 4.213 0 0031 50.465a4.212 4.212 0 003.788-2.342l.106-.211-1.79-.895-.105.212z" fill="#000"/></svg>