<svg width="46" height="70" viewBox="0 0 46 70" fill="none" xmlns="http://www.w3.org/2000/svg"><path d="M23.741 41.566h-1.8a.9.9 0 100 1.8h1.8a.9.9 0 100-1.8zm-3.602-6.3h-3.6a.9.9 0 000 1.8h.9v.9a.9.9 0 001.8 0v-.9h.9a.9.9 0 100-1.8zm9 0h-3.6a.9.9 0 000 1.8h.9v.9a.9.9 0 101.8 0v-.9h.9a.9.9 0 100-1.8zm-4.499 9.898h-3.6a.9.9 0 100 1.8h3.6a.9.9 0 000-1.8z" fill="#000"/><path d="M44.547 65.944l-1.198-3.748a10.94 10.94 0 00-5.696-6.118 10.909 10.909 0 00-3.83-.976.858.858 0 00-.184-.037.817.817 0 00-.113.023c-.156-.007-.31-.023-.466-.023H30.6a11.356 11.356 0 01-.307-5.362c.113-.953.273-1.9.48-2.836a7.612 7.612 0 001.96-4.415c.113.033.23.053.348.059.164 0 .327-.028.483-.08.464-.155 1.874-.625 1.874-6.266a5.68 5.68 0 00-.246-1.8h2.046v-3.6a2.696 2.696 0 00-1.8-2.534v-1.966a9.008 9.008 0 00-8.254-8.962 2.695 2.695 0 00-2.546-1.838h-4.162a2.695 2.695 0 00-2.566 1.902 9.024 9.024 0 00-7.671 8.898v1.966a2.696 2.696 0 00-1.8 2.534v3.6h2.046a5.682 5.682 0 00-.246 1.8c0 5.64 1.41 6.11 1.874 6.266.156.052.319.08.483.08a1.54 1.54 0 00.349-.059 7.61 7.61 0 001.958 4.415c.208.939.369 1.887.48 2.84a11.339 11.339 0 01-.306 5.358h-2.46c-.157 0-.31.016-.466.022a.831.831 0 00-.112-.022.858.858 0 00-.185.037 10.906 10.906 0 00-3.83.976 10.935 10.935 0 00-5.71 6.16L1.13 65.943c-.267.82-.121 1.72.391 2.414a2.672 2.672 0 002.18 1.108h38.272a2.7 2.7 0 002.573-3.521zm-37.008 1.72H3.703a.9.9 0 01-.857-1.173l1.168-3.665a9.121 9.121 0 012.106-3.27 9.278 9.278 0 011.419-1.162v9.27zm3.6 0h-1.8v-10.19a9.105 9.105 0 011.8-.481v10.672zm3.6 0h-1.8v-10.8h1.8v10.8zm18.9-31.5c0 2.819-.393 4.08-.617 4.47a2.794 2.794 0 01-.385-.414c-.052-1.752.12-3.503.514-5.21.092-.073.193-.132.301-.177.156.426.22.88.187 1.332zm-6.3-17.037a7.206 7.206 0 016.3 7.138v1.8h-6.3v-8.938zm-7.763-.962a.9.9 0 01.9-.9h4.163a.9.9 0 01.9.9v9.9h-5.963v-9.9zm-7.537 8.1a7.219 7.219 0 015.737-7.044v8.844h-5.737v-1.8zm-1.8 6.3v-1.8a.9.9 0 01.9-.9h23.4a.9.9 0 01.9.9v1.8h-25.2zm2.8 7.655c-.113.15-.242.29-.384.414-.224-.39-.616-1.651-.616-4.47a3.17 3.17 0 01.186-1.33c.108.045.21.105.302.177.392 1.707.565 3.458.513 5.21zm1.7 2.173c0-.2.007-.398.023-.584.235-2.494.053-5.01-.538-7.444h17.229a22.57 22.57 0 00-.538 7.438c.015.192.024.39.024.59 0 1.743-1.883 4.227-5.303 6.998a4.442 4.442 0 01-5.598-.003c-3.417-2.768-5.3-5.252-5.3-6.995zm7.2 25.272h-5.4v-9.972c.376.434.771.945 1.127 1.405 1.248 1.617 2.64 3.402 4.273 3.912v4.655zm-2.848-9.666a14.357 14.357 0 00-2.249-2.522 13.53 13.53 0 00.33-5.976c-.01-.085-.027-.173-.037-.257.543.504 1.12 1.015 1.769 1.54a6.246 6.246 0 007.867.003 34.573 34.573 0 001.77-1.542c-.01.082-.026.168-.035.25a13.55 13.55 0 00.329 5.982 14.417 14.417 0 00-2.249 2.522c-1.157 1.499-2.598 3.366-3.747 3.366-1.15 0-2.59-1.867-3.748-3.366zm10.047 9.666h-5.4V63.01c1.634-.51 3.025-2.295 4.273-3.912.356-.46.751-.97 1.128-1.405v9.972zm3.6 0h-1.8v-10.8h1.8v10.8zm3.6 0h-1.8V56.993c.615.098 1.219.26 1.8.48v10.192zm5.909-.043a.9.9 0 01-.273.043h-3.836v-9.272c.51.34.986.73 1.419 1.163a9.085 9.085 0 012.09 3.228l1.185 3.707a.9.9 0 01-.585 1.131z" fill="#000"/><path d="M21.375 3.277l.563-2.25.965.965c.803.616 2.522 1.848 2.972 1.848.45 0 .188.375 0 .562L24.75 5.527V8.34h-1.125l-1.688-.563-1.687.563V7.215l-.563-1.688-.562-1.687 2.25-.563z" fill="#FCB317"/><path d="M18.063 3.807c-.15.481-.027 1 .323 1.354l1.133 1.143-.267 1.615c-.083.5.112.995.507 1.292.224.168.485.254.748.254.203 0 .406-.05.595-.153l1.4-.763 1.399.762a1.23 1.23 0 001.342-.101c.396-.298.59-.793.507-1.292l-.268-1.615 1.132-1.144c.35-.354.474-.873.323-1.355a1.28 1.28 0 00-1.03-.899l-1.564-.235-.7-1.469a1.263 1.263 0 00-1.144-.736c-.489 0-.927.282-1.143.737l-.7 1.47-1.564.235a1.28 1.28 0 00-1.029.9zm3.166.261a.71.71 0 00.533-.401l.738-1.55.738 1.55a.71.71 0 00.533.4l1.65.248-1.194 1.206a.75.75 0 00-.203.65l.282 1.702-1.476-.803a.686.686 0 00-.659 0l-1.475.804.282-1.702a.75.75 0 00-.204-.65L19.58 4.317l1.65-.249z" fill="#000"/><path d="M11.375 8.277l.563-2.25.964.965c.804.616 2.523 1.848 2.973 1.848.45 0 .188.375 0 .562l-1.125 1.125v2.813h-1.125l-1.688-.563-1.687.563v-1.125l-.563-1.688-.562-1.687 2.25-.563z" fill="#FCB317"/><path d="M8.063 8.807c-.15.481-.027 1 .323 1.354l1.133 1.143-.267 1.615c-.083.5.112.995.507 1.292a1.235 1.235 0 001.343.101l1.4-.763 1.399.762a1.23 1.23 0 001.342-.101c.396-.298.59-.793.507-1.292l-.268-1.615 1.132-1.145c.35-.353.474-.872.323-1.354a1.28 1.28 0 00-1.03-.899l-1.565-.235-.7-1.469a1.263 1.263 0 00-1.143-.736c-.489 0-.927.282-1.143.737l-.7 1.47-1.564.235a1.28 1.28 0 00-1.029.9zm3.166.261a.71.71 0 00.533-.401l.737-1.55.739 1.55a.71.71 0 00.533.4l1.65.248-1.194 1.206a.75.75 0 00-.203.65l.282 1.702-1.476-.803a.686.686 0 00-.659 0l-1.475.804.282-1.702a.751.751 0 00-.204-.65L9.58 9.317l1.65-.249z" fill="#000"/><path d="M31.375 8.277l.563-2.25.965.965c.803.616 2.522 1.848 2.972 1.848.45 0 .188.375 0 .562l-1.125 1.125v2.813h-1.125l-1.688-.563-1.687.563v-1.125l-.563-1.688-.562-1.687 2.25-.563z" fill="#FCB317"/><path d="M28.063 8.807c-.15.481-.027 1 .323 1.354l1.133 1.143-.267 1.615c-.083.5.112.995.507 1.292.224.168.485.254.748.254.203 0 .406-.05.595-.153l1.4-.763 1.399.762a1.23 1.23 0 001.342-.101c.396-.298.59-.793.507-1.292l-.268-1.615 1.132-1.145c.35-.353.474-.872.323-1.354a1.28 1.28 0 00-1.03-.899l-1.564-.235-.7-1.469a1.263 1.263 0 00-1.144-.736c-.489 0-.927.282-1.143.737l-.7 1.47-1.564.235a1.28 1.28 0 00-1.029.9zm3.166.261a.71.71 0 00.533-.401l.737-1.55.738 1.55a.71.71 0 00.534.4l1.65.248-1.194 1.206a.75.75 0 00-.203.65l.282 1.702-1.476-.803a.686.686 0 00-.659 0l-1.475.804.282-1.702a.751.751 0 00-.204-.65L29.58 9.317l1.65-.249z" fill="#000"/><path d="M3.375 17.277l.563-2.25.964.965c.804.616 2.523 1.848 2.973 1.848.45 0 .188.375 0 .562L6.75 19.527v2.813H5.625l-1.688-.563-1.687.563v-1.125l-.563-1.688-.562-1.687 2.25-.563z" fill="#FCB317"/><path d="M.063 17.807c-.15.482-.027 1 .323 1.354l1.133 1.143-.267 1.615c-.083.5.112.995.507 1.292a1.225 1.225 0 001.343.1l1.4-.762 1.399.762a1.23 1.23 0 001.342-.101c.396-.298.59-.793.507-1.292l-.268-1.615 1.132-1.145c.35-.353.474-.872.323-1.354a1.28 1.28 0 00-1.03-.899l-1.565-.235-.7-1.469a1.263 1.263 0 00-1.143-.736c-.489 0-.927.282-1.143.736l-.7 1.47-1.564.236a1.28 1.28 0 00-1.029.9zm3.166.261a.71.71 0 00.533-.402l.738-1.548.737 1.548a.71.71 0 00.534.401l1.65.248-1.194 1.206a.75.75 0 00-.203.65l.282 1.702-1.476-.803a.686.686 0 00-.659 0l-1.475.804.282-1.702a.75.75 0 00-.204-.65L1.58 18.317l1.65-.249z" fill="#000"/><path d="M40.375 17.277l.563-2.25.965.965c.803.616 2.522 1.848 2.972 1.848.45 0 .188.375 0 .562l-1.125 1.125v2.813h-1.125l-1.688-.563-1.687.563v-1.125l-.563-1.688-.562-1.687 2.25-.563z" fill="#FCB317"/><path d="M37.063 17.807c-.15.482-.027 1 .323 1.354l1.133 1.143-.267 1.615c-.083.5.112.995.507 1.292a1.225 1.225 0 001.343.1l1.4-.762 1.399.762a1.23 1.23 0 001.342-.101c.396-.298.59-.793.507-1.292l-.268-1.615 1.132-1.145c.35-.353.474-.872.323-1.354a1.28 1.28 0 00-1.03-.899l-1.564-.235-.7-1.469a1.263 1.263 0 00-1.144-.736c-.489 0-.927.282-1.143.736l-.7 1.47-1.564.236a1.28 1.28 0 00-1.029.9zm3.166.261a.71.71 0 00.533-.402l.737-1.548.738 1.548a.71.71 0 00.534.401l1.65.248-1.194 1.206a.75.75 0 00-.203.65l.282 1.702-1.476-.803a.686.686 0 00-.659 0l-1.475.804.282-1.702a.751.751 0 00-.204-.65l-1.194-1.205 1.65-.249z" fill="#000"/></svg>