<svg width="58" height="53" viewBox="0 0 58 53" fill="none" xmlns="http://www.w3.org/2000/svg"><path d="M1 20l6.5-4.5V2h6v10l16-10 27 18" stroke="#000" stroke-width="2"/><path d="M17.5 30L14 24c0-.333.5-1 2.5-1 2.5 0 4.5.5 10.5 1.5s9 4.5 12 7c2.4 2 2.333 5.167 2 6.5l-2 4.5-3.5 3.5-6 1.5-5-2L20 40l-2.5-10z" fill="#FCB317"/><path d="M41.944 51.435c-.828-2.45-1.793-4.76-2.966-6.968.034-.035.069-.103.138-.138 2.656-3.001 3.794-7.21 1.76-11.35-1.76-3.587-5.658-6.588-10.764-8.52-4.932-1.897-11.004-2.794-17.282-2.345a.884.884 0 00-.828.931c.035.242.138.483.345.621 3.174 2.725 4.312 6.83 5.485 10.935.69 2.415 1.345 4.795 2.45 7.003 0 .034.034.034.034.069 2.656 5.14 6.726 7.002 10.59 6.761 1.587-.103 3.104-.552 4.519-1.242a13.838 13.838 0 002.242-1.449c1 2.001 1.897 4.07 2.622 6.279.138.448.655.69 1.103.552.483-.207.725-.69.552-1.139zM35.08 38.327c-3.001-3.83-6.727-7.106-11.35-9.694-.413-.241-.965-.103-1.172.345-.242.414-.104.966.345 1.173 4.38 2.484 7.968 5.589 10.831 9.245a42.032 42.032 0 013.105 4.657c-.69.655-1.414 1.173-2.208 1.552-1.207.621-2.483 1-3.829 1.07-3.242.207-6.657-1.38-8.969-5.83v-.035c-1-2.07-1.655-4.38-2.31-6.726-1.07-3.726-2.105-7.451-4.623-10.383 5.312-.138 10.383.724 14.591 2.345 4.692 1.794 8.28 4.485 9.832 7.658 1.621 3.277.793 6.623-1.242 9.073a38.669 38.669 0 00-3.001-4.45z" fill="#000"/></svg>