<svg width="58" height="53" viewBox="0 0 58 53" fill="none" xmlns="http://www.w3.org/2000/svg"><path d="M1 20l6.5-4.5V2h6v10l16-10 27 18" stroke="#000" stroke-width="2"/><path d="M19.466 26.042l-.001.095c-.023 2.2-.848 4.275-2.323 5.844-2.411 2.47-2.467 6.66-.055 9.129a8.294 8.294 0 012.304 5.77v.037a8.291 8.291 0 01-2.359 5.79.97.97 0 01-1.37.019.965.965 0 01-.018-1.368c2.388-2.445 2.407-6.443.042-8.912-3.138-3.213-3.096-8.574.043-11.788 1.141-1.215 1.78-2.828 1.798-4.542.018-1.72-.599-3.309-1.737-4.474a.965.965 0 01.018-1.368.97.97 0 011.37.018c1.477 1.513 2.288 3.552 2.288 5.75z" fill="#000"/><path d="M23.706 51.358c2.412-2.469 2.412-6.486 0-8.956-3.138-3.213-3.138-8.442 0-11.655 2.45-2.508 2.516-6.678.146-9.105a.965.965 0 01.018-1.368.97.97 0 011.37.018c1.479 1.515 2.288 3.55 2.288 5.748 0 .058 0 .115-.002.173-.042 2.232-.906 4.321-2.432 5.883-2.411 2.47-2.411 6.487 0 8.957 3.138 3.213 3.138 8.442 0 11.655a.97.97 0 01-1.37.018.965.965 0 01-.018-1.368z" fill="#FCB317"/><path d="M31.763 51.358c2.41-2.469 2.41-6.486 0-8.956-3.138-3.213-3.138-8.442 0-11.655 2.449-2.508 2.516-6.678.145-9.105a.965.965 0 01.018-1.368.97.97 0 011.37.018c1.48 1.515 2.288 3.55 2.288 5.748l-.001.173c-.043 2.232-.907 4.321-2.432 5.883-2.412 2.47-2.412 6.487 0 8.957 3.138 3.213 3.138 8.442 0 11.655a.97.97 0 01-1.37.018.965.965 0 01-.018-1.368z" fill="#000"/><path d="M39.825 51.358c2.412-2.469 2.411-6.486 0-8.956-3.138-3.213-3.138-8.442 0-11.655 2.45-2.508 2.516-6.678.146-9.105a.965.965 0 01.018-1.368.97.97 0 011.37.018c1.48 1.515 2.288 3.55 2.288 5.749 0 .057 0 .114-.002.172-.043 2.232-.906 4.321-2.432 5.883-2.411 2.47-2.411 6.487 0 8.957 3.138 3.213 3.138 8.442 0 11.655a.97.97 0 01-1.37.018.965.965 0 01-.018-1.368z" fill="#FCB317"/></svg>