<svg width="53" height="62" viewBox="0 0 53 62" fill="none" xmlns="http://www.w3.org/2000/svg"><path clip-rule="evenodd" d="M52 38.853S47.621 53.84 26.709 60.048v.066l-.105-.033c-.035.01-.069.022-.104.033v-.066C5.415 53.84 1 38.853 1 38.853V8.778l25.5-7.715V1l.104.032L26.71 1v.064L52 8.778v30.075z" stroke="#000" stroke-width="2" stroke-linejoin="round"/><path fill-rule="evenodd" clip-rule="evenodd" d="M43.435 22.214l-3.828-3.827L23.664 34.33 14.1 24.766l-3.827 3.828L23.669 41.99l3.828-3.828-.005-.005 15.943-15.944z" fill="#FCB317"/><path d="M39.607 18.387l.708-.707-.708-.707-.707.707.707.707zm3.828 3.827l.707.708.707-.708-.707-.707-.707.707zM23.665 34.33l-.708.707.707.707.707-.707-.707-.707zM14.1 24.766l.707-.707-.707-.707-.707.707.707.707zm-3.827 3.828l-.708-.707-.707.707.707.707.708-.707zM23.669 41.99l-.707.707.707.707.707-.707-.707-.707zm3.828-3.828l.707.707.707-.707-.707-.707-.707.707zm-.005-.005l-.707-.707-.707.707.707.707.707-.707zM38.9 19.094l3.828 3.828 1.414-1.415-3.828-3.827-1.414 1.414zM24.371 35.037l15.944-15.943L38.9 17.68 22.957 33.623l1.414 1.414zm-10.978-9.564l9.564 9.564 1.414-1.414-9.564-9.564-1.414 1.414zm-2.413 3.828l3.827-3.828-1.414-1.414-3.828 3.828L10.98 29.3zm13.396 11.983L10.98 27.887 9.565 29.3l13.397 13.397 1.415-1.414zm2.414-3.828l-3.828 3.828 1.415 1.414 3.827-3.828-1.414-1.414zm-.005 1.409l.005.005 1.414-1.414-.005-.005-1.414 1.414zm15.943-17.358L26.785 37.451l1.414 1.414L44.142 22.92l-1.414-1.414z" fill="#000"/></svg>