<svg width="58" height="59" viewBox="0 0 58 59" fill="none" xmlns="http://www.w3.org/2000/svg"><path fill-rule="evenodd" clip-rule="evenodd" d="M35.613 32.783L33 34.333v1.95l4.265-2.52 7.104 4.148.028 10.059c0 .448.358.84.826.84a.766.766 0 00.413-.112.839.839 0 00.413-.728l-.028-9.107 3.8 2.214v4.483c0 .448.358.84.826.84.138 0 .303-.055.413-.111a.839.839 0 00.413-.729v-3.53l5.011 2.914c.276.168.579.14.827 0 .11-.084.22-.169.303-.309.22-.392.082-.896-.303-1.148l-5.012-2.915 3.002-1.765c.385-.224.523-.728.302-1.149a.828.828 0 00-1.129-.308l-3.827 2.27-3.8-2.214 7.738-4.567c.385-.224.523-.728.303-1.149a.828.828 0 00-1.13-.308l-8.563 5.044-7.104-4.147v-5.016l7.076-4.175 8.564 5.016c.275.14.578.14.826 0 .11-.084.22-.168.303-.309.22-.392.083-.896-.303-1.148l-7.765-4.512 3.8-2.241 3.827 2.241c.276.14.579.14.827 0 .11-.084.22-.168.302-.308.22-.392.083-.896-.303-1.149l-3-1.765 4.956-2.942c.385-.224.523-.729.302-1.149-.248-.364-.743-.504-1.129-.28l-4.983 2.942v-3.53a.836.836 0 00-.827-.841.819.819 0 00-.826.84v4.512l-3.8 2.241-.027-9.106a.836.836 0 00-.826-.84.836.836 0 00-.826.84l.027 10.06-7.076 4.174-4.21-2.46v1.918l2.613 1.523.826.476v5.016l-.826.476zM33 58.989V37.233l.024 7.374 8.564 5.016c.385.252.523.757.303 1.149-.083.14-.193.224-.303.308a.795.795 0 01-.826 0l-7.738-4.54v4.456l3.828 2.241c.385.253.523.757.303 1.15-.083.14-.193.224-.303.307a.795.795 0 01-.826 0l-3.002-1.765v5.856c0 .07-.008.139-.024.204zm8.478-49.014L33 14.968V13.05l7.652-4.532a.835.835 0 011.129.308c.22.42.082.925-.303 1.149zm-4.709-3.587L33 8.596V6.662l2.943-1.73a.828.828 0 011.13.307c.22.42.082.925-.304 1.15z" fill="#000"/><path d="M15 30c-.8-9.2 7.334-13.5 11.5-14.5l.5 29c-3.667-1-11.2-5.3-12-14.5z" fill="#FCB317" stroke="#000"/><path fill-rule="evenodd" clip-rule="evenodd" d="M28 13.928c-8.04.82-14.314 7.612-14.315 15.87 0 4.233 1.68 8.293 4.675 11.286A15.901 15.901 0 0028 45.673v-2.165a13.728 13.728 0 01-8.111-3.941 13.787 13.787 0 01-4.038-9.767 13.74 13.74 0 014.038-9.75v.019A13.728 13.728 0 0128 16.128v-2.2zm0 6.363c-4.548.778-8.01 4.74-8.01 9.509 0 .6.488 1.087 1.088 1.087a1.087 1.087 0 001.081-1.087A7.476 7.476 0 0128 22.5v-2.21zM5.385 14.549l5.281 3.053a1.082 1.082 0 01-1.087 1.87l-5.28-3.053a1.082 1.082 0 011.086-1.87zM16.257 4.46l3.047 5.282a1.082 1.082 0 01-1.87 1.087l-3.046-5.281a1.081 1.081 0 011.87-1.087zm-8.99 24.26a1.081 1.081 0 00-.161 0h-6.1a1.087 1.087 0 000 2.168h6.1a1.087 1.087 0 10.16-2.168zm11.652 19.66a1.082 1.082 0 00-1.479.39l-3.052 5.282a1.081 1.081 0 001.87 1.087l3.052-5.28c.3-.517.125-1.18-.391-1.48zm-9.34-8.253a1.082 1.082 0 011.087 1.87l-5.28 3.052a1.081 1.081 0 01-1.088-1.87l5.28-3.052z" fill="#000"/><path d="M26 0h2v59h-2V0zm5 0h2v59h-2V0z" fill="#000"/></svg>