<svg width="48" height="60" viewBox="0 0 48 60" fill="none" xmlns="http://www.w3.org/2000/svg"><path d="M26.64 35h5.5v3c0 1 2.5 2 3.5 3 .8.8 1.667 2.667 2 3.5.167 1.5.4 4.5 0 4.5s-1.5 2.333-2 3.5l-4.5 2.5h-5l-2-2-3-4v-4.5l3-4.5 2-2 .5-3z" fill="#FCB317"/><path d="M46.198 19.621h-5.1a.88.88 0 000 1.758h5.1a.88.88 0 000-1.758zm-5.099-5.363h2.315a.879.879 0 100-1.758h-2.315a.879.879 0 100 1.758zm0-7.125h3.135a.879.879 0 100-1.758H41.1a.88.88 0 000 1.758zm3.135 26.734H41.1a.879.879 0 100 1.758h3.135a.88.88 0 000-1.758zm-3.135-5.363h2.315a.879.879 0 100-1.758h-2.315a.88.88 0 000 1.758zM14.896 19.08c1.453.776 1.541.952 1.928.952.904 0 1.216-1.206.43-1.646l-1.5-.84 1.103-.452a.88.88 0 00-.666-1.627l-2.396.982-3.144-1.76 3.144-1.761c2.464.986 2.426 1.047 2.729 1.047.96 0 1.222-1.328.333-1.692l-1.103-.452 1.5-.84a.879.879 0 10-.859-1.534l-1.5.84.192-1.177a.88.88 0 00-1.735-.282l-.416 2.556-3.205 1.795V9.515l2.027-1.61a.88.88 0 00-1.094-1.377l-.933.742V5.55a.879.879 0 10-1.758 0v1.72l-.933-.742a.879.879 0 10-1.094 1.376l2.027 1.611v3.674l-3.205-1.795-.416-2.556a.879.879 0 10-1.735.282l.191 1.177-1.5-.84a.879.879 0 00-.858 1.534l1.5.84-1.104.452a.88.88 0 00.667 1.627l2.396-.982 3.144 1.76-3.144 1.76-2.396-.98a.88.88 0 00-.667 1.626l1.104.452-1.5.84c-.786.44-.474 1.646.43 1.646.387 0 .475-.177 1.928-.953l-.19 1.177a.88.88 0 001.734.282l.416-2.555 3.205-1.795v3.673l-2.027 1.612a.878.878 0 101.094 1.376l.933-.742v1.72a.88.88 0 001.758 0v-1.72c.811.588.986.933 1.48.933.828 0 1.198-1.05.547-1.567L9.73 19.86v-3.673l3.205 1.795.416 2.555a.88.88 0 001.735-.282l-.191-1.177z" fill="#000"/><path d="M37.283 36.305V7.95c0-4.384-3.566-7.95-7.95-7.95-4.383 0-7.95 3.566-7.95 7.95v28.355a13.206 13.206 0 00-5.23 10.514c0 7.268 5.912 13.181 13.18 13.181s13.181-5.913 13.181-13.18c0-4.132-1.947-8.027-5.231-10.515zm-7.95 21.937c-6.299 0-11.423-5.124-11.423-11.423 0-3.713 1.816-7.208 4.858-9.348a.88.88 0 00.373-.72V7.95a6.2 6.2 0 016.192-6.192 6.199 6.199 0 016.192 6.192v28.802c0 .286.14.554.373.719a11.445 11.445 0 014.858 9.348c0 6.299-5.124 11.423-11.423 11.423z" fill="#000"/><path d="M33.181 38.046V7.95a3.851 3.851 0 00-3.847-3.847 3.852 3.852 0 00-3.848 3.847v2.722a.88.88 0 001.758 0V7.949c0-1.152.938-2.09 2.09-2.09s2.09.938 2.09 2.09v26.045h-4.18v-19.8a.879.879 0 10-1.758 0v23.852a9.419 9.419 0 00-5.527 8.549c0 5.17 4.206 9.375 9.375 9.375 5.17 0 9.375-4.206 9.375-9.375a9.418 9.418 0 00-5.528-8.549zm-3.847 16.166c-4.2 0-7.617-3.417-7.617-7.617a7.647 7.647 0 014.956-7.137.88.88 0 00.572-.823v-2.883h4.178v2.883a.88.88 0 00.572.823 7.647 7.647 0 014.956 7.137c0 4.2-3.417 7.617-7.617 7.617z" fill="#000"/></svg>